G04 #@! TF.GenerationSoftware,KiCad,Pcbnew,(5.1.2)-1*
G04 #@! TF.CreationDate,2020-12-24T11:55:47-05:00*
G04 #@! TF.ProjectId,Glove PCB,476c6f76-6520-4504-9342-2e6b69636164,rev?*
G04 #@! TF.SameCoordinates,PX1312d00PYb80f240*
G04 #@! TF.FileFunction,Soldermask,Top*
G04 #@! TF.FilePolarity,Negative*
%FSLAX46Y46*%
G04 Gerber Fmt 4.6, Leading zero omitted, Abs format (unit mm)*
G04 Created by KiCad (PCBNEW (5.1.2)-1) date 2020-12-24 11:55:47*
%MOMM*%
%LPD*%
G04 APERTURE LIST*
%ADD10C,0.100000*%
G04 APERTURE END LIST*
D10*
G36*
X35479300Y1261900D02*
G01*
X34477300Y1261900D01*
X34477300Y2563900D01*
X35479300Y2563900D01*
X35479300Y1261900D01*
X35479300Y1261900D01*
G37*
G36*
X33701300Y1345900D02*
G01*
X32699300Y1345900D01*
X32699300Y2647900D01*
X33701300Y2647900D01*
X33701300Y1345900D01*
X33701300Y1345900D01*
G37*
G36*
X40714842Y3445282D02*
G01*
X40781027Y3438763D01*
X40950866Y3387243D01*
X41107391Y3303578D01*
X41143129Y3274248D01*
X41244586Y3190986D01*
X41327848Y3089529D01*
X41357178Y3053791D01*
X41440843Y2897266D01*
X41492363Y2727427D01*
X41509759Y2550800D01*
X41492363Y2374173D01*
X41440843Y2204334D01*
X41357178Y2047809D01*
X41327848Y2012071D01*
X41244586Y1910614D01*
X41143129Y1827352D01*
X41107391Y1798022D01*
X40950866Y1714357D01*
X40781027Y1662837D01*
X40714842Y1656318D01*
X40648660Y1649800D01*
X40560140Y1649800D01*
X40493958Y1656318D01*
X40427773Y1662837D01*
X40257934Y1714357D01*
X40101409Y1798022D01*
X40065671Y1827352D01*
X39964214Y1910614D01*
X39880952Y2012071D01*
X39851622Y2047809D01*
X39767957Y2204334D01*
X39716437Y2374173D01*
X39699041Y2550800D01*
X39716437Y2727427D01*
X39767957Y2897266D01*
X39851622Y3053791D01*
X39880952Y3089529D01*
X39964214Y3190986D01*
X40065671Y3274248D01*
X40101409Y3303578D01*
X40257934Y3387243D01*
X40427773Y3438763D01*
X40493958Y3445282D01*
X40560140Y3451800D01*
X40648660Y3451800D01*
X40714842Y3445282D01*
X40714842Y3445282D01*
G37*
G36*
X43254842Y3445282D02*
G01*
X43321027Y3438763D01*
X43490866Y3387243D01*
X43647391Y3303578D01*
X43683129Y3274248D01*
X43784586Y3190986D01*
X43867848Y3089529D01*
X43897178Y3053791D01*
X43980843Y2897266D01*
X44032363Y2727427D01*
X44049759Y2550800D01*
X44032363Y2374173D01*
X43980843Y2204334D01*
X43897178Y2047809D01*
X43867848Y2012071D01*
X43784586Y1910614D01*
X43683129Y1827352D01*
X43647391Y1798022D01*
X43490866Y1714357D01*
X43321027Y1662837D01*
X43254842Y1656318D01*
X43188660Y1649800D01*
X43100140Y1649800D01*
X43033958Y1656318D01*
X42967773Y1662837D01*
X42797934Y1714357D01*
X42641409Y1798022D01*
X42605671Y1827352D01*
X42504214Y1910614D01*
X42420952Y2012071D01*
X42391622Y2047809D01*
X42307957Y2204334D01*
X42256437Y2374173D01*
X42239041Y2550800D01*
X42256437Y2727427D01*
X42307957Y2897266D01*
X42391622Y3053791D01*
X42420952Y3089529D01*
X42504214Y3190986D01*
X42605671Y3274248D01*
X42641409Y3303578D01*
X42797934Y3387243D01*
X42967773Y3438763D01*
X43033958Y3445282D01*
X43100140Y3451800D01*
X43188660Y3451800D01*
X43254842Y3445282D01*
X43254842Y3445282D01*
G37*
G36*
X35479300Y3461900D02*
G01*
X34477300Y3461900D01*
X34477300Y4763900D01*
X35479300Y4763900D01*
X35479300Y3461900D01*
X35479300Y3461900D01*
G37*
G36*
X33701300Y3545900D02*
G01*
X32699300Y3545900D01*
X32699300Y4847900D01*
X33701300Y4847900D01*
X33701300Y3545900D01*
X33701300Y3545900D01*
G37*
G36*
X40714843Y5985281D02*
G01*
X40781027Y5978763D01*
X40950866Y5927243D01*
X41107391Y5843578D01*
X41143129Y5814248D01*
X41244586Y5730986D01*
X41327848Y5629529D01*
X41357178Y5593791D01*
X41440843Y5437266D01*
X41492363Y5267427D01*
X41509759Y5090800D01*
X41492363Y4914173D01*
X41440843Y4744334D01*
X41357178Y4587809D01*
X41327848Y4552071D01*
X41244586Y4450614D01*
X41143129Y4367352D01*
X41107391Y4338022D01*
X40950866Y4254357D01*
X40781027Y4202837D01*
X40714843Y4196319D01*
X40648660Y4189800D01*
X40560140Y4189800D01*
X40493957Y4196319D01*
X40427773Y4202837D01*
X40257934Y4254357D01*
X40101409Y4338022D01*
X40065671Y4367352D01*
X39964214Y4450614D01*
X39880952Y4552071D01*
X39851622Y4587809D01*
X39767957Y4744334D01*
X39716437Y4914173D01*
X39699041Y5090800D01*
X39716437Y5267427D01*
X39767957Y5437266D01*
X39851622Y5593791D01*
X39880952Y5629529D01*
X39964214Y5730986D01*
X40065671Y5814248D01*
X40101409Y5843578D01*
X40257934Y5927243D01*
X40427773Y5978763D01*
X40493957Y5985281D01*
X40560140Y5991800D01*
X40648660Y5991800D01*
X40714843Y5985281D01*
X40714843Y5985281D01*
G37*
G36*
X43254843Y5985281D02*
G01*
X43321027Y5978763D01*
X43490866Y5927243D01*
X43647391Y5843578D01*
X43683129Y5814248D01*
X43784586Y5730986D01*
X43867848Y5629529D01*
X43897178Y5593791D01*
X43980843Y5437266D01*
X44032363Y5267427D01*
X44049759Y5090800D01*
X44032363Y4914173D01*
X43980843Y4744334D01*
X43897178Y4587809D01*
X43867848Y4552071D01*
X43784586Y4450614D01*
X43683129Y4367352D01*
X43647391Y4338022D01*
X43490866Y4254357D01*
X43321027Y4202837D01*
X43254843Y4196319D01*
X43188660Y4189800D01*
X43100140Y4189800D01*
X43033957Y4196319D01*
X42967773Y4202837D01*
X42797934Y4254357D01*
X42641409Y4338022D01*
X42605671Y4367352D01*
X42504214Y4450614D01*
X42420952Y4552071D01*
X42391622Y4587809D01*
X42307957Y4744334D01*
X42256437Y4914173D01*
X42239041Y5090800D01*
X42256437Y5267427D01*
X42307957Y5437266D01*
X42391622Y5593791D01*
X42420952Y5629529D01*
X42504214Y5730986D01*
X42605671Y5814248D01*
X42641409Y5843578D01*
X42797934Y5927243D01*
X42967773Y5978763D01*
X43033957Y5985281D01*
X43100140Y5991800D01*
X43188660Y5991800D01*
X43254843Y5985281D01*
X43254843Y5985281D01*
G37*
G36*
X35479300Y5102400D02*
G01*
X34477300Y5102400D01*
X34477300Y6404400D01*
X35479300Y6404400D01*
X35479300Y5102400D01*
X35479300Y5102400D01*
G37*
G36*
X33701300Y5102400D02*
G01*
X32699300Y5102400D01*
X32699300Y6404400D01*
X33701300Y6404400D01*
X33701300Y5102400D01*
X33701300Y5102400D01*
G37*
G36*
X40714843Y8525281D02*
G01*
X40781027Y8518763D01*
X40950866Y8467243D01*
X41107391Y8383578D01*
X41143129Y8354248D01*
X41244586Y8270986D01*
X41327848Y8169529D01*
X41357178Y8133791D01*
X41440843Y7977266D01*
X41492363Y7807427D01*
X41509759Y7630800D01*
X41492363Y7454173D01*
X41440843Y7284334D01*
X41357178Y7127809D01*
X41345273Y7113303D01*
X41244586Y6990614D01*
X41143129Y6907352D01*
X41107391Y6878022D01*
X40950866Y6794357D01*
X40781027Y6742837D01*
X40714843Y6736319D01*
X40648660Y6729800D01*
X40560140Y6729800D01*
X40493957Y6736319D01*
X40427773Y6742837D01*
X40257934Y6794357D01*
X40101409Y6878022D01*
X40065671Y6907352D01*
X39964214Y6990614D01*
X39863527Y7113303D01*
X39851622Y7127809D01*
X39767957Y7284334D01*
X39716437Y7454173D01*
X39699041Y7630800D01*
X39716437Y7807427D01*
X39767957Y7977266D01*
X39851622Y8133791D01*
X39880952Y8169529D01*
X39964214Y8270986D01*
X40065671Y8354248D01*
X40101409Y8383578D01*
X40257934Y8467243D01*
X40427773Y8518763D01*
X40493957Y8525281D01*
X40560140Y8531800D01*
X40648660Y8531800D01*
X40714843Y8525281D01*
X40714843Y8525281D01*
G37*
G36*
X43254843Y8525281D02*
G01*
X43321027Y8518763D01*
X43490866Y8467243D01*
X43647391Y8383578D01*
X43683129Y8354248D01*
X43784586Y8270986D01*
X43867848Y8169529D01*
X43897178Y8133791D01*
X43980843Y7977266D01*
X44032363Y7807427D01*
X44049759Y7630800D01*
X44032363Y7454173D01*
X43980843Y7284334D01*
X43897178Y7127809D01*
X43885273Y7113303D01*
X43784586Y6990614D01*
X43683129Y6907352D01*
X43647391Y6878022D01*
X43490866Y6794357D01*
X43321027Y6742837D01*
X43254843Y6736319D01*
X43188660Y6729800D01*
X43100140Y6729800D01*
X43033957Y6736319D01*
X42967773Y6742837D01*
X42797934Y6794357D01*
X42641409Y6878022D01*
X42605671Y6907352D01*
X42504214Y6990614D01*
X42403527Y7113303D01*
X42391622Y7127809D01*
X42307957Y7284334D01*
X42256437Y7454173D01*
X42239041Y7630800D01*
X42256437Y7807427D01*
X42307957Y7977266D01*
X42391622Y8133791D01*
X42420952Y8169529D01*
X42504214Y8270986D01*
X42605671Y8354248D01*
X42641409Y8383578D01*
X42797934Y8467243D01*
X42967773Y8518763D01*
X43033957Y8525281D01*
X43100140Y8531800D01*
X43188660Y8531800D01*
X43254843Y8525281D01*
X43254843Y8525281D01*
G37*
G36*
X29370425Y8579401D02*
G01*
X29494621Y8554698D01*
X29631022Y8498199D01*
X29753779Y8416175D01*
X29858175Y8311779D01*
X29940199Y8189022D01*
X29996698Y8052621D01*
X30025500Y7907819D01*
X30025500Y7760181D01*
X29996698Y7615379D01*
X29940199Y7478978D01*
X29858175Y7356221D01*
X29753779Y7251825D01*
X29631022Y7169801D01*
X29494621Y7113302D01*
X29370425Y7088599D01*
X29349820Y7084500D01*
X29202180Y7084500D01*
X29181575Y7088599D01*
X29057379Y7113302D01*
X28920978Y7169801D01*
X28798221Y7251825D01*
X28693825Y7356221D01*
X28611801Y7478978D01*
X28555302Y7615379D01*
X28526500Y7760181D01*
X28526500Y7907819D01*
X28555302Y8052621D01*
X28611801Y8189022D01*
X28693825Y8311779D01*
X28798221Y8416175D01*
X28920978Y8498199D01*
X29057379Y8554698D01*
X29181575Y8579401D01*
X29202180Y8583500D01*
X29349820Y8583500D01*
X29370425Y8579401D01*
X29370425Y8579401D01*
G37*
G36*
X26870425Y8579401D02*
G01*
X26994621Y8554698D01*
X27131022Y8498199D01*
X27253779Y8416175D01*
X27358175Y8311779D01*
X27440199Y8189022D01*
X27496698Y8052621D01*
X27525500Y7907819D01*
X27525500Y7760181D01*
X27496698Y7615379D01*
X27440199Y7478978D01*
X27358175Y7356221D01*
X27253779Y7251825D01*
X27131022Y7169801D01*
X26994621Y7113302D01*
X26870425Y7088599D01*
X26849820Y7084500D01*
X26702180Y7084500D01*
X26681575Y7088599D01*
X26557379Y7113302D01*
X26420978Y7169801D01*
X26298221Y7251825D01*
X26193825Y7356221D01*
X26111801Y7478978D01*
X26055302Y7615379D01*
X26026500Y7760181D01*
X26026500Y7907819D01*
X26055302Y8052621D01*
X26111801Y8189022D01*
X26193825Y8311779D01*
X26298221Y8416175D01*
X26420978Y8498199D01*
X26557379Y8554698D01*
X26681575Y8579401D01*
X26702180Y8583500D01*
X26849820Y8583500D01*
X26870425Y8579401D01*
X26870425Y8579401D01*
G37*
G36*
X3328425Y8579401D02*
G01*
X3452621Y8554698D01*
X3589022Y8498199D01*
X3711779Y8416175D01*
X3816175Y8311779D01*
X3898199Y8189022D01*
X3954698Y8052621D01*
X3983500Y7907819D01*
X3983500Y7760181D01*
X3954698Y7615379D01*
X3898199Y7478978D01*
X3816175Y7356221D01*
X3711779Y7251825D01*
X3589022Y7169801D01*
X3452621Y7113302D01*
X3328425Y7088599D01*
X3307820Y7084500D01*
X3160180Y7084500D01*
X3139575Y7088599D01*
X3015379Y7113302D01*
X2878978Y7169801D01*
X2756221Y7251825D01*
X2651825Y7356221D01*
X2569801Y7478978D01*
X2513302Y7615379D01*
X2484500Y7760181D01*
X2484500Y7907819D01*
X2513302Y8052621D01*
X2569801Y8189022D01*
X2651825Y8311779D01*
X2756221Y8416175D01*
X2878978Y8498199D01*
X3015379Y8554698D01*
X3139575Y8579401D01*
X3160180Y8583500D01*
X3307820Y8583500D01*
X3328425Y8579401D01*
X3328425Y8579401D01*
G37*
G36*
X5828425Y8579401D02*
G01*
X5952621Y8554698D01*
X6089022Y8498199D01*
X6211779Y8416175D01*
X6316175Y8311779D01*
X6398199Y8189022D01*
X6454698Y8052621D01*
X6483500Y7907819D01*
X6483500Y7760181D01*
X6454698Y7615379D01*
X6398199Y7478978D01*
X6316175Y7356221D01*
X6211779Y7251825D01*
X6089022Y7169801D01*
X5952621Y7113302D01*
X5828425Y7088599D01*
X5807820Y7084500D01*
X5660180Y7084500D01*
X5639575Y7088599D01*
X5515379Y7113302D01*
X5378978Y7169801D01*
X5256221Y7251825D01*
X5151825Y7356221D01*
X5069801Y7478978D01*
X5013302Y7615379D01*
X4984500Y7760181D01*
X4984500Y7907819D01*
X5013302Y8052621D01*
X5069801Y8189022D01*
X5151825Y8311779D01*
X5256221Y8416175D01*
X5378978Y8498199D01*
X5515379Y8554698D01*
X5639575Y8579401D01*
X5660180Y8583500D01*
X5807820Y8583500D01*
X5828425Y8579401D01*
X5828425Y8579401D01*
G37*
G36*
X8328425Y8579401D02*
G01*
X8452621Y8554698D01*
X8589022Y8498199D01*
X8711779Y8416175D01*
X8816175Y8311779D01*
X8898199Y8189022D01*
X8954698Y8052621D01*
X8983500Y7907819D01*
X8983500Y7760181D01*
X8954698Y7615379D01*
X8898199Y7478978D01*
X8816175Y7356221D01*
X8711779Y7251825D01*
X8589022Y7169801D01*
X8452621Y7113302D01*
X8328425Y7088599D01*
X8307820Y7084500D01*
X8160180Y7084500D01*
X8139575Y7088599D01*
X8015379Y7113302D01*
X7878978Y7169801D01*
X7756221Y7251825D01*
X7651825Y7356221D01*
X7569801Y7478978D01*
X7513302Y7615379D01*
X7484500Y7760181D01*
X7484500Y7907819D01*
X7513302Y8052621D01*
X7569801Y8189022D01*
X7651825Y8311779D01*
X7756221Y8416175D01*
X7878978Y8498199D01*
X8015379Y8554698D01*
X8139575Y8579401D01*
X8160180Y8583500D01*
X8307820Y8583500D01*
X8328425Y8579401D01*
X8328425Y8579401D01*
G37*
G36*
X16870425Y8579401D02*
G01*
X16994621Y8554698D01*
X17131022Y8498199D01*
X17253779Y8416175D01*
X17358175Y8311779D01*
X17440199Y8189022D01*
X17496698Y8052621D01*
X17525500Y7907819D01*
X17525500Y7760181D01*
X17496698Y7615379D01*
X17440199Y7478978D01*
X17358175Y7356221D01*
X17253779Y7251825D01*
X17131022Y7169801D01*
X16994621Y7113302D01*
X16870425Y7088599D01*
X16849820Y7084500D01*
X16702180Y7084500D01*
X16681575Y7088599D01*
X16557379Y7113302D01*
X16420978Y7169801D01*
X16298221Y7251825D01*
X16193825Y7356221D01*
X16111801Y7478978D01*
X16055302Y7615379D01*
X16026500Y7760181D01*
X16026500Y7907819D01*
X16055302Y8052621D01*
X16111801Y8189022D01*
X16193825Y8311779D01*
X16298221Y8416175D01*
X16420978Y8498199D01*
X16557379Y8554698D01*
X16681575Y8579401D01*
X16702180Y8583500D01*
X16849820Y8583500D01*
X16870425Y8579401D01*
X16870425Y8579401D01*
G37*
G36*
X19370425Y8579401D02*
G01*
X19494621Y8554698D01*
X19631022Y8498199D01*
X19753779Y8416175D01*
X19858175Y8311779D01*
X19940199Y8189022D01*
X19996698Y8052621D01*
X20025500Y7907819D01*
X20025500Y7760181D01*
X19996698Y7615379D01*
X19940199Y7478978D01*
X19858175Y7356221D01*
X19753779Y7251825D01*
X19631022Y7169801D01*
X19494621Y7113302D01*
X19370425Y7088599D01*
X19349820Y7084500D01*
X19202180Y7084500D01*
X19181575Y7088599D01*
X19057379Y7113302D01*
X18920978Y7169801D01*
X18798221Y7251825D01*
X18693825Y7356221D01*
X18611801Y7478978D01*
X18555302Y7615379D01*
X18526500Y7760181D01*
X18526500Y7907819D01*
X18555302Y8052621D01*
X18611801Y8189022D01*
X18693825Y8311779D01*
X18798221Y8416175D01*
X18920978Y8498199D01*
X19057379Y8554698D01*
X19181575Y8579401D01*
X19202180Y8583500D01*
X19349820Y8583500D01*
X19370425Y8579401D01*
X19370425Y8579401D01*
G37*
G36*
X21870425Y8579401D02*
G01*
X21994621Y8554698D01*
X22131022Y8498199D01*
X22253779Y8416175D01*
X22358175Y8311779D01*
X22440199Y8189022D01*
X22496698Y8052621D01*
X22525500Y7907819D01*
X22525500Y7760181D01*
X22496698Y7615379D01*
X22440199Y7478978D01*
X22358175Y7356221D01*
X22253779Y7251825D01*
X22131022Y7169801D01*
X21994621Y7113302D01*
X21870425Y7088599D01*
X21849820Y7084500D01*
X21702180Y7084500D01*
X21681575Y7088599D01*
X21557379Y7113302D01*
X21420978Y7169801D01*
X21298221Y7251825D01*
X21193825Y7356221D01*
X21111801Y7478978D01*
X21055302Y7615379D01*
X21026500Y7760181D01*
X21026500Y7907819D01*
X21055302Y8052621D01*
X21111801Y8189022D01*
X21193825Y8311779D01*
X21298221Y8416175D01*
X21420978Y8498199D01*
X21557379Y8554698D01*
X21681575Y8579401D01*
X21702180Y8583500D01*
X21849820Y8583500D01*
X21870425Y8579401D01*
X21870425Y8579401D01*
G37*
G36*
X24370425Y8579401D02*
G01*
X24494621Y8554698D01*
X24631022Y8498199D01*
X24753779Y8416175D01*
X24858175Y8311779D01*
X24940199Y8189022D01*
X24996698Y8052621D01*
X25025500Y7907819D01*
X25025500Y7760181D01*
X24996698Y7615379D01*
X24940199Y7478978D01*
X24858175Y7356221D01*
X24753779Y7251825D01*
X24631022Y7169801D01*
X24494621Y7113302D01*
X24370425Y7088599D01*
X24349820Y7084500D01*
X24202180Y7084500D01*
X24181575Y7088599D01*
X24057379Y7113302D01*
X23920978Y7169801D01*
X23798221Y7251825D01*
X23693825Y7356221D01*
X23611801Y7478978D01*
X23555302Y7615379D01*
X23526500Y7760181D01*
X23526500Y7907819D01*
X23555302Y8052621D01*
X23611801Y8189022D01*
X23693825Y8311779D01*
X23798221Y8416175D01*
X23920978Y8498199D01*
X24057379Y8554698D01*
X24181575Y8579401D01*
X24202180Y8583500D01*
X24349820Y8583500D01*
X24370425Y8579401D01*
X24370425Y8579401D01*
G37*
G36*
X10828425Y8579401D02*
G01*
X10952621Y8554698D01*
X11089022Y8498199D01*
X11211779Y8416175D01*
X11316175Y8311779D01*
X11398199Y8189022D01*
X11454698Y8052621D01*
X11483500Y7907819D01*
X11483500Y7760181D01*
X11454698Y7615379D01*
X11398199Y7478978D01*
X11316175Y7356221D01*
X11211779Y7251825D01*
X11089022Y7169801D01*
X10952621Y7113302D01*
X10828425Y7088599D01*
X10807820Y7084500D01*
X10660180Y7084500D01*
X10639575Y7088599D01*
X10515379Y7113302D01*
X10378978Y7169801D01*
X10256221Y7251825D01*
X10151825Y7356221D01*
X10069801Y7478978D01*
X10013302Y7615379D01*
X9984500Y7760181D01*
X9984500Y7907819D01*
X10013302Y8052621D01*
X10069801Y8189022D01*
X10151825Y8311779D01*
X10256221Y8416175D01*
X10378978Y8498199D01*
X10515379Y8554698D01*
X10639575Y8579401D01*
X10660180Y8583500D01*
X10807820Y8583500D01*
X10828425Y8579401D01*
X10828425Y8579401D01*
G37*
G36*
X33701300Y7302400D02*
G01*
X32699300Y7302400D01*
X32699300Y8604400D01*
X33701300Y8604400D01*
X33701300Y7302400D01*
X33701300Y7302400D01*
G37*
G36*
X35479300Y7302400D02*
G01*
X34477300Y7302400D01*
X34477300Y8604400D01*
X35479300Y8604400D01*
X35479300Y7302400D01*
X35479300Y7302400D01*
G37*
G36*
X43254843Y11065281D02*
G01*
X43321027Y11058763D01*
X43490866Y11007243D01*
X43647391Y10923578D01*
X43683129Y10894248D01*
X43784586Y10810986D01*
X43867848Y10709529D01*
X43897178Y10673791D01*
X43980843Y10517266D01*
X44032363Y10347427D01*
X44049759Y10170800D01*
X44032363Y9994173D01*
X43980843Y9824334D01*
X43897178Y9667809D01*
X43867848Y9632071D01*
X43784586Y9530614D01*
X43683129Y9447352D01*
X43647391Y9418022D01*
X43490866Y9334357D01*
X43321027Y9282837D01*
X43254842Y9276318D01*
X43188660Y9269800D01*
X43100140Y9269800D01*
X43033958Y9276318D01*
X42967773Y9282837D01*
X42797934Y9334357D01*
X42641409Y9418022D01*
X42605671Y9447352D01*
X42504214Y9530614D01*
X42420952Y9632071D01*
X42391622Y9667809D01*
X42307957Y9824334D01*
X42256437Y9994173D01*
X42239041Y10170800D01*
X42256437Y10347427D01*
X42307957Y10517266D01*
X42391622Y10673791D01*
X42420952Y10709529D01*
X42504214Y10810986D01*
X42605671Y10894248D01*
X42641409Y10923578D01*
X42797934Y11007243D01*
X42967773Y11058763D01*
X43033957Y11065281D01*
X43100140Y11071800D01*
X43188660Y11071800D01*
X43254843Y11065281D01*
X43254843Y11065281D01*
G37*
G36*
X40714843Y11065281D02*
G01*
X40781027Y11058763D01*
X40950866Y11007243D01*
X41107391Y10923578D01*
X41143129Y10894248D01*
X41244586Y10810986D01*
X41327848Y10709529D01*
X41357178Y10673791D01*
X41440843Y10517266D01*
X41492363Y10347427D01*
X41509759Y10170800D01*
X41492363Y9994173D01*
X41440843Y9824334D01*
X41357178Y9667809D01*
X41327848Y9632071D01*
X41244586Y9530614D01*
X41143129Y9447352D01*
X41107391Y9418022D01*
X40950866Y9334357D01*
X40781027Y9282837D01*
X40714842Y9276318D01*
X40648660Y9269800D01*
X40560140Y9269800D01*
X40493958Y9276318D01*
X40427773Y9282837D01*
X40257934Y9334357D01*
X40101409Y9418022D01*
X40065671Y9447352D01*
X39964214Y9530614D01*
X39880952Y9632071D01*
X39851622Y9667809D01*
X39767957Y9824334D01*
X39716437Y9994173D01*
X39699041Y10170800D01*
X39716437Y10347427D01*
X39767957Y10517266D01*
X39851622Y10673791D01*
X39880952Y10709529D01*
X39964214Y10810986D01*
X40065671Y10894248D01*
X40101409Y10923578D01*
X40257934Y11007243D01*
X40427773Y11058763D01*
X40493957Y11065281D01*
X40560140Y11071800D01*
X40648660Y11071800D01*
X40714843Y11065281D01*
X40714843Y11065281D01*
G37*
G36*
X31399000Y10442500D02*
G01*
X29947000Y10442500D01*
X29947000Y11194500D01*
X31399000Y11194500D01*
X31399000Y10442500D01*
X31399000Y10442500D01*
G37*
G36*
X27548000Y16009599D02*
G01*
X27550402Y15985213D01*
X27557515Y15961764D01*
X27569066Y15940153D01*
X27584611Y15921211D01*
X27598342Y15909942D01*
X27609611Y15896211D01*
X27628553Y15880666D01*
X27650164Y15869115D01*
X27673613Y15862002D01*
X27697999Y15859600D01*
X28748000Y15859600D01*
X28748000Y12457600D01*
X27697999Y12457600D01*
X27673613Y12455198D01*
X27650164Y12448085D01*
X27628553Y12436534D01*
X27609611Y12420989D01*
X27598342Y12407258D01*
X27584611Y12395989D01*
X27569066Y12377047D01*
X27557515Y12355436D01*
X27550402Y12331987D01*
X27548000Y12307601D01*
X27548000Y11257600D01*
X24146000Y11257600D01*
X24146000Y12307601D01*
X24143598Y12331987D01*
X24136485Y12355436D01*
X24124934Y12377047D01*
X24109389Y12395989D01*
X24095658Y12407258D01*
X24084389Y12420989D01*
X24065447Y12436534D01*
X24043836Y12448085D01*
X24020387Y12455198D01*
X23996001Y12457600D01*
X22946000Y12457600D01*
X22946000Y15859600D01*
X23996001Y15859600D01*
X24020387Y15862002D01*
X24043836Y15869115D01*
X24065447Y15880666D01*
X24084389Y15896211D01*
X24095658Y15909942D01*
X24109389Y15921211D01*
X24124934Y15940153D01*
X24136485Y15961764D01*
X24143598Y15985213D01*
X24146000Y16009599D01*
X24146000Y17059600D01*
X27548000Y17059600D01*
X27548000Y16009599D01*
X27548000Y16009599D01*
G37*
G36*
X35859642Y13049219D02*
G01*
X35976052Y13001000D01*
X36005416Y12988837D01*
X36136608Y12901178D01*
X36248178Y12789608D01*
X36335837Y12658416D01*
X36335838Y12658414D01*
X36396219Y12512642D01*
X36427000Y12357893D01*
X36427000Y12200107D01*
X36396219Y12045358D01*
X36335838Y11899586D01*
X36335837Y11899584D01*
X36248178Y11768392D01*
X36136608Y11656822D01*
X36005416Y11569163D01*
X36005415Y11569162D01*
X36005414Y11569162D01*
X35859642Y11508781D01*
X35704893Y11478000D01*
X35547107Y11478000D01*
X35392358Y11508781D01*
X35246586Y11569162D01*
X35246585Y11569162D01*
X35246584Y11569163D01*
X35115392Y11656822D01*
X35003822Y11768392D01*
X34916163Y11899584D01*
X34916162Y11899586D01*
X34855781Y12045358D01*
X34825000Y12200107D01*
X34825000Y12357893D01*
X34855781Y12512642D01*
X34916162Y12658414D01*
X34916163Y12658416D01*
X35003822Y12789608D01*
X35115392Y12901178D01*
X35246584Y12988837D01*
X35275948Y13001000D01*
X35392358Y13049219D01*
X35547107Y13080000D01*
X35704893Y13080000D01*
X35859642Y13049219D01*
X35859642Y13049219D01*
G37*
G36*
X33855000Y11499000D02*
G01*
X32653000Y11499000D01*
X32653000Y13001000D01*
X33855000Y13001000D01*
X33855000Y11499000D01*
X33855000Y11499000D01*
G37*
G36*
X30855000Y11499000D02*
G01*
X29653000Y11499000D01*
X29653000Y13001000D01*
X30855000Y13001000D01*
X30855000Y11499000D01*
X30855000Y11499000D01*
G37*
G36*
X43254842Y13605282D02*
G01*
X43321027Y13598763D01*
X43490866Y13547243D01*
X43647391Y13463578D01*
X43654675Y13457600D01*
X43784586Y13350986D01*
X43867848Y13249529D01*
X43897178Y13213791D01*
X43980843Y13057266D01*
X44032363Y12887427D01*
X44049759Y12710800D01*
X44032363Y12534173D01*
X43980843Y12364334D01*
X43897178Y12207809D01*
X43890857Y12200107D01*
X43784586Y12070614D01*
X43683129Y11987352D01*
X43647391Y11958022D01*
X43490866Y11874357D01*
X43321027Y11822837D01*
X43254843Y11816319D01*
X43188660Y11809800D01*
X43100140Y11809800D01*
X43033957Y11816319D01*
X42967773Y11822837D01*
X42797934Y11874357D01*
X42641409Y11958022D01*
X42605671Y11987352D01*
X42504214Y12070614D01*
X42397943Y12200107D01*
X42391622Y12207809D01*
X42307957Y12364334D01*
X42256437Y12534173D01*
X42239041Y12710800D01*
X42256437Y12887427D01*
X42307957Y13057266D01*
X42391622Y13213791D01*
X42420952Y13249529D01*
X42504214Y13350986D01*
X42634125Y13457600D01*
X42641409Y13463578D01*
X42797934Y13547243D01*
X42967773Y13598763D01*
X43033958Y13605282D01*
X43100140Y13611800D01*
X43188660Y13611800D01*
X43254842Y13605282D01*
X43254842Y13605282D01*
G37*
G36*
X40714842Y13605282D02*
G01*
X40781027Y13598763D01*
X40950866Y13547243D01*
X41107391Y13463578D01*
X41114675Y13457600D01*
X41244586Y13350986D01*
X41327848Y13249529D01*
X41357178Y13213791D01*
X41440843Y13057266D01*
X41492363Y12887427D01*
X41509759Y12710800D01*
X41492363Y12534173D01*
X41440843Y12364334D01*
X41357178Y12207809D01*
X41350857Y12200107D01*
X41244586Y12070614D01*
X41143129Y11987352D01*
X41107391Y11958022D01*
X40950866Y11874357D01*
X40781027Y11822837D01*
X40714843Y11816319D01*
X40648660Y11809800D01*
X40560140Y11809800D01*
X40493957Y11816319D01*
X40427773Y11822837D01*
X40257934Y11874357D01*
X40101409Y11958022D01*
X40065671Y11987352D01*
X39964214Y12070614D01*
X39857943Y12200107D01*
X39851622Y12207809D01*
X39767957Y12364334D01*
X39716437Y12534173D01*
X39699041Y12710800D01*
X39716437Y12887427D01*
X39767957Y13057266D01*
X39851622Y13213791D01*
X39880952Y13249529D01*
X39964214Y13350986D01*
X40094125Y13457600D01*
X40101409Y13463578D01*
X40257934Y13547243D01*
X40427773Y13598763D01*
X40493958Y13605282D01*
X40560140Y13611800D01*
X40648660Y13611800D01*
X40714842Y13605282D01*
X40714842Y13605282D01*
G37*
G36*
X7272425Y13913401D02*
G01*
X7396621Y13888698D01*
X7533022Y13832199D01*
X7655779Y13750175D01*
X7760175Y13645779D01*
X7842199Y13523022D01*
X7898698Y13386621D01*
X7927500Y13241819D01*
X7927500Y13094181D01*
X7898698Y12949379D01*
X7842199Y12812978D01*
X7760175Y12690221D01*
X7655779Y12585825D01*
X7533022Y12503801D01*
X7396621Y12447302D01*
X7272425Y12422599D01*
X7251820Y12418500D01*
X7104180Y12418500D01*
X7083575Y12422599D01*
X6959379Y12447302D01*
X6822978Y12503801D01*
X6700221Y12585825D01*
X6595825Y12690221D01*
X6513801Y12812978D01*
X6457302Y12949379D01*
X6428500Y13094181D01*
X6428500Y13241819D01*
X6457302Y13386621D01*
X6513801Y13523022D01*
X6595825Y13645779D01*
X6700221Y13750175D01*
X6822978Y13832199D01*
X6959379Y13888698D01*
X7083575Y13913401D01*
X7104180Y13917500D01*
X7251820Y13917500D01*
X7272425Y13913401D01*
X7272425Y13913401D01*
G37*
G36*
X17515000Y18066999D02*
G01*
X17517402Y18042613D01*
X17524515Y18019164D01*
X17536066Y17997553D01*
X17551611Y17978611D01*
X17565342Y17967342D01*
X17576611Y17953611D01*
X17595553Y17938066D01*
X17617164Y17926515D01*
X17640613Y17919402D01*
X17664999Y17917000D01*
X18715000Y17917000D01*
X18715000Y14515000D01*
X17664999Y14515000D01*
X17640613Y14512598D01*
X17617164Y14505485D01*
X17595553Y14493934D01*
X17576611Y14478389D01*
X17565342Y14464658D01*
X17551611Y14453389D01*
X17536066Y14434447D01*
X17524515Y14412836D01*
X17517402Y14389387D01*
X17515000Y14365001D01*
X17515000Y13315000D01*
X14113000Y13315000D01*
X14113000Y14365001D01*
X14110598Y14389387D01*
X14103485Y14412836D01*
X14091934Y14434447D01*
X14076389Y14453389D01*
X14062658Y14464658D01*
X14051389Y14478389D01*
X14032447Y14493934D01*
X14010836Y14505485D01*
X13987387Y14512598D01*
X13963001Y14515000D01*
X12913000Y14515000D01*
X12913000Y17917000D01*
X13963001Y17917000D01*
X13987387Y17919402D01*
X14010836Y17926515D01*
X14032447Y17938066D01*
X14051389Y17953611D01*
X14062658Y17967342D01*
X14076389Y17978611D01*
X14091934Y17997553D01*
X14103485Y18019164D01*
X14110598Y18042613D01*
X14113000Y18066999D01*
X14113000Y19117000D01*
X17515000Y19117000D01*
X17515000Y18066999D01*
X17515000Y18066999D01*
G37*
G36*
X43249791Y16145779D02*
G01*
X43321027Y16138763D01*
X43490866Y16087243D01*
X43647391Y16003578D01*
X43683129Y15974248D01*
X43784586Y15890986D01*
X43867848Y15789529D01*
X43897178Y15753791D01*
X43980843Y15597266D01*
X44032363Y15427427D01*
X44049759Y15250800D01*
X44032363Y15074173D01*
X43980843Y14904334D01*
X43897178Y14747809D01*
X43867848Y14712071D01*
X43784586Y14610614D01*
X43683129Y14527352D01*
X43647391Y14498022D01*
X43584972Y14464658D01*
X43528452Y14434447D01*
X43490866Y14414357D01*
X43321027Y14362837D01*
X43254843Y14356319D01*
X43188660Y14349800D01*
X43100140Y14349800D01*
X43033957Y14356319D01*
X42967773Y14362837D01*
X42797934Y14414357D01*
X42760349Y14434447D01*
X42703828Y14464658D01*
X42641409Y14498022D01*
X42605671Y14527352D01*
X42504214Y14610614D01*
X42420952Y14712071D01*
X42391622Y14747809D01*
X42307957Y14904334D01*
X42256437Y15074173D01*
X42239041Y15250800D01*
X42256437Y15427427D01*
X42307957Y15597266D01*
X42391622Y15753791D01*
X42420952Y15789529D01*
X42504214Y15890986D01*
X42605671Y15974248D01*
X42641409Y16003578D01*
X42797934Y16087243D01*
X42967773Y16138763D01*
X43039009Y16145779D01*
X43100140Y16151800D01*
X43188660Y16151800D01*
X43249791Y16145779D01*
X43249791Y16145779D01*
G37*
G36*
X40709791Y16145779D02*
G01*
X40781027Y16138763D01*
X40950866Y16087243D01*
X41107391Y16003578D01*
X41143129Y15974248D01*
X41244586Y15890986D01*
X41327848Y15789529D01*
X41357178Y15753791D01*
X41440843Y15597266D01*
X41492363Y15427427D01*
X41509759Y15250800D01*
X41492363Y15074173D01*
X41440843Y14904334D01*
X41357178Y14747809D01*
X41327848Y14712071D01*
X41244586Y14610614D01*
X41143129Y14527352D01*
X41107391Y14498022D01*
X41044972Y14464658D01*
X40988452Y14434447D01*
X40950866Y14414357D01*
X40781027Y14362837D01*
X40714843Y14356319D01*
X40648660Y14349800D01*
X40560140Y14349800D01*
X40493957Y14356319D01*
X40427773Y14362837D01*
X40257934Y14414357D01*
X40220349Y14434447D01*
X40163828Y14464658D01*
X40101409Y14498022D01*
X40065671Y14527352D01*
X39964214Y14610614D01*
X39880952Y14712071D01*
X39851622Y14747809D01*
X39767957Y14904334D01*
X39716437Y15074173D01*
X39699041Y15250800D01*
X39716437Y15427427D01*
X39767957Y15597266D01*
X39851622Y15753791D01*
X39880952Y15789529D01*
X39964214Y15890986D01*
X40065671Y15974248D01*
X40101409Y16003578D01*
X40257934Y16087243D01*
X40427773Y16138763D01*
X40499009Y16145779D01*
X40560140Y16151800D01*
X40648660Y16151800D01*
X40709791Y16145779D01*
X40709791Y16145779D01*
G37*
G36*
X7272425Y16413401D02*
G01*
X7396621Y16388698D01*
X7533022Y16332199D01*
X7655779Y16250175D01*
X7760175Y16145779D01*
X7842199Y16023022D01*
X7898698Y15886621D01*
X7927500Y15741819D01*
X7927500Y15594181D01*
X7898698Y15449379D01*
X7842199Y15312978D01*
X7760175Y15190221D01*
X7655779Y15085825D01*
X7533022Y15003801D01*
X7396621Y14947302D01*
X7272425Y14922599D01*
X7251820Y14918500D01*
X7104180Y14918500D01*
X7083575Y14922599D01*
X6959379Y14947302D01*
X6822978Y15003801D01*
X6700221Y15085825D01*
X6595825Y15190221D01*
X6513801Y15312978D01*
X6457302Y15449379D01*
X6428500Y15594181D01*
X6428500Y15741819D01*
X6457302Y15886621D01*
X6513801Y16023022D01*
X6595825Y16145779D01*
X6700221Y16250175D01*
X6822978Y16332199D01*
X6959379Y16388698D01*
X7083575Y16413401D01*
X7104180Y16417500D01*
X7251820Y16417500D01*
X7272425Y16413401D01*
X7272425Y16413401D01*
G37*
G36*
X21101000Y15262000D02*
G01*
X20249000Y15262000D01*
X20249000Y16564000D01*
X21101000Y16564000D01*
X21101000Y15262000D01*
X21101000Y15262000D01*
G37*
G36*
X22463000Y15262000D02*
G01*
X21611000Y15262000D01*
X21611000Y16564000D01*
X22463000Y16564000D01*
X22463000Y15262000D01*
X22463000Y15262000D01*
G37*
G36*
X43254842Y18685282D02*
G01*
X43321027Y18678763D01*
X43490866Y18627243D01*
X43647391Y18543578D01*
X43672438Y18523022D01*
X43784586Y18430986D01*
X43867848Y18329529D01*
X43897178Y18293791D01*
X43980843Y18137266D01*
X44032363Y17967427D01*
X44049759Y17790800D01*
X44032363Y17614173D01*
X43980843Y17444334D01*
X43897178Y17287809D01*
X43867848Y17252071D01*
X43784586Y17150614D01*
X43683129Y17067352D01*
X43647391Y17038022D01*
X43490866Y16954357D01*
X43321027Y16902837D01*
X43254842Y16896318D01*
X43188660Y16889800D01*
X43100140Y16889800D01*
X43033958Y16896318D01*
X42967773Y16902837D01*
X42797934Y16954357D01*
X42641409Y17038022D01*
X42605671Y17067352D01*
X42504214Y17150614D01*
X42420952Y17252071D01*
X42391622Y17287809D01*
X42307957Y17444334D01*
X42256437Y17614173D01*
X42239041Y17790800D01*
X42256437Y17967427D01*
X42307957Y18137266D01*
X42391622Y18293791D01*
X42420952Y18329529D01*
X42504214Y18430986D01*
X42616362Y18523022D01*
X42641409Y18543578D01*
X42797934Y18627243D01*
X42967773Y18678763D01*
X43033958Y18685282D01*
X43100140Y18691800D01*
X43188660Y18691800D01*
X43254842Y18685282D01*
X43254842Y18685282D01*
G37*
G36*
X41505400Y16889800D02*
G01*
X39703400Y16889800D01*
X39703400Y18691800D01*
X41505400Y18691800D01*
X41505400Y16889800D01*
X41505400Y16889800D01*
G37*
G36*
X22463000Y17162000D02*
G01*
X21611000Y17162000D01*
X21611000Y18464000D01*
X22463000Y18464000D01*
X22463000Y17162000D01*
X22463000Y17162000D01*
G37*
G36*
X21101000Y17162000D02*
G01*
X20249000Y17162000D01*
X20249000Y18464000D01*
X21101000Y18464000D01*
X21101000Y17162000D01*
X21101000Y17162000D01*
G37*
G36*
X12464000Y17348000D02*
G01*
X11612000Y17348000D01*
X11612000Y18650000D01*
X12464000Y18650000D01*
X12464000Y17348000D01*
X12464000Y17348000D01*
G37*
G36*
X11114000Y17348000D02*
G01*
X10262000Y17348000D01*
X10262000Y18650000D01*
X11114000Y18650000D01*
X11114000Y17348000D01*
X11114000Y17348000D01*
G37*
G36*
X28802200Y17402000D02*
G01*
X27500200Y17402000D01*
X27500200Y18254000D01*
X28802200Y18254000D01*
X28802200Y17402000D01*
X28802200Y17402000D01*
G37*
G36*
X26902200Y17402000D02*
G01*
X25600200Y17402000D01*
X25600200Y18254000D01*
X26902200Y18254000D01*
X26902200Y17402000D01*
X26902200Y17402000D01*
G37*
G36*
X7272425Y18913401D02*
G01*
X7396621Y18888698D01*
X7533022Y18832199D01*
X7655779Y18750175D01*
X7760175Y18645779D01*
X7842199Y18523022D01*
X7898698Y18386621D01*
X7927500Y18241819D01*
X7927500Y18094181D01*
X7898698Y17949379D01*
X7842199Y17812978D01*
X7760175Y17690221D01*
X7655779Y17585825D01*
X7533022Y17503801D01*
X7396621Y17447302D01*
X7272425Y17422599D01*
X7251820Y17418500D01*
X7104180Y17418500D01*
X7083575Y17422599D01*
X6959379Y17447302D01*
X6822978Y17503801D01*
X6700221Y17585825D01*
X6595825Y17690221D01*
X6513801Y17812978D01*
X6457302Y17949379D01*
X6428500Y18094181D01*
X6428500Y18241819D01*
X6457302Y18386621D01*
X6513801Y18523022D01*
X6595825Y18645779D01*
X6700221Y18750175D01*
X6822978Y18832199D01*
X6959379Y18888698D01*
X7083575Y18913401D01*
X7104180Y18917500D01*
X7251820Y18917500D01*
X7272425Y18913401D01*
X7272425Y18913401D01*
G37*
G36*
X37193000Y17437000D02*
G01*
X34757500Y17437000D01*
X34757500Y18384000D01*
X37193000Y18384000D01*
X37193000Y17437000D01*
X37193000Y17437000D01*
G37*
G36*
X30855000Y17999000D02*
G01*
X29653000Y17999000D01*
X29653000Y19501000D01*
X30855000Y19501000D01*
X30855000Y17999000D01*
X30855000Y17999000D01*
G37*
G36*
X33855000Y17999000D02*
G01*
X32653000Y17999000D01*
X32653000Y19501000D01*
X33855000Y19501000D01*
X33855000Y17999000D01*
X33855000Y17999000D01*
G37*
G36*
X26902200Y18652000D02*
G01*
X25600200Y18652000D01*
X25600200Y19504000D01*
X26902200Y19504000D01*
X26902200Y18652000D01*
X26902200Y18652000D01*
G37*
G36*
X28802200Y18652000D02*
G01*
X27500200Y18652000D01*
X27500200Y19504000D01*
X28802200Y19504000D01*
X28802200Y18652000D01*
X28802200Y18652000D01*
G37*
G36*
X11114000Y19248000D02*
G01*
X10262000Y19248000D01*
X10262000Y20550000D01*
X11114000Y20550000D01*
X11114000Y19248000D01*
X11114000Y19248000D01*
G37*
G36*
X12464000Y19248000D02*
G01*
X11612000Y19248000D01*
X11612000Y20550000D01*
X12464000Y20550000D01*
X12464000Y19248000D01*
X12464000Y19248000D01*
G37*
G36*
X37193000Y19362000D02*
G01*
X34757500Y19362000D01*
X34757500Y20309000D01*
X37193000Y20309000D01*
X37193000Y19362000D01*
X37193000Y19362000D01*
G37*
G36*
X17039000Y19536500D02*
G01*
X15737000Y19536500D01*
X15737000Y20388500D01*
X17039000Y20388500D01*
X17039000Y19536500D01*
X17039000Y19536500D01*
G37*
G36*
X18939000Y19536500D02*
G01*
X17637000Y19536500D01*
X17637000Y20388500D01*
X18939000Y20388500D01*
X18939000Y19536500D01*
X18939000Y19536500D01*
G37*
G36*
X7272425Y21413401D02*
G01*
X7396621Y21388698D01*
X7533022Y21332199D01*
X7655779Y21250175D01*
X7760175Y21145779D01*
X7842199Y21023022D01*
X7898698Y20886621D01*
X7927500Y20741819D01*
X7927500Y20594181D01*
X7898698Y20449379D01*
X7842199Y20312978D01*
X7760175Y20190221D01*
X7655779Y20085825D01*
X7533022Y20003801D01*
X7396621Y19947302D01*
X7272425Y19922599D01*
X7251820Y19918500D01*
X7104180Y19918500D01*
X7083575Y19922599D01*
X6959379Y19947302D01*
X6822978Y20003801D01*
X6700221Y20085825D01*
X6595825Y20190221D01*
X6513801Y20312978D01*
X6457302Y20449379D01*
X6428500Y20594181D01*
X6428500Y20741819D01*
X6457302Y20886621D01*
X6513801Y21023022D01*
X6595825Y21145779D01*
X6700221Y21250175D01*
X6822978Y21332199D01*
X6959379Y21388698D01*
X7083575Y21413401D01*
X7104180Y21417500D01*
X7251820Y21417500D01*
X7272425Y21413401D01*
X7272425Y21413401D01*
G37*
G36*
X17039000Y20806500D02*
G01*
X15737000Y20806500D01*
X15737000Y21658500D01*
X17039000Y21658500D01*
X17039000Y20806500D01*
X17039000Y20806500D01*
G37*
G36*
X18939000Y20806500D02*
G01*
X17637000Y20806500D01*
X17637000Y21658500D01*
X18939000Y21658500D01*
X18939000Y20806500D01*
X18939000Y20806500D01*
G37*
G36*
X32655000Y21632000D02*
G01*
X31353000Y21632000D01*
X31353000Y22484000D01*
X32655000Y22484000D01*
X32655000Y21632000D01*
X32655000Y21632000D01*
G37*
G36*
X30755000Y21632000D02*
G01*
X29453000Y21632000D01*
X29453000Y22484000D01*
X30755000Y22484000D01*
X30755000Y21632000D01*
X30755000Y21632000D01*
G37*
G36*
X34951000Y21699000D02*
G01*
X34249000Y21699000D01*
X34249000Y22201000D01*
X34951000Y22201000D01*
X34951000Y21699000D01*
X34951000Y21699000D01*
G37*
G36*
X37051000Y22575999D02*
G01*
X37053402Y22551613D01*
X37060515Y22528164D01*
X37072066Y22506553D01*
X37087611Y22487611D01*
X37106553Y22472066D01*
X37128164Y22460515D01*
X37151613Y22453402D01*
X37175999Y22451000D01*
X37224001Y22451000D01*
X37248387Y22453402D01*
X37271836Y22460515D01*
X37293447Y22472066D01*
X37312389Y22487611D01*
X37327934Y22506553D01*
X37339485Y22528164D01*
X37346598Y22551613D01*
X37349000Y22575999D01*
X37349000Y23351000D01*
X37851000Y23351000D01*
X37851000Y22575999D01*
X37853402Y22551613D01*
X37860515Y22528164D01*
X37872066Y22506553D01*
X37887611Y22487611D01*
X37906553Y22472066D01*
X37928164Y22460515D01*
X37951613Y22453402D01*
X37975999Y22451000D01*
X38024001Y22451000D01*
X38048387Y22453402D01*
X38071836Y22460515D01*
X38093447Y22472066D01*
X38112389Y22487611D01*
X38127934Y22506553D01*
X38139485Y22528164D01*
X38146598Y22551613D01*
X38149000Y22575999D01*
X38149000Y23351000D01*
X38651000Y23351000D01*
X38651000Y22575999D01*
X38653402Y22551613D01*
X38660515Y22528164D01*
X38672066Y22506553D01*
X38687611Y22487611D01*
X38706553Y22472066D01*
X38728164Y22460515D01*
X38751613Y22453402D01*
X38775999Y22451000D01*
X38824001Y22451000D01*
X38848387Y22453402D01*
X38871836Y22460515D01*
X38893447Y22472066D01*
X38912389Y22487611D01*
X38927934Y22506553D01*
X38939485Y22528164D01*
X38946598Y22551613D01*
X38949000Y22575999D01*
X38949000Y23351000D01*
X39451000Y23351000D01*
X39451000Y22649000D01*
X39175999Y22649000D01*
X39151613Y22646598D01*
X39128164Y22639485D01*
X39106553Y22627934D01*
X39087611Y22612389D01*
X39072066Y22593447D01*
X39060515Y22571836D01*
X39053402Y22548387D01*
X39051000Y22524001D01*
X39051000Y21749000D01*
X38549000Y21749000D01*
X38549000Y22524001D01*
X38546598Y22548387D01*
X38539485Y22571836D01*
X38527934Y22593447D01*
X38512389Y22612389D01*
X38493447Y22627934D01*
X38471836Y22639485D01*
X38448387Y22646598D01*
X38424001Y22649000D01*
X38375999Y22649000D01*
X38351613Y22646598D01*
X38328164Y22639485D01*
X38306553Y22627934D01*
X38287611Y22612389D01*
X38272066Y22593447D01*
X38260515Y22571836D01*
X38253402Y22548387D01*
X38251000Y22524001D01*
X38251000Y21749000D01*
X37749000Y21749000D01*
X37749000Y22524001D01*
X37746598Y22548387D01*
X37739485Y22571836D01*
X37727934Y22593447D01*
X37712389Y22612389D01*
X37693447Y22627934D01*
X37671836Y22639485D01*
X37648387Y22646598D01*
X37624001Y22649000D01*
X37575999Y22649000D01*
X37551613Y22646598D01*
X37528164Y22639485D01*
X37506553Y22627934D01*
X37487611Y22612389D01*
X37472066Y22593447D01*
X37460515Y22571836D01*
X37453402Y22548387D01*
X37451000Y22524001D01*
X37451000Y21749000D01*
X36949000Y21749000D01*
X36949000Y22524001D01*
X36946598Y22548387D01*
X36939485Y22571836D01*
X36927934Y22593447D01*
X36912389Y22612389D01*
X36893447Y22627934D01*
X36871836Y22639485D01*
X36848387Y22646598D01*
X36824001Y22649000D01*
X36775999Y22649000D01*
X36751613Y22646598D01*
X36728164Y22639485D01*
X36706553Y22627934D01*
X36687611Y22612389D01*
X36672066Y22593447D01*
X36660515Y22571836D01*
X36653402Y22548387D01*
X36651000Y22524001D01*
X36651000Y21749000D01*
X36149000Y21749000D01*
X36149000Y22451000D01*
X36424001Y22451000D01*
X36448387Y22453402D01*
X36471836Y22460515D01*
X36493447Y22472066D01*
X36512389Y22487611D01*
X36527934Y22506553D01*
X36539485Y22528164D01*
X36546598Y22551613D01*
X36549000Y22575999D01*
X36549000Y23351000D01*
X37051000Y23351000D01*
X37051000Y22575999D01*
X37051000Y22575999D01*
G37*
G36*
X40251000Y22575999D02*
G01*
X40253402Y22551613D01*
X40260515Y22528164D01*
X40272066Y22506553D01*
X40287611Y22487611D01*
X40306553Y22472066D01*
X40328164Y22460515D01*
X40351613Y22453402D01*
X40375999Y22451000D01*
X40424001Y22451000D01*
X40448387Y22453402D01*
X40471836Y22460515D01*
X40493447Y22472066D01*
X40512389Y22487611D01*
X40527934Y22506553D01*
X40539485Y22528164D01*
X40546598Y22551613D01*
X40549000Y22575999D01*
X40549000Y23351000D01*
X41051000Y23351000D01*
X41051000Y22575999D01*
X41053402Y22551613D01*
X41060515Y22528164D01*
X41072066Y22506553D01*
X41087611Y22487611D01*
X41106553Y22472066D01*
X41128164Y22460515D01*
X41151613Y22453402D01*
X41175999Y22451000D01*
X41224001Y22451000D01*
X41248387Y22453402D01*
X41271836Y22460515D01*
X41293447Y22472066D01*
X41312389Y22487611D01*
X41327934Y22506553D01*
X41339485Y22528164D01*
X41346598Y22551613D01*
X41349000Y22575999D01*
X41349000Y23351000D01*
X41851000Y23351000D01*
X41851000Y22575999D01*
X41853402Y22551613D01*
X41860515Y22528164D01*
X41872066Y22506553D01*
X41887611Y22487611D01*
X41906553Y22472066D01*
X41928164Y22460515D01*
X41951613Y22453402D01*
X41975999Y22451000D01*
X42024001Y22451000D01*
X42048387Y22453402D01*
X42071836Y22460515D01*
X42093447Y22472066D01*
X42112389Y22487611D01*
X42127934Y22506553D01*
X42139485Y22528164D01*
X42146598Y22551613D01*
X42149000Y22575999D01*
X42149000Y23351000D01*
X42651000Y23351000D01*
X42651000Y22649000D01*
X42375999Y22649000D01*
X42351613Y22646598D01*
X42328164Y22639485D01*
X42306553Y22627934D01*
X42287611Y22612389D01*
X42272066Y22593447D01*
X42260515Y22571836D01*
X42253402Y22548387D01*
X42251000Y22524001D01*
X42251000Y21749000D01*
X41749000Y21749000D01*
X41749000Y22524001D01*
X41746598Y22548387D01*
X41739485Y22571836D01*
X41727934Y22593447D01*
X41712389Y22612389D01*
X41693447Y22627934D01*
X41671836Y22639485D01*
X41648387Y22646598D01*
X41624001Y22649000D01*
X41575999Y22649000D01*
X41551613Y22646598D01*
X41528164Y22639485D01*
X41506553Y22627934D01*
X41487611Y22612389D01*
X41472066Y22593447D01*
X41460515Y22571836D01*
X41453402Y22548387D01*
X41451000Y22524001D01*
X41451000Y21749000D01*
X40949000Y21749000D01*
X40949000Y22524001D01*
X40946598Y22548387D01*
X40939485Y22571836D01*
X40927934Y22593447D01*
X40912389Y22612389D01*
X40893447Y22627934D01*
X40871836Y22639485D01*
X40848387Y22646598D01*
X40824001Y22649000D01*
X40775999Y22649000D01*
X40751613Y22646598D01*
X40728164Y22639485D01*
X40706553Y22627934D01*
X40687611Y22612389D01*
X40672066Y22593447D01*
X40660515Y22571836D01*
X40653402Y22548387D01*
X40651000Y22524001D01*
X40651000Y21749000D01*
X40149000Y21749000D01*
X40149000Y22524001D01*
X40146598Y22548387D01*
X40139485Y22571836D01*
X40127934Y22593447D01*
X40112389Y22612389D01*
X40093447Y22627934D01*
X40071836Y22639485D01*
X40048387Y22646598D01*
X40024001Y22649000D01*
X39749000Y22649000D01*
X39749000Y23351000D01*
X40251000Y23351000D01*
X40251000Y22575999D01*
X40251000Y22575999D01*
G37*
G36*
X43451000Y22575999D02*
G01*
X43453402Y22551613D01*
X43460515Y22528164D01*
X43472066Y22506553D01*
X43487611Y22487611D01*
X43506553Y22472066D01*
X43528164Y22460515D01*
X43551613Y22453402D01*
X43575999Y22451000D01*
X43624001Y22451000D01*
X43648387Y22453402D01*
X43671836Y22460515D01*
X43693447Y22472066D01*
X43712389Y22487611D01*
X43727934Y22506553D01*
X43739485Y22528164D01*
X43746598Y22551613D01*
X43749000Y22575999D01*
X43749000Y23351000D01*
X44251000Y23351000D01*
X44251000Y22575999D01*
X44253402Y22551613D01*
X44260515Y22528164D01*
X44272066Y22506553D01*
X44287611Y22487611D01*
X44306553Y22472066D01*
X44328164Y22460515D01*
X44351613Y22453402D01*
X44375999Y22451000D01*
X44424001Y22451000D01*
X44448387Y22453402D01*
X44471836Y22460515D01*
X44493447Y22472066D01*
X44512389Y22487611D01*
X44527934Y22506553D01*
X44539485Y22528164D01*
X44546598Y22551613D01*
X44549000Y22575999D01*
X44549000Y23351000D01*
X45051000Y23351000D01*
X45051000Y22649000D01*
X44775999Y22649000D01*
X44751613Y22646598D01*
X44728164Y22639485D01*
X44706553Y22627934D01*
X44687611Y22612389D01*
X44672066Y22593447D01*
X44660515Y22571836D01*
X44653402Y22548387D01*
X44651000Y22524001D01*
X44651000Y21749000D01*
X44149000Y21749000D01*
X44149000Y22524001D01*
X44146598Y22548387D01*
X44139485Y22571836D01*
X44127934Y22593447D01*
X44112389Y22612389D01*
X44093447Y22627934D01*
X44071836Y22639485D01*
X44048387Y22646598D01*
X44024001Y22649000D01*
X43975999Y22649000D01*
X43951613Y22646598D01*
X43928164Y22639485D01*
X43906553Y22627934D01*
X43887611Y22612389D01*
X43872066Y22593447D01*
X43860515Y22571836D01*
X43853402Y22548387D01*
X43851000Y22524001D01*
X43851000Y21749000D01*
X43349000Y21749000D01*
X43349000Y22524001D01*
X43346598Y22548387D01*
X43339485Y22571836D01*
X43327934Y22593447D01*
X43312389Y22612389D01*
X43293447Y22627934D01*
X43271836Y22639485D01*
X43248387Y22646598D01*
X43224001Y22649000D01*
X42949000Y22649000D01*
X42949000Y23351000D01*
X43451000Y23351000D01*
X43451000Y22575999D01*
X43451000Y22575999D01*
G37*
G36*
X35851000Y21749000D02*
G01*
X35349000Y21749000D01*
X35349000Y22451000D01*
X35851000Y22451000D01*
X35851000Y21749000D01*
X35851000Y21749000D01*
G37*
G36*
X45751000Y21749000D02*
G01*
X45249000Y21749000D01*
X45249000Y22451000D01*
X45751000Y22451000D01*
X45751000Y21749000D01*
X45751000Y21749000D01*
G37*
G36*
X7272425Y23913401D02*
G01*
X7396621Y23888698D01*
X7533022Y23832199D01*
X7655779Y23750175D01*
X7760175Y23645779D01*
X7842199Y23523022D01*
X7898698Y23386621D01*
X7927500Y23241819D01*
X7927500Y23094181D01*
X7898698Y22949379D01*
X7842199Y22812978D01*
X7760175Y22690221D01*
X7655779Y22585825D01*
X7533022Y22503801D01*
X7396621Y22447302D01*
X7272425Y22422599D01*
X7251820Y22418500D01*
X7104180Y22418500D01*
X7083575Y22422599D01*
X6959379Y22447302D01*
X6822978Y22503801D01*
X6700221Y22585825D01*
X6595825Y22690221D01*
X6513801Y22812978D01*
X6457302Y22949379D01*
X6428500Y23094181D01*
X6428500Y23241819D01*
X6457302Y23386621D01*
X6513801Y23523022D01*
X6595825Y23645779D01*
X6700221Y23750175D01*
X6822978Y23832199D01*
X6959379Y23888698D01*
X7083575Y23913401D01*
X7104180Y23917500D01*
X7251820Y23917500D01*
X7272425Y23913401D01*
X7272425Y23913401D01*
G37*
G36*
X34951000Y22499000D02*
G01*
X34249000Y22499000D01*
X34249000Y23001000D01*
X34951000Y23001000D01*
X34951000Y22499000D01*
X34951000Y22499000D01*
G37*
G36*
X34951000Y23299000D02*
G01*
X34249000Y23299000D01*
X34249000Y23801000D01*
X34951000Y23801000D01*
X34951000Y23299000D01*
X34951000Y23299000D01*
G37*
G36*
X34951000Y29125999D02*
G01*
X34953402Y29101613D01*
X34960515Y29078164D01*
X34972066Y29056553D01*
X34987611Y29037611D01*
X35006553Y29022066D01*
X35028164Y29010515D01*
X35051613Y29003402D01*
X35075999Y29001000D01*
X35851000Y29001000D01*
X35851000Y28499000D01*
X35075999Y28499000D01*
X35051613Y28496598D01*
X35028164Y28489485D01*
X35006553Y28477934D01*
X34987611Y28462389D01*
X34972066Y28443447D01*
X34960515Y28421836D01*
X34953402Y28398387D01*
X34951000Y28374001D01*
X34951000Y28325999D01*
X34953402Y28301613D01*
X34960515Y28278164D01*
X34972066Y28256553D01*
X34987611Y28237611D01*
X35006553Y28222066D01*
X35028164Y28210515D01*
X35051613Y28203402D01*
X35075999Y28201000D01*
X35851000Y28201000D01*
X35851000Y27699000D01*
X35075999Y27699000D01*
X35051613Y27696598D01*
X35028164Y27689485D01*
X35006553Y27677934D01*
X34987611Y27662389D01*
X34972066Y27643447D01*
X34960515Y27621836D01*
X34953402Y27598387D01*
X34951000Y27574001D01*
X34951000Y27525999D01*
X34953402Y27501613D01*
X34960515Y27478164D01*
X34972066Y27456553D01*
X34987611Y27437611D01*
X35006553Y27422066D01*
X35028164Y27410515D01*
X35051613Y27403402D01*
X35075999Y27401000D01*
X35851000Y27401000D01*
X35851000Y26899000D01*
X35075999Y26899000D01*
X35051613Y26896598D01*
X35028164Y26889485D01*
X35006553Y26877934D01*
X34987611Y26862389D01*
X34972066Y26843447D01*
X34960515Y26821836D01*
X34953402Y26798387D01*
X34951000Y26774001D01*
X34951000Y26725999D01*
X34953402Y26701613D01*
X34960515Y26678164D01*
X34972066Y26656553D01*
X34987611Y26637611D01*
X35006553Y26622066D01*
X35028164Y26610515D01*
X35051613Y26603402D01*
X35075999Y26601000D01*
X35851000Y26601000D01*
X35851000Y26099000D01*
X35075999Y26099000D01*
X35051613Y26096598D01*
X35028164Y26089485D01*
X35006553Y26077934D01*
X34987611Y26062389D01*
X34972066Y26043447D01*
X34960515Y26021836D01*
X34953402Y25998387D01*
X34951000Y25974001D01*
X34951000Y25925999D01*
X34953402Y25901613D01*
X34960515Y25878164D01*
X34972066Y25856553D01*
X34987611Y25837611D01*
X35006553Y25822066D01*
X35028164Y25810515D01*
X35051613Y25803402D01*
X35075999Y25801000D01*
X35851000Y25801000D01*
X35851000Y25299000D01*
X35075999Y25299000D01*
X35051613Y25296598D01*
X35028164Y25289485D01*
X35006553Y25277934D01*
X34987611Y25262389D01*
X34972066Y25243447D01*
X34960515Y25221836D01*
X34953402Y25198387D01*
X34951000Y25174001D01*
X34951000Y25125999D01*
X34953402Y25101613D01*
X34960515Y25078164D01*
X34972066Y25056553D01*
X34987611Y25037611D01*
X35006553Y25022066D01*
X35028164Y25010515D01*
X35051613Y25003402D01*
X35075999Y25001000D01*
X35851000Y25001000D01*
X35851000Y24499000D01*
X35075999Y24499000D01*
X35051613Y24496598D01*
X35028164Y24489485D01*
X35006553Y24477934D01*
X34987611Y24462389D01*
X34972066Y24443447D01*
X34960515Y24421836D01*
X34953402Y24398387D01*
X34951000Y24374001D01*
X34951000Y24099000D01*
X34249000Y24099000D01*
X34249000Y24601000D01*
X35024001Y24601000D01*
X35048387Y24603402D01*
X35071836Y24610515D01*
X35093447Y24622066D01*
X35112389Y24637611D01*
X35127934Y24656553D01*
X35139485Y24678164D01*
X35146598Y24701613D01*
X35149000Y24725999D01*
X35149000Y24774001D01*
X35146598Y24798387D01*
X35139485Y24821836D01*
X35127934Y24843447D01*
X35112389Y24862389D01*
X35093447Y24877934D01*
X35071836Y24889485D01*
X35048387Y24896598D01*
X35024001Y24899000D01*
X34249000Y24899000D01*
X34249000Y25401000D01*
X35024001Y25401000D01*
X35048387Y25403402D01*
X35071836Y25410515D01*
X35093447Y25422066D01*
X35112389Y25437611D01*
X35127934Y25456553D01*
X35139485Y25478164D01*
X35146598Y25501613D01*
X35149000Y25525999D01*
X35149000Y25574001D01*
X35146598Y25598387D01*
X35139485Y25621836D01*
X35127934Y25643447D01*
X35112389Y25662389D01*
X35093447Y25677934D01*
X35071836Y25689485D01*
X35048387Y25696598D01*
X35024001Y25699000D01*
X34249000Y25699000D01*
X34249000Y26201000D01*
X35024001Y26201000D01*
X35048387Y26203402D01*
X35071836Y26210515D01*
X35093447Y26222066D01*
X35112389Y26237611D01*
X35127934Y26256553D01*
X35139485Y26278164D01*
X35146598Y26301613D01*
X35149000Y26325999D01*
X35149000Y26374001D01*
X35146598Y26398387D01*
X35139485Y26421836D01*
X35127934Y26443447D01*
X35112389Y26462389D01*
X35093447Y26477934D01*
X35071836Y26489485D01*
X35048387Y26496598D01*
X35024001Y26499000D01*
X34249000Y26499000D01*
X34249000Y27001000D01*
X35024001Y27001000D01*
X35048387Y27003402D01*
X35071836Y27010515D01*
X35093447Y27022066D01*
X35112389Y27037611D01*
X35127934Y27056553D01*
X35139485Y27078164D01*
X35146598Y27101613D01*
X35149000Y27125999D01*
X35149000Y27174001D01*
X35146598Y27198387D01*
X35139485Y27221836D01*
X35127934Y27243447D01*
X35112389Y27262389D01*
X35093447Y27277934D01*
X35071836Y27289485D01*
X35048387Y27296598D01*
X35024001Y27299000D01*
X34249000Y27299000D01*
X34249000Y27801000D01*
X35024001Y27801000D01*
X35048387Y27803402D01*
X35071836Y27810515D01*
X35093447Y27822066D01*
X35112389Y27837611D01*
X35127934Y27856553D01*
X35139485Y27878164D01*
X35146598Y27901613D01*
X35149000Y27925999D01*
X35149000Y27974001D01*
X35146598Y27998387D01*
X35139485Y28021836D01*
X35127934Y28043447D01*
X35112389Y28062389D01*
X35093447Y28077934D01*
X35071836Y28089485D01*
X35048387Y28096598D01*
X35024001Y28099000D01*
X34249000Y28099000D01*
X34249000Y28601000D01*
X35024001Y28601000D01*
X35048387Y28603402D01*
X35071836Y28610515D01*
X35093447Y28622066D01*
X35112389Y28637611D01*
X35127934Y28656553D01*
X35139485Y28678164D01*
X35146598Y28701613D01*
X35149000Y28725999D01*
X35149000Y28774001D01*
X35146598Y28798387D01*
X35139485Y28821836D01*
X35127934Y28843447D01*
X35112389Y28862389D01*
X35093447Y28877934D01*
X35071836Y28889485D01*
X35048387Y28896598D01*
X35024001Y28899000D01*
X34249000Y28899000D01*
X34249000Y29401000D01*
X34951000Y29401000D01*
X34951000Y29125999D01*
X34951000Y29125999D01*
G37*
G36*
X32721000Y24299000D02*
G01*
X31419000Y24299000D01*
X31419000Y25151000D01*
X32721000Y25151000D01*
X32721000Y24299000D01*
X32721000Y24299000D01*
G37*
G36*
X30821000Y24299000D02*
G01*
X29519000Y24299000D01*
X29519000Y25151000D01*
X30821000Y25151000D01*
X30821000Y24299000D01*
X30821000Y24299000D01*
G37*
G36*
X41551000Y24499000D02*
G01*
X40849000Y24499000D01*
X40849000Y25001000D01*
X41551000Y25001000D01*
X41551000Y24499000D01*
X41551000Y24499000D01*
G37*
G36*
X10586642Y26257219D02*
G01*
X10716567Y26203402D01*
X10732416Y26196837D01*
X10863608Y26109178D01*
X10975178Y25997608D01*
X11049337Y25886620D01*
X11062838Y25866414D01*
X11123219Y25720642D01*
X11154000Y25565893D01*
X11154000Y25408107D01*
X11123219Y25253358D01*
X11070465Y25125999D01*
X11062837Y25107584D01*
X10975178Y24976392D01*
X10863608Y24864822D01*
X10732416Y24777163D01*
X10732415Y24777162D01*
X10732414Y24777162D01*
X10586642Y24716781D01*
X10431893Y24686000D01*
X10274107Y24686000D01*
X10119358Y24716781D01*
X9973586Y24777162D01*
X9973585Y24777162D01*
X9973584Y24777163D01*
X9842392Y24864822D01*
X9730822Y24976392D01*
X9643163Y25107584D01*
X9635535Y25125999D01*
X9582781Y25253358D01*
X9552000Y25408107D01*
X9552000Y25565893D01*
X9582781Y25720642D01*
X9643162Y25866414D01*
X9656663Y25886620D01*
X9730822Y25997608D01*
X9842392Y26109178D01*
X9973584Y26196837D01*
X9989433Y26203402D01*
X10119358Y26257219D01*
X10274107Y26288000D01*
X10431893Y26288000D01*
X10586642Y26257219D01*
X10586642Y26257219D01*
G37*
G36*
X7272425Y26413401D02*
G01*
X7396621Y26388698D01*
X7533022Y26332199D01*
X7655779Y26250175D01*
X7760175Y26145779D01*
X7842199Y26023022D01*
X7898698Y25886621D01*
X7927500Y25741819D01*
X7927500Y25594181D01*
X7898698Y25449379D01*
X7842199Y25312978D01*
X7760175Y25190221D01*
X7655779Y25085825D01*
X7533022Y25003801D01*
X7396621Y24947302D01*
X7272425Y24922599D01*
X7251820Y24918500D01*
X7104180Y24918500D01*
X7083575Y24922599D01*
X6959379Y24947302D01*
X6822978Y25003801D01*
X6700221Y25085825D01*
X6595825Y25190221D01*
X6513801Y25312978D01*
X6457302Y25449379D01*
X6428500Y25594181D01*
X6428500Y25741819D01*
X6457302Y25886621D01*
X6513801Y26023022D01*
X6595825Y26145779D01*
X6700221Y26250175D01*
X6822978Y26332199D01*
X6959379Y26388698D01*
X7083575Y26413401D01*
X7104180Y26417500D01*
X7251820Y26417500D01*
X7272425Y26413401D01*
X7272425Y26413401D01*
G37*
G36*
X41551000Y25299000D02*
G01*
X40849000Y25299000D01*
X40849000Y25801000D01*
X41551000Y25801000D01*
X41551000Y25299000D01*
X41551000Y25299000D01*
G37*
G36*
X25626000Y25549000D02*
G01*
X25074000Y25549000D01*
X25074000Y26251000D01*
X25626000Y26251000D01*
X25626000Y25549000D01*
X25626000Y25549000D01*
G37*
G36*
X27576000Y25549000D02*
G01*
X26724000Y25549000D01*
X26724000Y26851000D01*
X27576000Y26851000D01*
X27576000Y25549000D01*
X27576000Y25549000D01*
G37*
G36*
X41551000Y26099000D02*
G01*
X40849000Y26099000D01*
X40849000Y26601000D01*
X41551000Y26601000D01*
X41551000Y26099000D01*
X41551000Y26099000D01*
G37*
G36*
X21926000Y26383000D02*
G01*
X20624000Y26383000D01*
X20624000Y27385000D01*
X21926000Y27385000D01*
X21926000Y26383000D01*
X21926000Y26383000D01*
G37*
G36*
X24126000Y26383000D02*
G01*
X22824000Y26383000D01*
X22824000Y27385000D01*
X24126000Y27385000D01*
X24126000Y26383000D01*
X24126000Y26383000D01*
G37*
G36*
X41551000Y26899000D02*
G01*
X40849000Y26899000D01*
X40849000Y27401000D01*
X41551000Y27401000D01*
X41551000Y26899000D01*
X41551000Y26899000D01*
G37*
G36*
X13126642Y28543219D02*
G01*
X13272414Y28482838D01*
X13272416Y28482837D01*
X13403608Y28395178D01*
X13515178Y28283608D01*
X13570374Y28201000D01*
X13602838Y28152414D01*
X13663219Y28006642D01*
X13694000Y27851893D01*
X13694000Y27694107D01*
X13663219Y27539358D01*
X13628920Y27456553D01*
X13602837Y27393584D01*
X13515178Y27262392D01*
X13403608Y27150822D01*
X13272416Y27063163D01*
X13272415Y27063162D01*
X13272414Y27063162D01*
X13126642Y27002781D01*
X12971893Y26972000D01*
X12814107Y26972000D01*
X12659358Y27002781D01*
X12513586Y27063162D01*
X12513585Y27063162D01*
X12513584Y27063163D01*
X12382392Y27150822D01*
X12270822Y27262392D01*
X12183163Y27393584D01*
X12157080Y27456553D01*
X12122781Y27539358D01*
X12092000Y27694107D01*
X12092000Y27851893D01*
X12122781Y28006642D01*
X12183162Y28152414D01*
X12215626Y28201000D01*
X12270822Y28283608D01*
X12382392Y28395178D01*
X12513584Y28482837D01*
X12513586Y28482838D01*
X12659358Y28543219D01*
X12814107Y28574000D01*
X12971893Y28574000D01*
X13126642Y28543219D01*
X13126642Y28543219D01*
G37*
G36*
X10586642Y28543219D02*
G01*
X10732414Y28482838D01*
X10732416Y28482837D01*
X10863608Y28395178D01*
X10975178Y28283608D01*
X11030374Y28201000D01*
X11062838Y28152414D01*
X11123219Y28006642D01*
X11154000Y27851893D01*
X11154000Y27694107D01*
X11123219Y27539358D01*
X11088920Y27456553D01*
X11062837Y27393584D01*
X10975178Y27262392D01*
X10863608Y27150822D01*
X10732416Y27063163D01*
X10732415Y27063162D01*
X10732414Y27063162D01*
X10586642Y27002781D01*
X10431893Y26972000D01*
X10274107Y26972000D01*
X10119358Y27002781D01*
X9973586Y27063162D01*
X9973585Y27063162D01*
X9973584Y27063163D01*
X9842392Y27150822D01*
X9730822Y27262392D01*
X9643163Y27393584D01*
X9617080Y27456553D01*
X9582781Y27539358D01*
X9552000Y27694107D01*
X9552000Y27851893D01*
X9582781Y28006642D01*
X9643162Y28152414D01*
X9675626Y28201000D01*
X9730822Y28283608D01*
X9842392Y28395178D01*
X9973584Y28482837D01*
X9973586Y28482838D01*
X10119358Y28543219D01*
X10274107Y28574000D01*
X10431893Y28574000D01*
X10586642Y28543219D01*
X10586642Y28543219D01*
G37*
G36*
X30186000Y27359500D02*
G01*
X29584000Y27359500D01*
X29584000Y28061500D01*
X30186000Y28061500D01*
X30186000Y27359500D01*
X30186000Y27359500D01*
G37*
G36*
X32586000Y27449000D02*
G01*
X30684000Y27449000D01*
X30684000Y28551000D01*
X32586000Y28551000D01*
X32586000Y27449000D01*
X32586000Y27449000D01*
G37*
G36*
X27576000Y27449000D02*
G01*
X26724000Y27449000D01*
X26724000Y28751000D01*
X27576000Y28751000D01*
X27576000Y27449000D01*
X27576000Y27449000D01*
G37*
G36*
X25626000Y27649000D02*
G01*
X25074000Y27649000D01*
X25074000Y28351000D01*
X25626000Y28351000D01*
X25626000Y27649000D01*
X25626000Y27649000D01*
G37*
G36*
X41551000Y27699000D02*
G01*
X40849000Y27699000D01*
X40849000Y28201000D01*
X41551000Y28201000D01*
X41551000Y27699000D01*
X41551000Y27699000D01*
G37*
G36*
X21885000Y27780000D02*
G01*
X20583000Y27780000D01*
X20583000Y28782000D01*
X21885000Y28782000D01*
X21885000Y27780000D01*
X21885000Y27780000D01*
G37*
G36*
X24085000Y27780000D02*
G01*
X22783000Y27780000D01*
X22783000Y28782000D01*
X24085000Y28782000D01*
X24085000Y27780000D01*
X24085000Y27780000D01*
G37*
G36*
X30186000Y28459500D02*
G01*
X29584000Y28459500D01*
X29584000Y30040500D01*
X30186000Y30040500D01*
X30186000Y28459500D01*
X30186000Y28459500D01*
G37*
G36*
X41551000Y28499000D02*
G01*
X40849000Y28499000D01*
X40849000Y29001000D01*
X41551000Y29001000D01*
X41551000Y28499000D01*
X41551000Y28499000D01*
G37*
G36*
X25426000Y29099000D02*
G01*
X24574000Y29099000D01*
X24574000Y30401000D01*
X25426000Y30401000D01*
X25426000Y29099000D01*
X25426000Y29099000D01*
G37*
G36*
X34951000Y29699000D02*
G01*
X34249000Y29699000D01*
X34249000Y30201000D01*
X34951000Y30201000D01*
X34951000Y29699000D01*
X34951000Y29699000D01*
G37*
G36*
X32586000Y29949000D02*
G01*
X30684000Y29949000D01*
X30684000Y31051000D01*
X32586000Y31051000D01*
X32586000Y29949000D01*
X32586000Y29949000D01*
G37*
G36*
X38251000Y30975999D02*
G01*
X38253402Y30951613D01*
X38260515Y30928164D01*
X38272066Y30906553D01*
X38287611Y30887611D01*
X38306553Y30872066D01*
X38328164Y30860515D01*
X38351613Y30853402D01*
X38375999Y30851000D01*
X38424001Y30851000D01*
X38448387Y30853402D01*
X38471836Y30860515D01*
X38493447Y30872066D01*
X38512389Y30887611D01*
X38527934Y30906553D01*
X38539485Y30928164D01*
X38546598Y30951613D01*
X38549000Y30975999D01*
X38549000Y31751000D01*
X39051000Y31751000D01*
X39051000Y30975999D01*
X39053402Y30951613D01*
X39060515Y30928164D01*
X39072066Y30906553D01*
X39087611Y30887611D01*
X39106553Y30872066D01*
X39128164Y30860515D01*
X39151613Y30853402D01*
X39175999Y30851000D01*
X39224001Y30851000D01*
X39248387Y30853402D01*
X39271836Y30860515D01*
X39293447Y30872066D01*
X39312389Y30887611D01*
X39327934Y30906553D01*
X39339485Y30928164D01*
X39346598Y30951613D01*
X39349000Y30975999D01*
X39349000Y31751000D01*
X39851000Y31751000D01*
X39851000Y30975999D01*
X39853402Y30951613D01*
X39860515Y30928164D01*
X39872066Y30906553D01*
X39887611Y30887611D01*
X39906553Y30872066D01*
X39928164Y30860515D01*
X39951613Y30853402D01*
X39975999Y30851000D01*
X40024001Y30851000D01*
X40048387Y30853402D01*
X40071836Y30860515D01*
X40093447Y30872066D01*
X40112389Y30887611D01*
X40127934Y30906553D01*
X40139485Y30928164D01*
X40146598Y30951613D01*
X40149000Y30975999D01*
X40149000Y31751000D01*
X40651000Y31751000D01*
X40651000Y30975999D01*
X40653402Y30951613D01*
X40660515Y30928164D01*
X40672066Y30906553D01*
X40687611Y30887611D01*
X40706553Y30872066D01*
X40728164Y30860515D01*
X40751613Y30853402D01*
X40775999Y30851000D01*
X40824001Y30851000D01*
X40848387Y30853402D01*
X40871836Y30860515D01*
X40893447Y30872066D01*
X40912389Y30887611D01*
X40927934Y30906553D01*
X40939485Y30928164D01*
X40946598Y30951613D01*
X40949000Y30975999D01*
X40949000Y31751000D01*
X41451000Y31751000D01*
X41451000Y30975999D01*
X41453402Y30951613D01*
X41460515Y30928164D01*
X41472066Y30906553D01*
X41487611Y30887611D01*
X41506553Y30872066D01*
X41528164Y30860515D01*
X41551613Y30853402D01*
X41575999Y30851000D01*
X41624001Y30851000D01*
X41648387Y30853402D01*
X41671836Y30860515D01*
X41693447Y30872066D01*
X41712389Y30887611D01*
X41727934Y30906553D01*
X41739485Y30928164D01*
X41746598Y30951613D01*
X41749000Y30975999D01*
X41749000Y31751000D01*
X42251000Y31751000D01*
X42251000Y31049000D01*
X41975999Y31049000D01*
X41951613Y31046598D01*
X41928164Y31039485D01*
X41906553Y31027934D01*
X41887611Y31012389D01*
X41872066Y30993447D01*
X41860515Y30971836D01*
X41853402Y30948387D01*
X41851000Y30924001D01*
X41851000Y30149000D01*
X41349000Y30149000D01*
X41349000Y30924001D01*
X41346598Y30948387D01*
X41339485Y30971836D01*
X41327934Y30993447D01*
X41312389Y31012389D01*
X41293447Y31027934D01*
X41271836Y31039485D01*
X41248387Y31046598D01*
X41224001Y31049000D01*
X41175999Y31049000D01*
X41151613Y31046598D01*
X41128164Y31039485D01*
X41106553Y31027934D01*
X41087611Y31012389D01*
X41072066Y30993447D01*
X41060515Y30971836D01*
X41053402Y30948387D01*
X41051000Y30924001D01*
X41051000Y30149000D01*
X40549000Y30149000D01*
X40549000Y30924001D01*
X40546598Y30948387D01*
X40539485Y30971836D01*
X40527934Y30993447D01*
X40512389Y31012389D01*
X40493447Y31027934D01*
X40471836Y31039485D01*
X40448387Y31046598D01*
X40424001Y31049000D01*
X40375999Y31049000D01*
X40351613Y31046598D01*
X40328164Y31039485D01*
X40306553Y31027934D01*
X40287611Y31012389D01*
X40272066Y30993447D01*
X40260515Y30971836D01*
X40253402Y30948387D01*
X40251000Y30924001D01*
X40251000Y30149000D01*
X39749000Y30149000D01*
X39749000Y30924001D01*
X39746598Y30948387D01*
X39739485Y30971836D01*
X39727934Y30993447D01*
X39712389Y31012389D01*
X39693447Y31027934D01*
X39671836Y31039485D01*
X39648387Y31046598D01*
X39624001Y31049000D01*
X39575999Y31049000D01*
X39551613Y31046598D01*
X39528164Y31039485D01*
X39506553Y31027934D01*
X39487611Y31012389D01*
X39472066Y30993447D01*
X39460515Y30971836D01*
X39453402Y30948387D01*
X39451000Y30924001D01*
X39451000Y30149000D01*
X38949000Y30149000D01*
X38949000Y30924001D01*
X38946598Y30948387D01*
X38939485Y30971836D01*
X38927934Y30993447D01*
X38912389Y31012389D01*
X38893447Y31027934D01*
X38871836Y31039485D01*
X38848387Y31046598D01*
X38824001Y31049000D01*
X38775999Y31049000D01*
X38751613Y31046598D01*
X38728164Y31039485D01*
X38706553Y31027934D01*
X38687611Y31012389D01*
X38672066Y30993447D01*
X38660515Y30971836D01*
X38653402Y30948387D01*
X38651000Y30924001D01*
X38651000Y30149000D01*
X38149000Y30149000D01*
X38149000Y30924001D01*
X38146598Y30948387D01*
X38139485Y30971836D01*
X38127934Y30993447D01*
X38112389Y31012389D01*
X38093447Y31027934D01*
X38071836Y31039485D01*
X38048387Y31046598D01*
X38024001Y31049000D01*
X37749000Y31049000D01*
X37749000Y31751000D01*
X38251000Y31751000D01*
X38251000Y30975999D01*
X38251000Y30975999D01*
G37*
G36*
X5708425Y31693401D02*
G01*
X5832621Y31668698D01*
X5969022Y31612199D01*
X6091779Y31530175D01*
X6196175Y31425779D01*
X6278199Y31303022D01*
X6334698Y31166621D01*
X6363500Y31021819D01*
X6363500Y30874181D01*
X6334698Y30729379D01*
X6278199Y30592978D01*
X6196175Y30470221D01*
X6091779Y30365825D01*
X5969022Y30283801D01*
X5832621Y30227302D01*
X5708425Y30202599D01*
X5687820Y30198500D01*
X5540180Y30198500D01*
X5519575Y30202599D01*
X5395379Y30227302D01*
X5258978Y30283801D01*
X5136221Y30365825D01*
X5031825Y30470221D01*
X4949801Y30592978D01*
X4893302Y30729379D01*
X4864500Y30874181D01*
X4864500Y31021819D01*
X4893302Y31166621D01*
X4949801Y31303022D01*
X5031825Y31425779D01*
X5136221Y31530175D01*
X5258978Y31612199D01*
X5395379Y31668698D01*
X5519575Y31693401D01*
X5540180Y31697500D01*
X5687820Y31697500D01*
X5708425Y31693401D01*
X5708425Y31693401D01*
G37*
G36*
X10708425Y31693401D02*
G01*
X10832621Y31668698D01*
X10969022Y31612199D01*
X11091779Y31530175D01*
X11196175Y31425779D01*
X11278199Y31303022D01*
X11334698Y31166621D01*
X11363500Y31021819D01*
X11363500Y30874181D01*
X11334698Y30729379D01*
X11278199Y30592978D01*
X11196175Y30470221D01*
X11091779Y30365825D01*
X10969022Y30283801D01*
X10832621Y30227302D01*
X10708425Y30202599D01*
X10687820Y30198500D01*
X10540180Y30198500D01*
X10519575Y30202599D01*
X10395379Y30227302D01*
X10258978Y30283801D01*
X10136221Y30365825D01*
X10031825Y30470221D01*
X9949801Y30592978D01*
X9893302Y30729379D01*
X9864500Y30874181D01*
X9864500Y31021819D01*
X9893302Y31166621D01*
X9949801Y31303022D01*
X10031825Y31425779D01*
X10136221Y31530175D01*
X10258978Y31612199D01*
X10395379Y31668698D01*
X10519575Y31693401D01*
X10540180Y31697500D01*
X10687820Y31697500D01*
X10708425Y31693401D01*
X10708425Y31693401D01*
G37*
G36*
X3208425Y31693401D02*
G01*
X3332621Y31668698D01*
X3469022Y31612199D01*
X3591779Y31530175D01*
X3696175Y31425779D01*
X3778199Y31303022D01*
X3834698Y31166621D01*
X3863500Y31021819D01*
X3863500Y30874181D01*
X3834698Y30729379D01*
X3778199Y30592978D01*
X3696175Y30470221D01*
X3591779Y30365825D01*
X3469022Y30283801D01*
X3332621Y30227302D01*
X3208425Y30202599D01*
X3187820Y30198500D01*
X3040180Y30198500D01*
X3019575Y30202599D01*
X2895379Y30227302D01*
X2758978Y30283801D01*
X2636221Y30365825D01*
X2531825Y30470221D01*
X2449801Y30592978D01*
X2393302Y30729379D01*
X2364500Y30874181D01*
X2364500Y31021819D01*
X2393302Y31166621D01*
X2449801Y31303022D01*
X2531825Y31425779D01*
X2636221Y31530175D01*
X2758978Y31612199D01*
X2895379Y31668698D01*
X3019575Y31693401D01*
X3040180Y31697500D01*
X3187820Y31697500D01*
X3208425Y31693401D01*
X3208425Y31693401D01*
G37*
G36*
X8208425Y31693401D02*
G01*
X8332621Y31668698D01*
X8469022Y31612199D01*
X8591779Y31530175D01*
X8696175Y31425779D01*
X8778199Y31303022D01*
X8834698Y31166621D01*
X8863500Y31021819D01*
X8863500Y30874181D01*
X8834698Y30729379D01*
X8778199Y30592978D01*
X8696175Y30470221D01*
X8591779Y30365825D01*
X8469022Y30283801D01*
X8332621Y30227302D01*
X8208425Y30202599D01*
X8187820Y30198500D01*
X8040180Y30198500D01*
X8019575Y30202599D01*
X7895379Y30227302D01*
X7758978Y30283801D01*
X7636221Y30365825D01*
X7531825Y30470221D01*
X7449801Y30592978D01*
X7393302Y30729379D01*
X7364500Y30874181D01*
X7364500Y31021819D01*
X7393302Y31166621D01*
X7449801Y31303022D01*
X7531825Y31425779D01*
X7636221Y31530175D01*
X7758978Y31612199D01*
X7895379Y31668698D01*
X8019575Y31693401D01*
X8040180Y31697500D01*
X8187820Y31697500D01*
X8208425Y31693401D01*
X8208425Y31693401D01*
G37*
G36*
X30186000Y30438500D02*
G01*
X29584000Y30438500D01*
X29584000Y31140500D01*
X30186000Y31140500D01*
X30186000Y30438500D01*
X30186000Y30438500D01*
G37*
G36*
X34951000Y30499000D02*
G01*
X34249000Y30499000D01*
X34249000Y31001000D01*
X34951000Y31001000D01*
X34951000Y30499000D01*
X34951000Y30499000D01*
G37*
G36*
X25426000Y30999000D02*
G01*
X24574000Y30999000D01*
X24574000Y32301000D01*
X25426000Y32301000D01*
X25426000Y30999000D01*
X25426000Y30999000D01*
G37*
G36*
X43851000Y31049000D02*
G01*
X43349000Y31049000D01*
X43349000Y31751000D01*
X43851000Y31751000D01*
X43851000Y31049000D01*
X43851000Y31049000D01*
G37*
G36*
X44651000Y31049000D02*
G01*
X44149000Y31049000D01*
X44149000Y31751000D01*
X44651000Y31751000D01*
X44651000Y31049000D01*
X44651000Y31049000D01*
G37*
G36*
X45751000Y31049000D02*
G01*
X45249000Y31049000D01*
X45249000Y31751000D01*
X45751000Y31751000D01*
X45751000Y31049000D01*
X45751000Y31049000D01*
G37*
G36*
X34951000Y31299000D02*
G01*
X34249000Y31299000D01*
X34249000Y31801000D01*
X34951000Y31801000D01*
X34951000Y31299000D01*
X34951000Y31299000D01*
G37*
G36*
X28801000Y32924000D02*
G01*
X25699000Y32924000D01*
X25699000Y34376000D01*
X28801000Y34376000D01*
X28801000Y32924000D01*
X28801000Y32924000D01*
G37*
G36*
X30003114Y34168389D02*
G01*
X30102265Y34138312D01*
X30193644Y34089469D01*
X30273738Y34023738D01*
X30339469Y33943644D01*
X30388312Y33852265D01*
X30418389Y33753114D01*
X30428545Y33650000D01*
X30418389Y33546886D01*
X30388312Y33447735D01*
X30339469Y33356356D01*
X30273738Y33276262D01*
X30193644Y33210531D01*
X30102265Y33161688D01*
X30003114Y33131611D01*
X29925839Y33124000D01*
X29574161Y33124000D01*
X29496886Y33131611D01*
X29397735Y33161688D01*
X29306356Y33210531D01*
X29226262Y33276262D01*
X29160531Y33356356D01*
X29111688Y33447735D01*
X29081611Y33546886D01*
X29071455Y33650000D01*
X29081611Y33753114D01*
X29111688Y33852265D01*
X29160531Y33943644D01*
X29226262Y34023738D01*
X29306356Y34089469D01*
X29397735Y34138312D01*
X29496886Y34168389D01*
X29574161Y34176000D01*
X29925839Y34176000D01*
X30003114Y34168389D01*
X30003114Y34168389D01*
G37*
G36*
X25003114Y34168389D02*
G01*
X25102265Y34138312D01*
X25193644Y34089469D01*
X25273738Y34023738D01*
X25339469Y33943644D01*
X25388312Y33852265D01*
X25418389Y33753114D01*
X25428545Y33650000D01*
X25418389Y33546886D01*
X25388312Y33447735D01*
X25339469Y33356356D01*
X25273738Y33276262D01*
X25193644Y33210531D01*
X25102265Y33161688D01*
X25003114Y33131611D01*
X24925839Y33124000D01*
X24574161Y33124000D01*
X24496886Y33131611D01*
X24397735Y33161688D01*
X24306356Y33210531D01*
X24226262Y33276262D01*
X24160531Y33356356D01*
X24111688Y33447735D01*
X24081611Y33546886D01*
X24071455Y33650000D01*
X24081611Y33753114D01*
X24111688Y33852265D01*
X24160531Y33943644D01*
X24226262Y34023738D01*
X24306356Y34089469D01*
X24397735Y34138312D01*
X24496886Y34168389D01*
X24574161Y34176000D01*
X24925839Y34176000D01*
X25003114Y34168389D01*
X25003114Y34168389D01*
G37*
G36*
X37433000Y33322000D02*
G01*
X36131000Y33322000D01*
X36131000Y34324000D01*
X37433000Y34324000D01*
X37433000Y33322000D01*
X37433000Y33322000D01*
G37*
G36*
X35233000Y33322000D02*
G01*
X33931000Y33322000D01*
X33931000Y34324000D01*
X35233000Y34324000D01*
X35233000Y33322000D01*
X35233000Y33322000D01*
G37*
G36*
X39161642Y35337719D02*
G01*
X39307414Y35277338D01*
X39307416Y35277337D01*
X39438608Y35189678D01*
X39550178Y35078108D01*
X39637837Y34946916D01*
X39637838Y34946914D01*
X39698219Y34801142D01*
X39729000Y34646393D01*
X39729000Y34488607D01*
X39698219Y34333858D01*
X39637838Y34188086D01*
X39637837Y34188084D01*
X39550178Y34056892D01*
X39438608Y33945322D01*
X39307416Y33857663D01*
X39307415Y33857662D01*
X39307414Y33857662D01*
X39161642Y33797281D01*
X39006893Y33766500D01*
X38849107Y33766500D01*
X38694358Y33797281D01*
X38548586Y33857662D01*
X38548585Y33857662D01*
X38548584Y33857663D01*
X38417392Y33945322D01*
X38305822Y34056892D01*
X38218163Y34188084D01*
X38218162Y34188086D01*
X38157781Y34333858D01*
X38127000Y34488607D01*
X38127000Y34646393D01*
X38157781Y34801142D01*
X38218162Y34946914D01*
X38218163Y34946916D01*
X38305822Y35078108D01*
X38417392Y35189678D01*
X38548584Y35277337D01*
X38548586Y35277338D01*
X38694358Y35337719D01*
X38849107Y35368500D01*
X39006893Y35368500D01*
X39161642Y35337719D01*
X39161642Y35337719D01*
G37*
G36*
X44064500Y33853000D02*
G01*
X43062500Y33853000D01*
X43062500Y35155000D01*
X44064500Y35155000D01*
X44064500Y33853000D01*
X44064500Y33853000D01*
G37*
G36*
X41334000Y33899000D02*
G01*
X40332000Y33899000D01*
X40332000Y35201000D01*
X41334000Y35201000D01*
X41334000Y33899000D01*
X41334000Y33899000D01*
G37*
G36*
X37433000Y34785500D02*
G01*
X36131000Y34785500D01*
X36131000Y35787500D01*
X37433000Y35787500D01*
X37433000Y34785500D01*
X37433000Y34785500D01*
G37*
G36*
X35233000Y34785500D02*
G01*
X33931000Y34785500D01*
X33931000Y35787500D01*
X35233000Y35787500D01*
X35233000Y34785500D01*
X35233000Y34785500D01*
G37*
G36*
X23858015Y37168027D02*
G01*
X23961879Y37136521D01*
X23989055Y37121995D01*
X24057600Y37085357D01*
X24141501Y37016501D01*
X24210357Y36932600D01*
X24246995Y36864055D01*
X24261521Y36836879D01*
X24293027Y36733015D01*
X24301000Y36652067D01*
X24301000Y36047933D01*
X24293027Y35966985D01*
X24261521Y35863121D01*
X24210356Y35767400D01*
X24141501Y35683499D01*
X24072645Y35626991D01*
X24057599Y35614643D01*
X24005907Y35587013D01*
X23961878Y35563479D01*
X23858014Y35531973D01*
X23750000Y35521334D01*
X23641985Y35531973D01*
X23538121Y35563479D01*
X23494093Y35587013D01*
X23442401Y35614643D01*
X23429643Y35625113D01*
X23358499Y35683499D01*
X23289644Y35767400D01*
X23238479Y35863122D01*
X23206973Y35966986D01*
X23199000Y36047934D01*
X23199000Y36652067D01*
X23206973Y36733015D01*
X23238480Y36836879D01*
X23238481Y36836882D01*
X23289643Y36932599D01*
X23358500Y37016501D01*
X23442401Y37085357D01*
X23510946Y37121995D01*
X23538122Y37136521D01*
X23641986Y37168027D01*
X23750000Y37178666D01*
X23858015Y37168027D01*
X23858015Y37168027D01*
G37*
G36*
X30858015Y37168027D02*
G01*
X30961879Y37136521D01*
X30989055Y37121995D01*
X31057600Y37085357D01*
X31141501Y37016501D01*
X31210357Y36932600D01*
X31246995Y36864055D01*
X31261521Y36836879D01*
X31293027Y36733015D01*
X31301000Y36652067D01*
X31301000Y36047933D01*
X31293027Y35966985D01*
X31261521Y35863121D01*
X31210356Y35767400D01*
X31141501Y35683499D01*
X31072645Y35626991D01*
X31057599Y35614643D01*
X31005907Y35587013D01*
X30961878Y35563479D01*
X30858014Y35531973D01*
X30750000Y35521334D01*
X30641985Y35531973D01*
X30538121Y35563479D01*
X30494093Y35587013D01*
X30442401Y35614643D01*
X30429643Y35625113D01*
X30358499Y35683499D01*
X30289644Y35767400D01*
X30238479Y35863122D01*
X30206973Y35966986D01*
X30199000Y36047934D01*
X30199000Y36652067D01*
X30206973Y36733015D01*
X30238480Y36836879D01*
X30238481Y36836882D01*
X30289643Y36932599D01*
X30358500Y37016501D01*
X30442401Y37085357D01*
X30510946Y37121995D01*
X30538122Y37136521D01*
X30641986Y37168027D01*
X30750000Y37178666D01*
X30858015Y37168027D01*
X30858015Y37168027D01*
G37*
G36*
X29051000Y35524000D02*
G01*
X27449000Y35524000D01*
X27449000Y37176000D01*
X29051000Y37176000D01*
X29051000Y35524000D01*
X29051000Y35524000D01*
G37*
G36*
X27051000Y35524000D02*
G01*
X25449000Y35524000D01*
X25449000Y37176000D01*
X27051000Y37176000D01*
X27051000Y35524000D01*
X27051000Y35524000D01*
G37*
G36*
X44064500Y36053000D02*
G01*
X43062500Y36053000D01*
X43062500Y37355000D01*
X44064500Y37355000D01*
X44064500Y36053000D01*
X44064500Y36053000D01*
G37*
G36*
X41334000Y36099000D02*
G01*
X40332000Y36099000D01*
X40332000Y37401000D01*
X41334000Y37401000D01*
X41334000Y36099000D01*
X41334000Y36099000D01*
G37*
G36*
X34895500Y36524000D02*
G01*
X34193500Y36524000D01*
X34193500Y37076000D01*
X34895500Y37076000D01*
X34895500Y36524000D01*
X34895500Y36524000D01*
G37*
G36*
X36995500Y36524000D02*
G01*
X36293500Y36524000D01*
X36293500Y37076000D01*
X36995500Y37076000D01*
X36995500Y36524000D01*
X36995500Y36524000D01*
G37*
M02*
