G04 #@! TF.GenerationSoftware,KiCad,Pcbnew,(5.1.2)-1*
G04 #@! TF.CreationDate,2020-12-24T11:37:57-05:00*
G04 #@! TF.ProjectId,Glove PCB,476c6f76-6520-4504-9342-2e6b69636164,rev?*
G04 #@! TF.SameCoordinates,PX1312d00PYb80f240*
G04 #@! TF.FileFunction,Paste,Top*
G04 #@! TF.FilePolarity,Positive*
%FSLAX46Y46*%
G04 Gerber Fmt 4.6, Leading zero omitted, Abs format (unit mm)*
G04 Created by KiCad (PCBNEW (5.1.2)-1) date 2020-12-24 11:37:57*
%MOMM*%
%LPD*%
G04 APERTURE LIST*
%ADD10R,1.800000X1.000000*%
%ADD11R,1.200000X0.900000*%
%ADD12R,0.900000X1.200000*%
%ADD13R,0.575000X0.650000*%
%ADD14R,1.000000X0.845000*%
%ADD15R,0.300000X1.000000*%
%ADD16R,1.000000X0.300000*%
%ADD17R,3.350000X3.350000*%
%ADD18R,1.100000X1.400000*%
%ADD19R,1.200000X0.750000*%
%ADD20R,0.750000X1.200000*%
%ADD21R,0.600000X0.400000*%
%ADD22R,0.400000X0.600000*%
%ADD23R,0.600000X0.450000*%
%ADD24R,0.450000X0.600000*%
%ADD25R,0.400000X1.350000*%
%ADD26R,1.500000X1.550000*%
%ADD27R,0.500000X0.600000*%
G04 APERTURE END LIST*
D10*
X31635000Y30500000D03*
X31635000Y28000000D03*
D11*
X34582000Y33823000D03*
X36782000Y33823000D03*
X36782000Y35286500D03*
X34582000Y35286500D03*
D12*
X34978300Y7953400D03*
X34978300Y5753400D03*
X33200300Y7953400D03*
X33200300Y5753400D03*
D11*
X21275000Y26884000D03*
X23475000Y26884000D03*
D13*
X31060500Y10818500D03*
X30285500Y10818500D03*
D14*
X35308500Y17910500D03*
X35308500Y19835500D03*
D15*
X14314000Y13866000D03*
X14814000Y13866000D03*
X15314000Y13866000D03*
X15814000Y13866000D03*
X16314000Y13866000D03*
X16814000Y13866000D03*
X17314000Y13866000D03*
D16*
X18164000Y14716000D03*
X18164000Y15216000D03*
X18164000Y15716000D03*
X18164000Y16216000D03*
X18164000Y16716000D03*
X18164000Y17216000D03*
X18164000Y17716000D03*
D15*
X17314000Y18566000D03*
X16814000Y18566000D03*
X16314000Y18566000D03*
X15814000Y18566000D03*
X15314000Y18566000D03*
X14814000Y18566000D03*
X14314000Y18566000D03*
D16*
X13464000Y17716000D03*
X13464000Y17216000D03*
X13464000Y16716000D03*
X13464000Y16216000D03*
X13464000Y15716000D03*
X13464000Y15216000D03*
X13464000Y14716000D03*
D17*
X15814000Y16216000D03*
D18*
X33254000Y18750000D03*
X30254000Y18750000D03*
X33254000Y12250000D03*
X30254000Y12250000D03*
D19*
X26251200Y19078000D03*
X28151200Y19078000D03*
D20*
X20675000Y15913000D03*
X20675000Y17813000D03*
D19*
X28151200Y17828000D03*
X26251200Y17828000D03*
D20*
X22037000Y15913000D03*
X22037000Y17813000D03*
X27150000Y26200000D03*
X27150000Y28100000D03*
D21*
X41200000Y24750000D03*
X41200000Y25550000D03*
X41200000Y26350000D03*
X41200000Y27150000D03*
X41200000Y27950000D03*
X41200000Y28750000D03*
D22*
X45500000Y22100000D03*
X44800000Y23000000D03*
X44400000Y22100000D03*
X44000000Y23000000D03*
X43600000Y22100000D03*
X43200000Y23000000D03*
X42400000Y23000000D03*
X42000000Y22100000D03*
X41600000Y23000000D03*
X41200000Y22100000D03*
X40800000Y23000000D03*
X40400000Y22100000D03*
X40000000Y23000000D03*
X39200000Y23000000D03*
X38800000Y22100000D03*
X38400000Y23000000D03*
X38000000Y22100000D03*
X37600000Y23000000D03*
X37200000Y22100000D03*
X36800000Y23000000D03*
X36400000Y22100000D03*
X35600000Y22100000D03*
D21*
X34600000Y21950000D03*
X34600000Y22750000D03*
X34600000Y23550000D03*
X34600000Y24350000D03*
X35500000Y24750000D03*
X34600000Y25150000D03*
X35500000Y25550000D03*
X34600000Y25950000D03*
X35500000Y26350000D03*
X34600000Y26750000D03*
X35500000Y27150000D03*
X34600000Y27550000D03*
X35500000Y27950000D03*
X34600000Y28350000D03*
X35500000Y28750000D03*
X34600000Y29150000D03*
X34600000Y29950000D03*
X34600000Y30750000D03*
X34600000Y31550000D03*
D22*
X38000000Y31400000D03*
X38400000Y30500000D03*
X38800000Y31400000D03*
X39200000Y30500000D03*
X39600000Y31400000D03*
X40000000Y30500000D03*
X40400000Y31400000D03*
X40800000Y30500000D03*
X41200000Y31400000D03*
X41600000Y30500000D03*
X42000000Y31400000D03*
X43600000Y31400000D03*
X44400000Y31400000D03*
X45500000Y31400000D03*
D23*
X36644500Y36800000D03*
X34544500Y36800000D03*
D24*
X25350000Y28000000D03*
X25350000Y25900000D03*
D19*
X32070000Y24725000D03*
X30170000Y24725000D03*
X30104000Y22058000D03*
X32004000Y22058000D03*
D20*
X25000000Y29750000D03*
X25000000Y31650000D03*
D19*
X16388000Y19962500D03*
X18288000Y19962500D03*
X16388000Y21232500D03*
X18288000Y21232500D03*
D20*
X12038000Y19899000D03*
X12038000Y17999000D03*
X10688000Y19899000D03*
X10688000Y17999000D03*
D12*
X40833000Y34550000D03*
X40833000Y36750000D03*
X43563500Y34504000D03*
X43563500Y36704000D03*
D11*
X21234000Y28281000D03*
X23434000Y28281000D03*
D12*
X33200300Y1996900D03*
X33200300Y4196900D03*
X34978300Y1912900D03*
X34978300Y4112900D03*
D15*
X24347000Y11808600D03*
X24847000Y11808600D03*
X25347000Y11808600D03*
X25847000Y11808600D03*
X26347000Y11808600D03*
X26847000Y11808600D03*
X27347000Y11808600D03*
D16*
X28197000Y12658600D03*
X28197000Y13158600D03*
X28197000Y13658600D03*
X28197000Y14158600D03*
X28197000Y14658600D03*
X28197000Y15158600D03*
X28197000Y15658600D03*
D15*
X27347000Y16508600D03*
X26847000Y16508600D03*
X26347000Y16508600D03*
X25847000Y16508600D03*
X25347000Y16508600D03*
X24847000Y16508600D03*
X24347000Y16508600D03*
D16*
X23497000Y15658600D03*
X23497000Y15158600D03*
X23497000Y14658600D03*
X23497000Y14158600D03*
X23497000Y13658600D03*
X23497000Y13158600D03*
X23497000Y12658600D03*
D17*
X25847000Y14158600D03*
D25*
X25950000Y33650000D03*
X26600000Y33650000D03*
X27250000Y33650000D03*
X27900000Y33650000D03*
X28550000Y33650000D03*
D26*
X28250000Y36350000D03*
X26250000Y36350000D03*
D14*
X36642000Y17910500D03*
X36642000Y19835500D03*
D27*
X29885000Y30789500D03*
X29885000Y29689500D03*
X29885000Y28810500D03*
X29885000Y27710500D03*
M02*
