M48
; DRILL file {KiCad (5.1.2)-1} date 2020-12-24 11:55:57 AM
; FORMAT={-:-/ absolute / inch / decimal}
; #@! TF.CreationDate,2020-12-24T11:55:57-05:00
; #@! TF.GenerationSoftware,Kicad,Pcbnew,(5.1.2)-1
; #@! TF.FileFunction,Plated,1,4,PTH
FMAT,2
INCH
T1C0.0118
T2C0.0197
T3C0.0217
T4C0.0350
T5C0.0394
%
G90
G05
T1
X0.1276Y0.9634
X0.1276Y0.8684
X0.1276Y0.7684
X0.1276Y0.6634
X0.1276Y0.5634
X0.1752Y1.4322
X0.1776Y1.1659
X0.1776Y0.1434
X0.2176Y1.1659
X0.2526Y1.1659
X0.2776Y0.1434
X0.3702Y1.4322
X0.3976Y0.9543
X0.4051Y1.1659
X0.4226Y0.6959
X0.435Y0.9543
X0.4411Y0.6583
X0.4476Y0.5534
X0.4651Y0.9184
X0.4676Y0.5284
X0.4723Y0.6632
X0.4726Y0.9509
X0.4726Y0.6959
X0.4726Y0.1484
X0.4727Y1.1009
X0.4801Y0.5534
X0.4851Y0.2209
X0.4901Y0.9184
X0.5026Y0.1484
X0.5151Y0.9184
X0.516Y0.7959
X0.5251Y0.2209
X0.5326Y0.9759
X0.5326Y0.9484
X0.5626Y0.2209
X0.5776Y1.0534
X0.5827Y0.9803
X0.5976Y1.2934
X0.5976Y1.2509
X0.5976Y1.2109
X0.5976Y1.1684
X0.5976Y1.1284
X0.6076Y0.2209
X0.6376Y1.3759
X0.6376Y1.3334
X0.6376Y1.2934
X0.6376Y1.2509
X0.6376Y1.2109
X0.6419Y0.8734
X0.6457Y0.3819
X0.6526Y0.4834
X0.6776Y1.3759
X0.6776Y1.3334
X0.6776Y1.2934
X0.6776Y1.2509
X0.6776Y1.2109
X0.679Y0.4009
X0.7351Y0.3559
X0.7551Y0.7309
X0.7601Y1.3759
X0.7601Y1.3334
X0.7601Y1.2934
X0.7601Y1.2509
X0.7601Y1.2109
X0.7626Y0.0534
X0.7774Y0.6369
X0.7776Y0.6684
X0.7951Y1.0859
X0.7976Y1.1709
X0.8001Y1.3759
X0.8001Y1.3334
X0.8001Y1.2909
X0.8001Y1.2509
X0.8001Y1.2109
X0.8026Y0.0534
X0.8051Y0.2384
X0.8126Y0.4984
X0.8126Y0.3609
X0.814Y0.6132
X0.8151Y0.5309
X0.8151Y0.4059
X0.8226Y0.4559
X0.8376Y0.8659
X0.8401Y1.2909
X0.8401Y1.2509
X0.8401Y1.2109
X0.8401Y1.1709
X0.8401Y0.0534
X0.8404Y0.5608
X0.8526Y0.4309
X0.8663Y0.5334
X0.8676Y0.6132
X0.8792Y0.7934
X0.8826Y1.0534
X0.8851Y0.0534
X0.8876Y0.8384
X0.9051Y0.2409
X0.9076Y0.1484
X0.9156Y0.7029
X0.9251Y0.0534
X0.935Y1.1232
X0.9449Y1.1614
X0.9501Y0.7064
X0.9526Y0.8084
X0.9576Y0.7734
X0.9676Y0.0534
X0.9959Y0.7467
X0.9976Y0.7184
X1.0051Y0.0534
X1.0167Y0.3694
X1.0226Y1.1434
X1.0326Y1.1984
X1.0335Y1.1713
X1.0433Y0.9941
X1.0698Y1.2627
X1.0827Y0.9941
X1.0866Y0.4134
X1.0876Y1.1559
X1.0976Y0.1484
X1.1014Y1.2627
X1.1051Y0.4609
X1.1076Y0.6509
X1.1176Y1.0734
X1.1176Y0.0709
X1.1226Y0.4134
X1.1576Y0.0709
X1.1951Y0.0709
X1.2401Y0.0709
X1.2551Y0.4134
X1.2626Y0.9734
X1.2676Y0.3084
X1.2677Y1.4449
X1.3051Y0.8955
X1.3092Y0.7382
X1.3126Y1.4484
X1.3126Y0.8309
X1.3176Y1.0884
X1.3176Y0.8559
X1.3189Y1.2795
X1.3189Y1.25
X1.3189Y1.2205
X1.3351Y0.8955
X1.3376Y0.8234
X1.3484Y1.2795
X1.3651Y0.8259
X1.378Y1.2795
X1.3943Y0.6309
X1.3976Y0.9055
X1.4075Y1.2795
X1.4075Y1.25
X1.4259Y0.6309
X1.5126Y0.9359
X1.5526Y0.8284
X1.575Y0.9334
X1.5851Y0.0384
X1.6076Y1.4267
X1.6076Y1.2809
X1.6077Y0.9344
X1.6251Y0.7634
X1.6389Y0.9386
X1.6626Y1.3309
X1.6851Y0.8509
X1.7151Y1.4262
X1.7151Y1.2809
X1.7226Y0.7709
X1.752Y1.2795
X1.752Y1.2008
X1.752Y1.1713
X1.7717Y0.9449
X1.7776Y1.3334
X1.7815Y1.2795
X1.7815Y1.2008
X1.7815Y1.1713
X0.6962Y0.9279
X0.6962Y0.8901
X0.7301Y0.909
X0.764Y0.9279
X0.764Y0.8901
T4
X0.2826Y1.0106
X0.2826Y0.9121
X0.2826Y0.8137
X0.2826Y0.7153
X0.2826Y0.6169
X0.2826Y0.5184
X0.1273Y0.3084
X0.2257Y0.3084
X0.3242Y0.3084
X0.4226Y0.3084
X0.6605Y0.3084
X0.7589Y0.3084
X0.8573Y0.3084
X0.9557Y0.3084
X1.0542Y0.3084
X1.1526Y0.3084
X0.1226Y1.2184
X0.221Y1.2184
X0.3194Y1.2184
X0.4179Y1.2184
T5
X1.5986Y0.7004
X1.5986Y0.6004
X1.5986Y0.5004
X1.5986Y0.4004
X1.5986Y0.3004
X1.5986Y0.2004
X1.5986Y0.1004
X1.6986Y0.7004
X1.6986Y0.6004
X1.6986Y0.5004
X1.6986Y0.4004
X1.6986Y0.3004
X1.6986Y0.2004
X1.6986Y0.1004
T2
G00X0.935Y1.4439
M15
G01X0.935Y1.4183
M16
G05
G00X1.2106Y1.4439
M15
G01X1.2106Y1.4183
M16
G05
T3
G00X0.9803Y1.3248
M15
G01X0.9685Y1.3248
M16
G05
G00X1.1772Y1.3248
M15
G01X1.1654Y1.3248
M16
G05
T0
M30
