G04 #@! TF.GenerationSoftware,KiCad,Pcbnew,(5.1.2)-1*
G04 #@! TF.CreationDate,2020-12-24T11:55:47-05:00*
G04 #@! TF.ProjectId,Glove PCB,476c6f76-6520-4504-9342-2e6b69636164,rev?*
G04 #@! TF.SameCoordinates,PX1312d00PYb80f240*
G04 #@! TF.FileFunction,Legend,Top*
G04 #@! TF.FilePolarity,Positive*
%FSLAX46Y46*%
G04 Gerber Fmt 4.6, Leading zero omitted, Abs format (unit mm)*
G04 Created by KiCad (PCBNEW (5.1.2)-1) date 2020-12-24 11:55:47*
%MOMM*%
%LPD*%
G04 APERTURE LIST*
%ADD10C,0.120000*%
%ADD11C,0.150000*%
%ADD12C,0.152400*%
%ADD13C,0.250000*%
%ADD14C,0.100000*%
%ADD15C,0.300000*%
%ADD16C,0.254000*%
G04 APERTURE END LIST*
D10*
X35880000Y9104000D02*
X35372000Y9104000D01*
X35880000Y8596000D02*
X35880000Y9104000D01*
X35880000Y9104000D02*
X35880000Y8596000D01*
X36388000Y10120000D02*
X35880000Y9104000D01*
X36896000Y10120000D02*
X36388000Y10120000D01*
X36388000Y10120000D02*
X36896000Y10120000D01*
X36388000Y10628000D02*
X36388000Y10120000D01*
D11*
X45466714Y8815429D02*
X45573857Y8779715D01*
X45752428Y8779715D01*
X45823857Y8815429D01*
X45859571Y8851143D01*
X45895285Y8922572D01*
X45895285Y8994000D01*
X45859571Y9065429D01*
X45823857Y9101143D01*
X45752428Y9136858D01*
X45609571Y9172572D01*
X45538142Y9208286D01*
X45502428Y9244000D01*
X45466714Y9315429D01*
X45466714Y9386858D01*
X45502428Y9458286D01*
X45538142Y9494000D01*
X45609571Y9529715D01*
X45788142Y9529715D01*
X45895285Y9494000D01*
X46145285Y9529715D02*
X46323857Y8779715D01*
X46466714Y9315429D01*
X46609571Y8779715D01*
X46788142Y9529715D01*
X47073857Y8779715D02*
X47073857Y9529715D01*
X47252428Y9529715D01*
X47359571Y9494000D01*
X47431000Y9422572D01*
X47466714Y9351143D01*
X47502428Y9208286D01*
X47502428Y9101143D01*
X47466714Y8958286D01*
X47431000Y8886858D01*
X47359571Y8815429D01*
X47252428Y8779715D01*
X47073857Y8779715D01*
X47823857Y8779715D02*
X47823857Y9529715D01*
X48323857Y9529715D02*
X48466714Y9529715D01*
X48538142Y9494000D01*
X48609571Y9422572D01*
X48645285Y9279715D01*
X48645285Y9029715D01*
X48609571Y8886858D01*
X48538142Y8815429D01*
X48466714Y8779715D01*
X48323857Y8779715D01*
X48252428Y8815429D01*
X48181000Y8886858D01*
X48145285Y9029715D01*
X48145285Y9279715D01*
X48181000Y9422572D01*
X48252428Y9494000D01*
X48323857Y9529715D01*
X44984571Y7540429D02*
X45091714Y7504715D01*
X45270285Y7504715D01*
X45341714Y7540429D01*
X45377428Y7576143D01*
X45413142Y7647572D01*
X45413142Y7719000D01*
X45377428Y7790429D01*
X45341714Y7826143D01*
X45270285Y7861858D01*
X45127428Y7897572D01*
X45056000Y7933286D01*
X45020285Y7969000D01*
X44984571Y8040429D01*
X44984571Y8111858D01*
X45020285Y8183286D01*
X45056000Y8219000D01*
X45127428Y8254715D01*
X45306000Y8254715D01*
X45413142Y8219000D01*
X45663142Y8254715D02*
X45841714Y7504715D01*
X45984571Y8040429D01*
X46127428Y7504715D01*
X46306000Y8254715D01*
X46591714Y7504715D02*
X46591714Y8254715D01*
X46770285Y8254715D01*
X46877428Y8219000D01*
X46948857Y8147572D01*
X46984571Y8076143D01*
X47020285Y7933286D01*
X47020285Y7826143D01*
X46984571Y7683286D01*
X46948857Y7611858D01*
X46877428Y7540429D01*
X46770285Y7504715D01*
X46591714Y7504715D01*
X47770285Y7576143D02*
X47734571Y7540429D01*
X47627428Y7504715D01*
X47556000Y7504715D01*
X47448857Y7540429D01*
X47377428Y7611858D01*
X47341714Y7683286D01*
X47306000Y7826143D01*
X47306000Y7933286D01*
X47341714Y8076143D01*
X47377428Y8147572D01*
X47448857Y8219000D01*
X47556000Y8254715D01*
X47627428Y8254715D01*
X47734571Y8219000D01*
X47770285Y8183286D01*
X48448857Y7504715D02*
X48091714Y7504715D01*
X48091714Y8254715D01*
X48698857Y7504715D02*
X48698857Y8254715D01*
X49127428Y7504715D02*
X48806000Y7933286D01*
X49127428Y8254715D02*
X48698857Y7826143D01*
X46020285Y6265429D02*
X46127428Y6229715D01*
X46306000Y6229715D01*
X46377428Y6265429D01*
X46413142Y6301143D01*
X46448857Y6372572D01*
X46448857Y6444000D01*
X46413142Y6515429D01*
X46377428Y6551143D01*
X46306000Y6586858D01*
X46163142Y6622572D01*
X46091714Y6658286D01*
X46056000Y6694000D01*
X46020285Y6765429D01*
X46020285Y6836858D01*
X46056000Y6908286D01*
X46091714Y6944000D01*
X46163142Y6979715D01*
X46341714Y6979715D01*
X46448857Y6944000D01*
X46698857Y6979715D02*
X46877428Y6229715D01*
X47020285Y6765429D01*
X47163142Y6229715D01*
X47341714Y6979715D01*
X47770285Y6979715D02*
X47913142Y6979715D01*
X47984571Y6944000D01*
X48056000Y6872572D01*
X48091714Y6729715D01*
X48091714Y6479715D01*
X48056000Y6336858D01*
X47984571Y6265429D01*
X47913142Y6229715D01*
X47770285Y6229715D01*
X47698857Y6265429D01*
X47627428Y6336858D01*
X47591714Y6479715D01*
X47591714Y6729715D01*
X47627428Y6872572D01*
X47698857Y6944000D01*
X47770285Y6979715D01*
X45877428Y4954715D02*
X45877428Y5704715D01*
X46127428Y5169000D01*
X46377428Y5704715D01*
X46377428Y4954715D01*
X46734571Y4954715D02*
X46734571Y5704715D01*
X47056000Y4990429D02*
X47163142Y4954715D01*
X47341714Y4954715D01*
X47413142Y4990429D01*
X47448857Y5026143D01*
X47484571Y5097572D01*
X47484571Y5169000D01*
X47448857Y5240429D01*
X47413142Y5276143D01*
X47341714Y5311858D01*
X47198857Y5347572D01*
X47127428Y5383286D01*
X47091714Y5419000D01*
X47056000Y5490429D01*
X47056000Y5561858D01*
X47091714Y5633286D01*
X47127428Y5669000D01*
X47198857Y5704715D01*
X47377428Y5704715D01*
X47484571Y5669000D01*
X47948857Y5704715D02*
X48091714Y5704715D01*
X48163142Y5669000D01*
X48234571Y5597572D01*
X48270285Y5454715D01*
X48270285Y5204715D01*
X48234571Y5061858D01*
X48163142Y4990429D01*
X48091714Y4954715D01*
X47948857Y4954715D01*
X47877428Y4990429D01*
X47806000Y5061858D01*
X47770285Y5204715D01*
X47770285Y5454715D01*
X47806000Y5597572D01*
X47877428Y5669000D01*
X47948857Y5704715D01*
X45877428Y3679715D02*
X45877428Y4429715D01*
X46127428Y3894000D01*
X46377428Y4429715D01*
X46377428Y3679715D01*
X46877428Y4429715D02*
X47020285Y4429715D01*
X47091714Y4394000D01*
X47163142Y4322572D01*
X47198857Y4179715D01*
X47198857Y3929715D01*
X47163142Y3786858D01*
X47091714Y3715429D01*
X47020285Y3679715D01*
X46877428Y3679715D01*
X46806000Y3715429D01*
X46734571Y3786858D01*
X46698857Y3929715D01*
X46698857Y4179715D01*
X46734571Y4322572D01*
X46806000Y4394000D01*
X46877428Y4429715D01*
X47484571Y3715429D02*
X47591714Y3679715D01*
X47770285Y3679715D01*
X47841714Y3715429D01*
X47877428Y3751143D01*
X47913142Y3822572D01*
X47913142Y3894000D01*
X47877428Y3965429D01*
X47841714Y4001143D01*
X47770285Y4036858D01*
X47627428Y4072572D01*
X47556000Y4108286D01*
X47520285Y4144000D01*
X47484571Y4215429D01*
X47484571Y4286858D01*
X47520285Y4358286D01*
X47556000Y4394000D01*
X47627428Y4429715D01*
X47806000Y4429715D01*
X47913142Y4394000D01*
X48234571Y3679715D02*
X48234571Y4429715D01*
X46484571Y3119000D02*
X46413142Y3154715D01*
X46306000Y3154715D01*
X46198857Y3119000D01*
X46127428Y3047572D01*
X46091714Y2976143D01*
X46056000Y2833286D01*
X46056000Y2726143D01*
X46091714Y2583286D01*
X46127428Y2511858D01*
X46198857Y2440429D01*
X46306000Y2404715D01*
X46377428Y2404715D01*
X46484571Y2440429D01*
X46520285Y2476143D01*
X46520285Y2726143D01*
X46377428Y2726143D01*
X46841714Y2404715D02*
X46841714Y3154715D01*
X47270285Y2404715D01*
X47270285Y3154715D01*
X47627428Y2404715D02*
X47627428Y3154715D01*
X47806000Y3154715D01*
X47913142Y3119000D01*
X47984571Y3047572D01*
X48020285Y2976143D01*
X48056000Y2833286D01*
X48056000Y2726143D01*
X48020285Y2583286D01*
X47984571Y2511858D01*
X47913142Y2440429D01*
X47806000Y2404715D01*
X47627428Y2404715D01*
X46484571Y1844000D02*
X46413142Y1879715D01*
X46306000Y1879715D01*
X46198857Y1844000D01*
X46127428Y1772572D01*
X46091714Y1701143D01*
X46056000Y1558286D01*
X46056000Y1451143D01*
X46091714Y1308286D01*
X46127428Y1236858D01*
X46198857Y1165429D01*
X46306000Y1129715D01*
X46377428Y1129715D01*
X46484571Y1165429D01*
X46520285Y1201143D01*
X46520285Y1451143D01*
X46377428Y1451143D01*
X46841714Y1129715D02*
X46841714Y1879715D01*
X47270285Y1129715D01*
X47270285Y1879715D01*
X47627428Y1129715D02*
X47627428Y1879715D01*
X47806000Y1879715D01*
X47913142Y1844000D01*
X47984571Y1772572D01*
X48020285Y1701143D01*
X48056000Y1558286D01*
X48056000Y1451143D01*
X48020285Y1308286D01*
X47984571Y1236858D01*
X47913142Y1165429D01*
X47806000Y1129715D01*
X47627428Y1129715D01*
X36475428Y9275715D02*
X36939714Y9275715D01*
X36689714Y8990000D01*
X36796857Y8990000D01*
X36868285Y8954286D01*
X36904000Y8918572D01*
X36939714Y8847143D01*
X36939714Y8668572D01*
X36904000Y8597143D01*
X36868285Y8561429D01*
X36796857Y8525715D01*
X36582571Y8525715D01*
X36511142Y8561429D01*
X36475428Y8597143D01*
X37154000Y9275715D02*
X37404000Y8525715D01*
X37654000Y9275715D01*
X37832571Y9275715D02*
X38296857Y9275715D01*
X38046857Y8990000D01*
X38154000Y8990000D01*
X38225428Y8954286D01*
X38261142Y8918572D01*
X38296857Y8847143D01*
X38296857Y8668572D01*
X38261142Y8597143D01*
X38225428Y8561429D01*
X38154000Y8525715D01*
X37939714Y8525715D01*
X37868285Y8561429D01*
X37832571Y8597143D01*
X36832571Y7965000D02*
X36761142Y8000715D01*
X36654000Y8000715D01*
X36546857Y7965000D01*
X36475428Y7893572D01*
X36439714Y7822143D01*
X36404000Y7679286D01*
X36404000Y7572143D01*
X36439714Y7429286D01*
X36475428Y7357858D01*
X36546857Y7286429D01*
X36654000Y7250715D01*
X36725428Y7250715D01*
X36832571Y7286429D01*
X36868285Y7322143D01*
X36868285Y7572143D01*
X36725428Y7572143D01*
X37189714Y7250715D02*
X37189714Y8000715D01*
X37618285Y7250715D01*
X37618285Y8000715D01*
X37975428Y7250715D02*
X37975428Y8000715D01*
X38154000Y8000715D01*
X38261142Y7965000D01*
X38332571Y7893572D01*
X38368285Y7822143D01*
X38404000Y7679286D01*
X38404000Y7572143D01*
X38368285Y7429286D01*
X38332571Y7357858D01*
X38261142Y7286429D01*
X38154000Y7250715D01*
X37975428Y7250715D01*
X36439714Y6011429D02*
X36546857Y5975715D01*
X36725428Y5975715D01*
X36796857Y6011429D01*
X36832571Y6047143D01*
X36868285Y6118572D01*
X36868285Y6190000D01*
X36832571Y6261429D01*
X36796857Y6297143D01*
X36725428Y6332858D01*
X36582571Y6368572D01*
X36511142Y6404286D01*
X36475428Y6440000D01*
X36439714Y6511429D01*
X36439714Y6582858D01*
X36475428Y6654286D01*
X36511142Y6690000D01*
X36582571Y6725715D01*
X36761142Y6725715D01*
X36868285Y6690000D01*
X37618285Y6047143D02*
X37582571Y6011429D01*
X37475428Y5975715D01*
X37404000Y5975715D01*
X37296857Y6011429D01*
X37225428Y6082858D01*
X37189714Y6154286D01*
X37154000Y6297143D01*
X37154000Y6404286D01*
X37189714Y6547143D01*
X37225428Y6618572D01*
X37296857Y6690000D01*
X37404000Y6725715D01*
X37475428Y6725715D01*
X37582571Y6690000D01*
X37618285Y6654286D01*
X37939714Y5975715D02*
X37939714Y6725715D01*
X38368285Y5975715D02*
X38046857Y6404286D01*
X38368285Y6725715D02*
X37939714Y6297143D01*
X36921857Y4772143D02*
X36886142Y4736429D01*
X36779000Y4700715D01*
X36707571Y4700715D01*
X36600428Y4736429D01*
X36529000Y4807858D01*
X36493285Y4879286D01*
X36457571Y5022143D01*
X36457571Y5129286D01*
X36493285Y5272143D01*
X36529000Y5343572D01*
X36600428Y5415000D01*
X36707571Y5450715D01*
X36779000Y5450715D01*
X36886142Y5415000D01*
X36921857Y5379286D01*
X37207571Y4736429D02*
X37314714Y4700715D01*
X37493285Y4700715D01*
X37564714Y4736429D01*
X37600428Y4772143D01*
X37636142Y4843572D01*
X37636142Y4915000D01*
X37600428Y4986429D01*
X37564714Y5022143D01*
X37493285Y5057858D01*
X37350428Y5093572D01*
X37279000Y5129286D01*
X37243285Y5165000D01*
X37207571Y5236429D01*
X37207571Y5307858D01*
X37243285Y5379286D01*
X37279000Y5415000D01*
X37350428Y5450715D01*
X37529000Y5450715D01*
X37636142Y5415000D01*
X38100428Y5450715D02*
X38171857Y5450715D01*
X38243285Y5415000D01*
X38279000Y5379286D01*
X38314714Y5307858D01*
X38350428Y5165000D01*
X38350428Y4986429D01*
X38314714Y4843572D01*
X38279000Y4772143D01*
X38243285Y4736429D01*
X38171857Y4700715D01*
X38100428Y4700715D01*
X38029000Y4736429D01*
X37993285Y4772143D01*
X37957571Y4843572D01*
X37921857Y4986429D01*
X37921857Y5165000D01*
X37957571Y5307858D01*
X37993285Y5379286D01*
X38029000Y5415000D01*
X38100428Y5450715D01*
X36921857Y3497143D02*
X36886142Y3461429D01*
X36779000Y3425715D01*
X36707571Y3425715D01*
X36600428Y3461429D01*
X36529000Y3532858D01*
X36493285Y3604286D01*
X36457571Y3747143D01*
X36457571Y3854286D01*
X36493285Y3997143D01*
X36529000Y4068572D01*
X36600428Y4140000D01*
X36707571Y4175715D01*
X36779000Y4175715D01*
X36886142Y4140000D01*
X36921857Y4104286D01*
X37207571Y3461429D02*
X37314714Y3425715D01*
X37493285Y3425715D01*
X37564714Y3461429D01*
X37600428Y3497143D01*
X37636142Y3568572D01*
X37636142Y3640000D01*
X37600428Y3711429D01*
X37564714Y3747143D01*
X37493285Y3782858D01*
X37350428Y3818572D01*
X37279000Y3854286D01*
X37243285Y3890000D01*
X37207571Y3961429D01*
X37207571Y4032858D01*
X37243285Y4104286D01*
X37279000Y4140000D01*
X37350428Y4175715D01*
X37529000Y4175715D01*
X37636142Y4140000D01*
X38350428Y3425715D02*
X37921857Y3425715D01*
X38136142Y3425715D02*
X38136142Y4175715D01*
X38064714Y4068572D01*
X37993285Y3997143D01*
X37921857Y3961429D01*
X36118285Y2543572D02*
X36368285Y2543572D01*
X36475428Y2150715D02*
X36118285Y2150715D01*
X36118285Y2900715D01*
X36475428Y2900715D01*
X36939714Y2900715D02*
X37082571Y2900715D01*
X37154000Y2865000D01*
X37225428Y2793572D01*
X37261142Y2650715D01*
X37261142Y2400715D01*
X37225428Y2257858D01*
X37154000Y2186429D01*
X37082571Y2150715D01*
X36939714Y2150715D01*
X36868285Y2186429D01*
X36796857Y2257858D01*
X36761142Y2400715D01*
X36761142Y2650715D01*
X36796857Y2793572D01*
X36868285Y2865000D01*
X36939714Y2900715D01*
X38011142Y2222143D02*
X37975428Y2186429D01*
X37868285Y2150715D01*
X37796857Y2150715D01*
X37689714Y2186429D01*
X37618285Y2257858D01*
X37582571Y2329286D01*
X37546857Y2472143D01*
X37546857Y2579286D01*
X37582571Y2722143D01*
X37618285Y2793572D01*
X37689714Y2865000D01*
X37796857Y2900715D01*
X37868285Y2900715D01*
X37975428Y2865000D01*
X38011142Y2829286D01*
X38475428Y2900715D02*
X38546857Y2900715D01*
X38618285Y2865000D01*
X38654000Y2829286D01*
X38689714Y2757858D01*
X38725428Y2615000D01*
X38725428Y2436429D01*
X38689714Y2293572D01*
X38654000Y2222143D01*
X38618285Y2186429D01*
X38546857Y2150715D01*
X38475428Y2150715D01*
X38404000Y2186429D01*
X38368285Y2222143D01*
X38332571Y2293572D01*
X38296857Y2436429D01*
X38296857Y2615000D01*
X38332571Y2757858D01*
X38368285Y2829286D01*
X38404000Y2865000D01*
X38475428Y2900715D01*
X36118285Y1268572D02*
X36368285Y1268572D01*
X36475428Y875715D02*
X36118285Y875715D01*
X36118285Y1625715D01*
X36475428Y1625715D01*
X36939714Y1625715D02*
X37082571Y1625715D01*
X37154000Y1590000D01*
X37225428Y1518572D01*
X37261142Y1375715D01*
X37261142Y1125715D01*
X37225428Y982858D01*
X37154000Y911429D01*
X37082571Y875715D01*
X36939714Y875715D01*
X36868285Y911429D01*
X36796857Y982858D01*
X36761142Y1125715D01*
X36761142Y1375715D01*
X36796857Y1518572D01*
X36868285Y1590000D01*
X36939714Y1625715D01*
X38011142Y947143D02*
X37975428Y911429D01*
X37868285Y875715D01*
X37796857Y875715D01*
X37689714Y911429D01*
X37618285Y982858D01*
X37582571Y1054286D01*
X37546857Y1197143D01*
X37546857Y1304286D01*
X37582571Y1447143D01*
X37618285Y1518572D01*
X37689714Y1590000D01*
X37796857Y1625715D01*
X37868285Y1625715D01*
X37975428Y1590000D01*
X38011142Y1554286D01*
X38725428Y875715D02*
X38296857Y875715D01*
X38511142Y875715D02*
X38511142Y1625715D01*
X38439714Y1518572D01*
X38368285Y1447143D01*
X38296857Y1411429D01*
D12*
X7559000Y8686500D02*
G75*
G03X7559000Y8686500I-381000J0D01*
G01*
X451001Y10464500D02*
X8807601Y10464500D01*
X451001Y28371500D02*
X451001Y10464500D01*
X8807601Y28371500D02*
X451001Y28371500D01*
X8807601Y10464500D02*
X8807601Y28371500D01*
D10*
X32585000Y29800000D02*
X32585000Y28700000D01*
X30685000Y29800000D02*
X30685000Y28700000D01*
X32535000Y31200000D02*
X30735000Y31200000D01*
X36182000Y33143000D02*
X35182000Y33143000D01*
X35182000Y34503000D02*
X36182000Y34503000D01*
X35182000Y35966500D02*
X36182000Y35966500D01*
X36182000Y34606500D02*
X35182000Y34606500D01*
X34298300Y6353400D02*
X34298300Y7353400D01*
X35658300Y7353400D02*
X35658300Y6353400D01*
X32520300Y6353400D02*
X32520300Y7353400D01*
X33880300Y7353400D02*
X33880300Y6353400D01*
X22875000Y26204000D02*
X21875000Y26204000D01*
X21875000Y27564000D02*
X22875000Y27564000D01*
X34798500Y19093000D02*
X34798500Y18653000D01*
X35818500Y19093000D02*
X35818500Y18653000D01*
D12*
X34138500Y7834000D02*
G75*
G03X34138500Y7834000I-381000J0D01*
G01*
X31979500Y1107001D02*
X31979500Y9463601D01*
X14072500Y1107001D02*
X31979500Y1107001D01*
X14072500Y9463601D02*
X14072500Y1107001D01*
X31979500Y9463601D02*
X14072500Y9463601D01*
D13*
X13689000Y13366000D02*
G75*
G03X13689000Y13366000I-125000J0D01*
G01*
D10*
X29204000Y19150000D02*
X30004000Y19950000D01*
X30004000Y19950000D02*
X34304000Y19950000D01*
X34304000Y19950000D02*
X34304000Y11050000D01*
X34304000Y11050000D02*
X29204000Y11050000D01*
X29204000Y11050000D02*
X29204000Y19150000D01*
X26851200Y19678000D02*
X27551200Y19678000D01*
X27551200Y18478000D02*
X26851200Y18478000D01*
X20075000Y16513000D02*
X20075000Y17213000D01*
X21275000Y17213000D02*
X21275000Y16513000D01*
X27551200Y17228000D02*
X26851200Y17228000D01*
X26851200Y18428000D02*
X27551200Y18428000D01*
X21437000Y16513000D02*
X21437000Y17213000D01*
X22637000Y17213000D02*
X22637000Y16513000D01*
X26550000Y26800000D02*
X26550000Y27500000D01*
X27750000Y27500000D02*
X27750000Y26800000D01*
D12*
X410500Y29318399D02*
X13317500Y29318399D01*
X13317500Y29318399D02*
X13317500Y37674999D01*
X13317500Y37674999D02*
X410500Y37674999D01*
X410500Y37674999D02*
X410500Y29318399D01*
X-986500Y30948000D02*
G75*
G03X-986500Y30948000I-381000J0D01*
G01*
X15596500Y7834000D02*
G75*
G03X15596500Y7834000I-381000J0D01*
G01*
X13437500Y1107001D02*
X13437500Y9463601D01*
X530500Y1107001D02*
X13437500Y1107001D01*
X530500Y9463601D02*
X530500Y1107001D01*
X13437500Y9463601D02*
X530500Y9463601D01*
D14*
X45550000Y32350000D02*
G75*
G02X45450000Y32350000I-50000J0D01*
G01*
X45450000Y32350000D02*
G75*
G02X45550000Y32350000I50000J0D01*
G01*
X45450000Y32350000D02*
X45450000Y32350000D01*
X45550000Y32350000D02*
X45550000Y32350000D01*
X34000000Y32000000D02*
X49500000Y32000000D01*
X34000000Y21500000D02*
X34000000Y32000000D01*
X49500000Y21500000D02*
X34000000Y21500000D01*
X49500000Y32000000D02*
X49500000Y21500000D01*
D10*
X34094500Y37650000D02*
X36644500Y37650000D01*
X34094500Y35950000D02*
X36644500Y35950000D01*
X34094500Y37650000D02*
X34094500Y35950000D01*
X24500000Y25450000D02*
X24500000Y28000000D01*
X26200000Y25450000D02*
X26200000Y28000000D01*
X24500000Y25450000D02*
X26200000Y25450000D01*
X31470000Y24125000D02*
X30770000Y24125000D01*
X30770000Y25325000D02*
X31470000Y25325000D01*
X30704000Y22658000D02*
X31404000Y22658000D01*
X31404000Y21458000D02*
X30704000Y21458000D01*
X24400000Y30350000D02*
X24400000Y31050000D01*
X25600000Y31050000D02*
X25600000Y30350000D01*
X16988000Y20562500D02*
X17688000Y20562500D01*
X17688000Y19362500D02*
X16988000Y19362500D01*
X16988000Y21832500D02*
X17688000Y21832500D01*
X17688000Y20632500D02*
X16988000Y20632500D01*
X12638000Y19299000D02*
X12638000Y18599000D01*
X11438000Y18599000D02*
X11438000Y19299000D01*
X11288000Y19299000D02*
X11288000Y18599000D01*
X10088000Y18599000D02*
X10088000Y19299000D01*
X40283000Y33850000D02*
X41383000Y33850000D01*
X41383000Y33850000D02*
X41383000Y36450000D01*
X40283000Y33850000D02*
X40283000Y36450000D01*
X43013500Y33804000D02*
X44113500Y33804000D01*
X44113500Y33804000D02*
X44113500Y36404000D01*
X43013500Y33804000D02*
X43013500Y36404000D01*
X20534000Y28831000D02*
X20534000Y27731000D01*
X20534000Y27731000D02*
X23134000Y27731000D01*
X20534000Y28831000D02*
X23134000Y28831000D01*
X32650300Y1296900D02*
X33750300Y1296900D01*
X33750300Y1296900D02*
X33750300Y3896900D01*
X32650300Y1296900D02*
X32650300Y3896900D01*
X34428300Y1212900D02*
X35528300Y1212900D01*
X35528300Y1212900D02*
X35528300Y3812900D01*
X34428300Y1212900D02*
X34428300Y3812900D01*
D13*
X23722000Y11308600D02*
G75*
G03X23722000Y11308600I-125000J0D01*
G01*
D10*
X31600000Y39030000D02*
X31600000Y32620000D01*
X22900000Y37800000D02*
X31600000Y37800000D01*
X22900000Y32620000D02*
X22900000Y39030000D01*
X31600000Y32620000D02*
X22900000Y32620000D01*
X31600000Y39030000D02*
X22900000Y39030000D01*
D15*
X28920318Y32899420D02*
G75*
G03X28920318Y32899420I-9158J0D01*
G01*
D10*
X36132000Y19093000D02*
X36132000Y18653000D01*
X37152000Y19093000D02*
X37152000Y18653000D01*
X39878000Y34567500D02*
G75*
G03X39878000Y34567500I-950000J0D01*
G01*
X13843000Y27773000D02*
G75*
G03X13843000Y27773000I-950000J0D01*
G01*
X11303000Y25487000D02*
G75*
G03X11303000Y25487000I-950000J0D01*
G01*
X11303000Y27773000D02*
G75*
G03X11303000Y27773000I-950000J0D01*
G01*
X39274400Y1220800D02*
X44474400Y1220800D01*
X39274400Y16520800D02*
X39274400Y1220800D01*
X44474400Y19120800D02*
X44474400Y1220800D01*
X39274400Y16520800D02*
X41874400Y16520800D01*
X41874400Y16520800D02*
X41874400Y19120800D01*
X41874400Y19120800D02*
X44474400Y19120800D01*
X39274400Y17790800D02*
X39274400Y19120800D01*
X39274400Y19120800D02*
X40604400Y19120800D01*
X30355000Y29989500D02*
X30355000Y30489500D01*
X29415000Y30489500D02*
X29415000Y29989500D01*
X30355000Y28010500D02*
X30355000Y28510500D01*
X29415000Y28510500D02*
X29415000Y28010500D01*
X36576000Y12279000D02*
G75*
G03X36576000Y12279000I-950000J0D01*
G01*
D11*
X9892666Y12064620D02*
X9892666Y11350334D01*
X9845047Y11207477D01*
X9749809Y11112239D01*
X9606952Y11064620D01*
X9511714Y11064620D01*
X10845047Y12064620D02*
X10368857Y12064620D01*
X10321238Y11588429D01*
X10368857Y11636048D01*
X10464095Y11683667D01*
X10702190Y11683667D01*
X10797428Y11636048D01*
X10845047Y11588429D01*
X10892666Y11493191D01*
X10892666Y11255096D01*
X10845047Y11159858D01*
X10797428Y11112239D01*
X10702190Y11064620D01*
X10464095Y11064620D01*
X10368857Y11112239D01*
X10321238Y11159858D01*
X9170380Y13041000D02*
X9408476Y13041000D01*
X9313238Y12802905D02*
X9408476Y13041000D01*
X9313238Y13279096D01*
X9598952Y12898143D02*
X9408476Y13041000D01*
X9598952Y13183858D01*
X32222857Y33402715D02*
X31972857Y33759858D01*
X31794285Y33402715D02*
X31794285Y34152715D01*
X32080000Y34152715D01*
X32151428Y34117000D01*
X32187142Y34081286D01*
X32222857Y34009858D01*
X32222857Y33902715D01*
X32187142Y33831286D01*
X32151428Y33795572D01*
X32080000Y33759858D01*
X31794285Y33759858D01*
X32937142Y33402715D02*
X32508571Y33402715D01*
X32722857Y33402715D02*
X32722857Y34152715D01*
X32651428Y34045572D01*
X32580000Y33974143D01*
X32508571Y33938429D01*
X33651428Y33402715D02*
X33222857Y33402715D01*
X33437142Y33402715D02*
X33437142Y34152715D01*
X33365714Y34045572D01*
X33294285Y33974143D01*
X33222857Y33938429D01*
X32222857Y34863215D02*
X31972857Y35220358D01*
X31794285Y34863215D02*
X31794285Y35613215D01*
X32080000Y35613215D01*
X32151428Y35577500D01*
X32187142Y35541786D01*
X32222857Y35470358D01*
X32222857Y35363215D01*
X32187142Y35291786D01*
X32151428Y35256072D01*
X32080000Y35220358D01*
X31794285Y35220358D01*
X32937142Y34863215D02*
X32508571Y34863215D01*
X32722857Y34863215D02*
X32722857Y35613215D01*
X32651428Y35506072D01*
X32580000Y35434643D01*
X32508571Y35398929D01*
X33401428Y35613215D02*
X33472857Y35613215D01*
X33544285Y35577500D01*
X33580000Y35541786D01*
X33615714Y35470358D01*
X33651428Y35327500D01*
X33651428Y35148929D01*
X33615714Y35006072D01*
X33580000Y34934643D01*
X33544285Y34898929D01*
X33472857Y34863215D01*
X33401428Y34863215D01*
X33330000Y34898929D01*
X33294285Y34934643D01*
X33258571Y35006072D01*
X33222857Y35148929D01*
X33222857Y35327500D01*
X33258571Y35470358D01*
X33294285Y35541786D01*
X33330000Y35577500D01*
X33401428Y35613215D01*
X39126380Y13001334D02*
X38650190Y12668000D01*
X39126380Y12429905D02*
X38126380Y12429905D01*
X38126380Y12810858D01*
X38174000Y12906096D01*
X38221619Y12953715D01*
X38316857Y13001334D01*
X38459714Y13001334D01*
X38554952Y12953715D01*
X38602571Y12906096D01*
X38650190Y12810858D01*
X38650190Y12429905D01*
X39126380Y13477524D02*
X39126380Y13668000D01*
X39078761Y13763239D01*
X39031142Y13810858D01*
X38888285Y13906096D01*
X38697809Y13953715D01*
X38316857Y13953715D01*
X38221619Y13906096D01*
X38174000Y13858477D01*
X38126380Y13763239D01*
X38126380Y13572762D01*
X38174000Y13477524D01*
X38221619Y13429905D01*
X38316857Y13382286D01*
X38554952Y13382286D01*
X38650190Y13429905D01*
X38697809Y13477524D01*
X38745428Y13572762D01*
X38745428Y13763239D01*
X38697809Y13858477D01*
X38650190Y13906096D01*
X38554952Y13953715D01*
X37856380Y13001334D02*
X37380190Y12668000D01*
X37856380Y12429905D02*
X36856380Y12429905D01*
X36856380Y12810858D01*
X36904000Y12906096D01*
X36951619Y12953715D01*
X37046857Y13001334D01*
X37189714Y13001334D01*
X37284952Y12953715D01*
X37332571Y12906096D01*
X37380190Y12810858D01*
X37380190Y12429905D01*
X37284952Y13572762D02*
X37237333Y13477524D01*
X37189714Y13429905D01*
X37094476Y13382286D01*
X37046857Y13382286D01*
X36951619Y13429905D01*
X36904000Y13477524D01*
X36856380Y13572762D01*
X36856380Y13763239D01*
X36904000Y13858477D01*
X36951619Y13906096D01*
X37046857Y13953715D01*
X37094476Y13953715D01*
X37189714Y13906096D01*
X37237333Y13858477D01*
X37284952Y13763239D01*
X37284952Y13572762D01*
X37332571Y13477524D01*
X37380190Y13429905D01*
X37475428Y13382286D01*
X37665904Y13382286D01*
X37761142Y13429905D01*
X37808761Y13477524D01*
X37856380Y13572762D01*
X37856380Y13763239D01*
X37808761Y13858477D01*
X37761142Y13906096D01*
X37665904Y13953715D01*
X37475428Y13953715D01*
X37380190Y13906096D01*
X37332571Y13858477D01*
X37284952Y13763239D01*
X19203333Y26431620D02*
X18870000Y26907810D01*
X18631904Y26431620D02*
X18631904Y27431620D01*
X19012857Y27431620D01*
X19108095Y27384000D01*
X19155714Y27336381D01*
X19203333Y27241143D01*
X19203333Y27098286D01*
X19155714Y27003048D01*
X19108095Y26955429D01*
X19012857Y26907810D01*
X18631904Y26907810D01*
X19536666Y27431620D02*
X20203333Y27431620D01*
X19774761Y26431620D01*
X32411333Y9667620D02*
X32078000Y10143810D01*
X31839904Y9667620D02*
X31839904Y10667620D01*
X32220857Y10667620D01*
X32316095Y10620000D01*
X32363714Y10572381D01*
X32411333Y10477143D01*
X32411333Y10334286D01*
X32363714Y10239048D01*
X32316095Y10191429D01*
X32220857Y10143810D01*
X31839904Y10143810D01*
X33316095Y10667620D02*
X32839904Y10667620D01*
X32792285Y10191429D01*
X32839904Y10239048D01*
X32935142Y10286667D01*
X33173238Y10286667D01*
X33268476Y10239048D01*
X33316095Y10191429D01*
X33363714Y10096191D01*
X33363714Y9858096D01*
X33316095Y9762858D01*
X33268476Y9715239D01*
X33173238Y9667620D01*
X32935142Y9667620D01*
X32839904Y9715239D01*
X32792285Y9762858D01*
X35824380Y16049334D02*
X35348190Y15716000D01*
X35824380Y15477905D02*
X34824380Y15477905D01*
X34824380Y15858858D01*
X34872000Y15954096D01*
X34919619Y16001715D01*
X35014857Y16049334D01*
X35157714Y16049334D01*
X35252952Y16001715D01*
X35300571Y15954096D01*
X35348190Y15858858D01*
X35348190Y15477905D01*
X34824380Y16382667D02*
X34824380Y17001715D01*
X35205333Y16668381D01*
X35205333Y16811239D01*
X35252952Y16906477D01*
X35300571Y16954096D01*
X35395809Y17001715D01*
X35633904Y17001715D01*
X35729142Y16954096D01*
X35776761Y16906477D01*
X35824380Y16811239D01*
X35824380Y16525524D01*
X35776761Y16430286D01*
X35729142Y16382667D01*
X14337666Y10794620D02*
X14337666Y10080334D01*
X14290047Y9937477D01*
X14194809Y9842239D01*
X14051952Y9794620D01*
X13956714Y9794620D01*
X14766238Y10699381D02*
X14813857Y10747000D01*
X14909095Y10794620D01*
X15147190Y10794620D01*
X15242428Y10747000D01*
X15290047Y10699381D01*
X15337666Y10604143D01*
X15337666Y10508905D01*
X15290047Y10366048D01*
X14718619Y9794620D01*
X15337666Y9794620D01*
X29276000Y10413620D02*
X29276000Y10175524D01*
X29037904Y10270762D02*
X29276000Y10175524D01*
X29514095Y10270762D01*
X29133142Y9985048D02*
X29276000Y10175524D01*
X29418857Y9985048D01*
D16*
X12923238Y11323477D02*
X12923238Y12593477D01*
X14253714Y11444429D02*
X14193238Y11383953D01*
X14011809Y11323477D01*
X13890857Y11323477D01*
X13709428Y11383953D01*
X13588476Y11504905D01*
X13528000Y11625858D01*
X13467523Y11867762D01*
X13467523Y12049191D01*
X13528000Y12291096D01*
X13588476Y12412048D01*
X13709428Y12533000D01*
X13890857Y12593477D01*
X14011809Y12593477D01*
X14193238Y12533000D01*
X14253714Y12472524D01*
X14737523Y12472524D02*
X14798000Y12533000D01*
X14918952Y12593477D01*
X15221333Y12593477D01*
X15342285Y12533000D01*
X15402761Y12472524D01*
X15463238Y12351572D01*
X15463238Y12230620D01*
X15402761Y12049191D01*
X14677047Y11323477D01*
X15463238Y11323477D01*
D11*
X30482666Y15303239D02*
X30625523Y15255620D01*
X30863619Y15255620D01*
X30958857Y15303239D01*
X31006476Y15350858D01*
X31054095Y15446096D01*
X31054095Y15541334D01*
X31006476Y15636572D01*
X30958857Y15684191D01*
X30863619Y15731810D01*
X30673142Y15779429D01*
X30577904Y15827048D01*
X30530285Y15874667D01*
X30482666Y15969905D01*
X30482666Y16065143D01*
X30530285Y16160381D01*
X30577904Y16208000D01*
X30673142Y16255620D01*
X30911238Y16255620D01*
X31054095Y16208000D01*
X31387428Y16255620D02*
X31625523Y15255620D01*
X31816000Y15969905D01*
X32006476Y15255620D01*
X32244571Y16255620D01*
X33149333Y15255620D02*
X32577904Y15255620D01*
X32863619Y15255620D02*
X32863619Y16255620D01*
X32768380Y16112762D01*
X32673142Y16017524D01*
X32577904Y15969905D01*
X23002342Y18700858D02*
X22954723Y18653239D01*
X22811866Y18605620D01*
X22716628Y18605620D01*
X22573771Y18653239D01*
X22478533Y18748477D01*
X22430914Y18843715D01*
X22383295Y19034191D01*
X22383295Y19177048D01*
X22430914Y19367524D01*
X22478533Y19462762D01*
X22573771Y19558000D01*
X22716628Y19605620D01*
X22811866Y19605620D01*
X22954723Y19558000D01*
X23002342Y19510381D01*
X23954723Y18605620D02*
X23383295Y18605620D01*
X23669009Y18605620D02*
X23669009Y19605620D01*
X23573771Y19462762D01*
X23478533Y19367524D01*
X23383295Y19319905D01*
X24811866Y19272286D02*
X24811866Y18605620D01*
X24573771Y19653239D02*
X24335676Y18938953D01*
X24954723Y18938953D01*
X21052142Y12918143D02*
X21099761Y12870524D01*
X21147380Y12727667D01*
X21147380Y12632429D01*
X21099761Y12489572D01*
X21004523Y12394334D01*
X20909285Y12346715D01*
X20718809Y12299096D01*
X20575952Y12299096D01*
X20385476Y12346715D01*
X20290238Y12394334D01*
X20195000Y12489572D01*
X20147380Y12632429D01*
X20147380Y12727667D01*
X20195000Y12870524D01*
X20242619Y12918143D01*
X21147380Y13870524D02*
X21147380Y13299096D01*
X21147380Y13584810D02*
X20147380Y13584810D01*
X20290238Y13489572D01*
X20385476Y13394334D01*
X20433095Y13299096D01*
X20147380Y14727667D02*
X20147380Y14537191D01*
X20195000Y14441953D01*
X20242619Y14394334D01*
X20385476Y14299096D01*
X20575952Y14251477D01*
X20956904Y14251477D01*
X21052142Y14299096D01*
X21099761Y14346715D01*
X21147380Y14441953D01*
X21147380Y14632429D01*
X21099761Y14727667D01*
X21052142Y14775286D01*
X20956904Y14822905D01*
X20718809Y14822905D01*
X20623571Y14775286D01*
X20575952Y14727667D01*
X20528333Y14632429D01*
X20528333Y14441953D01*
X20575952Y14346715D01*
X20623571Y14299096D01*
X20718809Y14251477D01*
X23002342Y17450858D02*
X22954723Y17403239D01*
X22811866Y17355620D01*
X22716628Y17355620D01*
X22573771Y17403239D01*
X22478533Y17498477D01*
X22430914Y17593715D01*
X22383295Y17784191D01*
X22383295Y17927048D01*
X22430914Y18117524D01*
X22478533Y18212762D01*
X22573771Y18308000D01*
X22716628Y18355620D01*
X22811866Y18355620D01*
X22954723Y18308000D01*
X23002342Y18260381D01*
X23954723Y17355620D02*
X23383295Y17355620D01*
X23669009Y17355620D02*
X23669009Y18355620D01*
X23573771Y18212762D01*
X23478533Y18117524D01*
X23383295Y18069905D01*
X24288057Y18355620D02*
X24907104Y18355620D01*
X24573771Y17974667D01*
X24716628Y17974667D01*
X24811866Y17927048D01*
X24859485Y17879429D01*
X24907104Y17784191D01*
X24907104Y17546096D01*
X24859485Y17450858D01*
X24811866Y17403239D01*
X24716628Y17355620D01*
X24430914Y17355620D01*
X24335676Y17403239D01*
X24288057Y17450858D01*
X22414142Y12918143D02*
X22461761Y12870524D01*
X22509380Y12727667D01*
X22509380Y12632429D01*
X22461761Y12489572D01*
X22366523Y12394334D01*
X22271285Y12346715D01*
X22080809Y12299096D01*
X21937952Y12299096D01*
X21747476Y12346715D01*
X21652238Y12394334D01*
X21557000Y12489572D01*
X21509380Y12632429D01*
X21509380Y12727667D01*
X21557000Y12870524D01*
X21604619Y12918143D01*
X22509380Y13870524D02*
X22509380Y13299096D01*
X22509380Y13584810D02*
X21509380Y13584810D01*
X21652238Y13489572D01*
X21747476Y13394334D01*
X21795095Y13299096D01*
X21509380Y14775286D02*
X21509380Y14299096D01*
X21985571Y14251477D01*
X21937952Y14299096D01*
X21890333Y14394334D01*
X21890333Y14632429D01*
X21937952Y14727667D01*
X21985571Y14775286D01*
X22080809Y14822905D01*
X22318904Y14822905D01*
X22414142Y14775286D01*
X22461761Y14727667D01*
X22509380Y14632429D01*
X22509380Y14394334D01*
X22461761Y14299096D01*
X22414142Y14251477D01*
X27601142Y23066143D02*
X27648761Y23018524D01*
X27696380Y22875667D01*
X27696380Y22780429D01*
X27648761Y22637572D01*
X27553523Y22542334D01*
X27458285Y22494715D01*
X27267809Y22447096D01*
X27124952Y22447096D01*
X26934476Y22494715D01*
X26839238Y22542334D01*
X26744000Y22637572D01*
X26696380Y22780429D01*
X26696380Y22875667D01*
X26744000Y23018524D01*
X26791619Y23066143D01*
X27696380Y24018524D02*
X27696380Y23447096D01*
X27696380Y23732810D02*
X26696380Y23732810D01*
X26839238Y23637572D01*
X26934476Y23542334D01*
X26982095Y23447096D01*
X26791619Y24399477D02*
X26744000Y24447096D01*
X26696380Y24542334D01*
X26696380Y24780429D01*
X26744000Y24875667D01*
X26791619Y24923286D01*
X26886857Y24970905D01*
X26982095Y24970905D01*
X27124952Y24923286D01*
X27696380Y24351858D01*
X27696380Y24970905D01*
X13718761Y29352620D02*
X13718761Y30352620D01*
X13718761Y29876429D02*
X14290190Y29876429D01*
X14290190Y29352620D02*
X14290190Y30352620D01*
X14766380Y29352620D02*
X14766380Y30352620D01*
X15147333Y30352620D01*
X15242571Y30305000D01*
X15290190Y30257381D01*
X15337809Y30162143D01*
X15337809Y30019286D01*
X15290190Y29924048D01*
X15242571Y29876429D01*
X15147333Y29828810D01*
X14766380Y29828810D01*
X16861619Y29876429D02*
X16528285Y29876429D01*
X16528285Y29352620D02*
X16528285Y30352620D01*
X17004476Y30352620D01*
X17718761Y29876429D02*
X17861619Y29828810D01*
X17909238Y29781191D01*
X17956857Y29685953D01*
X17956857Y29543096D01*
X17909238Y29447858D01*
X17861619Y29400239D01*
X17766380Y29352620D01*
X17385428Y29352620D01*
X17385428Y30352620D01*
X17718761Y30352620D01*
X17814000Y30305000D01*
X17861619Y30257381D01*
X17909238Y30162143D01*
X17909238Y30066905D01*
X17861619Y29971667D01*
X17814000Y29924048D01*
X17718761Y29876429D01*
X17385428Y29876429D01*
X3114000Y31495620D02*
X3114000Y31257524D01*
X2875904Y31352762D02*
X3114000Y31257524D01*
X3352095Y31352762D01*
X2971142Y31067048D02*
X3114000Y31257524D01*
X3256857Y31067048D01*
X12051666Y10921620D02*
X12051666Y10207334D01*
X12004047Y10064477D01*
X11908809Y9969239D01*
X11765952Y9921620D01*
X11670714Y9921620D01*
X12432619Y10921620D02*
X13051666Y10921620D01*
X12718333Y10540667D01*
X12861190Y10540667D01*
X12956428Y10493048D01*
X13004047Y10445429D01*
X13051666Y10350191D01*
X13051666Y10112096D01*
X13004047Y10016858D01*
X12956428Y9969239D01*
X12861190Y9921620D01*
X12575476Y9921620D01*
X12480238Y9969239D01*
X12432619Y10016858D01*
X10734000Y10540620D02*
X10734000Y10302524D01*
X10495904Y10397762D02*
X10734000Y10302524D01*
X10972095Y10397762D01*
X10591142Y10112048D02*
X10734000Y10302524D01*
X10876857Y10112048D01*
D16*
X42169523Y25916381D02*
X43197619Y25916381D01*
X43318571Y25976858D01*
X43379047Y26037334D01*
X43439523Y26158286D01*
X43439523Y26400191D01*
X43379047Y26521143D01*
X43318571Y26581620D01*
X43197619Y26642096D01*
X42169523Y26642096D01*
X42169523Y27125905D02*
X42169523Y27912096D01*
X42653333Y27488762D01*
X42653333Y27670191D01*
X42713809Y27791143D01*
X42774285Y27851620D01*
X42895238Y27912096D01*
X43197619Y27912096D01*
X43318571Y27851620D01*
X43379047Y27791143D01*
X43439523Y27670191D01*
X43439523Y27307334D01*
X43379047Y27186381D01*
X43318571Y27125905D01*
D11*
X32106404Y36347620D02*
X32106404Y37347620D01*
X32344500Y37347620D01*
X32487357Y37300000D01*
X32582595Y37204762D01*
X32630214Y37109524D01*
X32677833Y36919048D01*
X32677833Y36776191D01*
X32630214Y36585715D01*
X32582595Y36490477D01*
X32487357Y36395239D01*
X32344500Y36347620D01*
X32106404Y36347620D01*
X33011166Y37347620D02*
X33677833Y37347620D01*
X33249261Y36347620D01*
X25791380Y23478905D02*
X24791380Y23478905D01*
X24791380Y23717000D01*
X24839000Y23859858D01*
X24934238Y23955096D01*
X25029476Y24002715D01*
X25219952Y24050334D01*
X25362809Y24050334D01*
X25553285Y24002715D01*
X25648523Y23955096D01*
X25743761Y23859858D01*
X25791380Y23717000D01*
X25791380Y23478905D01*
X24791380Y24383667D02*
X24791380Y25002715D01*
X25172333Y24669381D01*
X25172333Y24812239D01*
X25219952Y24907477D01*
X25267571Y24955096D01*
X25362809Y25002715D01*
X25600904Y25002715D01*
X25696142Y24955096D01*
X25743761Y24907477D01*
X25791380Y24812239D01*
X25791380Y24526524D01*
X25743761Y24431286D01*
X25696142Y24383667D01*
X30125333Y25764858D02*
X30077714Y25717239D01*
X29934857Y25669620D01*
X29839619Y25669620D01*
X29696761Y25717239D01*
X29601523Y25812477D01*
X29553904Y25907715D01*
X29506285Y26098191D01*
X29506285Y26241048D01*
X29553904Y26431524D01*
X29601523Y26526762D01*
X29696761Y26622000D01*
X29839619Y26669620D01*
X29934857Y26669620D01*
X30077714Y26622000D01*
X30125333Y26574381D01*
X31077714Y25669620D02*
X30506285Y25669620D01*
X30792000Y25669620D02*
X30792000Y26669620D01*
X30696761Y26526762D01*
X30601523Y26431524D01*
X30506285Y26383905D01*
X30125333Y22970858D02*
X30077714Y22923239D01*
X29934857Y22875620D01*
X29839619Y22875620D01*
X29696761Y22923239D01*
X29601523Y23018477D01*
X29553904Y23113715D01*
X29506285Y23304191D01*
X29506285Y23447048D01*
X29553904Y23637524D01*
X29601523Y23732762D01*
X29696761Y23828000D01*
X29839619Y23875620D01*
X29934857Y23875620D01*
X30077714Y23828000D01*
X30125333Y23780381D01*
X30982476Y23542286D02*
X30982476Y22875620D01*
X30744380Y23923239D02*
X30506285Y23208953D01*
X31125333Y23208953D01*
X23664142Y31289334D02*
X23711761Y31241715D01*
X23759380Y31098858D01*
X23759380Y31003620D01*
X23711761Y30860762D01*
X23616523Y30765524D01*
X23521285Y30717905D01*
X23330809Y30670286D01*
X23187952Y30670286D01*
X22997476Y30717905D01*
X22902238Y30765524D01*
X22807000Y30860762D01*
X22759380Y31003620D01*
X22759380Y31098858D01*
X22807000Y31241715D01*
X22854619Y31289334D01*
X22759380Y32194096D02*
X22759380Y31717905D01*
X23235571Y31670286D01*
X23187952Y31717905D01*
X23140333Y31813143D01*
X23140333Y32051239D01*
X23187952Y32146477D01*
X23235571Y32194096D01*
X23330809Y32241715D01*
X23568904Y32241715D01*
X23664142Y32194096D01*
X23711761Y32146477D01*
X23759380Y32051239D01*
X23759380Y31813143D01*
X23711761Y31717905D01*
X23664142Y31670286D01*
X19965333Y19585358D02*
X19917714Y19537739D01*
X19774857Y19490120D01*
X19679619Y19490120D01*
X19536761Y19537739D01*
X19441523Y19632977D01*
X19393904Y19728215D01*
X19346285Y19918691D01*
X19346285Y20061548D01*
X19393904Y20252024D01*
X19441523Y20347262D01*
X19536761Y20442500D01*
X19679619Y20490120D01*
X19774857Y20490120D01*
X19917714Y20442500D01*
X19965333Y20394881D01*
X20536761Y20061548D02*
X20441523Y20109167D01*
X20393904Y20156786D01*
X20346285Y20252024D01*
X20346285Y20299643D01*
X20393904Y20394881D01*
X20441523Y20442500D01*
X20536761Y20490120D01*
X20727238Y20490120D01*
X20822476Y20442500D01*
X20870095Y20394881D01*
X20917714Y20299643D01*
X20917714Y20252024D01*
X20870095Y20156786D01*
X20822476Y20109167D01*
X20727238Y20061548D01*
X20536761Y20061548D01*
X20441523Y20013929D01*
X20393904Y19966310D01*
X20346285Y19871072D01*
X20346285Y19680596D01*
X20393904Y19585358D01*
X20441523Y19537739D01*
X20536761Y19490120D01*
X20727238Y19490120D01*
X20822476Y19537739D01*
X20870095Y19585358D01*
X20917714Y19680596D01*
X20917714Y19871072D01*
X20870095Y19966310D01*
X20822476Y20013929D01*
X20727238Y20061548D01*
X19965333Y20855358D02*
X19917714Y20807739D01*
X19774857Y20760120D01*
X19679619Y20760120D01*
X19536761Y20807739D01*
X19441523Y20902977D01*
X19393904Y20998215D01*
X19346285Y21188691D01*
X19346285Y21331548D01*
X19393904Y21522024D01*
X19441523Y21617262D01*
X19536761Y21712500D01*
X19679619Y21760120D01*
X19774857Y21760120D01*
X19917714Y21712500D01*
X19965333Y21664881D01*
X20441523Y20760120D02*
X20632000Y20760120D01*
X20727238Y20807739D01*
X20774857Y20855358D01*
X20870095Y20998215D01*
X20917714Y21188691D01*
X20917714Y21569643D01*
X20870095Y21664881D01*
X20822476Y21712500D01*
X20727238Y21760120D01*
X20536761Y21760120D01*
X20441523Y21712500D01*
X20393904Y21664881D01*
X20346285Y21569643D01*
X20346285Y21331548D01*
X20393904Y21236310D01*
X20441523Y21188691D01*
X20536761Y21141072D01*
X20727238Y21141072D01*
X20822476Y21188691D01*
X20870095Y21236310D01*
X20917714Y21331548D01*
X12415142Y21608143D02*
X12462761Y21560524D01*
X12510380Y21417667D01*
X12510380Y21322429D01*
X12462761Y21179572D01*
X12367523Y21084334D01*
X12272285Y21036715D01*
X12081809Y20989096D01*
X11938952Y20989096D01*
X11748476Y21036715D01*
X11653238Y21084334D01*
X11558000Y21179572D01*
X11510380Y21322429D01*
X11510380Y21417667D01*
X11558000Y21560524D01*
X11605619Y21608143D01*
X12510380Y22560524D02*
X12510380Y21989096D01*
X12510380Y22274810D02*
X11510380Y22274810D01*
X11653238Y22179572D01*
X11748476Y22084334D01*
X11796095Y21989096D01*
X11510380Y23179572D02*
X11510380Y23274810D01*
X11558000Y23370048D01*
X11605619Y23417667D01*
X11700857Y23465286D01*
X11891333Y23512905D01*
X12129428Y23512905D01*
X12319904Y23465286D01*
X12415142Y23417667D01*
X12462761Y23370048D01*
X12510380Y23274810D01*
X12510380Y23179572D01*
X12462761Y23084334D01*
X12415142Y23036715D01*
X12319904Y22989096D01*
X12129428Y22941477D01*
X11891333Y22941477D01*
X11700857Y22989096D01*
X11605619Y23036715D01*
X11558000Y23084334D01*
X11510380Y23179572D01*
X11065142Y21608143D02*
X11112761Y21560524D01*
X11160380Y21417667D01*
X11160380Y21322429D01*
X11112761Y21179572D01*
X11017523Y21084334D01*
X10922285Y21036715D01*
X10731809Y20989096D01*
X10588952Y20989096D01*
X10398476Y21036715D01*
X10303238Y21084334D01*
X10208000Y21179572D01*
X10160380Y21322429D01*
X10160380Y21417667D01*
X10208000Y21560524D01*
X10255619Y21608143D01*
X11160380Y22560524D02*
X11160380Y21989096D01*
X11160380Y22274810D02*
X10160380Y22274810D01*
X10303238Y22179572D01*
X10398476Y22084334D01*
X10446095Y21989096D01*
X11160380Y23512905D02*
X11160380Y22941477D01*
X11160380Y23227191D02*
X10160380Y23227191D01*
X10303238Y23131953D01*
X10398476Y23036715D01*
X10446095Y22941477D01*
X42682380Y33765905D02*
X41682380Y33765905D01*
X41682380Y34004000D01*
X41730000Y34146858D01*
X41825238Y34242096D01*
X41920476Y34289715D01*
X42110952Y34337334D01*
X42253809Y34337334D01*
X42444285Y34289715D01*
X42539523Y34242096D01*
X42634761Y34146858D01*
X42682380Y34004000D01*
X42682380Y33765905D01*
X42682380Y35289715D02*
X42682380Y34718286D01*
X42682380Y35004000D02*
X41682380Y35004000D01*
X41825238Y34908762D01*
X41920476Y34813524D01*
X41968095Y34718286D01*
X45730380Y33765905D02*
X44730380Y33765905D01*
X44730380Y34004000D01*
X44778000Y34146858D01*
X44873238Y34242096D01*
X44968476Y34289715D01*
X45158952Y34337334D01*
X45301809Y34337334D01*
X45492285Y34289715D01*
X45587523Y34242096D01*
X45682761Y34146858D01*
X45730380Y34004000D01*
X45730380Y33765905D01*
X44825619Y34718286D02*
X44778000Y34765905D01*
X44730380Y34861143D01*
X44730380Y35099239D01*
X44778000Y35194477D01*
X44825619Y35242096D01*
X44920857Y35289715D01*
X45016095Y35289715D01*
X45158952Y35242096D01*
X45730380Y34670667D01*
X45730380Y35289715D01*
X18631904Y27955620D02*
X18631904Y28955620D01*
X18870000Y28955620D01*
X19012857Y28908000D01*
X19108095Y28812762D01*
X19155714Y28717524D01*
X19203333Y28527048D01*
X19203333Y28384191D01*
X19155714Y28193715D01*
X19108095Y28098477D01*
X19012857Y28003239D01*
X18870000Y27955620D01*
X18631904Y27955620D01*
X20060476Y28622286D02*
X20060476Y27955620D01*
X19822380Y29003239D02*
X19584285Y28288953D01*
X20203333Y28288953D01*
X37856380Y10397905D02*
X36856380Y10397905D01*
X36856380Y10636000D01*
X36904000Y10778858D01*
X36999238Y10874096D01*
X37094476Y10921715D01*
X37284952Y10969334D01*
X37427809Y10969334D01*
X37618285Y10921715D01*
X37713523Y10874096D01*
X37808761Y10778858D01*
X37856380Y10636000D01*
X37856380Y10397905D01*
X36856380Y11874096D02*
X36856380Y11397905D01*
X37332571Y11350286D01*
X37284952Y11397905D01*
X37237333Y11493143D01*
X37237333Y11731239D01*
X37284952Y11826477D01*
X37332571Y11874096D01*
X37427809Y11921715D01*
X37665904Y11921715D01*
X37761142Y11874096D01*
X37808761Y11826477D01*
X37856380Y11731239D01*
X37856380Y11493143D01*
X37808761Y11397905D01*
X37761142Y11350286D01*
X39126380Y10397905D02*
X38126380Y10397905D01*
X38126380Y10636000D01*
X38174000Y10778858D01*
X38269238Y10874096D01*
X38364476Y10921715D01*
X38554952Y10969334D01*
X38697809Y10969334D01*
X38888285Y10921715D01*
X38983523Y10874096D01*
X39078761Y10778858D01*
X39126380Y10636000D01*
X39126380Y10397905D01*
X38126380Y11826477D02*
X38126380Y11636000D01*
X38174000Y11540762D01*
X38221619Y11493143D01*
X38364476Y11397905D01*
X38554952Y11350286D01*
X38935904Y11350286D01*
X39031142Y11397905D01*
X39078761Y11445524D01*
X39126380Y11540762D01*
X39126380Y11731239D01*
X39078761Y11826477D01*
X39031142Y11874096D01*
X38935904Y11921715D01*
X38697809Y11921715D01*
X38602571Y11874096D01*
X38554952Y11826477D01*
X38507333Y11731239D01*
X38507333Y11540762D01*
X38554952Y11445524D01*
X38602571Y11397905D01*
X38697809Y11350286D01*
D16*
X19908238Y10307477D02*
X19908238Y11577477D01*
X21238714Y10428429D02*
X21178238Y10367953D01*
X20996809Y10307477D01*
X20875857Y10307477D01*
X20694428Y10367953D01*
X20573476Y10488905D01*
X20513000Y10609858D01*
X20452523Y10851762D01*
X20452523Y11033191D01*
X20513000Y11275096D01*
X20573476Y11396048D01*
X20694428Y11517000D01*
X20875857Y11577477D01*
X20996809Y11577477D01*
X21178238Y11517000D01*
X21238714Y11456524D01*
X21662047Y11577477D02*
X22448238Y11577477D01*
X22024904Y11093667D01*
X22206333Y11093667D01*
X22327285Y11033191D01*
X22387761Y10972715D01*
X22448238Y10851762D01*
X22448238Y10549381D01*
X22387761Y10428429D01*
X22327285Y10367953D01*
X22206333Y10307477D01*
X21843476Y10307477D01*
X21722523Y10367953D01*
X21662047Y10428429D01*
D11*
X21449666Y37337620D02*
X21449666Y36623334D01*
X21402047Y36480477D01*
X21306809Y36385239D01*
X21163952Y36337620D01*
X21068714Y36337620D01*
X22449666Y36337620D02*
X21878238Y36337620D01*
X22163952Y36337620D02*
X22163952Y37337620D01*
X22068714Y37194762D01*
X21973476Y37099524D01*
X21878238Y37051905D01*
X37094380Y16049334D02*
X36618190Y15716000D01*
X37094380Y15477905D02*
X36094380Y15477905D01*
X36094380Y15858858D01*
X36142000Y15954096D01*
X36189619Y16001715D01*
X36284857Y16049334D01*
X36427714Y16049334D01*
X36522952Y16001715D01*
X36570571Y15954096D01*
X36618190Y15858858D01*
X36618190Y15477905D01*
X36427714Y16906477D02*
X37094380Y16906477D01*
X36046761Y16668381D02*
X36761047Y16430286D01*
X36761047Y17049334D01*
X37848428Y36964215D02*
X38277000Y36964215D01*
X38062714Y36214215D02*
X38062714Y36964215D01*
X38527000Y36214215D02*
X38527000Y36964215D01*
X38812714Y36964215D01*
X38884142Y36928500D01*
X38919857Y36892786D01*
X38955571Y36821358D01*
X38955571Y36714215D01*
X38919857Y36642786D01*
X38884142Y36607072D01*
X38812714Y36571358D01*
X38527000Y36571358D01*
X39669857Y36214215D02*
X39241285Y36214215D01*
X39455571Y36214215D02*
X39455571Y36964215D01*
X39384142Y36857072D01*
X39312714Y36785643D01*
X39241285Y36749929D01*
X40312714Y36964215D02*
X40169857Y36964215D01*
X40098428Y36928500D01*
X40062714Y36892786D01*
X39991285Y36785643D01*
X39955571Y36642786D01*
X39955571Y36357072D01*
X39991285Y36285643D01*
X40027000Y36249929D01*
X40098428Y36214215D01*
X40241285Y36214215D01*
X40312714Y36249929D01*
X40348428Y36285643D01*
X40384142Y36357072D01*
X40384142Y36535643D01*
X40348428Y36607072D01*
X40312714Y36642786D01*
X40241285Y36678500D01*
X40098428Y36678500D01*
X40027000Y36642786D01*
X39991285Y36607072D01*
X39955571Y36535643D01*
X43420666Y20319620D02*
X43420666Y19605334D01*
X43373047Y19462477D01*
X43277809Y19367239D01*
X43134952Y19319620D01*
X43039714Y19319620D01*
X43801619Y20319620D02*
X44468285Y20319620D01*
X44039714Y19319620D01*
X29125142Y30019334D02*
X29172761Y29971715D01*
X29220380Y29828858D01*
X29220380Y29733620D01*
X29172761Y29590762D01*
X29077523Y29495524D01*
X28982285Y29447905D01*
X28791809Y29400286D01*
X28648952Y29400286D01*
X28458476Y29447905D01*
X28363238Y29495524D01*
X28268000Y29590762D01*
X28220380Y29733620D01*
X28220380Y29828858D01*
X28268000Y29971715D01*
X28315619Y30019334D01*
X28315619Y30400286D02*
X28268000Y30447905D01*
X28220380Y30543143D01*
X28220380Y30781239D01*
X28268000Y30876477D01*
X28315619Y30924096D01*
X28410857Y30971715D01*
X28506095Y30971715D01*
X28648952Y30924096D01*
X29220380Y30352667D01*
X29220380Y30971715D01*
X29125142Y28093834D02*
X29172761Y28046215D01*
X29220380Y27903358D01*
X29220380Y27808120D01*
X29172761Y27665262D01*
X29077523Y27570024D01*
X28982285Y27522405D01*
X28791809Y27474786D01*
X28648952Y27474786D01*
X28458476Y27522405D01*
X28363238Y27570024D01*
X28268000Y27665262D01*
X28220380Y27808120D01*
X28220380Y27903358D01*
X28268000Y28046215D01*
X28315619Y28093834D01*
X28220380Y28427167D02*
X28220380Y29046215D01*
X28601333Y28712881D01*
X28601333Y28855739D01*
X28648952Y28950977D01*
X28696571Y28998596D01*
X28791809Y29046215D01*
X29029904Y29046215D01*
X29125142Y28998596D01*
X29172761Y28950977D01*
X29220380Y28855739D01*
X29220380Y28570024D01*
X29172761Y28474786D01*
X29125142Y28427167D01*
X35078380Y13474620D02*
X34745047Y13950810D01*
X34506952Y13474620D02*
X34506952Y14474620D01*
X34887904Y14474620D01*
X34983142Y14427000D01*
X35030761Y14379381D01*
X35078380Y14284143D01*
X35078380Y14141286D01*
X35030761Y14046048D01*
X34983142Y13998429D01*
X34887904Y13950810D01*
X34506952Y13950810D01*
X35459333Y13522239D02*
X35602190Y13474620D01*
X35840285Y13474620D01*
X35935523Y13522239D01*
X35983142Y13569858D01*
X36030761Y13665096D01*
X36030761Y13760334D01*
X35983142Y13855572D01*
X35935523Y13903191D01*
X35840285Y13950810D01*
X35649809Y13998429D01*
X35554571Y14046048D01*
X35506952Y14093667D01*
X35459333Y14188905D01*
X35459333Y14284143D01*
X35506952Y14379381D01*
X35554571Y14427000D01*
X35649809Y14474620D01*
X35887904Y14474620D01*
X36030761Y14427000D01*
X36316476Y14474620D02*
X36887904Y14474620D01*
X36602190Y13474620D02*
X36602190Y14474620D01*
M02*
