G04 #@! TF.GenerationSoftware,KiCad,Pcbnew,(5.1.2)-1*
G04 #@! TF.CreationDate,2020-12-24T11:55:46-05:00*
G04 #@! TF.ProjectId,Glove PCB,476c6f76-6520-4504-9342-2e6b69636164,rev?*
G04 #@! TF.SameCoordinates,PX1312d00PYb80f240*
G04 #@! TF.FileFunction,Copper,L2,Inr*
G04 #@! TF.FilePolarity,Positive*
%FSLAX46Y46*%
G04 Gerber Fmt 4.6, Leading zero omitted, Abs format (unit mm)*
G04 Created by KiCad (PCBNEW (5.1.2)-1) date 2020-12-24 11:55:46*
%MOMM*%
%LPD*%
G04 APERTURE LIST*
%ADD10C,1.397000*%
%ADD11C,0.600000*%
%ADD12O,1.000000X1.550000*%
%ADD13O,1.250000X0.950000*%
%ADD14R,1.700000X1.700000*%
%ADD15O,1.700000X1.700000*%
%ADD16C,0.406400*%
%ADD17C,0.254000*%
G04 APERTURE END LIST*
D10*
X7178000Y25668000D03*
X7178000Y23168000D03*
X7178000Y20668000D03*
X7178000Y18168000D03*
X7178000Y15668000D03*
X7178000Y13168000D03*
D11*
X18544500Y23088500D03*
X19404500Y22608500D03*
X17684500Y22608500D03*
X19404500Y23568500D03*
X17684500Y23568500D03*
D10*
X16776000Y7834000D03*
X19276000Y7834000D03*
X21776000Y7834000D03*
X24276000Y7834000D03*
X26776000Y7834000D03*
X29276000Y7834000D03*
X3114000Y30948000D03*
X5614000Y30948000D03*
X8114000Y30948000D03*
X10614000Y30948000D03*
X3234000Y7834000D03*
X5734000Y7834000D03*
X8234000Y7834000D03*
X10734000Y7834000D03*
D12*
X23750000Y36350000D03*
X30750000Y36350000D03*
D13*
X24750000Y33650000D03*
X29750000Y33650000D03*
D14*
X40604400Y17790800D03*
D15*
X43144400Y17790800D03*
X40604400Y15250800D03*
X43144400Y15250800D03*
X40604400Y12710800D03*
X43144400Y12710800D03*
X40604400Y10170800D03*
X43144400Y10170800D03*
X40604400Y7630800D03*
X43144400Y7630800D03*
X40604400Y5090800D03*
X43144400Y5090800D03*
X40604400Y2550800D03*
X43144400Y2550800D03*
D11*
X45000000Y24000000D03*
X20322500Y33869000D03*
X20322500Y34948500D03*
X14800000Y24900000D03*
X13528000Y24788500D03*
X12004000Y24153500D03*
X13528000Y24090000D03*
X12448500Y23328000D03*
X13083500Y23328000D03*
X10734000Y17676500D03*
X12004000Y17676500D03*
X33340000Y36790000D03*
X32197004Y7834000D03*
X25339000Y18248000D03*
X25294597Y18965597D03*
X32070018Y24725000D03*
X20675000Y15576402D03*
X22037000Y15576402D03*
X16304034Y22185000D03*
X11813500Y23328000D03*
X13106000Y20216500D03*
X10099000Y24239500D03*
X45250000Y32500000D03*
X44500000Y32500000D03*
X44500000Y30500000D03*
X45250000Y30500000D03*
X45250000Y29750000D03*
X44500000Y29750000D03*
X30355500Y1801500D03*
X29403000Y1801500D03*
X31498500Y1801500D03*
X28387000Y1801500D03*
X14290000Y5611500D03*
X13337500Y5611500D03*
X15433000Y5611500D03*
X12321500Y5611500D03*
X34673500Y20978500D03*
X16195000Y32853000D03*
X16195000Y33869000D03*
X16195000Y30757500D03*
X16195000Y34948500D03*
X16195000Y31773500D03*
X15179000Y30757500D03*
X15179000Y31773500D03*
X15179000Y32853000D03*
X15179000Y29678000D03*
X17211000Y34948500D03*
X17211000Y33869000D03*
X17211000Y32853000D03*
X17211000Y31773500D03*
X17211000Y30757500D03*
X42230000Y33805500D03*
X45151000Y33869000D03*
X33467000Y21740500D03*
X33340000Y21105500D03*
X33975000Y20915000D03*
X27625000Y29360500D03*
X15179000Y28662000D03*
X14671000Y26757000D03*
X11049000Y24239500D03*
X20195500Y27582500D03*
X11369000Y14057000D03*
X12194500Y14057000D03*
X11877000Y13422000D03*
X16400000Y9700000D03*
X17247500Y10183500D03*
X20703500Y13485500D03*
X20894000Y11580500D03*
X27600000Y10500000D03*
X28069500Y11707500D03*
X31879500Y10501000D03*
X28514000Y10501000D03*
X25529500Y1357000D03*
X24577000Y1357000D03*
X23497500Y1357000D03*
X22481500Y1357000D03*
X21338500Y1357000D03*
X20386000Y1357000D03*
X19370000Y1357000D03*
X20449500Y6056000D03*
X22989500Y6119500D03*
X18671500Y9040500D03*
X41277500Y19391000D03*
X43754000Y19581500D03*
X42801500Y21613500D03*
X33500000Y31750000D03*
X35750000Y31750000D03*
X35750000Y32500000D03*
X35000000Y32500000D03*
X33500000Y32500000D03*
X34250000Y32500000D03*
X33500000Y31000000D03*
X33467000Y27646000D03*
X4511000Y29614500D03*
X5527000Y29614500D03*
X6416000Y29614500D03*
X10289500Y29614500D03*
X21275000Y21994500D03*
X28387000Y27265000D03*
X26500000Y25250000D03*
X27500000Y25250000D03*
X22332000Y20153000D03*
X33912500Y22746000D03*
X33150500Y22746000D03*
X35500000Y23000000D03*
X25974000Y29043000D03*
X26228000Y30440000D03*
X24000000Y29500000D03*
X26250000Y29750000D03*
X23750000Y28530000D03*
X20322500Y32789500D03*
X21338500Y32789500D03*
X20259000Y29741500D03*
X19306500Y32853000D03*
X20322500Y30757500D03*
X19306500Y33869000D03*
X20322500Y31773500D03*
X19306500Y30757500D03*
X19306500Y34948500D03*
X19306500Y31773500D03*
X21338500Y29741500D03*
X21338500Y30757500D03*
X21338500Y31773500D03*
X32200000Y36700000D03*
X12004000Y3770000D03*
X12766000Y3770000D03*
X7051000Y3643000D03*
X4511000Y3643000D03*
X3241000Y14311000D03*
X3241000Y16851000D03*
X3241000Y19518000D03*
X3241000Y22058000D03*
X3241000Y24471000D03*
X23053000Y3770000D03*
X27879000Y3770000D03*
X12006500Y27963500D03*
X19179500Y18565500D03*
X28133000Y16533500D03*
X40833000Y36238500D03*
X43563500Y36225000D03*
X25823498Y9381498D03*
X19746197Y16178002D03*
X19751000Y16978000D03*
X11204718Y16721702D03*
X40005894Y23709009D03*
X40261500Y976000D03*
X11995226Y16844608D03*
X21345867Y14243250D03*
X23255995Y17854331D03*
X40834354Y23732952D03*
X24323000Y19645000D03*
X24196000Y20534000D03*
X39436000Y21042000D03*
X22545000Y21296000D03*
X20640000Y12660000D03*
X16576000Y12279000D03*
X21656000Y10945500D03*
X20703500Y10310500D03*
X20640001Y9167500D03*
X24132492Y17942655D03*
X22003610Y13549000D03*
X4450000Y36377000D03*
X9403000Y36377000D03*
X40833000Y32535500D03*
X43563500Y32535500D03*
X22418000Y26756998D03*
X38420000Y23772500D03*
X33254000Y18750000D03*
X41627124Y23840352D03*
X27173400Y32073398D03*
X36218100Y16025500D03*
X27976600Y32073398D03*
X35414900Y16025500D03*
D16*
X31897005Y8133999D02*
X32197004Y7834000D01*
X25656500Y15136500D02*
X31897005Y8895995D01*
X31897005Y8895995D02*
X31897005Y8133999D01*
X27256700Y17790800D02*
X27244000Y17803500D01*
X40604400Y17790800D02*
X27256700Y17790800D01*
X31645754Y24725000D02*
X32070018Y24725000D01*
X31625500Y24725000D02*
X31645754Y24725000D01*
X25656500Y21359500D02*
X28260000Y21359500D01*
X28260000Y21359500D02*
X31625500Y24725000D01*
D17*
X22332000Y20155038D02*
X23370500Y21193538D01*
X22332000Y20153000D02*
X22332000Y20155038D01*
X23370500Y21193538D02*
X23370500Y23772500D01*
X19179500Y17334462D02*
X18036500Y16191462D01*
X19179500Y18565500D02*
X19179500Y17334462D01*
X18036500Y16191462D02*
X18036500Y4722500D01*
X28303264Y3770000D02*
X27879000Y3770000D01*
X29060966Y3770000D02*
X28303264Y3770000D01*
X32824005Y7533039D02*
X29060966Y3770000D01*
X32824005Y11842495D02*
X32824005Y7533039D01*
X28133000Y16533500D02*
X32824005Y11842495D01*
G36*
X28831500Y34260894D02*
G01*
X28831500Y34028117D01*
X28805333Y33979162D01*
X28756386Y33817805D01*
X28739859Y33650000D01*
X28756386Y33482195D01*
X28805333Y33320838D01*
X28831500Y33271883D01*
X28831500Y32726000D01*
X28833940Y32701224D01*
X28841167Y32677399D01*
X28852903Y32655443D01*
X28868697Y32636197D01*
X30900697Y30604197D01*
X30919943Y30588403D01*
X30941899Y30576667D01*
X30965724Y30569440D01*
X30990500Y30567000D01*
X32970290Y30567000D01*
X32971033Y30565888D01*
X33065888Y30471033D01*
X33177426Y30396506D01*
X33301360Y30345171D01*
X33432927Y30319000D01*
X33567073Y30319000D01*
X33698640Y30345171D01*
X33822574Y30396506D01*
X33934112Y30471033D01*
X34028967Y30565888D01*
X34029710Y30567000D01*
X36144894Y30567000D01*
X36769000Y29942894D01*
X36769000Y23825106D01*
X35700394Y22756500D01*
X35308500Y22756500D01*
X35283724Y22754060D01*
X35259899Y22746833D01*
X35237943Y22735097D01*
X35218697Y22719303D01*
X35065394Y22566000D01*
X33340000Y22566000D01*
X33315224Y22563560D01*
X33291399Y22556333D01*
X33269443Y22544597D01*
X33250197Y22528803D01*
X32678697Y21957303D01*
X32662903Y21938057D01*
X32651167Y21916101D01*
X32643940Y21892276D01*
X32641500Y21867500D01*
X32641500Y21666106D01*
X32398394Y21423000D01*
X31610359Y21423000D01*
X31308000Y21729142D01*
X31308000Y22386394D01*
X31932106Y23010500D01*
X34229000Y23010500D01*
X34253776Y23012940D01*
X34277601Y23020167D01*
X34299557Y23031903D01*
X34318803Y23047697D01*
X35652303Y24381197D01*
X35668097Y24400443D01*
X35679833Y24422399D01*
X35687060Y24446224D01*
X35689500Y24471000D01*
X35689500Y24725000D01*
X35687060Y24749776D01*
X35679833Y24773601D01*
X35668097Y24795557D01*
X35652303Y24814803D01*
X33502106Y26965000D01*
X33534073Y26965000D01*
X33665640Y26991171D01*
X33789574Y27042506D01*
X33901112Y27117033D01*
X33995967Y27211888D01*
X34070494Y27323426D01*
X34121829Y27447360D01*
X34148000Y27578927D01*
X34148000Y27713073D01*
X34121829Y27844640D01*
X34070494Y27968574D01*
X33995967Y28080112D01*
X33901112Y28174967D01*
X33789574Y28249494D01*
X33665640Y28300829D01*
X33534073Y28327000D01*
X33399927Y28327000D01*
X33268360Y28300829D01*
X33144426Y28249494D01*
X33032888Y28174967D01*
X32938033Y28080112D01*
X32863506Y27968574D01*
X32812171Y27844640D01*
X32786000Y27713073D01*
X32786000Y27681106D01*
X32286803Y28180303D01*
X32267557Y28196097D01*
X32245601Y28207833D01*
X32221776Y28215060D01*
X32197000Y28217500D01*
X23359606Y28217500D01*
X22926000Y28651106D01*
X22926000Y29427573D01*
X26944000Y29427573D01*
X26944000Y29293427D01*
X26970171Y29161860D01*
X27021506Y29037926D01*
X27096033Y28926388D01*
X27190888Y28831533D01*
X27302426Y28757006D01*
X27426360Y28705671D01*
X27557927Y28679500D01*
X27692073Y28679500D01*
X27823640Y28705671D01*
X27947574Y28757006D01*
X28059112Y28831533D01*
X28153967Y28926388D01*
X28228494Y29037926D01*
X28279829Y29161860D01*
X28306000Y29293427D01*
X28306000Y29427573D01*
X28279829Y29559140D01*
X28228494Y29683074D01*
X28153967Y29794612D01*
X28059112Y29889467D01*
X27947574Y29963994D01*
X27823640Y30015329D01*
X27692073Y30041500D01*
X27557927Y30041500D01*
X27426360Y30015329D01*
X27302426Y29963994D01*
X27190888Y29889467D01*
X27096033Y29794612D01*
X27021506Y29683074D01*
X26970171Y29559140D01*
X26944000Y29427573D01*
X22926000Y29427573D01*
X22926000Y29752394D01*
X23804106Y30630500D01*
X27244000Y30630500D01*
X27268776Y30632940D01*
X27292601Y30640167D01*
X27314557Y30651903D01*
X27333803Y30667697D01*
X28062187Y31396081D01*
X28175240Y31418569D01*
X28299174Y31469904D01*
X28410712Y31544431D01*
X28505567Y31639286D01*
X28580094Y31750824D01*
X28631429Y31874758D01*
X28657600Y32006325D01*
X28657600Y32140471D01*
X28631429Y32272038D01*
X28580094Y32395972D01*
X28505567Y32507510D01*
X28410712Y32602365D01*
X28323500Y32660638D01*
X28323500Y34324394D01*
X28376106Y34377000D01*
X28715394Y34377000D01*
X28831500Y34260894D01*
X28831500Y34260894D01*
G37*
X28831500Y34260894D02*
X28831500Y34028117D01*
X28805333Y33979162D01*
X28756386Y33817805D01*
X28739859Y33650000D01*
X28756386Y33482195D01*
X28805333Y33320838D01*
X28831500Y33271883D01*
X28831500Y32726000D01*
X28833940Y32701224D01*
X28841167Y32677399D01*
X28852903Y32655443D01*
X28868697Y32636197D01*
X30900697Y30604197D01*
X30919943Y30588403D01*
X30941899Y30576667D01*
X30965724Y30569440D01*
X30990500Y30567000D01*
X32970290Y30567000D01*
X32971033Y30565888D01*
X33065888Y30471033D01*
X33177426Y30396506D01*
X33301360Y30345171D01*
X33432927Y30319000D01*
X33567073Y30319000D01*
X33698640Y30345171D01*
X33822574Y30396506D01*
X33934112Y30471033D01*
X34028967Y30565888D01*
X34029710Y30567000D01*
X36144894Y30567000D01*
X36769000Y29942894D01*
X36769000Y23825106D01*
X35700394Y22756500D01*
X35308500Y22756500D01*
X35283724Y22754060D01*
X35259899Y22746833D01*
X35237943Y22735097D01*
X35218697Y22719303D01*
X35065394Y22566000D01*
X33340000Y22566000D01*
X33315224Y22563560D01*
X33291399Y22556333D01*
X33269443Y22544597D01*
X33250197Y22528803D01*
X32678697Y21957303D01*
X32662903Y21938057D01*
X32651167Y21916101D01*
X32643940Y21892276D01*
X32641500Y21867500D01*
X32641500Y21666106D01*
X32398394Y21423000D01*
X31610359Y21423000D01*
X31308000Y21729142D01*
X31308000Y22386394D01*
X31932106Y23010500D01*
X34229000Y23010500D01*
X34253776Y23012940D01*
X34277601Y23020167D01*
X34299557Y23031903D01*
X34318803Y23047697D01*
X35652303Y24381197D01*
X35668097Y24400443D01*
X35679833Y24422399D01*
X35687060Y24446224D01*
X35689500Y24471000D01*
X35689500Y24725000D01*
X35687060Y24749776D01*
X35679833Y24773601D01*
X35668097Y24795557D01*
X35652303Y24814803D01*
X33502106Y26965000D01*
X33534073Y26965000D01*
X33665640Y26991171D01*
X33789574Y27042506D01*
X33901112Y27117033D01*
X33995967Y27211888D01*
X34070494Y27323426D01*
X34121829Y27447360D01*
X34148000Y27578927D01*
X34148000Y27713073D01*
X34121829Y27844640D01*
X34070494Y27968574D01*
X33995967Y28080112D01*
X33901112Y28174967D01*
X33789574Y28249494D01*
X33665640Y28300829D01*
X33534073Y28327000D01*
X33399927Y28327000D01*
X33268360Y28300829D01*
X33144426Y28249494D01*
X33032888Y28174967D01*
X32938033Y28080112D01*
X32863506Y27968574D01*
X32812171Y27844640D01*
X32786000Y27713073D01*
X32786000Y27681106D01*
X32286803Y28180303D01*
X32267557Y28196097D01*
X32245601Y28207833D01*
X32221776Y28215060D01*
X32197000Y28217500D01*
X23359606Y28217500D01*
X22926000Y28651106D01*
X22926000Y29427573D01*
X26944000Y29427573D01*
X26944000Y29293427D01*
X26970171Y29161860D01*
X27021506Y29037926D01*
X27096033Y28926388D01*
X27190888Y28831533D01*
X27302426Y28757006D01*
X27426360Y28705671D01*
X27557927Y28679500D01*
X27692073Y28679500D01*
X27823640Y28705671D01*
X27947574Y28757006D01*
X28059112Y28831533D01*
X28153967Y28926388D01*
X28228494Y29037926D01*
X28279829Y29161860D01*
X28306000Y29293427D01*
X28306000Y29427573D01*
X28279829Y29559140D01*
X28228494Y29683074D01*
X28153967Y29794612D01*
X28059112Y29889467D01*
X27947574Y29963994D01*
X27823640Y30015329D01*
X27692073Y30041500D01*
X27557927Y30041500D01*
X27426360Y30015329D01*
X27302426Y29963994D01*
X27190888Y29889467D01*
X27096033Y29794612D01*
X27021506Y29683074D01*
X26970171Y29559140D01*
X26944000Y29427573D01*
X22926000Y29427573D01*
X22926000Y29752394D01*
X23804106Y30630500D01*
X27244000Y30630500D01*
X27268776Y30632940D01*
X27292601Y30640167D01*
X27314557Y30651903D01*
X27333803Y30667697D01*
X28062187Y31396081D01*
X28175240Y31418569D01*
X28299174Y31469904D01*
X28410712Y31544431D01*
X28505567Y31639286D01*
X28580094Y31750824D01*
X28631429Y31874758D01*
X28657600Y32006325D01*
X28657600Y32140471D01*
X28631429Y32272038D01*
X28580094Y32395972D01*
X28505567Y32507510D01*
X28410712Y32602365D01*
X28323500Y32660638D01*
X28323500Y34324394D01*
X28376106Y34377000D01*
X28715394Y34377000D01*
X28831500Y34260894D01*
G36*
X16957000Y24037394D02*
G01*
X16957000Y22153250D01*
X16959440Y22128474D01*
X16966667Y22104649D01*
X16978403Y22082693D01*
X16996799Y22060919D01*
X17568299Y21521169D01*
X17587987Y21505931D01*
X17610270Y21494827D01*
X17634291Y21488283D01*
X17655500Y21486500D01*
X20819921Y21486500D01*
X20840888Y21465533D01*
X20952426Y21391006D01*
X21076360Y21339671D01*
X21207927Y21313500D01*
X21342073Y21313500D01*
X21473640Y21339671D01*
X21597574Y21391006D01*
X21709112Y21465533D01*
X21730079Y21486500D01*
X21888552Y21486500D01*
X21864000Y21363073D01*
X21864000Y21228927D01*
X21890171Y21097360D01*
X21941506Y20973426D01*
X22016033Y20861888D01*
X22088623Y20789298D01*
X22009426Y20756494D01*
X21897888Y20681967D01*
X21803033Y20587112D01*
X21728506Y20475574D01*
X21677171Y20351640D01*
X21651000Y20220073D01*
X21651000Y20085927D01*
X21677171Y19954360D01*
X21728506Y19830426D01*
X21803033Y19718888D01*
X21897888Y19624033D01*
X22009426Y19549506D01*
X22133360Y19498171D01*
X22264927Y19472000D01*
X22399073Y19472000D01*
X22530640Y19498171D01*
X22654574Y19549506D01*
X22766112Y19624033D01*
X22860967Y19718888D01*
X22935494Y19830426D01*
X22986829Y19954360D01*
X23013000Y20085927D01*
X23013000Y20117618D01*
X23519605Y20624223D01*
X23515000Y20601073D01*
X23515000Y20466927D01*
X23541171Y20335360D01*
X23592506Y20211426D01*
X23667033Y20099888D01*
X23751486Y20015435D01*
X23719506Y19967574D01*
X23668171Y19843640D01*
X23642000Y19712073D01*
X23642000Y19577927D01*
X23668171Y19446360D01*
X23719506Y19322426D01*
X23794033Y19210888D01*
X23888888Y19116033D01*
X24000426Y19041506D01*
X24124360Y18990171D01*
X24255927Y18964000D01*
X24390073Y18964000D01*
X24521640Y18990171D01*
X24645574Y19041506D01*
X24757112Y19116033D01*
X24851967Y19210888D01*
X24926494Y19322426D01*
X24977829Y19446360D01*
X25004000Y19577927D01*
X25004000Y19712073D01*
X24977829Y19843640D01*
X24926494Y19967574D01*
X24851967Y20079112D01*
X24767514Y20163565D01*
X24799494Y20211426D01*
X24850829Y20335360D01*
X24877000Y20466927D01*
X24877000Y20601073D01*
X24850829Y20732640D01*
X24799494Y20856574D01*
X24724967Y20968112D01*
X24630112Y21062967D01*
X24518574Y21137494D01*
X24394640Y21188829D01*
X24263073Y21215000D01*
X24128927Y21215000D01*
X23997360Y21188829D01*
X23875523Y21138363D01*
X23878500Y21168591D01*
X23878500Y21168594D01*
X23880957Y21193538D01*
X23878500Y21218482D01*
X23878500Y21486500D01*
X25540394Y21486500D01*
X27371000Y19655894D01*
X27371000Y16395606D01*
X25921394Y14946000D01*
X18544500Y14946000D01*
X18544500Y15981042D01*
X19176096Y16612638D01*
X19196838Y16581595D01*
X19142703Y16500576D01*
X19091368Y16376642D01*
X19065197Y16245075D01*
X19065197Y16110929D01*
X19091368Y15979362D01*
X19142703Y15855428D01*
X19217230Y15743890D01*
X19312085Y15649035D01*
X19423623Y15574508D01*
X19547557Y15523173D01*
X19679124Y15497002D01*
X19813270Y15497002D01*
X19944837Y15523173D01*
X20068771Y15574508D01*
X20180309Y15649035D01*
X20275164Y15743890D01*
X20349691Y15855428D01*
X20401026Y15979362D01*
X20427197Y16110929D01*
X20427197Y16245075D01*
X20401026Y16376642D01*
X20349691Y16500576D01*
X20300359Y16574407D01*
X20354494Y16655426D01*
X20405829Y16779360D01*
X20432000Y16910927D01*
X20432000Y17045073D01*
X20405829Y17176640D01*
X20354494Y17300574D01*
X20279967Y17412112D01*
X20185112Y17506967D01*
X20073574Y17581494D01*
X19949640Y17632829D01*
X19818073Y17659000D01*
X19687500Y17659000D01*
X19687500Y17921404D01*
X22574995Y17921404D01*
X22574995Y17787258D01*
X22601166Y17655691D01*
X22652501Y17531757D01*
X22727028Y17420219D01*
X22821883Y17325364D01*
X22933421Y17250837D01*
X23057355Y17199502D01*
X23188922Y17173331D01*
X23323068Y17173331D01*
X23454635Y17199502D01*
X23578569Y17250837D01*
X23690107Y17325364D01*
X23746367Y17381624D01*
X23809918Y17339161D01*
X23933852Y17287826D01*
X24065419Y17261655D01*
X24199565Y17261655D01*
X24331132Y17287826D01*
X24455066Y17339161D01*
X24566604Y17413688D01*
X24661459Y17508543D01*
X24735986Y17620081D01*
X24787321Y17744015D01*
X24813492Y17875582D01*
X24813492Y18009728D01*
X24787321Y18141295D01*
X24735986Y18265229D01*
X24661459Y18376767D01*
X24566604Y18471622D01*
X24455066Y18546149D01*
X24331132Y18597484D01*
X24199565Y18623655D01*
X24065419Y18623655D01*
X23933852Y18597484D01*
X23809918Y18546149D01*
X23698380Y18471622D01*
X23642120Y18415362D01*
X23578569Y18457825D01*
X23454635Y18509160D01*
X23323068Y18535331D01*
X23188922Y18535331D01*
X23057355Y18509160D01*
X22933421Y18457825D01*
X22821883Y18383298D01*
X22727028Y18288443D01*
X22652501Y18176905D01*
X22601166Y18052971D01*
X22574995Y17921404D01*
X19687500Y17921404D01*
X19687500Y18110421D01*
X19708467Y18131388D01*
X19782994Y18242926D01*
X19834329Y18366860D01*
X19860500Y18498427D01*
X19860500Y18632573D01*
X19834329Y18764140D01*
X19782994Y18888074D01*
X19708467Y18999612D01*
X19613612Y19094467D01*
X19502074Y19168994D01*
X19378140Y19220329D01*
X19246573Y19246500D01*
X19112427Y19246500D01*
X18980860Y19220329D01*
X18856926Y19168994D01*
X18745388Y19094467D01*
X18650533Y18999612D01*
X18576006Y18888074D01*
X18524671Y18764140D01*
X18498500Y18632573D01*
X18498500Y18498427D01*
X18524671Y18366860D01*
X18576006Y18242926D01*
X18650533Y18131388D01*
X18671500Y18110421D01*
X18671501Y17544884D01*
X17694935Y16568317D01*
X17675552Y16552410D01*
X17612071Y16475057D01*
X17564899Y16386804D01*
X17535851Y16291046D01*
X17528500Y16216409D01*
X17526043Y16191462D01*
X17528500Y16166518D01*
X17528500Y14946000D01*
X11802606Y14946000D01*
X9959831Y16788775D01*
X10523718Y16788775D01*
X10523718Y16654629D01*
X10549889Y16523062D01*
X10601224Y16399128D01*
X10675751Y16287590D01*
X10770606Y16192735D01*
X10882144Y16118208D01*
X11006078Y16066873D01*
X11137645Y16040702D01*
X11271791Y16040702D01*
X11403358Y16066873D01*
X11527292Y16118208D01*
X11638830Y16192735D01*
X11682945Y16236850D01*
X11796586Y16189779D01*
X11928153Y16163608D01*
X12062299Y16163608D01*
X12193866Y16189779D01*
X12317800Y16241114D01*
X12429338Y16315641D01*
X12524193Y16410496D01*
X12598720Y16522034D01*
X12650055Y16645968D01*
X12676226Y16777535D01*
X12676226Y16911681D01*
X12650055Y17043248D01*
X12598720Y17167182D01*
X12524193Y17278720D01*
X12429338Y17373575D01*
X12317800Y17448102D01*
X12193866Y17499437D01*
X12062299Y17525608D01*
X11928153Y17525608D01*
X11796586Y17499437D01*
X11672652Y17448102D01*
X11561114Y17373575D01*
X11516999Y17329460D01*
X11403358Y17376531D01*
X11271791Y17402702D01*
X11137645Y17402702D01*
X11006078Y17376531D01*
X10882144Y17325196D01*
X10770606Y17250669D01*
X10675751Y17155814D01*
X10601224Y17044276D01*
X10549889Y16920342D01*
X10523718Y16788775D01*
X9959831Y16788775D01*
X9527500Y17221106D01*
X9527500Y24306573D01*
X10368000Y24306573D01*
X10368000Y24172427D01*
X10394171Y24040860D01*
X10445506Y23916926D01*
X10520033Y23805388D01*
X10614888Y23710533D01*
X10726426Y23636006D01*
X10850360Y23584671D01*
X10981927Y23558500D01*
X11116073Y23558500D01*
X11247640Y23584671D01*
X11371574Y23636006D01*
X11483112Y23710533D01*
X11577967Y23805388D01*
X11652494Y23916926D01*
X11703829Y24040860D01*
X11730000Y24172427D01*
X11730000Y24306573D01*
X11703829Y24438140D01*
X11652494Y24562074D01*
X11577967Y24673612D01*
X11483112Y24768467D01*
X11371574Y24842994D01*
X11247640Y24894329D01*
X11116073Y24920500D01*
X10981927Y24920500D01*
X10850360Y24894329D01*
X10726426Y24842994D01*
X10614888Y24768467D01*
X10520033Y24673612D01*
X10445506Y24562074D01*
X10394171Y24438140D01*
X10368000Y24306573D01*
X9527500Y24306573D01*
X9527500Y24862894D01*
X9961106Y25296500D01*
X15697894Y25296500D01*
X16957000Y24037394D01*
X16957000Y24037394D01*
G37*
X16957000Y24037394D02*
X16957000Y22153250D01*
X16959440Y22128474D01*
X16966667Y22104649D01*
X16978403Y22082693D01*
X16996799Y22060919D01*
X17568299Y21521169D01*
X17587987Y21505931D01*
X17610270Y21494827D01*
X17634291Y21488283D01*
X17655500Y21486500D01*
X20819921Y21486500D01*
X20840888Y21465533D01*
X20952426Y21391006D01*
X21076360Y21339671D01*
X21207927Y21313500D01*
X21342073Y21313500D01*
X21473640Y21339671D01*
X21597574Y21391006D01*
X21709112Y21465533D01*
X21730079Y21486500D01*
X21888552Y21486500D01*
X21864000Y21363073D01*
X21864000Y21228927D01*
X21890171Y21097360D01*
X21941506Y20973426D01*
X22016033Y20861888D01*
X22088623Y20789298D01*
X22009426Y20756494D01*
X21897888Y20681967D01*
X21803033Y20587112D01*
X21728506Y20475574D01*
X21677171Y20351640D01*
X21651000Y20220073D01*
X21651000Y20085927D01*
X21677171Y19954360D01*
X21728506Y19830426D01*
X21803033Y19718888D01*
X21897888Y19624033D01*
X22009426Y19549506D01*
X22133360Y19498171D01*
X22264927Y19472000D01*
X22399073Y19472000D01*
X22530640Y19498171D01*
X22654574Y19549506D01*
X22766112Y19624033D01*
X22860967Y19718888D01*
X22935494Y19830426D01*
X22986829Y19954360D01*
X23013000Y20085927D01*
X23013000Y20117618D01*
X23519605Y20624223D01*
X23515000Y20601073D01*
X23515000Y20466927D01*
X23541171Y20335360D01*
X23592506Y20211426D01*
X23667033Y20099888D01*
X23751486Y20015435D01*
X23719506Y19967574D01*
X23668171Y19843640D01*
X23642000Y19712073D01*
X23642000Y19577927D01*
X23668171Y19446360D01*
X23719506Y19322426D01*
X23794033Y19210888D01*
X23888888Y19116033D01*
X24000426Y19041506D01*
X24124360Y18990171D01*
X24255927Y18964000D01*
X24390073Y18964000D01*
X24521640Y18990171D01*
X24645574Y19041506D01*
X24757112Y19116033D01*
X24851967Y19210888D01*
X24926494Y19322426D01*
X24977829Y19446360D01*
X25004000Y19577927D01*
X25004000Y19712073D01*
X24977829Y19843640D01*
X24926494Y19967574D01*
X24851967Y20079112D01*
X24767514Y20163565D01*
X24799494Y20211426D01*
X24850829Y20335360D01*
X24877000Y20466927D01*
X24877000Y20601073D01*
X24850829Y20732640D01*
X24799494Y20856574D01*
X24724967Y20968112D01*
X24630112Y21062967D01*
X24518574Y21137494D01*
X24394640Y21188829D01*
X24263073Y21215000D01*
X24128927Y21215000D01*
X23997360Y21188829D01*
X23875523Y21138363D01*
X23878500Y21168591D01*
X23878500Y21168594D01*
X23880957Y21193538D01*
X23878500Y21218482D01*
X23878500Y21486500D01*
X25540394Y21486500D01*
X27371000Y19655894D01*
X27371000Y16395606D01*
X25921394Y14946000D01*
X18544500Y14946000D01*
X18544500Y15981042D01*
X19176096Y16612638D01*
X19196838Y16581595D01*
X19142703Y16500576D01*
X19091368Y16376642D01*
X19065197Y16245075D01*
X19065197Y16110929D01*
X19091368Y15979362D01*
X19142703Y15855428D01*
X19217230Y15743890D01*
X19312085Y15649035D01*
X19423623Y15574508D01*
X19547557Y15523173D01*
X19679124Y15497002D01*
X19813270Y15497002D01*
X19944837Y15523173D01*
X20068771Y15574508D01*
X20180309Y15649035D01*
X20275164Y15743890D01*
X20349691Y15855428D01*
X20401026Y15979362D01*
X20427197Y16110929D01*
X20427197Y16245075D01*
X20401026Y16376642D01*
X20349691Y16500576D01*
X20300359Y16574407D01*
X20354494Y16655426D01*
X20405829Y16779360D01*
X20432000Y16910927D01*
X20432000Y17045073D01*
X20405829Y17176640D01*
X20354494Y17300574D01*
X20279967Y17412112D01*
X20185112Y17506967D01*
X20073574Y17581494D01*
X19949640Y17632829D01*
X19818073Y17659000D01*
X19687500Y17659000D01*
X19687500Y17921404D01*
X22574995Y17921404D01*
X22574995Y17787258D01*
X22601166Y17655691D01*
X22652501Y17531757D01*
X22727028Y17420219D01*
X22821883Y17325364D01*
X22933421Y17250837D01*
X23057355Y17199502D01*
X23188922Y17173331D01*
X23323068Y17173331D01*
X23454635Y17199502D01*
X23578569Y17250837D01*
X23690107Y17325364D01*
X23746367Y17381624D01*
X23809918Y17339161D01*
X23933852Y17287826D01*
X24065419Y17261655D01*
X24199565Y17261655D01*
X24331132Y17287826D01*
X24455066Y17339161D01*
X24566604Y17413688D01*
X24661459Y17508543D01*
X24735986Y17620081D01*
X24787321Y17744015D01*
X24813492Y17875582D01*
X24813492Y18009728D01*
X24787321Y18141295D01*
X24735986Y18265229D01*
X24661459Y18376767D01*
X24566604Y18471622D01*
X24455066Y18546149D01*
X24331132Y18597484D01*
X24199565Y18623655D01*
X24065419Y18623655D01*
X23933852Y18597484D01*
X23809918Y18546149D01*
X23698380Y18471622D01*
X23642120Y18415362D01*
X23578569Y18457825D01*
X23454635Y18509160D01*
X23323068Y18535331D01*
X23188922Y18535331D01*
X23057355Y18509160D01*
X22933421Y18457825D01*
X22821883Y18383298D01*
X22727028Y18288443D01*
X22652501Y18176905D01*
X22601166Y18052971D01*
X22574995Y17921404D01*
X19687500Y17921404D01*
X19687500Y18110421D01*
X19708467Y18131388D01*
X19782994Y18242926D01*
X19834329Y18366860D01*
X19860500Y18498427D01*
X19860500Y18632573D01*
X19834329Y18764140D01*
X19782994Y18888074D01*
X19708467Y18999612D01*
X19613612Y19094467D01*
X19502074Y19168994D01*
X19378140Y19220329D01*
X19246573Y19246500D01*
X19112427Y19246500D01*
X18980860Y19220329D01*
X18856926Y19168994D01*
X18745388Y19094467D01*
X18650533Y18999612D01*
X18576006Y18888074D01*
X18524671Y18764140D01*
X18498500Y18632573D01*
X18498500Y18498427D01*
X18524671Y18366860D01*
X18576006Y18242926D01*
X18650533Y18131388D01*
X18671500Y18110421D01*
X18671501Y17544884D01*
X17694935Y16568317D01*
X17675552Y16552410D01*
X17612071Y16475057D01*
X17564899Y16386804D01*
X17535851Y16291046D01*
X17528500Y16216409D01*
X17526043Y16191462D01*
X17528500Y16166518D01*
X17528500Y14946000D01*
X11802606Y14946000D01*
X9959831Y16788775D01*
X10523718Y16788775D01*
X10523718Y16654629D01*
X10549889Y16523062D01*
X10601224Y16399128D01*
X10675751Y16287590D01*
X10770606Y16192735D01*
X10882144Y16118208D01*
X11006078Y16066873D01*
X11137645Y16040702D01*
X11271791Y16040702D01*
X11403358Y16066873D01*
X11527292Y16118208D01*
X11638830Y16192735D01*
X11682945Y16236850D01*
X11796586Y16189779D01*
X11928153Y16163608D01*
X12062299Y16163608D01*
X12193866Y16189779D01*
X12317800Y16241114D01*
X12429338Y16315641D01*
X12524193Y16410496D01*
X12598720Y16522034D01*
X12650055Y16645968D01*
X12676226Y16777535D01*
X12676226Y16911681D01*
X12650055Y17043248D01*
X12598720Y17167182D01*
X12524193Y17278720D01*
X12429338Y17373575D01*
X12317800Y17448102D01*
X12193866Y17499437D01*
X12062299Y17525608D01*
X11928153Y17525608D01*
X11796586Y17499437D01*
X11672652Y17448102D01*
X11561114Y17373575D01*
X11516999Y17329460D01*
X11403358Y17376531D01*
X11271791Y17402702D01*
X11137645Y17402702D01*
X11006078Y17376531D01*
X10882144Y17325196D01*
X10770606Y17250669D01*
X10675751Y17155814D01*
X10601224Y17044276D01*
X10549889Y16920342D01*
X10523718Y16788775D01*
X9959831Y16788775D01*
X9527500Y17221106D01*
X9527500Y24306573D01*
X10368000Y24306573D01*
X10368000Y24172427D01*
X10394171Y24040860D01*
X10445506Y23916926D01*
X10520033Y23805388D01*
X10614888Y23710533D01*
X10726426Y23636006D01*
X10850360Y23584671D01*
X10981927Y23558500D01*
X11116073Y23558500D01*
X11247640Y23584671D01*
X11371574Y23636006D01*
X11483112Y23710533D01*
X11577967Y23805388D01*
X11652494Y23916926D01*
X11703829Y24040860D01*
X11730000Y24172427D01*
X11730000Y24306573D01*
X11703829Y24438140D01*
X11652494Y24562074D01*
X11577967Y24673612D01*
X11483112Y24768467D01*
X11371574Y24842994D01*
X11247640Y24894329D01*
X11116073Y24920500D01*
X10981927Y24920500D01*
X10850360Y24894329D01*
X10726426Y24842994D01*
X10614888Y24768467D01*
X10520033Y24673612D01*
X10445506Y24562074D01*
X10394171Y24438140D01*
X10368000Y24306573D01*
X9527500Y24306573D01*
X9527500Y24862894D01*
X9961106Y25296500D01*
X15697894Y25296500D01*
X16957000Y24037394D01*
G36*
X5204426Y29011006D02*
G01*
X5328360Y28959671D01*
X5459927Y28933500D01*
X5594073Y28933500D01*
X5725640Y28959671D01*
X5849574Y29011006D01*
X5897457Y29043000D01*
X6045543Y29043000D01*
X6093426Y29011006D01*
X6217360Y28959671D01*
X6348927Y28933500D01*
X6483073Y28933500D01*
X6614640Y28959671D01*
X6738574Y29011006D01*
X6786457Y29043000D01*
X9919043Y29043000D01*
X9966926Y29011006D01*
X10090860Y28959671D01*
X10222427Y28933500D01*
X10356573Y28933500D01*
X10488140Y28959671D01*
X10612074Y29011006D01*
X10659957Y29043000D01*
X11189394Y29043000D01*
X12639000Y27593394D01*
X12639000Y26174606D01*
X12332394Y25868000D01*
X11675606Y25868000D01*
X11369000Y26174606D01*
X11369000Y27138000D01*
X11366560Y27162776D01*
X11359333Y27186601D01*
X11347597Y27208557D01*
X11331803Y27227803D01*
X10950803Y27608803D01*
X10931557Y27624597D01*
X10909601Y27636333D01*
X10885776Y27643560D01*
X10861000Y27646000D01*
X5527000Y27646000D01*
X5502224Y27643560D01*
X5478399Y27636333D01*
X5456443Y27624597D01*
X5437197Y27608803D01*
X4294197Y26465803D01*
X4278403Y26446557D01*
X4266667Y26424601D01*
X4259440Y26400776D01*
X4257000Y26376000D01*
X4257000Y8185127D01*
X4190640Y8345335D01*
X4072502Y8522141D01*
X3922141Y8672502D01*
X3745335Y8790640D01*
X3548878Y8872015D01*
X3340321Y8913500D01*
X3127679Y8913500D01*
X2919122Y8872015D01*
X2722665Y8790640D01*
X2545859Y8672502D01*
X2395498Y8522141D01*
X2277360Y8345335D01*
X2195985Y8148878D01*
X2154500Y7940321D01*
X2154500Y7727679D01*
X2195985Y7519122D01*
X2277360Y7322665D01*
X2395498Y7145859D01*
X2545859Y6995498D01*
X2722665Y6877360D01*
X2919122Y6795985D01*
X3127679Y6754500D01*
X3340321Y6754500D01*
X3548878Y6795985D01*
X3745335Y6877360D01*
X3922141Y6995498D01*
X4072502Y7145859D01*
X4190640Y7322665D01*
X4257000Y7482873D01*
X4257000Y5548000D01*
X4259440Y5523224D01*
X4266667Y5499399D01*
X4278403Y5477443D01*
X4294197Y5458197D01*
X4929197Y4823197D01*
X4948443Y4807403D01*
X4970399Y4795667D01*
X4994224Y4788440D01*
X5019000Y4786000D01*
X27572394Y4786000D01*
X28133000Y4225394D01*
X28133000Y3314606D01*
X27699394Y2881000D01*
X2912606Y2881000D01*
X1971000Y3822606D01*
X1971000Y26323394D01*
X4581859Y28934253D01*
X4709640Y28959671D01*
X4833574Y29011006D01*
X4881457Y29043000D01*
X5156543Y29043000D01*
X5204426Y29011006D01*
X5204426Y29011006D01*
G37*
X5204426Y29011006D02*
X5328360Y28959671D01*
X5459927Y28933500D01*
X5594073Y28933500D01*
X5725640Y28959671D01*
X5849574Y29011006D01*
X5897457Y29043000D01*
X6045543Y29043000D01*
X6093426Y29011006D01*
X6217360Y28959671D01*
X6348927Y28933500D01*
X6483073Y28933500D01*
X6614640Y28959671D01*
X6738574Y29011006D01*
X6786457Y29043000D01*
X9919043Y29043000D01*
X9966926Y29011006D01*
X10090860Y28959671D01*
X10222427Y28933500D01*
X10356573Y28933500D01*
X10488140Y28959671D01*
X10612074Y29011006D01*
X10659957Y29043000D01*
X11189394Y29043000D01*
X12639000Y27593394D01*
X12639000Y26174606D01*
X12332394Y25868000D01*
X11675606Y25868000D01*
X11369000Y26174606D01*
X11369000Y27138000D01*
X11366560Y27162776D01*
X11359333Y27186601D01*
X11347597Y27208557D01*
X11331803Y27227803D01*
X10950803Y27608803D01*
X10931557Y27624597D01*
X10909601Y27636333D01*
X10885776Y27643560D01*
X10861000Y27646000D01*
X5527000Y27646000D01*
X5502224Y27643560D01*
X5478399Y27636333D01*
X5456443Y27624597D01*
X5437197Y27608803D01*
X4294197Y26465803D01*
X4278403Y26446557D01*
X4266667Y26424601D01*
X4259440Y26400776D01*
X4257000Y26376000D01*
X4257000Y8185127D01*
X4190640Y8345335D01*
X4072502Y8522141D01*
X3922141Y8672502D01*
X3745335Y8790640D01*
X3548878Y8872015D01*
X3340321Y8913500D01*
X3127679Y8913500D01*
X2919122Y8872015D01*
X2722665Y8790640D01*
X2545859Y8672502D01*
X2395498Y8522141D01*
X2277360Y8345335D01*
X2195985Y8148878D01*
X2154500Y7940321D01*
X2154500Y7727679D01*
X2195985Y7519122D01*
X2277360Y7322665D01*
X2395498Y7145859D01*
X2545859Y6995498D01*
X2722665Y6877360D01*
X2919122Y6795985D01*
X3127679Y6754500D01*
X3340321Y6754500D01*
X3548878Y6795985D01*
X3745335Y6877360D01*
X3922141Y6995498D01*
X4072502Y7145859D01*
X4190640Y7322665D01*
X4257000Y7482873D01*
X4257000Y5548000D01*
X4259440Y5523224D01*
X4266667Y5499399D01*
X4278403Y5477443D01*
X4294197Y5458197D01*
X4929197Y4823197D01*
X4948443Y4807403D01*
X4970399Y4795667D01*
X4994224Y4788440D01*
X5019000Y4786000D01*
X27572394Y4786000D01*
X28133000Y4225394D01*
X28133000Y3314606D01*
X27699394Y2881000D01*
X2912606Y2881000D01*
X1971000Y3822606D01*
X1971000Y26323394D01*
X4581859Y28934253D01*
X4709640Y28959671D01*
X4833574Y29011006D01*
X4881457Y29043000D01*
X5156543Y29043000D01*
X5204426Y29011006D01*
G36*
X14498000Y28655394D02*
G01*
X14498000Y28594927D01*
X14524171Y28463360D01*
X14575506Y28339426D01*
X14650033Y28227888D01*
X14744888Y28133033D01*
X14856426Y28058506D01*
X14980360Y28007171D01*
X15111927Y27981000D01*
X15179245Y27981000D01*
X15193899Y27973167D01*
X15217724Y27965940D01*
X15242500Y27963500D01*
X18237894Y27963500D01*
X21058197Y25143197D01*
X21077443Y25127403D01*
X21099399Y25115667D01*
X21123224Y25108440D01*
X21148000Y25106000D01*
X25529500Y25106000D01*
X25554276Y25108440D01*
X25578101Y25115667D01*
X25600057Y25127403D01*
X25619303Y25143197D01*
X25809803Y25333697D01*
X25825597Y25352943D01*
X25837333Y25374899D01*
X25844560Y25398724D01*
X25847000Y25423500D01*
X25847000Y26069394D01*
X26661606Y26884000D01*
X27822545Y26884000D01*
X27858033Y26830888D01*
X27952888Y26736033D01*
X28064426Y26661506D01*
X28133000Y26633102D01*
X28133000Y25285606D01*
X26429394Y23582000D01*
X21264106Y23582000D01*
X20666303Y24179803D01*
X20647057Y24195597D01*
X20625101Y24207333D01*
X20601276Y24214560D01*
X20576500Y24217000D01*
X19618420Y24217000D01*
X19603140Y24223329D01*
X19471573Y24249500D01*
X19433500Y24249500D01*
X19433500Y24788500D01*
X19431060Y24813276D01*
X19423833Y24837101D01*
X19412097Y24859057D01*
X19394525Y24880046D01*
X17743525Y26467546D01*
X17723974Y26482960D01*
X17701791Y26494263D01*
X17677830Y26501022D01*
X17655500Y26503000D01*
X15676765Y26503000D01*
X15349633Y26835974D01*
X15325829Y26955640D01*
X15274494Y27079574D01*
X15199967Y27191112D01*
X15105112Y27285967D01*
X14993574Y27360494D01*
X14869640Y27411829D01*
X14763050Y27433032D01*
X12158094Y30084504D01*
X12138989Y30100468D01*
X12117137Y30112398D01*
X12093378Y30119836D01*
X12067500Y30122500D01*
X11315143Y30122500D01*
X11452502Y30259859D01*
X11570640Y30436665D01*
X11652015Y30633122D01*
X11693500Y30841679D01*
X11693500Y31054321D01*
X11652015Y31262878D01*
X11570640Y31459335D01*
X11452502Y31636141D01*
X11302141Y31786502D01*
X11125335Y31904640D01*
X10928878Y31986015D01*
X10720321Y32027500D01*
X10507679Y32027500D01*
X10299122Y31986015D01*
X10102665Y31904640D01*
X9925859Y31786502D01*
X9775498Y31636141D01*
X9657360Y31459335D01*
X9575985Y31262878D01*
X9534500Y31054321D01*
X9534500Y30841679D01*
X9575985Y30633122D01*
X9657360Y30436665D01*
X9775498Y30259859D01*
X9877269Y30158088D01*
X9855388Y30143467D01*
X9834421Y30122500D01*
X9119108Y30122500D01*
X9034199Y30207409D01*
X9267812Y30266686D01*
X9378559Y30504875D01*
X9440711Y30760093D01*
X9451876Y31022533D01*
X9411629Y31282107D01*
X9321514Y31528842D01*
X9267812Y31629314D01*
X9034197Y31688592D01*
X8293605Y30948000D01*
X8307748Y30933857D01*
X8128143Y30754252D01*
X8114000Y30768395D01*
X8099858Y30754252D01*
X7920253Y30933857D01*
X7934395Y30948000D01*
X7193803Y31688592D01*
X6960188Y31629314D01*
X6849441Y31391125D01*
X6787289Y31135907D01*
X6776124Y30873467D01*
X6816371Y30613893D01*
X6906486Y30367158D01*
X6960188Y30266686D01*
X7193801Y30207409D01*
X7108892Y30122500D01*
X6871079Y30122500D01*
X6850112Y30143467D01*
X6738574Y30217994D01*
X6614640Y30269329D01*
X6483073Y30295500D01*
X6476317Y30295500D01*
X6570640Y30436665D01*
X6652015Y30633122D01*
X6693500Y30841679D01*
X6693500Y31054321D01*
X6652015Y31262878D01*
X6570640Y31459335D01*
X6452502Y31636141D01*
X6302141Y31786502D01*
X6179876Y31868197D01*
X7373408Y31868197D01*
X8114000Y31127605D01*
X8854592Y31868197D01*
X8795314Y32101812D01*
X8557125Y32212559D01*
X8301907Y32274711D01*
X8039467Y32285876D01*
X7779893Y32245629D01*
X7533158Y32155514D01*
X7432686Y32101812D01*
X7373408Y31868197D01*
X6179876Y31868197D01*
X6125335Y31904640D01*
X5928878Y31986015D01*
X5720321Y32027500D01*
X5507679Y32027500D01*
X5299122Y31986015D01*
X5102665Y31904640D01*
X4925859Y31786502D01*
X4775498Y31636141D01*
X4657360Y31459335D01*
X4575985Y31262878D01*
X4534500Y31054321D01*
X4534500Y30841679D01*
X4575985Y30633122D01*
X4657360Y30436665D01*
X4775498Y30259859D01*
X4805900Y30229457D01*
X4709640Y30269329D01*
X4578073Y30295500D01*
X4443927Y30295500D01*
X4312360Y30269329D01*
X4188426Y30217994D01*
X4089628Y30151980D01*
X4034199Y30207409D01*
X4267812Y30266686D01*
X4378559Y30504875D01*
X4440711Y30760093D01*
X4451876Y31022533D01*
X4411629Y31282107D01*
X4321514Y31528842D01*
X4267812Y31629314D01*
X4034197Y31688592D01*
X3293605Y30948000D01*
X3307748Y30933857D01*
X3128143Y30754252D01*
X3114000Y30768395D01*
X3099858Y30754252D01*
X2920253Y30933857D01*
X2934395Y30948000D01*
X2193803Y31688592D01*
X2161500Y31680395D01*
X2161500Y31868197D01*
X2373408Y31868197D01*
X3114000Y31127605D01*
X3854592Y31868197D01*
X3795314Y32101812D01*
X3557125Y32212559D01*
X3301907Y32274711D01*
X3039467Y32285876D01*
X2779893Y32245629D01*
X2533158Y32155514D01*
X2432686Y32101812D01*
X2373408Y31868197D01*
X2161500Y31868197D01*
X2161500Y32736894D01*
X3103106Y33678500D01*
X9474894Y33678500D01*
X14498000Y28655394D01*
X14498000Y28655394D01*
G37*
X14498000Y28655394D02*
X14498000Y28594927D01*
X14524171Y28463360D01*
X14575506Y28339426D01*
X14650033Y28227888D01*
X14744888Y28133033D01*
X14856426Y28058506D01*
X14980360Y28007171D01*
X15111927Y27981000D01*
X15179245Y27981000D01*
X15193899Y27973167D01*
X15217724Y27965940D01*
X15242500Y27963500D01*
X18237894Y27963500D01*
X21058197Y25143197D01*
X21077443Y25127403D01*
X21099399Y25115667D01*
X21123224Y25108440D01*
X21148000Y25106000D01*
X25529500Y25106000D01*
X25554276Y25108440D01*
X25578101Y25115667D01*
X25600057Y25127403D01*
X25619303Y25143197D01*
X25809803Y25333697D01*
X25825597Y25352943D01*
X25837333Y25374899D01*
X25844560Y25398724D01*
X25847000Y25423500D01*
X25847000Y26069394D01*
X26661606Y26884000D01*
X27822545Y26884000D01*
X27858033Y26830888D01*
X27952888Y26736033D01*
X28064426Y26661506D01*
X28133000Y26633102D01*
X28133000Y25285606D01*
X26429394Y23582000D01*
X21264106Y23582000D01*
X20666303Y24179803D01*
X20647057Y24195597D01*
X20625101Y24207333D01*
X20601276Y24214560D01*
X20576500Y24217000D01*
X19618420Y24217000D01*
X19603140Y24223329D01*
X19471573Y24249500D01*
X19433500Y24249500D01*
X19433500Y24788500D01*
X19431060Y24813276D01*
X19423833Y24837101D01*
X19412097Y24859057D01*
X19394525Y24880046D01*
X17743525Y26467546D01*
X17723974Y26482960D01*
X17701791Y26494263D01*
X17677830Y26501022D01*
X17655500Y26503000D01*
X15676765Y26503000D01*
X15349633Y26835974D01*
X15325829Y26955640D01*
X15274494Y27079574D01*
X15199967Y27191112D01*
X15105112Y27285967D01*
X14993574Y27360494D01*
X14869640Y27411829D01*
X14763050Y27433032D01*
X12158094Y30084504D01*
X12138989Y30100468D01*
X12117137Y30112398D01*
X12093378Y30119836D01*
X12067500Y30122500D01*
X11315143Y30122500D01*
X11452502Y30259859D01*
X11570640Y30436665D01*
X11652015Y30633122D01*
X11693500Y30841679D01*
X11693500Y31054321D01*
X11652015Y31262878D01*
X11570640Y31459335D01*
X11452502Y31636141D01*
X11302141Y31786502D01*
X11125335Y31904640D01*
X10928878Y31986015D01*
X10720321Y32027500D01*
X10507679Y32027500D01*
X10299122Y31986015D01*
X10102665Y31904640D01*
X9925859Y31786502D01*
X9775498Y31636141D01*
X9657360Y31459335D01*
X9575985Y31262878D01*
X9534500Y31054321D01*
X9534500Y30841679D01*
X9575985Y30633122D01*
X9657360Y30436665D01*
X9775498Y30259859D01*
X9877269Y30158088D01*
X9855388Y30143467D01*
X9834421Y30122500D01*
X9119108Y30122500D01*
X9034199Y30207409D01*
X9267812Y30266686D01*
X9378559Y30504875D01*
X9440711Y30760093D01*
X9451876Y31022533D01*
X9411629Y31282107D01*
X9321514Y31528842D01*
X9267812Y31629314D01*
X9034197Y31688592D01*
X8293605Y30948000D01*
X8307748Y30933857D01*
X8128143Y30754252D01*
X8114000Y30768395D01*
X8099858Y30754252D01*
X7920253Y30933857D01*
X7934395Y30948000D01*
X7193803Y31688592D01*
X6960188Y31629314D01*
X6849441Y31391125D01*
X6787289Y31135907D01*
X6776124Y30873467D01*
X6816371Y30613893D01*
X6906486Y30367158D01*
X6960188Y30266686D01*
X7193801Y30207409D01*
X7108892Y30122500D01*
X6871079Y30122500D01*
X6850112Y30143467D01*
X6738574Y30217994D01*
X6614640Y30269329D01*
X6483073Y30295500D01*
X6476317Y30295500D01*
X6570640Y30436665D01*
X6652015Y30633122D01*
X6693500Y30841679D01*
X6693500Y31054321D01*
X6652015Y31262878D01*
X6570640Y31459335D01*
X6452502Y31636141D01*
X6302141Y31786502D01*
X6179876Y31868197D01*
X7373408Y31868197D01*
X8114000Y31127605D01*
X8854592Y31868197D01*
X8795314Y32101812D01*
X8557125Y32212559D01*
X8301907Y32274711D01*
X8039467Y32285876D01*
X7779893Y32245629D01*
X7533158Y32155514D01*
X7432686Y32101812D01*
X7373408Y31868197D01*
X6179876Y31868197D01*
X6125335Y31904640D01*
X5928878Y31986015D01*
X5720321Y32027500D01*
X5507679Y32027500D01*
X5299122Y31986015D01*
X5102665Y31904640D01*
X4925859Y31786502D01*
X4775498Y31636141D01*
X4657360Y31459335D01*
X4575985Y31262878D01*
X4534500Y31054321D01*
X4534500Y30841679D01*
X4575985Y30633122D01*
X4657360Y30436665D01*
X4775498Y30259859D01*
X4805900Y30229457D01*
X4709640Y30269329D01*
X4578073Y30295500D01*
X4443927Y30295500D01*
X4312360Y30269329D01*
X4188426Y30217994D01*
X4089628Y30151980D01*
X4034199Y30207409D01*
X4267812Y30266686D01*
X4378559Y30504875D01*
X4440711Y30760093D01*
X4451876Y31022533D01*
X4411629Y31282107D01*
X4321514Y31528842D01*
X4267812Y31629314D01*
X4034197Y31688592D01*
X3293605Y30948000D01*
X3307748Y30933857D01*
X3128143Y30754252D01*
X3114000Y30768395D01*
X3099858Y30754252D01*
X2920253Y30933857D01*
X2934395Y30948000D01*
X2193803Y31688592D01*
X2161500Y31680395D01*
X2161500Y31868197D01*
X2373408Y31868197D01*
X3114000Y31127605D01*
X3854592Y31868197D01*
X3795314Y32101812D01*
X3557125Y32212559D01*
X3301907Y32274711D01*
X3039467Y32285876D01*
X2779893Y32245629D01*
X2533158Y32155514D01*
X2432686Y32101812D01*
X2373408Y31868197D01*
X2161500Y31868197D01*
X2161500Y32736894D01*
X3103106Y33678500D01*
X9474894Y33678500D01*
X14498000Y28655394D01*
G36*
X23037236Y37517369D02*
G01*
X22876839Y37361169D01*
X22749997Y37176678D01*
X22661585Y36970987D01*
X22615000Y36752000D01*
X22615000Y36477000D01*
X23623000Y36477000D01*
X23623000Y36497000D01*
X23877000Y36497000D01*
X23877000Y36477000D01*
X24885000Y36477000D01*
X24885000Y36752000D01*
X24838415Y36970987D01*
X24750003Y37176678D01*
X24623161Y37361169D01*
X24462764Y37517369D01*
X24344720Y37594000D01*
X30155280Y37594000D01*
X30037236Y37517369D01*
X29876839Y37361169D01*
X29749997Y37176678D01*
X29661585Y36970987D01*
X29615000Y36752000D01*
X29615000Y36477000D01*
X30623000Y36477000D01*
X30623000Y36497000D01*
X30877000Y36497000D01*
X30877000Y36477000D01*
X30897000Y36477000D01*
X30897000Y36223000D01*
X30877000Y36223000D01*
X30877000Y35107046D01*
X31051874Y34980881D01*
X31274976Y35060724D01*
X31462764Y35182631D01*
X31623161Y35338831D01*
X31750003Y35523322D01*
X31838415Y35729013D01*
X31885000Y35948000D01*
X31885000Y36093369D01*
X32001360Y36045171D01*
X32132927Y36019000D01*
X32267073Y36019000D01*
X32398640Y36045171D01*
X32522574Y36096506D01*
X32634112Y36171033D01*
X32728967Y36265888D01*
X32800068Y36372298D01*
X32811033Y36355888D01*
X32905888Y36261033D01*
X33017426Y36186506D01*
X33141360Y36135171D01*
X33272927Y36109000D01*
X33407073Y36109000D01*
X33538640Y36135171D01*
X33662574Y36186506D01*
X33774112Y36261033D01*
X33818652Y36305573D01*
X40152000Y36305573D01*
X40152000Y36171427D01*
X40178171Y36039860D01*
X40229506Y35915926D01*
X40304033Y35804388D01*
X40398888Y35709533D01*
X40510426Y35635006D01*
X40634360Y35583671D01*
X40765927Y35557500D01*
X40900073Y35557500D01*
X41031640Y35583671D01*
X41155574Y35635006D01*
X41267112Y35709533D01*
X41361967Y35804388D01*
X41436494Y35915926D01*
X41487829Y36039860D01*
X41514000Y36171427D01*
X41514000Y36292073D01*
X42882500Y36292073D01*
X42882500Y36157927D01*
X42908671Y36026360D01*
X42960006Y35902426D01*
X43034533Y35790888D01*
X43129388Y35696033D01*
X43240926Y35621506D01*
X43364860Y35570171D01*
X43496427Y35544000D01*
X43630573Y35544000D01*
X43762140Y35570171D01*
X43886074Y35621506D01*
X43997612Y35696033D01*
X44092467Y35790888D01*
X44166994Y35902426D01*
X44218329Y36026360D01*
X44244500Y36157927D01*
X44244500Y36292073D01*
X44218329Y36423640D01*
X44166994Y36547574D01*
X44092467Y36659112D01*
X43997612Y36753967D01*
X43886074Y36828494D01*
X43762140Y36879829D01*
X43630573Y36906000D01*
X43496427Y36906000D01*
X43364860Y36879829D01*
X43240926Y36828494D01*
X43129388Y36753967D01*
X43034533Y36659112D01*
X42960006Y36547574D01*
X42908671Y36423640D01*
X42882500Y36292073D01*
X41514000Y36292073D01*
X41514000Y36305573D01*
X41487829Y36437140D01*
X41436494Y36561074D01*
X41361967Y36672612D01*
X41267112Y36767467D01*
X41155574Y36841994D01*
X41031640Y36893329D01*
X40900073Y36919500D01*
X40765927Y36919500D01*
X40634360Y36893329D01*
X40510426Y36841994D01*
X40398888Y36767467D01*
X40304033Y36672612D01*
X40229506Y36561074D01*
X40178171Y36437140D01*
X40152000Y36305573D01*
X33818652Y36305573D01*
X33868967Y36355888D01*
X33943494Y36467426D01*
X33994829Y36591360D01*
X34021000Y36722927D01*
X34021000Y36857073D01*
X33994829Y36988640D01*
X33943494Y37112574D01*
X33868967Y37224112D01*
X33774112Y37318967D01*
X33662574Y37393494D01*
X33538640Y37444829D01*
X33407073Y37471000D01*
X33272927Y37471000D01*
X33141360Y37444829D01*
X33017426Y37393494D01*
X32905888Y37318967D01*
X32811033Y37224112D01*
X32739932Y37117702D01*
X32728967Y37134112D01*
X32634112Y37228967D01*
X32522574Y37303494D01*
X32398640Y37354829D01*
X32267073Y37381000D01*
X32132927Y37381000D01*
X32001360Y37354829D01*
X31877426Y37303494D01*
X31765888Y37228967D01*
X31735171Y37198250D01*
X31623161Y37361169D01*
X31462764Y37517369D01*
X31344720Y37594000D01*
X45573000Y37594000D01*
X45573000Y29177000D01*
X44500000Y29177000D01*
X44475224Y29174560D01*
X44451399Y29167333D01*
X44429443Y29155597D01*
X44410197Y29139803D01*
X44394403Y29120557D01*
X44382667Y29098601D01*
X44375440Y29074776D01*
X44373000Y29050000D01*
X44373000Y27450000D01*
X44375440Y27425224D01*
X44382667Y27401399D01*
X44394403Y27379443D01*
X44410197Y27360197D01*
X44429443Y27344403D01*
X44451399Y27332667D01*
X44475224Y27325440D01*
X44500000Y27323000D01*
X45573000Y27323000D01*
X45573000Y24368212D01*
X45528967Y24434112D01*
X45434112Y24528967D01*
X45322574Y24603494D01*
X45198640Y24654829D01*
X45067073Y24681000D01*
X44932927Y24681000D01*
X44801360Y24654829D01*
X44677426Y24603494D01*
X44565888Y24528967D01*
X44471033Y24434112D01*
X44396506Y24322574D01*
X44345171Y24198640D01*
X44319000Y24067073D01*
X44319000Y23932927D01*
X44345171Y23801360D01*
X44396506Y23677426D01*
X44471033Y23565888D01*
X44565888Y23471033D01*
X44677426Y23396506D01*
X44801360Y23345171D01*
X44932927Y23319000D01*
X45067073Y23319000D01*
X45198640Y23345171D01*
X45322574Y23396506D01*
X45434112Y23471033D01*
X45528967Y23565888D01*
X45573000Y23631788D01*
X45573000Y406000D01*
X40634202Y406000D01*
X40695612Y447033D01*
X40790467Y541888D01*
X40864994Y653426D01*
X40916329Y777360D01*
X40942500Y908927D01*
X40942500Y1043073D01*
X40916329Y1174640D01*
X40864994Y1298574D01*
X40839330Y1336983D01*
X40845718Y1337612D01*
X41077763Y1408002D01*
X41291616Y1522309D01*
X41479060Y1676140D01*
X41632891Y1863584D01*
X41741491Y2066760D01*
X41747575Y2046701D01*
X41872759Y1783880D01*
X42046812Y1550531D01*
X42263045Y1355622D01*
X42513148Y1206643D01*
X42787509Y1109319D01*
X43017400Y1229986D01*
X43017400Y2423800D01*
X43271400Y2423800D01*
X43271400Y1229986D01*
X43501291Y1109319D01*
X43775652Y1206643D01*
X44025755Y1355622D01*
X44241988Y1550531D01*
X44416041Y1783880D01*
X44541225Y2046701D01*
X44585876Y2193910D01*
X44464555Y2423800D01*
X43271400Y2423800D01*
X43017400Y2423800D01*
X42997400Y2423800D01*
X42997400Y2677800D01*
X43017400Y2677800D01*
X43017400Y4963800D01*
X43271400Y4963800D01*
X43271400Y2677800D01*
X44464555Y2677800D01*
X44585876Y2907690D01*
X44541225Y3054899D01*
X44416041Y3317720D01*
X44241988Y3551069D01*
X44025755Y3745978D01*
X43900145Y3820800D01*
X44025755Y3895622D01*
X44241988Y4090531D01*
X44416041Y4323880D01*
X44541225Y4586701D01*
X44585876Y4733910D01*
X44464555Y4963800D01*
X43271400Y4963800D01*
X43017400Y4963800D01*
X42997400Y4963800D01*
X42997400Y5217800D01*
X43017400Y5217800D01*
X43017400Y5237800D01*
X43271400Y5237800D01*
X43271400Y5217800D01*
X44464555Y5217800D01*
X44585876Y5447690D01*
X44541225Y5594899D01*
X44416041Y5857720D01*
X44241988Y6091069D01*
X44025755Y6285978D01*
X43775652Y6434957D01*
X43621095Y6489783D01*
X43831616Y6602309D01*
X44019060Y6756140D01*
X44172891Y6943584D01*
X44287198Y7157437D01*
X44357588Y7389482D01*
X44381356Y7630800D01*
X44357588Y7872118D01*
X44287198Y8104163D01*
X44172891Y8318016D01*
X44019060Y8505460D01*
X43831616Y8659291D01*
X43617763Y8773598D01*
X43385718Y8843988D01*
X43204872Y8861800D01*
X43083928Y8861800D01*
X42903082Y8843988D01*
X42671037Y8773598D01*
X42457184Y8659291D01*
X42269740Y8505460D01*
X42115909Y8318016D01*
X42001602Y8104163D01*
X41931212Y7872118D01*
X41907444Y7630800D01*
X41931212Y7389482D01*
X42001602Y7157437D01*
X42115909Y6943584D01*
X42269740Y6756140D01*
X42457184Y6602309D01*
X42667705Y6489783D01*
X42513148Y6434957D01*
X42263045Y6285978D01*
X42046812Y6091069D01*
X41872759Y5857720D01*
X41747575Y5594899D01*
X41741491Y5574840D01*
X41632891Y5778016D01*
X41479060Y5965460D01*
X41291616Y6119291D01*
X41077763Y6233598D01*
X40845718Y6303988D01*
X40664872Y6321800D01*
X40543928Y6321800D01*
X40363082Y6303988D01*
X40131037Y6233598D01*
X39917184Y6119291D01*
X39729740Y5965460D01*
X39575909Y5778016D01*
X39461602Y5564163D01*
X39391212Y5332118D01*
X39367444Y5090800D01*
X39391212Y4849482D01*
X39461602Y4617437D01*
X39575909Y4403584D01*
X39729740Y4216140D01*
X39917184Y4062309D01*
X40131037Y3948002D01*
X40363082Y3877612D01*
X40543928Y3859800D01*
X40664872Y3859800D01*
X40845718Y3877612D01*
X41077763Y3948002D01*
X41291616Y4062309D01*
X41479060Y4216140D01*
X41632891Y4403584D01*
X41741491Y4606760D01*
X41747575Y4586701D01*
X41872759Y4323880D01*
X42046812Y4090531D01*
X42263045Y3895622D01*
X42388655Y3820800D01*
X42263045Y3745978D01*
X42046812Y3551069D01*
X41872759Y3317720D01*
X41747575Y3054899D01*
X41741491Y3034840D01*
X41632891Y3238016D01*
X41479060Y3425460D01*
X41291616Y3579291D01*
X41077763Y3693598D01*
X40845718Y3763988D01*
X40664872Y3781800D01*
X40543928Y3781800D01*
X40363082Y3763988D01*
X40131037Y3693598D01*
X39917184Y3579291D01*
X39729740Y3425460D01*
X39575909Y3238016D01*
X39461602Y3024163D01*
X39391212Y2792118D01*
X39367444Y2550800D01*
X39391212Y2309482D01*
X39461602Y2077437D01*
X39575909Y1863584D01*
X39729740Y1676140D01*
X39888533Y1545822D01*
X39827388Y1504967D01*
X39732533Y1410112D01*
X39658006Y1298574D01*
X39606671Y1174640D01*
X39580500Y1043073D01*
X39580500Y908927D01*
X39606671Y777360D01*
X39658006Y653426D01*
X39732533Y541888D01*
X39827388Y447033D01*
X39888798Y406000D01*
X406000Y406000D01*
X406000Y26376000D01*
X1463000Y26376000D01*
X1463000Y3770000D01*
X1470321Y3695671D01*
X1492002Y3624198D01*
X1527210Y3558328D01*
X1574592Y3500592D01*
X2590592Y2484592D01*
X2648328Y2437210D01*
X2714198Y2402002D01*
X2785671Y2380321D01*
X2860000Y2373000D01*
X27752000Y2373000D01*
X27826329Y2380321D01*
X27897802Y2402002D01*
X27963672Y2437210D01*
X28021408Y2484592D01*
X28529408Y2992592D01*
X28576790Y3050328D01*
X28611998Y3116198D01*
X28633679Y3187671D01*
X28641000Y3262000D01*
X29036022Y3262000D01*
X29060966Y3259543D01*
X29085910Y3262000D01*
X29085913Y3262000D01*
X29160551Y3269351D01*
X29256309Y3298399D01*
X29344561Y3345571D01*
X29421914Y3409052D01*
X29437821Y3428435D01*
X33165570Y7156184D01*
X33184953Y7172091D01*
X33248434Y7249444D01*
X33295606Y7337696D01*
X33324654Y7433454D01*
X33332005Y7508092D01*
X33332005Y7508095D01*
X33334462Y7533039D01*
X33332005Y7557983D01*
X33332005Y7630800D01*
X39367444Y7630800D01*
X39391212Y7389482D01*
X39461602Y7157437D01*
X39575909Y6943584D01*
X39729740Y6756140D01*
X39917184Y6602309D01*
X40131037Y6488002D01*
X40363082Y6417612D01*
X40543928Y6399800D01*
X40664872Y6399800D01*
X40845718Y6417612D01*
X41077763Y6488002D01*
X41291616Y6602309D01*
X41479060Y6756140D01*
X41632891Y6943584D01*
X41747198Y7157437D01*
X41817588Y7389482D01*
X41841356Y7630800D01*
X41817588Y7872118D01*
X41747198Y8104163D01*
X41632891Y8318016D01*
X41479060Y8505460D01*
X41291616Y8659291D01*
X41077763Y8773598D01*
X40845718Y8843988D01*
X40664872Y8861800D01*
X40543928Y8861800D01*
X40363082Y8843988D01*
X40131037Y8773598D01*
X39917184Y8659291D01*
X39729740Y8505460D01*
X39575909Y8318016D01*
X39461602Y8104163D01*
X39391212Y7872118D01*
X39367444Y7630800D01*
X33332005Y7630800D01*
X33332005Y10170800D01*
X39367444Y10170800D01*
X39391212Y9929482D01*
X39461602Y9697437D01*
X39575909Y9483584D01*
X39729740Y9296140D01*
X39917184Y9142309D01*
X40131037Y9028002D01*
X40363082Y8957612D01*
X40543928Y8939800D01*
X40664872Y8939800D01*
X40845718Y8957612D01*
X41077763Y9028002D01*
X41291616Y9142309D01*
X41479060Y9296140D01*
X41632891Y9483584D01*
X41747198Y9697437D01*
X41817588Y9929482D01*
X41841356Y10170800D01*
X41907444Y10170800D01*
X41931212Y9929482D01*
X42001602Y9697437D01*
X42115909Y9483584D01*
X42269740Y9296140D01*
X42457184Y9142309D01*
X42671037Y9028002D01*
X42903082Y8957612D01*
X43083928Y8939800D01*
X43204872Y8939800D01*
X43385718Y8957612D01*
X43617763Y9028002D01*
X43831616Y9142309D01*
X44019060Y9296140D01*
X44172891Y9483584D01*
X44287198Y9697437D01*
X44357588Y9929482D01*
X44381356Y10170800D01*
X44357588Y10412118D01*
X44287198Y10644163D01*
X44172891Y10858016D01*
X44019060Y11045460D01*
X43831616Y11199291D01*
X43617763Y11313598D01*
X43385718Y11383988D01*
X43204872Y11401800D01*
X43083928Y11401800D01*
X42903082Y11383988D01*
X42671037Y11313598D01*
X42457184Y11199291D01*
X42269740Y11045460D01*
X42115909Y10858016D01*
X42001602Y10644163D01*
X41931212Y10412118D01*
X41907444Y10170800D01*
X41841356Y10170800D01*
X41817588Y10412118D01*
X41747198Y10644163D01*
X41632891Y10858016D01*
X41479060Y11045460D01*
X41291616Y11199291D01*
X41077763Y11313598D01*
X40845718Y11383988D01*
X40664872Y11401800D01*
X40543928Y11401800D01*
X40363082Y11383988D01*
X40131037Y11313598D01*
X39917184Y11199291D01*
X39729740Y11045460D01*
X39575909Y10858016D01*
X39461602Y10644163D01*
X39391212Y10412118D01*
X39367444Y10170800D01*
X33332005Y10170800D01*
X33332005Y11817551D01*
X33334462Y11842495D01*
X33332005Y11867442D01*
X33324654Y11942080D01*
X33295606Y12037838D01*
X33248434Y12126090D01*
X33184953Y12203443D01*
X33165570Y12219350D01*
X29292347Y16092573D01*
X34733900Y16092573D01*
X34733900Y15958427D01*
X34760071Y15826860D01*
X34811406Y15702926D01*
X34885933Y15591388D01*
X34980788Y15496533D01*
X35092326Y15422006D01*
X35216260Y15370671D01*
X35347827Y15344500D01*
X35481973Y15344500D01*
X35613540Y15370671D01*
X35737474Y15422006D01*
X35816500Y15474809D01*
X35895526Y15422006D01*
X36019460Y15370671D01*
X36151027Y15344500D01*
X36285173Y15344500D01*
X36416740Y15370671D01*
X36540674Y15422006D01*
X36652212Y15496533D01*
X36747067Y15591388D01*
X36821594Y15702926D01*
X36872929Y15826860D01*
X36899100Y15958427D01*
X36899100Y16092573D01*
X36872929Y16224140D01*
X36821594Y16348074D01*
X36747067Y16459612D01*
X36652212Y16554467D01*
X36540674Y16628994D01*
X36416740Y16680329D01*
X36285173Y16706500D01*
X36151027Y16706500D01*
X36019460Y16680329D01*
X35895526Y16628994D01*
X35816500Y16576191D01*
X35737474Y16628994D01*
X35613540Y16680329D01*
X35481973Y16706500D01*
X35347827Y16706500D01*
X35216260Y16680329D01*
X35092326Y16628994D01*
X34980788Y16554467D01*
X34885933Y16459612D01*
X34811406Y16348074D01*
X34760071Y16224140D01*
X34733900Y16092573D01*
X29292347Y16092573D01*
X28814000Y16570920D01*
X28814000Y16600573D01*
X28787829Y16732140D01*
X28736494Y16856074D01*
X28661967Y16967612D01*
X28567112Y17062467D01*
X28455574Y17136994D01*
X28331640Y17188329D01*
X28239788Y17206600D01*
X39371557Y17206600D01*
X39371557Y16940800D01*
X39378913Y16866111D01*
X39400699Y16794292D01*
X39436078Y16728104D01*
X39483689Y16670089D01*
X39541704Y16622478D01*
X39607892Y16587099D01*
X39679711Y16565313D01*
X39754400Y16557957D01*
X39911033Y16557957D01*
X39723045Y16445978D01*
X39506812Y16251069D01*
X39332759Y16017720D01*
X39207575Y15754899D01*
X39162924Y15607690D01*
X39284245Y15377800D01*
X40477400Y15377800D01*
X40477400Y15397800D01*
X40731400Y15397800D01*
X40731400Y15377800D01*
X40751400Y15377800D01*
X40751400Y15123800D01*
X40731400Y15123800D01*
X40731400Y15103800D01*
X40477400Y15103800D01*
X40477400Y15123800D01*
X39284245Y15123800D01*
X39162924Y14893910D01*
X39207575Y14746701D01*
X39332759Y14483880D01*
X39506812Y14250531D01*
X39723045Y14055622D01*
X39973148Y13906643D01*
X40127705Y13851817D01*
X39917184Y13739291D01*
X39729740Y13585460D01*
X39575909Y13398016D01*
X39461602Y13184163D01*
X39391212Y12952118D01*
X39367444Y12710800D01*
X39391212Y12469482D01*
X39461602Y12237437D01*
X39575909Y12023584D01*
X39729740Y11836140D01*
X39917184Y11682309D01*
X40131037Y11568002D01*
X40363082Y11497612D01*
X40543928Y11479800D01*
X40664872Y11479800D01*
X40845718Y11497612D01*
X41077763Y11568002D01*
X41291616Y11682309D01*
X41479060Y11836140D01*
X41632891Y12023584D01*
X41747198Y12237437D01*
X41817588Y12469482D01*
X41841356Y12710800D01*
X41907444Y12710800D01*
X41931212Y12469482D01*
X42001602Y12237437D01*
X42115909Y12023584D01*
X42269740Y11836140D01*
X42457184Y11682309D01*
X42671037Y11568002D01*
X42903082Y11497612D01*
X43083928Y11479800D01*
X43204872Y11479800D01*
X43385718Y11497612D01*
X43617763Y11568002D01*
X43831616Y11682309D01*
X44019060Y11836140D01*
X44172891Y12023584D01*
X44287198Y12237437D01*
X44357588Y12469482D01*
X44381356Y12710800D01*
X44357588Y12952118D01*
X44287198Y13184163D01*
X44172891Y13398016D01*
X44019060Y13585460D01*
X43831616Y13739291D01*
X43617763Y13853598D01*
X43385718Y13923988D01*
X43204872Y13941800D01*
X43083928Y13941800D01*
X42903082Y13923988D01*
X42671037Y13853598D01*
X42457184Y13739291D01*
X42269740Y13585460D01*
X42115909Y13398016D01*
X42001602Y13184163D01*
X41931212Y12952118D01*
X41907444Y12710800D01*
X41841356Y12710800D01*
X41817588Y12952118D01*
X41747198Y13184163D01*
X41632891Y13398016D01*
X41479060Y13585460D01*
X41291616Y13739291D01*
X41081095Y13851817D01*
X41235652Y13906643D01*
X41485755Y14055622D01*
X41701988Y14250531D01*
X41876041Y14483880D01*
X42001225Y14746701D01*
X42007309Y14766760D01*
X42115909Y14563584D01*
X42269740Y14376140D01*
X42457184Y14222309D01*
X42671037Y14108002D01*
X42903082Y14037612D01*
X43083928Y14019800D01*
X43204872Y14019800D01*
X43385718Y14037612D01*
X43617763Y14108002D01*
X43831616Y14222309D01*
X44019060Y14376140D01*
X44172891Y14563584D01*
X44287198Y14777437D01*
X44357588Y15009482D01*
X44381356Y15250800D01*
X44357588Y15492118D01*
X44287198Y15724163D01*
X44172891Y15938016D01*
X44019060Y16125460D01*
X43831616Y16279291D01*
X43617763Y16393598D01*
X43385718Y16463988D01*
X43204872Y16481800D01*
X43083928Y16481800D01*
X42903082Y16463988D01*
X42671037Y16393598D01*
X42457184Y16279291D01*
X42269740Y16125460D01*
X42115909Y15938016D01*
X42007309Y15734840D01*
X42001225Y15754899D01*
X41876041Y16017720D01*
X41701988Y16251069D01*
X41485755Y16445978D01*
X41297767Y16557957D01*
X41454400Y16557957D01*
X41529089Y16565313D01*
X41600908Y16587099D01*
X41667096Y16622478D01*
X41725111Y16670089D01*
X41772722Y16728104D01*
X41808101Y16794292D01*
X41829887Y16866111D01*
X41837243Y16940800D01*
X41837243Y17790800D01*
X41907444Y17790800D01*
X41931212Y17549482D01*
X42001602Y17317437D01*
X42115909Y17103584D01*
X42269740Y16916140D01*
X42457184Y16762309D01*
X42671037Y16648002D01*
X42903082Y16577612D01*
X43083928Y16559800D01*
X43204872Y16559800D01*
X43385718Y16577612D01*
X43617763Y16648002D01*
X43831616Y16762309D01*
X44019060Y16916140D01*
X44172891Y17103584D01*
X44287198Y17317437D01*
X44357588Y17549482D01*
X44381356Y17790800D01*
X44357588Y18032118D01*
X44287198Y18264163D01*
X44172891Y18478016D01*
X44019060Y18665460D01*
X43831616Y18819291D01*
X43617763Y18933598D01*
X43385718Y19003988D01*
X43204872Y19021800D01*
X43083928Y19021800D01*
X42903082Y19003988D01*
X42671037Y18933598D01*
X42457184Y18819291D01*
X42269740Y18665460D01*
X42115909Y18478016D01*
X42001602Y18264163D01*
X41931212Y18032118D01*
X41907444Y17790800D01*
X41837243Y17790800D01*
X41837243Y18640800D01*
X41829887Y18715489D01*
X41808101Y18787308D01*
X41772722Y18853496D01*
X41725111Y18911511D01*
X41667096Y18959122D01*
X41600908Y18994501D01*
X41529089Y19016287D01*
X41454400Y19023643D01*
X39754400Y19023643D01*
X39679711Y19016287D01*
X39607892Y18994501D01*
X39541704Y18959122D01*
X39483689Y18911511D01*
X39436078Y18853496D01*
X39400699Y18787308D01*
X39378913Y18715489D01*
X39371557Y18640800D01*
X39371557Y18375000D01*
X33822464Y18375000D01*
X33857494Y18427426D01*
X33908829Y18551360D01*
X33935000Y18682927D01*
X33935000Y18817073D01*
X33908829Y18948640D01*
X33857494Y19072574D01*
X33782967Y19184112D01*
X33688112Y19278967D01*
X33576574Y19353494D01*
X33452640Y19404829D01*
X33321073Y19431000D01*
X33186927Y19431000D01*
X33055360Y19404829D01*
X32931426Y19353494D01*
X32819888Y19278967D01*
X32725033Y19184112D01*
X32650506Y19072574D01*
X32599171Y18948640D01*
X32573000Y18817073D01*
X32573000Y18682927D01*
X32599171Y18551360D01*
X32650506Y18427426D01*
X32685536Y18375000D01*
X27879000Y18375000D01*
X27879000Y19708500D01*
X27871679Y19782829D01*
X27849998Y19854302D01*
X27814790Y19920172D01*
X27767408Y19977908D01*
X26970016Y20775300D01*
X28231316Y20775300D01*
X28260000Y20772475D01*
X28288684Y20775300D01*
X28288692Y20775300D01*
X28374523Y20783754D01*
X28484645Y20817159D01*
X28586134Y20871406D01*
X28675090Y20944410D01*
X28693382Y20966699D01*
X31818682Y24091998D01*
X31871378Y24070171D01*
X32002945Y24044000D01*
X32137091Y24044000D01*
X32268658Y24070171D01*
X32392592Y24121506D01*
X32504130Y24196033D01*
X32598985Y24290888D01*
X32673512Y24402426D01*
X32724847Y24526360D01*
X32751018Y24657927D01*
X32751018Y24792073D01*
X32724847Y24923640D01*
X32673512Y25047574D01*
X32598985Y25159112D01*
X32504130Y25253967D01*
X32392592Y25328494D01*
X32268658Y25379829D01*
X32137091Y25406000D01*
X32002945Y25406000D01*
X31871378Y25379829D01*
X31747444Y25328494D01*
X31718568Y25309200D01*
X31654192Y25309200D01*
X31625500Y25312026D01*
X31510977Y25300746D01*
X31400855Y25267341D01*
X31299366Y25213094D01*
X31232696Y25158380D01*
X31232694Y25158378D01*
X31210410Y25140090D01*
X31192122Y25117806D01*
X28018017Y21943700D01*
X25779583Y21943700D01*
X25738802Y21965498D01*
X25667329Y21987179D01*
X25593000Y21994500D01*
X23878500Y21994500D01*
X23878500Y23074000D01*
X26482000Y23074000D01*
X26556329Y23081321D01*
X26627802Y23103002D01*
X26693672Y23138210D01*
X26751408Y23185592D01*
X28529408Y24963592D01*
X28576790Y25021328D01*
X28611998Y25087198D01*
X28633679Y25158671D01*
X28641000Y25233000D01*
X28641000Y26757000D01*
X28633679Y26831329D01*
X28611998Y26902802D01*
X28576790Y26968672D01*
X28529408Y27026408D01*
X28275408Y27280408D01*
X28217672Y27327790D01*
X28151802Y27362998D01*
X28080329Y27384679D01*
X28006000Y27392000D01*
X26609000Y27392000D01*
X26534671Y27384679D01*
X26463198Y27362998D01*
X26397328Y27327790D01*
X26339592Y27280408D01*
X25450592Y26391408D01*
X25403210Y26333672D01*
X25368002Y26267802D01*
X25346321Y26196329D01*
X25339000Y26122000D01*
X25339000Y25614000D01*
X21305816Y25614000D01*
X20095745Y26824071D01*
X21737000Y26824071D01*
X21737000Y26689925D01*
X21763171Y26558358D01*
X21814506Y26434424D01*
X21889033Y26322886D01*
X21983888Y26228031D01*
X22095426Y26153504D01*
X22219360Y26102169D01*
X22350927Y26075998D01*
X22485073Y26075998D01*
X22616640Y26102169D01*
X22740574Y26153504D01*
X22852112Y26228031D01*
X22946967Y26322886D01*
X23021494Y26434424D01*
X23072829Y26558358D01*
X23099000Y26689925D01*
X23099000Y26824071D01*
X23072829Y26955638D01*
X23021494Y27079572D01*
X22946967Y27191110D01*
X22852112Y27285965D01*
X22740574Y27360492D01*
X22616640Y27411827D01*
X22485073Y27437998D01*
X22350927Y27437998D01*
X22219360Y27411827D01*
X22095426Y27360492D01*
X21983888Y27285965D01*
X21889033Y27191110D01*
X21814506Y27079572D01*
X21763171Y26955638D01*
X21737000Y26824071D01*
X20095745Y26824071D01*
X18559908Y28359908D01*
X18502172Y28407290D01*
X18436302Y28442498D01*
X18364829Y28464179D01*
X18290500Y28471500D01*
X15400316Y28471500D01*
X9796908Y34074908D01*
X9739172Y34122290D01*
X9673302Y34157498D01*
X9601829Y34179179D01*
X9527500Y34186500D01*
X3050500Y34186500D01*
X2976171Y34179179D01*
X2904698Y34157498D01*
X2838828Y34122290D01*
X2781092Y34074908D01*
X1765092Y33058908D01*
X1717710Y33001172D01*
X1682502Y32935302D01*
X1660821Y32863829D01*
X1653500Y32789500D01*
X1653500Y29995500D01*
X1660821Y29921171D01*
X1682502Y29849698D01*
X1717710Y29783828D01*
X1765092Y29726092D01*
X1822828Y29678710D01*
X1888698Y29643502D01*
X1960171Y29621821D01*
X2034500Y29614500D01*
X11907706Y29614500D01*
X15351719Y26108987D01*
X15411828Y26059210D01*
X15477698Y26024002D01*
X15549171Y26002321D01*
X15623500Y25995000D01*
X17502044Y25995000D01*
X18925500Y24626292D01*
X18925500Y24153500D01*
X18932821Y24079171D01*
X18954502Y24007698D01*
X18989710Y23941828D01*
X19037092Y23884092D01*
X19098788Y23822396D01*
X19034894Y23758501D01*
X18995356Y23798039D01*
X18988925Y23916263D01*
X18818897Y23987062D01*
X18803176Y23990219D01*
X18769959Y24023436D01*
X18665956Y24017778D01*
X18638324Y24023328D01*
X18454145Y24023671D01*
X18423975Y24017728D01*
X18319041Y24023436D01*
X18286191Y23990586D01*
X18273439Y23988074D01*
X18103149Y23917908D01*
X18100075Y23916263D01*
X18093644Y23798039D01*
X17864105Y23568500D01*
X17878248Y23554357D01*
X17864873Y23540983D01*
X17805956Y23537778D01*
X17778324Y23543328D01*
X17594145Y23543671D01*
X17516696Y23528414D01*
X17490753Y23554357D01*
X17504895Y23568500D01*
X17490753Y23582642D01*
X17670358Y23762247D01*
X17684500Y23748105D01*
X18139436Y24203041D01*
X18128925Y24396263D01*
X17958897Y24467062D01*
X17778324Y24503328D01*
X17594145Y24503671D01*
X17413439Y24468074D01*
X17293968Y24418848D01*
X16019908Y25692908D01*
X15962172Y25740290D01*
X15896302Y25775498D01*
X15824829Y25797179D01*
X15750500Y25804500D01*
X12987316Y25804500D01*
X13035408Y25852592D01*
X13082790Y25910328D01*
X13117998Y25976198D01*
X13139679Y26047671D01*
X13147000Y26122000D01*
X13147000Y27646000D01*
X13139679Y27720329D01*
X13117998Y27791802D01*
X13082790Y27857672D01*
X13035408Y27915408D01*
X11511408Y29439408D01*
X11453672Y29486790D01*
X11387802Y29521998D01*
X11316329Y29543679D01*
X11242000Y29551000D01*
X4638000Y29551000D01*
X4563671Y29543679D01*
X4492198Y29521998D01*
X4426328Y29486790D01*
X4368592Y29439408D01*
X1574592Y26645408D01*
X1527210Y26587672D01*
X1492002Y26521802D01*
X1470321Y26450329D01*
X1463000Y26376000D01*
X406000Y26376000D01*
X406000Y35015573D01*
X18625500Y35015573D01*
X18625500Y34881427D01*
X18651671Y34749860D01*
X18703006Y34625926D01*
X18777533Y34514388D01*
X18872388Y34419533D01*
X18888526Y34408750D01*
X18872388Y34397967D01*
X18777533Y34303112D01*
X18703006Y34191574D01*
X18651671Y34067640D01*
X18625500Y33936073D01*
X18625500Y33801927D01*
X18651671Y33670360D01*
X18703006Y33546426D01*
X18777533Y33434888D01*
X18851421Y33361000D01*
X18777533Y33287112D01*
X18703006Y33175574D01*
X18651671Y33051640D01*
X18625500Y32920073D01*
X18625500Y32785927D01*
X18651671Y32654360D01*
X18703006Y32530426D01*
X18777533Y32418888D01*
X18872388Y32324033D01*
X18888526Y32313250D01*
X18872388Y32302467D01*
X18777533Y32207612D01*
X18703006Y32096074D01*
X18651671Y31972140D01*
X18625500Y31840573D01*
X18625500Y31706427D01*
X18651671Y31574860D01*
X18703006Y31450926D01*
X18777533Y31339388D01*
X18851421Y31265500D01*
X18777533Y31191612D01*
X18703006Y31080074D01*
X18651671Y30956140D01*
X18625500Y30824573D01*
X18625500Y30690427D01*
X18651671Y30558860D01*
X18703006Y30434926D01*
X18777533Y30323388D01*
X18872388Y30228533D01*
X18983926Y30154006D01*
X19107860Y30102671D01*
X19239427Y30076500D01*
X19373573Y30076500D01*
X19505140Y30102671D01*
X19629074Y30154006D01*
X19740612Y30228533D01*
X19814500Y30302421D01*
X19837816Y30279105D01*
X19824888Y30270467D01*
X19730033Y30175612D01*
X19655506Y30064074D01*
X19604171Y29940140D01*
X19578000Y29808573D01*
X19578000Y29674427D01*
X19604171Y29542860D01*
X19655506Y29418926D01*
X19730033Y29307388D01*
X19824888Y29212533D01*
X19936426Y29138006D01*
X20060360Y29086671D01*
X20191927Y29060500D01*
X20326073Y29060500D01*
X20457640Y29086671D01*
X20581574Y29138006D01*
X20693112Y29212533D01*
X20787967Y29307388D01*
X20798750Y29323526D01*
X20809533Y29307388D01*
X20904388Y29212533D01*
X21015926Y29138006D01*
X21139860Y29086671D01*
X21271427Y29060500D01*
X21405573Y29060500D01*
X21537140Y29086671D01*
X21661074Y29138006D01*
X21772612Y29212533D01*
X21867467Y29307388D01*
X21941994Y29418926D01*
X21993329Y29542860D01*
X22019500Y29674427D01*
X22019500Y29805000D01*
X22418000Y29805000D01*
X22418000Y28598500D01*
X22425321Y28524171D01*
X22447002Y28452698D01*
X22482210Y28386828D01*
X22529592Y28329092D01*
X23037592Y27821092D01*
X23095328Y27773710D01*
X23161198Y27738502D01*
X23232671Y27716821D01*
X23307000Y27709500D01*
X32039184Y27709500D01*
X35150684Y24598000D01*
X34071184Y23518500D01*
X31879500Y23518500D01*
X31805171Y23511179D01*
X31733698Y23489498D01*
X31667828Y23454290D01*
X31610092Y23406908D01*
X30911592Y22708408D01*
X30864210Y22650672D01*
X30829002Y22584802D01*
X30807321Y22513329D01*
X30800000Y22439000D01*
X30800000Y21677000D01*
X30806866Y21604996D01*
X30828102Y21533389D01*
X30862900Y21467302D01*
X30909922Y21409273D01*
X31286213Y21028273D01*
X31345619Y20979210D01*
X31411489Y20944002D01*
X31482962Y20922321D01*
X31557291Y20915000D01*
X32451000Y20915000D01*
X32525329Y20922321D01*
X32596802Y20944002D01*
X32662672Y20979210D01*
X32720408Y21026592D01*
X32802889Y21109073D01*
X38755000Y21109073D01*
X38755000Y20974927D01*
X38781171Y20843360D01*
X38832506Y20719426D01*
X38907033Y20607888D01*
X39001888Y20513033D01*
X39113426Y20438506D01*
X39237360Y20387171D01*
X39368927Y20361000D01*
X39503073Y20361000D01*
X39634640Y20387171D01*
X39758574Y20438506D01*
X39870112Y20513033D01*
X39964967Y20607888D01*
X40039494Y20719426D01*
X40090829Y20843360D01*
X40117000Y20974927D01*
X40117000Y21109073D01*
X40090829Y21240640D01*
X40039494Y21364574D01*
X39964967Y21476112D01*
X39870112Y21570967D01*
X39758574Y21645494D01*
X39634640Y21696829D01*
X39503073Y21723000D01*
X39368927Y21723000D01*
X39237360Y21696829D01*
X39113426Y21645494D01*
X39001888Y21570967D01*
X38907033Y21476112D01*
X38832506Y21364574D01*
X38781171Y21240640D01*
X38755000Y21109073D01*
X32802889Y21109073D01*
X33037908Y21344092D01*
X33085290Y21401828D01*
X33120498Y21467698D01*
X33142179Y21539171D01*
X33149500Y21613500D01*
X33149500Y21709684D01*
X33497816Y22058000D01*
X35118000Y22058000D01*
X35192329Y22065321D01*
X35263802Y22087002D01*
X35329672Y22122210D01*
X35387408Y22169592D01*
X35466316Y22248500D01*
X35753000Y22248500D01*
X35827329Y22255821D01*
X35898802Y22277502D01*
X35964672Y22312710D01*
X36022408Y22360092D01*
X37165408Y23503092D01*
X37212790Y23560828D01*
X37247998Y23626698D01*
X37269679Y23698171D01*
X37277000Y23772500D01*
X37277000Y23839573D01*
X37739000Y23839573D01*
X37739000Y23705427D01*
X37765171Y23573860D01*
X37816506Y23449926D01*
X37891033Y23338388D01*
X37985888Y23243533D01*
X38097426Y23169006D01*
X38221360Y23117671D01*
X38352927Y23091500D01*
X38487073Y23091500D01*
X38618640Y23117671D01*
X38742574Y23169006D01*
X38854112Y23243533D01*
X38948967Y23338388D01*
X39023494Y23449926D01*
X39074829Y23573860D01*
X39101000Y23705427D01*
X39101000Y23776082D01*
X39324894Y23776082D01*
X39324894Y23641936D01*
X39351065Y23510369D01*
X39402400Y23386435D01*
X39476927Y23274897D01*
X39571782Y23180042D01*
X39683320Y23105515D01*
X39807254Y23054180D01*
X39938821Y23028009D01*
X40072967Y23028009D01*
X40204534Y23054180D01*
X40328468Y23105515D01*
X40438041Y23178729D01*
X40511780Y23129458D01*
X40635714Y23078123D01*
X40767281Y23051952D01*
X40901427Y23051952D01*
X41032994Y23078123D01*
X41156928Y23129458D01*
X41268466Y23203985D01*
X41302625Y23238144D01*
X41304550Y23236858D01*
X41428484Y23185523D01*
X41560051Y23159352D01*
X41694197Y23159352D01*
X41825764Y23185523D01*
X41949698Y23236858D01*
X42061236Y23311385D01*
X42156091Y23406240D01*
X42230618Y23517778D01*
X42281953Y23641712D01*
X42308124Y23773279D01*
X42308124Y23907425D01*
X42281953Y24038992D01*
X42230618Y24162926D01*
X42156091Y24274464D01*
X42061236Y24369319D01*
X41949698Y24443846D01*
X41825764Y24495181D01*
X41694197Y24521352D01*
X41560051Y24521352D01*
X41428484Y24495181D01*
X41304550Y24443846D01*
X41193012Y24369319D01*
X41158853Y24335160D01*
X41156928Y24336446D01*
X41032994Y24387781D01*
X40901427Y24413952D01*
X40767281Y24413952D01*
X40635714Y24387781D01*
X40511780Y24336446D01*
X40402207Y24263232D01*
X40328468Y24312503D01*
X40204534Y24363838D01*
X40072967Y24390009D01*
X39938821Y24390009D01*
X39807254Y24363838D01*
X39683320Y24312503D01*
X39571782Y24237976D01*
X39476927Y24143121D01*
X39402400Y24031583D01*
X39351065Y23907649D01*
X39324894Y23776082D01*
X39101000Y23776082D01*
X39101000Y23839573D01*
X39074829Y23971140D01*
X39023494Y24095074D01*
X38948967Y24206612D01*
X38854112Y24301467D01*
X38742574Y24375994D01*
X38618640Y24427329D01*
X38487073Y24453500D01*
X38352927Y24453500D01*
X38221360Y24427329D01*
X38097426Y24375994D01*
X37985888Y24301467D01*
X37891033Y24206612D01*
X37816506Y24095074D01*
X37765171Y23971140D01*
X37739000Y23839573D01*
X37277000Y23839573D01*
X37277000Y29995500D01*
X37269679Y30069829D01*
X37247998Y30141302D01*
X37212790Y30207172D01*
X37165408Y30264908D01*
X36466908Y30963408D01*
X36409172Y31010790D01*
X36343302Y31045998D01*
X36271829Y31067679D01*
X36197500Y31075000D01*
X31148316Y31075000D01*
X29570609Y32652707D01*
X29623000Y32697436D01*
X29623000Y33523000D01*
X29877000Y33523000D01*
X29877000Y32697436D01*
X30051131Y32548770D01*
X30263066Y32599414D01*
X30269937Y32602573D01*
X40152000Y32602573D01*
X40152000Y32468427D01*
X40178171Y32336860D01*
X40229506Y32212926D01*
X40304033Y32101388D01*
X40398888Y32006533D01*
X40510426Y31932006D01*
X40634360Y31880671D01*
X40765927Y31854500D01*
X40900073Y31854500D01*
X41031640Y31880671D01*
X41155574Y31932006D01*
X41267112Y32006533D01*
X41361967Y32101388D01*
X41436494Y32212926D01*
X41487829Y32336860D01*
X41514000Y32468427D01*
X41514000Y32602573D01*
X42882500Y32602573D01*
X42882500Y32468427D01*
X42908671Y32336860D01*
X42960006Y32212926D01*
X43034533Y32101388D01*
X43129388Y32006533D01*
X43240926Y31932006D01*
X43364860Y31880671D01*
X43496427Y31854500D01*
X43630573Y31854500D01*
X43762140Y31880671D01*
X43886074Y31932006D01*
X43997612Y32006533D01*
X44092467Y32101388D01*
X44166994Y32212926D01*
X44218329Y32336860D01*
X44244500Y32468427D01*
X44244500Y32602573D01*
X44218329Y32734140D01*
X44166994Y32858074D01*
X44092467Y32969612D01*
X43997612Y33064467D01*
X43886074Y33138994D01*
X43762140Y33190329D01*
X43630573Y33216500D01*
X43496427Y33216500D01*
X43364860Y33190329D01*
X43240926Y33138994D01*
X43129388Y33064467D01*
X43034533Y32969612D01*
X42960006Y32858074D01*
X42908671Y32734140D01*
X42882500Y32602573D01*
X41514000Y32602573D01*
X41487829Y32734140D01*
X41436494Y32858074D01*
X41361967Y32969612D01*
X41267112Y33064467D01*
X41155574Y33138994D01*
X41031640Y33190329D01*
X40900073Y33216500D01*
X40765927Y33216500D01*
X40634360Y33190329D01*
X40510426Y33138994D01*
X40398888Y33064467D01*
X40304033Y32969612D01*
X40229506Y32858074D01*
X40178171Y32734140D01*
X40152000Y32602573D01*
X30269937Y32602573D01*
X30461049Y32690431D01*
X30637471Y32818324D01*
X30785553Y32978178D01*
X30899603Y33163850D01*
X30969268Y33352062D01*
X30842734Y33523000D01*
X29877000Y33523000D01*
X29623000Y33523000D01*
X29603000Y33523000D01*
X29603000Y33777000D01*
X29623000Y33777000D01*
X29623000Y34602564D01*
X29877000Y34602564D01*
X29877000Y33777000D01*
X30842734Y33777000D01*
X30969268Y33947938D01*
X30899603Y34136150D01*
X30785553Y34321822D01*
X30637471Y34481676D01*
X30461049Y34609569D01*
X30263066Y34700586D01*
X30051131Y34751230D01*
X29877000Y34602564D01*
X29623000Y34602564D01*
X29448869Y34751230D01*
X29236934Y34700586D01*
X29150134Y34660682D01*
X29037408Y34773408D01*
X28979672Y34820790D01*
X28913802Y34855998D01*
X28842329Y34877679D01*
X28768000Y34885000D01*
X28323500Y34885000D01*
X28249171Y34877679D01*
X28177698Y34855998D01*
X28111828Y34820790D01*
X28054092Y34773408D01*
X27927092Y34646408D01*
X27879710Y34588672D01*
X27844502Y34522802D01*
X27822821Y34451329D01*
X27815500Y34377000D01*
X27815500Y32735694D01*
X27777960Y32728227D01*
X27654026Y32676892D01*
X27575000Y32624089D01*
X27495974Y32676892D01*
X27372040Y32728227D01*
X27240473Y32754398D01*
X27106327Y32754398D01*
X26974760Y32728227D01*
X26850826Y32676892D01*
X26739288Y32602365D01*
X26644433Y32507510D01*
X26569906Y32395972D01*
X26518571Y32272038D01*
X26492400Y32140471D01*
X26492400Y32006325D01*
X26518571Y31874758D01*
X26569906Y31750824D01*
X26644433Y31639286D01*
X26739288Y31544431D01*
X26850826Y31469904D01*
X26974760Y31418569D01*
X27106327Y31392398D01*
X27240473Y31392398D01*
X27364816Y31417132D01*
X27086184Y31138500D01*
X23751500Y31138500D01*
X23677171Y31131179D01*
X23605698Y31109498D01*
X23539828Y31074290D01*
X23482092Y31026908D01*
X22529592Y30074408D01*
X22482210Y30016672D01*
X22447002Y29950802D01*
X22425321Y29879329D01*
X22418000Y29805000D01*
X22019500Y29805000D01*
X22019500Y29808573D01*
X21993329Y29940140D01*
X21941994Y30064074D01*
X21867467Y30175612D01*
X21793579Y30249500D01*
X21867467Y30323388D01*
X21941994Y30434926D01*
X21993329Y30558860D01*
X22019500Y30690427D01*
X22019500Y30824573D01*
X21993329Y30956140D01*
X21941994Y31080074D01*
X21867467Y31191612D01*
X21793579Y31265500D01*
X21867467Y31339388D01*
X21941994Y31450926D01*
X21993329Y31574860D01*
X22019500Y31706427D01*
X22019500Y31840573D01*
X21993329Y31972140D01*
X21941994Y32096074D01*
X21867467Y32207612D01*
X21793579Y32281500D01*
X21867467Y32355388D01*
X21941994Y32466926D01*
X21993329Y32590860D01*
X22019500Y32722427D01*
X22019500Y32856573D01*
X21993329Y32988140D01*
X21941994Y33112074D01*
X21867467Y33223612D01*
X21772612Y33318467D01*
X21722334Y33352062D01*
X23530732Y33352062D01*
X23600397Y33163850D01*
X23714447Y32978178D01*
X23862529Y32818324D01*
X24038951Y32690431D01*
X24236934Y32599414D01*
X24448869Y32548770D01*
X24623000Y32697436D01*
X24623000Y33523000D01*
X24877000Y33523000D01*
X24877000Y32697436D01*
X25051131Y32548770D01*
X25263066Y32599414D01*
X25461049Y32690431D01*
X25637471Y32818324D01*
X25785553Y32978178D01*
X25899603Y33163850D01*
X25969268Y33352062D01*
X25842734Y33523000D01*
X24877000Y33523000D01*
X24623000Y33523000D01*
X23657266Y33523000D01*
X23530732Y33352062D01*
X21722334Y33352062D01*
X21661074Y33392994D01*
X21537140Y33444329D01*
X21405573Y33470500D01*
X21271427Y33470500D01*
X21139860Y33444329D01*
X21015926Y33392994D01*
X20904388Y33318467D01*
X20830500Y33244579D01*
X20756612Y33318467D01*
X20740474Y33329250D01*
X20756612Y33340033D01*
X20851467Y33434888D01*
X20925994Y33546426D01*
X20977329Y33670360D01*
X21003500Y33801927D01*
X21003500Y33936073D01*
X21001140Y33947938D01*
X23530732Y33947938D01*
X23657266Y33777000D01*
X24623000Y33777000D01*
X24623000Y34602564D01*
X24877000Y34602564D01*
X24877000Y33777000D01*
X25842734Y33777000D01*
X25969268Y33947938D01*
X25899603Y34136150D01*
X25785553Y34321822D01*
X25637471Y34481676D01*
X25461049Y34609569D01*
X25263066Y34700586D01*
X25051131Y34751230D01*
X24877000Y34602564D01*
X24623000Y34602564D01*
X24448869Y34751230D01*
X24236934Y34700586D01*
X24038951Y34609569D01*
X23862529Y34481676D01*
X23714447Y34321822D01*
X23600397Y34136150D01*
X23530732Y33947938D01*
X21001140Y33947938D01*
X20977329Y34067640D01*
X20925994Y34191574D01*
X20851467Y34303112D01*
X20756612Y34397967D01*
X20740474Y34408750D01*
X20756612Y34419533D01*
X20851467Y34514388D01*
X20925994Y34625926D01*
X20977329Y34749860D01*
X21003500Y34881427D01*
X21003500Y35015573D01*
X20977329Y35147140D01*
X20925994Y35271074D01*
X20851467Y35382612D01*
X20756612Y35477467D01*
X20645074Y35551994D01*
X20521140Y35603329D01*
X20389573Y35629500D01*
X20255427Y35629500D01*
X20123860Y35603329D01*
X19999926Y35551994D01*
X19888388Y35477467D01*
X19814500Y35403579D01*
X19740612Y35477467D01*
X19629074Y35551994D01*
X19505140Y35603329D01*
X19373573Y35629500D01*
X19239427Y35629500D01*
X19107860Y35603329D01*
X18983926Y35551994D01*
X18872388Y35477467D01*
X18777533Y35382612D01*
X18703006Y35271074D01*
X18651671Y35147140D01*
X18625500Y35015573D01*
X406000Y35015573D01*
X406000Y36444073D01*
X3769000Y36444073D01*
X3769000Y36309927D01*
X3795171Y36178360D01*
X3846506Y36054426D01*
X3921033Y35942888D01*
X4015888Y35848033D01*
X4127426Y35773506D01*
X4251360Y35722171D01*
X4382927Y35696000D01*
X4517073Y35696000D01*
X4648640Y35722171D01*
X4772574Y35773506D01*
X4884112Y35848033D01*
X4978967Y35942888D01*
X5053494Y36054426D01*
X5104829Y36178360D01*
X5131000Y36309927D01*
X5131000Y36444073D01*
X8722000Y36444073D01*
X8722000Y36309927D01*
X8748171Y36178360D01*
X8799506Y36054426D01*
X8874033Y35942888D01*
X8968888Y35848033D01*
X9080426Y35773506D01*
X9204360Y35722171D01*
X9335927Y35696000D01*
X9470073Y35696000D01*
X9601640Y35722171D01*
X9725574Y35773506D01*
X9837112Y35848033D01*
X9931967Y35942888D01*
X10006494Y36054426D01*
X10057829Y36178360D01*
X10066708Y36223000D01*
X22615000Y36223000D01*
X22615000Y35948000D01*
X22661585Y35729013D01*
X22749997Y35523322D01*
X22876839Y35338831D01*
X23037236Y35182631D01*
X23225024Y35060724D01*
X23448126Y34980881D01*
X23623000Y35107046D01*
X23623000Y36223000D01*
X23877000Y36223000D01*
X23877000Y35107046D01*
X24051874Y34980881D01*
X24274976Y35060724D01*
X24462764Y35182631D01*
X24623161Y35338831D01*
X24750003Y35523322D01*
X24838415Y35729013D01*
X24885000Y35948000D01*
X24885000Y36223000D01*
X29615000Y36223000D01*
X29615000Y35948000D01*
X29661585Y35729013D01*
X29749997Y35523322D01*
X29876839Y35338831D01*
X30037236Y35182631D01*
X30225024Y35060724D01*
X30448126Y34980881D01*
X30623000Y35107046D01*
X30623000Y36223000D01*
X29615000Y36223000D01*
X24885000Y36223000D01*
X23877000Y36223000D01*
X23623000Y36223000D01*
X22615000Y36223000D01*
X10066708Y36223000D01*
X10084000Y36309927D01*
X10084000Y36444073D01*
X10057829Y36575640D01*
X10006494Y36699574D01*
X9931967Y36811112D01*
X9837112Y36905967D01*
X9725574Y36980494D01*
X9601640Y37031829D01*
X9470073Y37058000D01*
X9335927Y37058000D01*
X9204360Y37031829D01*
X9080426Y36980494D01*
X8968888Y36905967D01*
X8874033Y36811112D01*
X8799506Y36699574D01*
X8748171Y36575640D01*
X8722000Y36444073D01*
X5131000Y36444073D01*
X5104829Y36575640D01*
X5053494Y36699574D01*
X4978967Y36811112D01*
X4884112Y36905967D01*
X4772574Y36980494D01*
X4648640Y37031829D01*
X4517073Y37058000D01*
X4382927Y37058000D01*
X4251360Y37031829D01*
X4127426Y36980494D01*
X4015888Y36905967D01*
X3921033Y36811112D01*
X3846506Y36699574D01*
X3795171Y36575640D01*
X3769000Y36444073D01*
X406000Y36444073D01*
X406000Y37594000D01*
X23155280Y37594000D01*
X23037236Y37517369D01*
X23037236Y37517369D01*
G37*
X23037236Y37517369D02*
X22876839Y37361169D01*
X22749997Y37176678D01*
X22661585Y36970987D01*
X22615000Y36752000D01*
X22615000Y36477000D01*
X23623000Y36477000D01*
X23623000Y36497000D01*
X23877000Y36497000D01*
X23877000Y36477000D01*
X24885000Y36477000D01*
X24885000Y36752000D01*
X24838415Y36970987D01*
X24750003Y37176678D01*
X24623161Y37361169D01*
X24462764Y37517369D01*
X24344720Y37594000D01*
X30155280Y37594000D01*
X30037236Y37517369D01*
X29876839Y37361169D01*
X29749997Y37176678D01*
X29661585Y36970987D01*
X29615000Y36752000D01*
X29615000Y36477000D01*
X30623000Y36477000D01*
X30623000Y36497000D01*
X30877000Y36497000D01*
X30877000Y36477000D01*
X30897000Y36477000D01*
X30897000Y36223000D01*
X30877000Y36223000D01*
X30877000Y35107046D01*
X31051874Y34980881D01*
X31274976Y35060724D01*
X31462764Y35182631D01*
X31623161Y35338831D01*
X31750003Y35523322D01*
X31838415Y35729013D01*
X31885000Y35948000D01*
X31885000Y36093369D01*
X32001360Y36045171D01*
X32132927Y36019000D01*
X32267073Y36019000D01*
X32398640Y36045171D01*
X32522574Y36096506D01*
X32634112Y36171033D01*
X32728967Y36265888D01*
X32800068Y36372298D01*
X32811033Y36355888D01*
X32905888Y36261033D01*
X33017426Y36186506D01*
X33141360Y36135171D01*
X33272927Y36109000D01*
X33407073Y36109000D01*
X33538640Y36135171D01*
X33662574Y36186506D01*
X33774112Y36261033D01*
X33818652Y36305573D01*
X40152000Y36305573D01*
X40152000Y36171427D01*
X40178171Y36039860D01*
X40229506Y35915926D01*
X40304033Y35804388D01*
X40398888Y35709533D01*
X40510426Y35635006D01*
X40634360Y35583671D01*
X40765927Y35557500D01*
X40900073Y35557500D01*
X41031640Y35583671D01*
X41155574Y35635006D01*
X41267112Y35709533D01*
X41361967Y35804388D01*
X41436494Y35915926D01*
X41487829Y36039860D01*
X41514000Y36171427D01*
X41514000Y36292073D01*
X42882500Y36292073D01*
X42882500Y36157927D01*
X42908671Y36026360D01*
X42960006Y35902426D01*
X43034533Y35790888D01*
X43129388Y35696033D01*
X43240926Y35621506D01*
X43364860Y35570171D01*
X43496427Y35544000D01*
X43630573Y35544000D01*
X43762140Y35570171D01*
X43886074Y35621506D01*
X43997612Y35696033D01*
X44092467Y35790888D01*
X44166994Y35902426D01*
X44218329Y36026360D01*
X44244500Y36157927D01*
X44244500Y36292073D01*
X44218329Y36423640D01*
X44166994Y36547574D01*
X44092467Y36659112D01*
X43997612Y36753967D01*
X43886074Y36828494D01*
X43762140Y36879829D01*
X43630573Y36906000D01*
X43496427Y36906000D01*
X43364860Y36879829D01*
X43240926Y36828494D01*
X43129388Y36753967D01*
X43034533Y36659112D01*
X42960006Y36547574D01*
X42908671Y36423640D01*
X42882500Y36292073D01*
X41514000Y36292073D01*
X41514000Y36305573D01*
X41487829Y36437140D01*
X41436494Y36561074D01*
X41361967Y36672612D01*
X41267112Y36767467D01*
X41155574Y36841994D01*
X41031640Y36893329D01*
X40900073Y36919500D01*
X40765927Y36919500D01*
X40634360Y36893329D01*
X40510426Y36841994D01*
X40398888Y36767467D01*
X40304033Y36672612D01*
X40229506Y36561074D01*
X40178171Y36437140D01*
X40152000Y36305573D01*
X33818652Y36305573D01*
X33868967Y36355888D01*
X33943494Y36467426D01*
X33994829Y36591360D01*
X34021000Y36722927D01*
X34021000Y36857073D01*
X33994829Y36988640D01*
X33943494Y37112574D01*
X33868967Y37224112D01*
X33774112Y37318967D01*
X33662574Y37393494D01*
X33538640Y37444829D01*
X33407073Y37471000D01*
X33272927Y37471000D01*
X33141360Y37444829D01*
X33017426Y37393494D01*
X32905888Y37318967D01*
X32811033Y37224112D01*
X32739932Y37117702D01*
X32728967Y37134112D01*
X32634112Y37228967D01*
X32522574Y37303494D01*
X32398640Y37354829D01*
X32267073Y37381000D01*
X32132927Y37381000D01*
X32001360Y37354829D01*
X31877426Y37303494D01*
X31765888Y37228967D01*
X31735171Y37198250D01*
X31623161Y37361169D01*
X31462764Y37517369D01*
X31344720Y37594000D01*
X45573000Y37594000D01*
X45573000Y29177000D01*
X44500000Y29177000D01*
X44475224Y29174560D01*
X44451399Y29167333D01*
X44429443Y29155597D01*
X44410197Y29139803D01*
X44394403Y29120557D01*
X44382667Y29098601D01*
X44375440Y29074776D01*
X44373000Y29050000D01*
X44373000Y27450000D01*
X44375440Y27425224D01*
X44382667Y27401399D01*
X44394403Y27379443D01*
X44410197Y27360197D01*
X44429443Y27344403D01*
X44451399Y27332667D01*
X44475224Y27325440D01*
X44500000Y27323000D01*
X45573000Y27323000D01*
X45573000Y24368212D01*
X45528967Y24434112D01*
X45434112Y24528967D01*
X45322574Y24603494D01*
X45198640Y24654829D01*
X45067073Y24681000D01*
X44932927Y24681000D01*
X44801360Y24654829D01*
X44677426Y24603494D01*
X44565888Y24528967D01*
X44471033Y24434112D01*
X44396506Y24322574D01*
X44345171Y24198640D01*
X44319000Y24067073D01*
X44319000Y23932927D01*
X44345171Y23801360D01*
X44396506Y23677426D01*
X44471033Y23565888D01*
X44565888Y23471033D01*
X44677426Y23396506D01*
X44801360Y23345171D01*
X44932927Y23319000D01*
X45067073Y23319000D01*
X45198640Y23345171D01*
X45322574Y23396506D01*
X45434112Y23471033D01*
X45528967Y23565888D01*
X45573000Y23631788D01*
X45573000Y406000D01*
X40634202Y406000D01*
X40695612Y447033D01*
X40790467Y541888D01*
X40864994Y653426D01*
X40916329Y777360D01*
X40942500Y908927D01*
X40942500Y1043073D01*
X40916329Y1174640D01*
X40864994Y1298574D01*
X40839330Y1336983D01*
X40845718Y1337612D01*
X41077763Y1408002D01*
X41291616Y1522309D01*
X41479060Y1676140D01*
X41632891Y1863584D01*
X41741491Y2066760D01*
X41747575Y2046701D01*
X41872759Y1783880D01*
X42046812Y1550531D01*
X42263045Y1355622D01*
X42513148Y1206643D01*
X42787509Y1109319D01*
X43017400Y1229986D01*
X43017400Y2423800D01*
X43271400Y2423800D01*
X43271400Y1229986D01*
X43501291Y1109319D01*
X43775652Y1206643D01*
X44025755Y1355622D01*
X44241988Y1550531D01*
X44416041Y1783880D01*
X44541225Y2046701D01*
X44585876Y2193910D01*
X44464555Y2423800D01*
X43271400Y2423800D01*
X43017400Y2423800D01*
X42997400Y2423800D01*
X42997400Y2677800D01*
X43017400Y2677800D01*
X43017400Y4963800D01*
X43271400Y4963800D01*
X43271400Y2677800D01*
X44464555Y2677800D01*
X44585876Y2907690D01*
X44541225Y3054899D01*
X44416041Y3317720D01*
X44241988Y3551069D01*
X44025755Y3745978D01*
X43900145Y3820800D01*
X44025755Y3895622D01*
X44241988Y4090531D01*
X44416041Y4323880D01*
X44541225Y4586701D01*
X44585876Y4733910D01*
X44464555Y4963800D01*
X43271400Y4963800D01*
X43017400Y4963800D01*
X42997400Y4963800D01*
X42997400Y5217800D01*
X43017400Y5217800D01*
X43017400Y5237800D01*
X43271400Y5237800D01*
X43271400Y5217800D01*
X44464555Y5217800D01*
X44585876Y5447690D01*
X44541225Y5594899D01*
X44416041Y5857720D01*
X44241988Y6091069D01*
X44025755Y6285978D01*
X43775652Y6434957D01*
X43621095Y6489783D01*
X43831616Y6602309D01*
X44019060Y6756140D01*
X44172891Y6943584D01*
X44287198Y7157437D01*
X44357588Y7389482D01*
X44381356Y7630800D01*
X44357588Y7872118D01*
X44287198Y8104163D01*
X44172891Y8318016D01*
X44019060Y8505460D01*
X43831616Y8659291D01*
X43617763Y8773598D01*
X43385718Y8843988D01*
X43204872Y8861800D01*
X43083928Y8861800D01*
X42903082Y8843988D01*
X42671037Y8773598D01*
X42457184Y8659291D01*
X42269740Y8505460D01*
X42115909Y8318016D01*
X42001602Y8104163D01*
X41931212Y7872118D01*
X41907444Y7630800D01*
X41931212Y7389482D01*
X42001602Y7157437D01*
X42115909Y6943584D01*
X42269740Y6756140D01*
X42457184Y6602309D01*
X42667705Y6489783D01*
X42513148Y6434957D01*
X42263045Y6285978D01*
X42046812Y6091069D01*
X41872759Y5857720D01*
X41747575Y5594899D01*
X41741491Y5574840D01*
X41632891Y5778016D01*
X41479060Y5965460D01*
X41291616Y6119291D01*
X41077763Y6233598D01*
X40845718Y6303988D01*
X40664872Y6321800D01*
X40543928Y6321800D01*
X40363082Y6303988D01*
X40131037Y6233598D01*
X39917184Y6119291D01*
X39729740Y5965460D01*
X39575909Y5778016D01*
X39461602Y5564163D01*
X39391212Y5332118D01*
X39367444Y5090800D01*
X39391212Y4849482D01*
X39461602Y4617437D01*
X39575909Y4403584D01*
X39729740Y4216140D01*
X39917184Y4062309D01*
X40131037Y3948002D01*
X40363082Y3877612D01*
X40543928Y3859800D01*
X40664872Y3859800D01*
X40845718Y3877612D01*
X41077763Y3948002D01*
X41291616Y4062309D01*
X41479060Y4216140D01*
X41632891Y4403584D01*
X41741491Y4606760D01*
X41747575Y4586701D01*
X41872759Y4323880D01*
X42046812Y4090531D01*
X42263045Y3895622D01*
X42388655Y3820800D01*
X42263045Y3745978D01*
X42046812Y3551069D01*
X41872759Y3317720D01*
X41747575Y3054899D01*
X41741491Y3034840D01*
X41632891Y3238016D01*
X41479060Y3425460D01*
X41291616Y3579291D01*
X41077763Y3693598D01*
X40845718Y3763988D01*
X40664872Y3781800D01*
X40543928Y3781800D01*
X40363082Y3763988D01*
X40131037Y3693598D01*
X39917184Y3579291D01*
X39729740Y3425460D01*
X39575909Y3238016D01*
X39461602Y3024163D01*
X39391212Y2792118D01*
X39367444Y2550800D01*
X39391212Y2309482D01*
X39461602Y2077437D01*
X39575909Y1863584D01*
X39729740Y1676140D01*
X39888533Y1545822D01*
X39827388Y1504967D01*
X39732533Y1410112D01*
X39658006Y1298574D01*
X39606671Y1174640D01*
X39580500Y1043073D01*
X39580500Y908927D01*
X39606671Y777360D01*
X39658006Y653426D01*
X39732533Y541888D01*
X39827388Y447033D01*
X39888798Y406000D01*
X406000Y406000D01*
X406000Y26376000D01*
X1463000Y26376000D01*
X1463000Y3770000D01*
X1470321Y3695671D01*
X1492002Y3624198D01*
X1527210Y3558328D01*
X1574592Y3500592D01*
X2590592Y2484592D01*
X2648328Y2437210D01*
X2714198Y2402002D01*
X2785671Y2380321D01*
X2860000Y2373000D01*
X27752000Y2373000D01*
X27826329Y2380321D01*
X27897802Y2402002D01*
X27963672Y2437210D01*
X28021408Y2484592D01*
X28529408Y2992592D01*
X28576790Y3050328D01*
X28611998Y3116198D01*
X28633679Y3187671D01*
X28641000Y3262000D01*
X29036022Y3262000D01*
X29060966Y3259543D01*
X29085910Y3262000D01*
X29085913Y3262000D01*
X29160551Y3269351D01*
X29256309Y3298399D01*
X29344561Y3345571D01*
X29421914Y3409052D01*
X29437821Y3428435D01*
X33165570Y7156184D01*
X33184953Y7172091D01*
X33248434Y7249444D01*
X33295606Y7337696D01*
X33324654Y7433454D01*
X33332005Y7508092D01*
X33332005Y7508095D01*
X33334462Y7533039D01*
X33332005Y7557983D01*
X33332005Y7630800D01*
X39367444Y7630800D01*
X39391212Y7389482D01*
X39461602Y7157437D01*
X39575909Y6943584D01*
X39729740Y6756140D01*
X39917184Y6602309D01*
X40131037Y6488002D01*
X40363082Y6417612D01*
X40543928Y6399800D01*
X40664872Y6399800D01*
X40845718Y6417612D01*
X41077763Y6488002D01*
X41291616Y6602309D01*
X41479060Y6756140D01*
X41632891Y6943584D01*
X41747198Y7157437D01*
X41817588Y7389482D01*
X41841356Y7630800D01*
X41817588Y7872118D01*
X41747198Y8104163D01*
X41632891Y8318016D01*
X41479060Y8505460D01*
X41291616Y8659291D01*
X41077763Y8773598D01*
X40845718Y8843988D01*
X40664872Y8861800D01*
X40543928Y8861800D01*
X40363082Y8843988D01*
X40131037Y8773598D01*
X39917184Y8659291D01*
X39729740Y8505460D01*
X39575909Y8318016D01*
X39461602Y8104163D01*
X39391212Y7872118D01*
X39367444Y7630800D01*
X33332005Y7630800D01*
X33332005Y10170800D01*
X39367444Y10170800D01*
X39391212Y9929482D01*
X39461602Y9697437D01*
X39575909Y9483584D01*
X39729740Y9296140D01*
X39917184Y9142309D01*
X40131037Y9028002D01*
X40363082Y8957612D01*
X40543928Y8939800D01*
X40664872Y8939800D01*
X40845718Y8957612D01*
X41077763Y9028002D01*
X41291616Y9142309D01*
X41479060Y9296140D01*
X41632891Y9483584D01*
X41747198Y9697437D01*
X41817588Y9929482D01*
X41841356Y10170800D01*
X41907444Y10170800D01*
X41931212Y9929482D01*
X42001602Y9697437D01*
X42115909Y9483584D01*
X42269740Y9296140D01*
X42457184Y9142309D01*
X42671037Y9028002D01*
X42903082Y8957612D01*
X43083928Y8939800D01*
X43204872Y8939800D01*
X43385718Y8957612D01*
X43617763Y9028002D01*
X43831616Y9142309D01*
X44019060Y9296140D01*
X44172891Y9483584D01*
X44287198Y9697437D01*
X44357588Y9929482D01*
X44381356Y10170800D01*
X44357588Y10412118D01*
X44287198Y10644163D01*
X44172891Y10858016D01*
X44019060Y11045460D01*
X43831616Y11199291D01*
X43617763Y11313598D01*
X43385718Y11383988D01*
X43204872Y11401800D01*
X43083928Y11401800D01*
X42903082Y11383988D01*
X42671037Y11313598D01*
X42457184Y11199291D01*
X42269740Y11045460D01*
X42115909Y10858016D01*
X42001602Y10644163D01*
X41931212Y10412118D01*
X41907444Y10170800D01*
X41841356Y10170800D01*
X41817588Y10412118D01*
X41747198Y10644163D01*
X41632891Y10858016D01*
X41479060Y11045460D01*
X41291616Y11199291D01*
X41077763Y11313598D01*
X40845718Y11383988D01*
X40664872Y11401800D01*
X40543928Y11401800D01*
X40363082Y11383988D01*
X40131037Y11313598D01*
X39917184Y11199291D01*
X39729740Y11045460D01*
X39575909Y10858016D01*
X39461602Y10644163D01*
X39391212Y10412118D01*
X39367444Y10170800D01*
X33332005Y10170800D01*
X33332005Y11817551D01*
X33334462Y11842495D01*
X33332005Y11867442D01*
X33324654Y11942080D01*
X33295606Y12037838D01*
X33248434Y12126090D01*
X33184953Y12203443D01*
X33165570Y12219350D01*
X29292347Y16092573D01*
X34733900Y16092573D01*
X34733900Y15958427D01*
X34760071Y15826860D01*
X34811406Y15702926D01*
X34885933Y15591388D01*
X34980788Y15496533D01*
X35092326Y15422006D01*
X35216260Y15370671D01*
X35347827Y15344500D01*
X35481973Y15344500D01*
X35613540Y15370671D01*
X35737474Y15422006D01*
X35816500Y15474809D01*
X35895526Y15422006D01*
X36019460Y15370671D01*
X36151027Y15344500D01*
X36285173Y15344500D01*
X36416740Y15370671D01*
X36540674Y15422006D01*
X36652212Y15496533D01*
X36747067Y15591388D01*
X36821594Y15702926D01*
X36872929Y15826860D01*
X36899100Y15958427D01*
X36899100Y16092573D01*
X36872929Y16224140D01*
X36821594Y16348074D01*
X36747067Y16459612D01*
X36652212Y16554467D01*
X36540674Y16628994D01*
X36416740Y16680329D01*
X36285173Y16706500D01*
X36151027Y16706500D01*
X36019460Y16680329D01*
X35895526Y16628994D01*
X35816500Y16576191D01*
X35737474Y16628994D01*
X35613540Y16680329D01*
X35481973Y16706500D01*
X35347827Y16706500D01*
X35216260Y16680329D01*
X35092326Y16628994D01*
X34980788Y16554467D01*
X34885933Y16459612D01*
X34811406Y16348074D01*
X34760071Y16224140D01*
X34733900Y16092573D01*
X29292347Y16092573D01*
X28814000Y16570920D01*
X28814000Y16600573D01*
X28787829Y16732140D01*
X28736494Y16856074D01*
X28661967Y16967612D01*
X28567112Y17062467D01*
X28455574Y17136994D01*
X28331640Y17188329D01*
X28239788Y17206600D01*
X39371557Y17206600D01*
X39371557Y16940800D01*
X39378913Y16866111D01*
X39400699Y16794292D01*
X39436078Y16728104D01*
X39483689Y16670089D01*
X39541704Y16622478D01*
X39607892Y16587099D01*
X39679711Y16565313D01*
X39754400Y16557957D01*
X39911033Y16557957D01*
X39723045Y16445978D01*
X39506812Y16251069D01*
X39332759Y16017720D01*
X39207575Y15754899D01*
X39162924Y15607690D01*
X39284245Y15377800D01*
X40477400Y15377800D01*
X40477400Y15397800D01*
X40731400Y15397800D01*
X40731400Y15377800D01*
X40751400Y15377800D01*
X40751400Y15123800D01*
X40731400Y15123800D01*
X40731400Y15103800D01*
X40477400Y15103800D01*
X40477400Y15123800D01*
X39284245Y15123800D01*
X39162924Y14893910D01*
X39207575Y14746701D01*
X39332759Y14483880D01*
X39506812Y14250531D01*
X39723045Y14055622D01*
X39973148Y13906643D01*
X40127705Y13851817D01*
X39917184Y13739291D01*
X39729740Y13585460D01*
X39575909Y13398016D01*
X39461602Y13184163D01*
X39391212Y12952118D01*
X39367444Y12710800D01*
X39391212Y12469482D01*
X39461602Y12237437D01*
X39575909Y12023584D01*
X39729740Y11836140D01*
X39917184Y11682309D01*
X40131037Y11568002D01*
X40363082Y11497612D01*
X40543928Y11479800D01*
X40664872Y11479800D01*
X40845718Y11497612D01*
X41077763Y11568002D01*
X41291616Y11682309D01*
X41479060Y11836140D01*
X41632891Y12023584D01*
X41747198Y12237437D01*
X41817588Y12469482D01*
X41841356Y12710800D01*
X41907444Y12710800D01*
X41931212Y12469482D01*
X42001602Y12237437D01*
X42115909Y12023584D01*
X42269740Y11836140D01*
X42457184Y11682309D01*
X42671037Y11568002D01*
X42903082Y11497612D01*
X43083928Y11479800D01*
X43204872Y11479800D01*
X43385718Y11497612D01*
X43617763Y11568002D01*
X43831616Y11682309D01*
X44019060Y11836140D01*
X44172891Y12023584D01*
X44287198Y12237437D01*
X44357588Y12469482D01*
X44381356Y12710800D01*
X44357588Y12952118D01*
X44287198Y13184163D01*
X44172891Y13398016D01*
X44019060Y13585460D01*
X43831616Y13739291D01*
X43617763Y13853598D01*
X43385718Y13923988D01*
X43204872Y13941800D01*
X43083928Y13941800D01*
X42903082Y13923988D01*
X42671037Y13853598D01*
X42457184Y13739291D01*
X42269740Y13585460D01*
X42115909Y13398016D01*
X42001602Y13184163D01*
X41931212Y12952118D01*
X41907444Y12710800D01*
X41841356Y12710800D01*
X41817588Y12952118D01*
X41747198Y13184163D01*
X41632891Y13398016D01*
X41479060Y13585460D01*
X41291616Y13739291D01*
X41081095Y13851817D01*
X41235652Y13906643D01*
X41485755Y14055622D01*
X41701988Y14250531D01*
X41876041Y14483880D01*
X42001225Y14746701D01*
X42007309Y14766760D01*
X42115909Y14563584D01*
X42269740Y14376140D01*
X42457184Y14222309D01*
X42671037Y14108002D01*
X42903082Y14037612D01*
X43083928Y14019800D01*
X43204872Y14019800D01*
X43385718Y14037612D01*
X43617763Y14108002D01*
X43831616Y14222309D01*
X44019060Y14376140D01*
X44172891Y14563584D01*
X44287198Y14777437D01*
X44357588Y15009482D01*
X44381356Y15250800D01*
X44357588Y15492118D01*
X44287198Y15724163D01*
X44172891Y15938016D01*
X44019060Y16125460D01*
X43831616Y16279291D01*
X43617763Y16393598D01*
X43385718Y16463988D01*
X43204872Y16481800D01*
X43083928Y16481800D01*
X42903082Y16463988D01*
X42671037Y16393598D01*
X42457184Y16279291D01*
X42269740Y16125460D01*
X42115909Y15938016D01*
X42007309Y15734840D01*
X42001225Y15754899D01*
X41876041Y16017720D01*
X41701988Y16251069D01*
X41485755Y16445978D01*
X41297767Y16557957D01*
X41454400Y16557957D01*
X41529089Y16565313D01*
X41600908Y16587099D01*
X41667096Y16622478D01*
X41725111Y16670089D01*
X41772722Y16728104D01*
X41808101Y16794292D01*
X41829887Y16866111D01*
X41837243Y16940800D01*
X41837243Y17790800D01*
X41907444Y17790800D01*
X41931212Y17549482D01*
X42001602Y17317437D01*
X42115909Y17103584D01*
X42269740Y16916140D01*
X42457184Y16762309D01*
X42671037Y16648002D01*
X42903082Y16577612D01*
X43083928Y16559800D01*
X43204872Y16559800D01*
X43385718Y16577612D01*
X43617763Y16648002D01*
X43831616Y16762309D01*
X44019060Y16916140D01*
X44172891Y17103584D01*
X44287198Y17317437D01*
X44357588Y17549482D01*
X44381356Y17790800D01*
X44357588Y18032118D01*
X44287198Y18264163D01*
X44172891Y18478016D01*
X44019060Y18665460D01*
X43831616Y18819291D01*
X43617763Y18933598D01*
X43385718Y19003988D01*
X43204872Y19021800D01*
X43083928Y19021800D01*
X42903082Y19003988D01*
X42671037Y18933598D01*
X42457184Y18819291D01*
X42269740Y18665460D01*
X42115909Y18478016D01*
X42001602Y18264163D01*
X41931212Y18032118D01*
X41907444Y17790800D01*
X41837243Y17790800D01*
X41837243Y18640800D01*
X41829887Y18715489D01*
X41808101Y18787308D01*
X41772722Y18853496D01*
X41725111Y18911511D01*
X41667096Y18959122D01*
X41600908Y18994501D01*
X41529089Y19016287D01*
X41454400Y19023643D01*
X39754400Y19023643D01*
X39679711Y19016287D01*
X39607892Y18994501D01*
X39541704Y18959122D01*
X39483689Y18911511D01*
X39436078Y18853496D01*
X39400699Y18787308D01*
X39378913Y18715489D01*
X39371557Y18640800D01*
X39371557Y18375000D01*
X33822464Y18375000D01*
X33857494Y18427426D01*
X33908829Y18551360D01*
X33935000Y18682927D01*
X33935000Y18817073D01*
X33908829Y18948640D01*
X33857494Y19072574D01*
X33782967Y19184112D01*
X33688112Y19278967D01*
X33576574Y19353494D01*
X33452640Y19404829D01*
X33321073Y19431000D01*
X33186927Y19431000D01*
X33055360Y19404829D01*
X32931426Y19353494D01*
X32819888Y19278967D01*
X32725033Y19184112D01*
X32650506Y19072574D01*
X32599171Y18948640D01*
X32573000Y18817073D01*
X32573000Y18682927D01*
X32599171Y18551360D01*
X32650506Y18427426D01*
X32685536Y18375000D01*
X27879000Y18375000D01*
X27879000Y19708500D01*
X27871679Y19782829D01*
X27849998Y19854302D01*
X27814790Y19920172D01*
X27767408Y19977908D01*
X26970016Y20775300D01*
X28231316Y20775300D01*
X28260000Y20772475D01*
X28288684Y20775300D01*
X28288692Y20775300D01*
X28374523Y20783754D01*
X28484645Y20817159D01*
X28586134Y20871406D01*
X28675090Y20944410D01*
X28693382Y20966699D01*
X31818682Y24091998D01*
X31871378Y24070171D01*
X32002945Y24044000D01*
X32137091Y24044000D01*
X32268658Y24070171D01*
X32392592Y24121506D01*
X32504130Y24196033D01*
X32598985Y24290888D01*
X32673512Y24402426D01*
X32724847Y24526360D01*
X32751018Y24657927D01*
X32751018Y24792073D01*
X32724847Y24923640D01*
X32673512Y25047574D01*
X32598985Y25159112D01*
X32504130Y25253967D01*
X32392592Y25328494D01*
X32268658Y25379829D01*
X32137091Y25406000D01*
X32002945Y25406000D01*
X31871378Y25379829D01*
X31747444Y25328494D01*
X31718568Y25309200D01*
X31654192Y25309200D01*
X31625500Y25312026D01*
X31510977Y25300746D01*
X31400855Y25267341D01*
X31299366Y25213094D01*
X31232696Y25158380D01*
X31232694Y25158378D01*
X31210410Y25140090D01*
X31192122Y25117806D01*
X28018017Y21943700D01*
X25779583Y21943700D01*
X25738802Y21965498D01*
X25667329Y21987179D01*
X25593000Y21994500D01*
X23878500Y21994500D01*
X23878500Y23074000D01*
X26482000Y23074000D01*
X26556329Y23081321D01*
X26627802Y23103002D01*
X26693672Y23138210D01*
X26751408Y23185592D01*
X28529408Y24963592D01*
X28576790Y25021328D01*
X28611998Y25087198D01*
X28633679Y25158671D01*
X28641000Y25233000D01*
X28641000Y26757000D01*
X28633679Y26831329D01*
X28611998Y26902802D01*
X28576790Y26968672D01*
X28529408Y27026408D01*
X28275408Y27280408D01*
X28217672Y27327790D01*
X28151802Y27362998D01*
X28080329Y27384679D01*
X28006000Y27392000D01*
X26609000Y27392000D01*
X26534671Y27384679D01*
X26463198Y27362998D01*
X26397328Y27327790D01*
X26339592Y27280408D01*
X25450592Y26391408D01*
X25403210Y26333672D01*
X25368002Y26267802D01*
X25346321Y26196329D01*
X25339000Y26122000D01*
X25339000Y25614000D01*
X21305816Y25614000D01*
X20095745Y26824071D01*
X21737000Y26824071D01*
X21737000Y26689925D01*
X21763171Y26558358D01*
X21814506Y26434424D01*
X21889033Y26322886D01*
X21983888Y26228031D01*
X22095426Y26153504D01*
X22219360Y26102169D01*
X22350927Y26075998D01*
X22485073Y26075998D01*
X22616640Y26102169D01*
X22740574Y26153504D01*
X22852112Y26228031D01*
X22946967Y26322886D01*
X23021494Y26434424D01*
X23072829Y26558358D01*
X23099000Y26689925D01*
X23099000Y26824071D01*
X23072829Y26955638D01*
X23021494Y27079572D01*
X22946967Y27191110D01*
X22852112Y27285965D01*
X22740574Y27360492D01*
X22616640Y27411827D01*
X22485073Y27437998D01*
X22350927Y27437998D01*
X22219360Y27411827D01*
X22095426Y27360492D01*
X21983888Y27285965D01*
X21889033Y27191110D01*
X21814506Y27079572D01*
X21763171Y26955638D01*
X21737000Y26824071D01*
X20095745Y26824071D01*
X18559908Y28359908D01*
X18502172Y28407290D01*
X18436302Y28442498D01*
X18364829Y28464179D01*
X18290500Y28471500D01*
X15400316Y28471500D01*
X9796908Y34074908D01*
X9739172Y34122290D01*
X9673302Y34157498D01*
X9601829Y34179179D01*
X9527500Y34186500D01*
X3050500Y34186500D01*
X2976171Y34179179D01*
X2904698Y34157498D01*
X2838828Y34122290D01*
X2781092Y34074908D01*
X1765092Y33058908D01*
X1717710Y33001172D01*
X1682502Y32935302D01*
X1660821Y32863829D01*
X1653500Y32789500D01*
X1653500Y29995500D01*
X1660821Y29921171D01*
X1682502Y29849698D01*
X1717710Y29783828D01*
X1765092Y29726092D01*
X1822828Y29678710D01*
X1888698Y29643502D01*
X1960171Y29621821D01*
X2034500Y29614500D01*
X11907706Y29614500D01*
X15351719Y26108987D01*
X15411828Y26059210D01*
X15477698Y26024002D01*
X15549171Y26002321D01*
X15623500Y25995000D01*
X17502044Y25995000D01*
X18925500Y24626292D01*
X18925500Y24153500D01*
X18932821Y24079171D01*
X18954502Y24007698D01*
X18989710Y23941828D01*
X19037092Y23884092D01*
X19098788Y23822396D01*
X19034894Y23758501D01*
X18995356Y23798039D01*
X18988925Y23916263D01*
X18818897Y23987062D01*
X18803176Y23990219D01*
X18769959Y24023436D01*
X18665956Y24017778D01*
X18638324Y24023328D01*
X18454145Y24023671D01*
X18423975Y24017728D01*
X18319041Y24023436D01*
X18286191Y23990586D01*
X18273439Y23988074D01*
X18103149Y23917908D01*
X18100075Y23916263D01*
X18093644Y23798039D01*
X17864105Y23568500D01*
X17878248Y23554357D01*
X17864873Y23540983D01*
X17805956Y23537778D01*
X17778324Y23543328D01*
X17594145Y23543671D01*
X17516696Y23528414D01*
X17490753Y23554357D01*
X17504895Y23568500D01*
X17490753Y23582642D01*
X17670358Y23762247D01*
X17684500Y23748105D01*
X18139436Y24203041D01*
X18128925Y24396263D01*
X17958897Y24467062D01*
X17778324Y24503328D01*
X17594145Y24503671D01*
X17413439Y24468074D01*
X17293968Y24418848D01*
X16019908Y25692908D01*
X15962172Y25740290D01*
X15896302Y25775498D01*
X15824829Y25797179D01*
X15750500Y25804500D01*
X12987316Y25804500D01*
X13035408Y25852592D01*
X13082790Y25910328D01*
X13117998Y25976198D01*
X13139679Y26047671D01*
X13147000Y26122000D01*
X13147000Y27646000D01*
X13139679Y27720329D01*
X13117998Y27791802D01*
X13082790Y27857672D01*
X13035408Y27915408D01*
X11511408Y29439408D01*
X11453672Y29486790D01*
X11387802Y29521998D01*
X11316329Y29543679D01*
X11242000Y29551000D01*
X4638000Y29551000D01*
X4563671Y29543679D01*
X4492198Y29521998D01*
X4426328Y29486790D01*
X4368592Y29439408D01*
X1574592Y26645408D01*
X1527210Y26587672D01*
X1492002Y26521802D01*
X1470321Y26450329D01*
X1463000Y26376000D01*
X406000Y26376000D01*
X406000Y35015573D01*
X18625500Y35015573D01*
X18625500Y34881427D01*
X18651671Y34749860D01*
X18703006Y34625926D01*
X18777533Y34514388D01*
X18872388Y34419533D01*
X18888526Y34408750D01*
X18872388Y34397967D01*
X18777533Y34303112D01*
X18703006Y34191574D01*
X18651671Y34067640D01*
X18625500Y33936073D01*
X18625500Y33801927D01*
X18651671Y33670360D01*
X18703006Y33546426D01*
X18777533Y33434888D01*
X18851421Y33361000D01*
X18777533Y33287112D01*
X18703006Y33175574D01*
X18651671Y33051640D01*
X18625500Y32920073D01*
X18625500Y32785927D01*
X18651671Y32654360D01*
X18703006Y32530426D01*
X18777533Y32418888D01*
X18872388Y32324033D01*
X18888526Y32313250D01*
X18872388Y32302467D01*
X18777533Y32207612D01*
X18703006Y32096074D01*
X18651671Y31972140D01*
X18625500Y31840573D01*
X18625500Y31706427D01*
X18651671Y31574860D01*
X18703006Y31450926D01*
X18777533Y31339388D01*
X18851421Y31265500D01*
X18777533Y31191612D01*
X18703006Y31080074D01*
X18651671Y30956140D01*
X18625500Y30824573D01*
X18625500Y30690427D01*
X18651671Y30558860D01*
X18703006Y30434926D01*
X18777533Y30323388D01*
X18872388Y30228533D01*
X18983926Y30154006D01*
X19107860Y30102671D01*
X19239427Y30076500D01*
X19373573Y30076500D01*
X19505140Y30102671D01*
X19629074Y30154006D01*
X19740612Y30228533D01*
X19814500Y30302421D01*
X19837816Y30279105D01*
X19824888Y30270467D01*
X19730033Y30175612D01*
X19655506Y30064074D01*
X19604171Y29940140D01*
X19578000Y29808573D01*
X19578000Y29674427D01*
X19604171Y29542860D01*
X19655506Y29418926D01*
X19730033Y29307388D01*
X19824888Y29212533D01*
X19936426Y29138006D01*
X20060360Y29086671D01*
X20191927Y29060500D01*
X20326073Y29060500D01*
X20457640Y29086671D01*
X20581574Y29138006D01*
X20693112Y29212533D01*
X20787967Y29307388D01*
X20798750Y29323526D01*
X20809533Y29307388D01*
X20904388Y29212533D01*
X21015926Y29138006D01*
X21139860Y29086671D01*
X21271427Y29060500D01*
X21405573Y29060500D01*
X21537140Y29086671D01*
X21661074Y29138006D01*
X21772612Y29212533D01*
X21867467Y29307388D01*
X21941994Y29418926D01*
X21993329Y29542860D01*
X22019500Y29674427D01*
X22019500Y29805000D01*
X22418000Y29805000D01*
X22418000Y28598500D01*
X22425321Y28524171D01*
X22447002Y28452698D01*
X22482210Y28386828D01*
X22529592Y28329092D01*
X23037592Y27821092D01*
X23095328Y27773710D01*
X23161198Y27738502D01*
X23232671Y27716821D01*
X23307000Y27709500D01*
X32039184Y27709500D01*
X35150684Y24598000D01*
X34071184Y23518500D01*
X31879500Y23518500D01*
X31805171Y23511179D01*
X31733698Y23489498D01*
X31667828Y23454290D01*
X31610092Y23406908D01*
X30911592Y22708408D01*
X30864210Y22650672D01*
X30829002Y22584802D01*
X30807321Y22513329D01*
X30800000Y22439000D01*
X30800000Y21677000D01*
X30806866Y21604996D01*
X30828102Y21533389D01*
X30862900Y21467302D01*
X30909922Y21409273D01*
X31286213Y21028273D01*
X31345619Y20979210D01*
X31411489Y20944002D01*
X31482962Y20922321D01*
X31557291Y20915000D01*
X32451000Y20915000D01*
X32525329Y20922321D01*
X32596802Y20944002D01*
X32662672Y20979210D01*
X32720408Y21026592D01*
X32802889Y21109073D01*
X38755000Y21109073D01*
X38755000Y20974927D01*
X38781171Y20843360D01*
X38832506Y20719426D01*
X38907033Y20607888D01*
X39001888Y20513033D01*
X39113426Y20438506D01*
X39237360Y20387171D01*
X39368927Y20361000D01*
X39503073Y20361000D01*
X39634640Y20387171D01*
X39758574Y20438506D01*
X39870112Y20513033D01*
X39964967Y20607888D01*
X40039494Y20719426D01*
X40090829Y20843360D01*
X40117000Y20974927D01*
X40117000Y21109073D01*
X40090829Y21240640D01*
X40039494Y21364574D01*
X39964967Y21476112D01*
X39870112Y21570967D01*
X39758574Y21645494D01*
X39634640Y21696829D01*
X39503073Y21723000D01*
X39368927Y21723000D01*
X39237360Y21696829D01*
X39113426Y21645494D01*
X39001888Y21570967D01*
X38907033Y21476112D01*
X38832506Y21364574D01*
X38781171Y21240640D01*
X38755000Y21109073D01*
X32802889Y21109073D01*
X33037908Y21344092D01*
X33085290Y21401828D01*
X33120498Y21467698D01*
X33142179Y21539171D01*
X33149500Y21613500D01*
X33149500Y21709684D01*
X33497816Y22058000D01*
X35118000Y22058000D01*
X35192329Y22065321D01*
X35263802Y22087002D01*
X35329672Y22122210D01*
X35387408Y22169592D01*
X35466316Y22248500D01*
X35753000Y22248500D01*
X35827329Y22255821D01*
X35898802Y22277502D01*
X35964672Y22312710D01*
X36022408Y22360092D01*
X37165408Y23503092D01*
X37212790Y23560828D01*
X37247998Y23626698D01*
X37269679Y23698171D01*
X37277000Y23772500D01*
X37277000Y23839573D01*
X37739000Y23839573D01*
X37739000Y23705427D01*
X37765171Y23573860D01*
X37816506Y23449926D01*
X37891033Y23338388D01*
X37985888Y23243533D01*
X38097426Y23169006D01*
X38221360Y23117671D01*
X38352927Y23091500D01*
X38487073Y23091500D01*
X38618640Y23117671D01*
X38742574Y23169006D01*
X38854112Y23243533D01*
X38948967Y23338388D01*
X39023494Y23449926D01*
X39074829Y23573860D01*
X39101000Y23705427D01*
X39101000Y23776082D01*
X39324894Y23776082D01*
X39324894Y23641936D01*
X39351065Y23510369D01*
X39402400Y23386435D01*
X39476927Y23274897D01*
X39571782Y23180042D01*
X39683320Y23105515D01*
X39807254Y23054180D01*
X39938821Y23028009D01*
X40072967Y23028009D01*
X40204534Y23054180D01*
X40328468Y23105515D01*
X40438041Y23178729D01*
X40511780Y23129458D01*
X40635714Y23078123D01*
X40767281Y23051952D01*
X40901427Y23051952D01*
X41032994Y23078123D01*
X41156928Y23129458D01*
X41268466Y23203985D01*
X41302625Y23238144D01*
X41304550Y23236858D01*
X41428484Y23185523D01*
X41560051Y23159352D01*
X41694197Y23159352D01*
X41825764Y23185523D01*
X41949698Y23236858D01*
X42061236Y23311385D01*
X42156091Y23406240D01*
X42230618Y23517778D01*
X42281953Y23641712D01*
X42308124Y23773279D01*
X42308124Y23907425D01*
X42281953Y24038992D01*
X42230618Y24162926D01*
X42156091Y24274464D01*
X42061236Y24369319D01*
X41949698Y24443846D01*
X41825764Y24495181D01*
X41694197Y24521352D01*
X41560051Y24521352D01*
X41428484Y24495181D01*
X41304550Y24443846D01*
X41193012Y24369319D01*
X41158853Y24335160D01*
X41156928Y24336446D01*
X41032994Y24387781D01*
X40901427Y24413952D01*
X40767281Y24413952D01*
X40635714Y24387781D01*
X40511780Y24336446D01*
X40402207Y24263232D01*
X40328468Y24312503D01*
X40204534Y24363838D01*
X40072967Y24390009D01*
X39938821Y24390009D01*
X39807254Y24363838D01*
X39683320Y24312503D01*
X39571782Y24237976D01*
X39476927Y24143121D01*
X39402400Y24031583D01*
X39351065Y23907649D01*
X39324894Y23776082D01*
X39101000Y23776082D01*
X39101000Y23839573D01*
X39074829Y23971140D01*
X39023494Y24095074D01*
X38948967Y24206612D01*
X38854112Y24301467D01*
X38742574Y24375994D01*
X38618640Y24427329D01*
X38487073Y24453500D01*
X38352927Y24453500D01*
X38221360Y24427329D01*
X38097426Y24375994D01*
X37985888Y24301467D01*
X37891033Y24206612D01*
X37816506Y24095074D01*
X37765171Y23971140D01*
X37739000Y23839573D01*
X37277000Y23839573D01*
X37277000Y29995500D01*
X37269679Y30069829D01*
X37247998Y30141302D01*
X37212790Y30207172D01*
X37165408Y30264908D01*
X36466908Y30963408D01*
X36409172Y31010790D01*
X36343302Y31045998D01*
X36271829Y31067679D01*
X36197500Y31075000D01*
X31148316Y31075000D01*
X29570609Y32652707D01*
X29623000Y32697436D01*
X29623000Y33523000D01*
X29877000Y33523000D01*
X29877000Y32697436D01*
X30051131Y32548770D01*
X30263066Y32599414D01*
X30269937Y32602573D01*
X40152000Y32602573D01*
X40152000Y32468427D01*
X40178171Y32336860D01*
X40229506Y32212926D01*
X40304033Y32101388D01*
X40398888Y32006533D01*
X40510426Y31932006D01*
X40634360Y31880671D01*
X40765927Y31854500D01*
X40900073Y31854500D01*
X41031640Y31880671D01*
X41155574Y31932006D01*
X41267112Y32006533D01*
X41361967Y32101388D01*
X41436494Y32212926D01*
X41487829Y32336860D01*
X41514000Y32468427D01*
X41514000Y32602573D01*
X42882500Y32602573D01*
X42882500Y32468427D01*
X42908671Y32336860D01*
X42960006Y32212926D01*
X43034533Y32101388D01*
X43129388Y32006533D01*
X43240926Y31932006D01*
X43364860Y31880671D01*
X43496427Y31854500D01*
X43630573Y31854500D01*
X43762140Y31880671D01*
X43886074Y31932006D01*
X43997612Y32006533D01*
X44092467Y32101388D01*
X44166994Y32212926D01*
X44218329Y32336860D01*
X44244500Y32468427D01*
X44244500Y32602573D01*
X44218329Y32734140D01*
X44166994Y32858074D01*
X44092467Y32969612D01*
X43997612Y33064467D01*
X43886074Y33138994D01*
X43762140Y33190329D01*
X43630573Y33216500D01*
X43496427Y33216500D01*
X43364860Y33190329D01*
X43240926Y33138994D01*
X43129388Y33064467D01*
X43034533Y32969612D01*
X42960006Y32858074D01*
X42908671Y32734140D01*
X42882500Y32602573D01*
X41514000Y32602573D01*
X41487829Y32734140D01*
X41436494Y32858074D01*
X41361967Y32969612D01*
X41267112Y33064467D01*
X41155574Y33138994D01*
X41031640Y33190329D01*
X40900073Y33216500D01*
X40765927Y33216500D01*
X40634360Y33190329D01*
X40510426Y33138994D01*
X40398888Y33064467D01*
X40304033Y32969612D01*
X40229506Y32858074D01*
X40178171Y32734140D01*
X40152000Y32602573D01*
X30269937Y32602573D01*
X30461049Y32690431D01*
X30637471Y32818324D01*
X30785553Y32978178D01*
X30899603Y33163850D01*
X30969268Y33352062D01*
X30842734Y33523000D01*
X29877000Y33523000D01*
X29623000Y33523000D01*
X29603000Y33523000D01*
X29603000Y33777000D01*
X29623000Y33777000D01*
X29623000Y34602564D01*
X29877000Y34602564D01*
X29877000Y33777000D01*
X30842734Y33777000D01*
X30969268Y33947938D01*
X30899603Y34136150D01*
X30785553Y34321822D01*
X30637471Y34481676D01*
X30461049Y34609569D01*
X30263066Y34700586D01*
X30051131Y34751230D01*
X29877000Y34602564D01*
X29623000Y34602564D01*
X29448869Y34751230D01*
X29236934Y34700586D01*
X29150134Y34660682D01*
X29037408Y34773408D01*
X28979672Y34820790D01*
X28913802Y34855998D01*
X28842329Y34877679D01*
X28768000Y34885000D01*
X28323500Y34885000D01*
X28249171Y34877679D01*
X28177698Y34855998D01*
X28111828Y34820790D01*
X28054092Y34773408D01*
X27927092Y34646408D01*
X27879710Y34588672D01*
X27844502Y34522802D01*
X27822821Y34451329D01*
X27815500Y34377000D01*
X27815500Y32735694D01*
X27777960Y32728227D01*
X27654026Y32676892D01*
X27575000Y32624089D01*
X27495974Y32676892D01*
X27372040Y32728227D01*
X27240473Y32754398D01*
X27106327Y32754398D01*
X26974760Y32728227D01*
X26850826Y32676892D01*
X26739288Y32602365D01*
X26644433Y32507510D01*
X26569906Y32395972D01*
X26518571Y32272038D01*
X26492400Y32140471D01*
X26492400Y32006325D01*
X26518571Y31874758D01*
X26569906Y31750824D01*
X26644433Y31639286D01*
X26739288Y31544431D01*
X26850826Y31469904D01*
X26974760Y31418569D01*
X27106327Y31392398D01*
X27240473Y31392398D01*
X27364816Y31417132D01*
X27086184Y31138500D01*
X23751500Y31138500D01*
X23677171Y31131179D01*
X23605698Y31109498D01*
X23539828Y31074290D01*
X23482092Y31026908D01*
X22529592Y30074408D01*
X22482210Y30016672D01*
X22447002Y29950802D01*
X22425321Y29879329D01*
X22418000Y29805000D01*
X22019500Y29805000D01*
X22019500Y29808573D01*
X21993329Y29940140D01*
X21941994Y30064074D01*
X21867467Y30175612D01*
X21793579Y30249500D01*
X21867467Y30323388D01*
X21941994Y30434926D01*
X21993329Y30558860D01*
X22019500Y30690427D01*
X22019500Y30824573D01*
X21993329Y30956140D01*
X21941994Y31080074D01*
X21867467Y31191612D01*
X21793579Y31265500D01*
X21867467Y31339388D01*
X21941994Y31450926D01*
X21993329Y31574860D01*
X22019500Y31706427D01*
X22019500Y31840573D01*
X21993329Y31972140D01*
X21941994Y32096074D01*
X21867467Y32207612D01*
X21793579Y32281500D01*
X21867467Y32355388D01*
X21941994Y32466926D01*
X21993329Y32590860D01*
X22019500Y32722427D01*
X22019500Y32856573D01*
X21993329Y32988140D01*
X21941994Y33112074D01*
X21867467Y33223612D01*
X21772612Y33318467D01*
X21722334Y33352062D01*
X23530732Y33352062D01*
X23600397Y33163850D01*
X23714447Y32978178D01*
X23862529Y32818324D01*
X24038951Y32690431D01*
X24236934Y32599414D01*
X24448869Y32548770D01*
X24623000Y32697436D01*
X24623000Y33523000D01*
X24877000Y33523000D01*
X24877000Y32697436D01*
X25051131Y32548770D01*
X25263066Y32599414D01*
X25461049Y32690431D01*
X25637471Y32818324D01*
X25785553Y32978178D01*
X25899603Y33163850D01*
X25969268Y33352062D01*
X25842734Y33523000D01*
X24877000Y33523000D01*
X24623000Y33523000D01*
X23657266Y33523000D01*
X23530732Y33352062D01*
X21722334Y33352062D01*
X21661074Y33392994D01*
X21537140Y33444329D01*
X21405573Y33470500D01*
X21271427Y33470500D01*
X21139860Y33444329D01*
X21015926Y33392994D01*
X20904388Y33318467D01*
X20830500Y33244579D01*
X20756612Y33318467D01*
X20740474Y33329250D01*
X20756612Y33340033D01*
X20851467Y33434888D01*
X20925994Y33546426D01*
X20977329Y33670360D01*
X21003500Y33801927D01*
X21003500Y33936073D01*
X21001140Y33947938D01*
X23530732Y33947938D01*
X23657266Y33777000D01*
X24623000Y33777000D01*
X24623000Y34602564D01*
X24877000Y34602564D01*
X24877000Y33777000D01*
X25842734Y33777000D01*
X25969268Y33947938D01*
X25899603Y34136150D01*
X25785553Y34321822D01*
X25637471Y34481676D01*
X25461049Y34609569D01*
X25263066Y34700586D01*
X25051131Y34751230D01*
X24877000Y34602564D01*
X24623000Y34602564D01*
X24448869Y34751230D01*
X24236934Y34700586D01*
X24038951Y34609569D01*
X23862529Y34481676D01*
X23714447Y34321822D01*
X23600397Y34136150D01*
X23530732Y33947938D01*
X21001140Y33947938D01*
X20977329Y34067640D01*
X20925994Y34191574D01*
X20851467Y34303112D01*
X20756612Y34397967D01*
X20740474Y34408750D01*
X20756612Y34419533D01*
X20851467Y34514388D01*
X20925994Y34625926D01*
X20977329Y34749860D01*
X21003500Y34881427D01*
X21003500Y35015573D01*
X20977329Y35147140D01*
X20925994Y35271074D01*
X20851467Y35382612D01*
X20756612Y35477467D01*
X20645074Y35551994D01*
X20521140Y35603329D01*
X20389573Y35629500D01*
X20255427Y35629500D01*
X20123860Y35603329D01*
X19999926Y35551994D01*
X19888388Y35477467D01*
X19814500Y35403579D01*
X19740612Y35477467D01*
X19629074Y35551994D01*
X19505140Y35603329D01*
X19373573Y35629500D01*
X19239427Y35629500D01*
X19107860Y35603329D01*
X18983926Y35551994D01*
X18872388Y35477467D01*
X18777533Y35382612D01*
X18703006Y35271074D01*
X18651671Y35147140D01*
X18625500Y35015573D01*
X406000Y35015573D01*
X406000Y36444073D01*
X3769000Y36444073D01*
X3769000Y36309927D01*
X3795171Y36178360D01*
X3846506Y36054426D01*
X3921033Y35942888D01*
X4015888Y35848033D01*
X4127426Y35773506D01*
X4251360Y35722171D01*
X4382927Y35696000D01*
X4517073Y35696000D01*
X4648640Y35722171D01*
X4772574Y35773506D01*
X4884112Y35848033D01*
X4978967Y35942888D01*
X5053494Y36054426D01*
X5104829Y36178360D01*
X5131000Y36309927D01*
X5131000Y36444073D01*
X8722000Y36444073D01*
X8722000Y36309927D01*
X8748171Y36178360D01*
X8799506Y36054426D01*
X8874033Y35942888D01*
X8968888Y35848033D01*
X9080426Y35773506D01*
X9204360Y35722171D01*
X9335927Y35696000D01*
X9470073Y35696000D01*
X9601640Y35722171D01*
X9725574Y35773506D01*
X9837112Y35848033D01*
X9931967Y35942888D01*
X10006494Y36054426D01*
X10057829Y36178360D01*
X10066708Y36223000D01*
X22615000Y36223000D01*
X22615000Y35948000D01*
X22661585Y35729013D01*
X22749997Y35523322D01*
X22876839Y35338831D01*
X23037236Y35182631D01*
X23225024Y35060724D01*
X23448126Y34980881D01*
X23623000Y35107046D01*
X23623000Y36223000D01*
X23877000Y36223000D01*
X23877000Y35107046D01*
X24051874Y34980881D01*
X24274976Y35060724D01*
X24462764Y35182631D01*
X24623161Y35338831D01*
X24750003Y35523322D01*
X24838415Y35729013D01*
X24885000Y35948000D01*
X24885000Y36223000D01*
X29615000Y36223000D01*
X29615000Y35948000D01*
X29661585Y35729013D01*
X29749997Y35523322D01*
X29876839Y35338831D01*
X30037236Y35182631D01*
X30225024Y35060724D01*
X30448126Y34980881D01*
X30623000Y35107046D01*
X30623000Y36223000D01*
X29615000Y36223000D01*
X24885000Y36223000D01*
X23877000Y36223000D01*
X23623000Y36223000D01*
X22615000Y36223000D01*
X10066708Y36223000D01*
X10084000Y36309927D01*
X10084000Y36444073D01*
X10057829Y36575640D01*
X10006494Y36699574D01*
X9931967Y36811112D01*
X9837112Y36905967D01*
X9725574Y36980494D01*
X9601640Y37031829D01*
X9470073Y37058000D01*
X9335927Y37058000D01*
X9204360Y37031829D01*
X9080426Y36980494D01*
X8968888Y36905967D01*
X8874033Y36811112D01*
X8799506Y36699574D01*
X8748171Y36575640D01*
X8722000Y36444073D01*
X5131000Y36444073D01*
X5104829Y36575640D01*
X5053494Y36699574D01*
X4978967Y36811112D01*
X4884112Y36905967D01*
X4772574Y36980494D01*
X4648640Y37031829D01*
X4517073Y37058000D01*
X4382927Y37058000D01*
X4251360Y37031829D01*
X4127426Y36980494D01*
X4015888Y36905967D01*
X3921033Y36811112D01*
X3846506Y36699574D01*
X3795171Y36575640D01*
X3769000Y36444073D01*
X406000Y36444073D01*
X406000Y37594000D01*
X23155280Y37594000D01*
X23037236Y37517369D01*
G36*
X20664867Y14310323D02*
G01*
X20664867Y14176177D01*
X20691038Y14044610D01*
X20742373Y13920676D01*
X20816900Y13809138D01*
X20911755Y13714283D01*
X21023293Y13639756D01*
X21147227Y13588421D01*
X21278794Y13562250D01*
X21322610Y13562250D01*
X21322610Y13481927D01*
X21348781Y13350360D01*
X21400116Y13226426D01*
X21474643Y13114888D01*
X21569498Y13020033D01*
X21681036Y12945506D01*
X21804970Y12894171D01*
X21936537Y12868000D01*
X22070683Y12868000D01*
X22202250Y12894171D01*
X22326184Y12945506D01*
X22437722Y13020033D01*
X22532577Y13114888D01*
X22607104Y13226426D01*
X22658439Y13350360D01*
X22684610Y13481927D01*
X22684610Y13616073D01*
X22658439Y13747640D01*
X22607104Y13871574D01*
X22532577Y13983112D01*
X22437722Y14077967D01*
X22326184Y14152494D01*
X22202250Y14203829D01*
X22070683Y14230000D01*
X22026867Y14230000D01*
X22026867Y14310323D01*
X22001470Y14438000D01*
X25528817Y14438000D01*
X31312805Y8654011D01*
X31312805Y8162683D01*
X31309980Y8133999D01*
X31312805Y8105315D01*
X31312805Y8105307D01*
X31321020Y8021907D01*
X31321259Y8019476D01*
X31354664Y7909355D01*
X31359091Y7901073D01*
X31408912Y7807865D01*
X31440350Y7769557D01*
X31463625Y7741196D01*
X31463628Y7741193D01*
X31481916Y7718909D01*
X31504200Y7700621D01*
X31535400Y7669421D01*
X31542175Y7635360D01*
X31593510Y7511426D01*
X31668037Y7399888D01*
X31762892Y7305033D01*
X31831642Y7259096D01*
X28850546Y4278000D01*
X28641000Y4278000D01*
X28633679Y4352329D01*
X28611998Y4423802D01*
X28576790Y4489672D01*
X28529408Y4547408D01*
X27894408Y5182408D01*
X27836672Y5229790D01*
X27770802Y5264998D01*
X27699329Y5286679D01*
X27625000Y5294000D01*
X18544500Y5294000D01*
X18544500Y7038857D01*
X18587859Y6995498D01*
X18764665Y6877360D01*
X18961122Y6795985D01*
X19169679Y6754500D01*
X19382321Y6754500D01*
X19590878Y6795985D01*
X19787335Y6877360D01*
X19964141Y6995498D01*
X20114502Y7145859D01*
X20232640Y7322665D01*
X20314015Y7519122D01*
X20355500Y7727679D01*
X20355500Y7940321D01*
X20314015Y8148878D01*
X20232640Y8345335D01*
X20114502Y8522141D01*
X19964141Y8672502D01*
X19787335Y8790640D01*
X19590878Y8872015D01*
X19382321Y8913500D01*
X19169679Y8913500D01*
X18961122Y8872015D01*
X18764665Y8790640D01*
X18587859Y8672502D01*
X18544500Y8629143D01*
X18544500Y9234573D01*
X19959001Y9234573D01*
X19959001Y9100427D01*
X19985172Y8968860D01*
X20036507Y8844926D01*
X20111034Y8733388D01*
X20205889Y8638533D01*
X20317427Y8564006D01*
X20441361Y8512671D01*
X20572928Y8486500D01*
X20707074Y8486500D01*
X20838641Y8512671D01*
X20962575Y8564006D01*
X21013168Y8597811D01*
X20937498Y8522141D01*
X20819360Y8345335D01*
X20737985Y8148878D01*
X20696500Y7940321D01*
X20696500Y7727679D01*
X20737985Y7519122D01*
X20819360Y7322665D01*
X20937498Y7145859D01*
X21087859Y6995498D01*
X21264665Y6877360D01*
X21461122Y6795985D01*
X21669679Y6754500D01*
X21882321Y6754500D01*
X22090878Y6795985D01*
X22287335Y6877360D01*
X22464141Y6995498D01*
X22614502Y7145859D01*
X22732640Y7322665D01*
X22814015Y7519122D01*
X22855500Y7727679D01*
X22855500Y7940321D01*
X23196500Y7940321D01*
X23196500Y7727679D01*
X23237985Y7519122D01*
X23319360Y7322665D01*
X23437498Y7145859D01*
X23587859Y6995498D01*
X23764665Y6877360D01*
X23961122Y6795985D01*
X24169679Y6754500D01*
X24382321Y6754500D01*
X24590878Y6795985D01*
X24787335Y6877360D01*
X24964141Y6995498D01*
X25114502Y7145859D01*
X25232640Y7322665D01*
X25314015Y7519122D01*
X25355500Y7727679D01*
X25355500Y7940321D01*
X25696500Y7940321D01*
X25696500Y7727679D01*
X25737985Y7519122D01*
X25819360Y7322665D01*
X25937498Y7145859D01*
X26087859Y6995498D01*
X26264665Y6877360D01*
X26461122Y6795985D01*
X26669679Y6754500D01*
X26882321Y6754500D01*
X27090878Y6795985D01*
X27287335Y6877360D01*
X27341875Y6913803D01*
X28535408Y6913803D01*
X28594686Y6680188D01*
X28832875Y6569441D01*
X29088093Y6507289D01*
X29350533Y6496124D01*
X29610107Y6536371D01*
X29856842Y6626486D01*
X29957314Y6680188D01*
X30016592Y6913803D01*
X29276000Y7654395D01*
X28535408Y6913803D01*
X27341875Y6913803D01*
X27464141Y6995498D01*
X27614502Y7145859D01*
X27732640Y7322665D01*
X27814015Y7519122D01*
X27855500Y7727679D01*
X27855500Y7759467D01*
X27938124Y7759467D01*
X27978371Y7499893D01*
X28068486Y7253158D01*
X28122188Y7152686D01*
X28355803Y7093408D01*
X29096395Y7834000D01*
X29455605Y7834000D01*
X30196197Y7093408D01*
X30429812Y7152686D01*
X30540559Y7390875D01*
X30602711Y7646093D01*
X30613876Y7908533D01*
X30573629Y8168107D01*
X30483514Y8414842D01*
X30429812Y8515314D01*
X30196197Y8574592D01*
X29455605Y7834000D01*
X29096395Y7834000D01*
X28355803Y8574592D01*
X28122188Y8515314D01*
X28011441Y8277125D01*
X27949289Y8021907D01*
X27938124Y7759467D01*
X27855500Y7759467D01*
X27855500Y7940321D01*
X27814015Y8148878D01*
X27732640Y8345335D01*
X27614502Y8522141D01*
X27464141Y8672502D01*
X27341876Y8754197D01*
X28535408Y8754197D01*
X29276000Y8013605D01*
X30016592Y8754197D01*
X29957314Y8987812D01*
X29719125Y9098559D01*
X29463907Y9160711D01*
X29201467Y9171876D01*
X28941893Y9131629D01*
X28695158Y9041514D01*
X28594686Y8987812D01*
X28535408Y8754197D01*
X27341876Y8754197D01*
X27287335Y8790640D01*
X27090878Y8872015D01*
X26882321Y8913500D01*
X26669679Y8913500D01*
X26461122Y8872015D01*
X26264665Y8790640D01*
X26087859Y8672502D01*
X25937498Y8522141D01*
X25819360Y8345335D01*
X25737985Y8148878D01*
X25696500Y7940321D01*
X25355500Y7940321D01*
X25314015Y8148878D01*
X25232640Y8345335D01*
X25114502Y8522141D01*
X24964141Y8672502D01*
X24787335Y8790640D01*
X24590878Y8872015D01*
X24382321Y8913500D01*
X24169679Y8913500D01*
X23961122Y8872015D01*
X23764665Y8790640D01*
X23587859Y8672502D01*
X23437498Y8522141D01*
X23319360Y8345335D01*
X23237985Y8148878D01*
X23196500Y7940321D01*
X22855500Y7940321D01*
X22814015Y8148878D01*
X22732640Y8345335D01*
X22614502Y8522141D01*
X22464141Y8672502D01*
X22287335Y8790640D01*
X22090878Y8872015D01*
X21882321Y8913500D01*
X21669679Y8913500D01*
X21461122Y8872015D01*
X21264665Y8790640D01*
X21148804Y8713224D01*
X21168968Y8733388D01*
X21243495Y8844926D01*
X21294830Y8968860D01*
X21321001Y9100427D01*
X21321001Y9234573D01*
X21294830Y9366140D01*
X21260687Y9448571D01*
X25142498Y9448571D01*
X25142498Y9314425D01*
X25168669Y9182858D01*
X25220004Y9058924D01*
X25294531Y8947386D01*
X25389386Y8852531D01*
X25500924Y8778004D01*
X25624858Y8726669D01*
X25756425Y8700498D01*
X25890571Y8700498D01*
X26022138Y8726669D01*
X26146072Y8778004D01*
X26257610Y8852531D01*
X26352465Y8947386D01*
X26426992Y9058924D01*
X26478327Y9182858D01*
X26504498Y9314425D01*
X26504498Y9448571D01*
X26478327Y9580138D01*
X26426992Y9704072D01*
X26352465Y9815610D01*
X26257610Y9910465D01*
X26146072Y9984992D01*
X26022138Y10036327D01*
X25890571Y10062498D01*
X25756425Y10062498D01*
X25624858Y10036327D01*
X25500924Y9984992D01*
X25389386Y9910465D01*
X25294531Y9815610D01*
X25220004Y9704072D01*
X25168669Y9580138D01*
X25142498Y9448571D01*
X21260687Y9448571D01*
X21243495Y9490074D01*
X21168968Y9601612D01*
X21074113Y9696467D01*
X21042207Y9717786D01*
X21137612Y9781533D01*
X21232467Y9876388D01*
X21306994Y9987926D01*
X21358329Y10111860D01*
X21384500Y10243427D01*
X21384500Y10320851D01*
X21457360Y10290671D01*
X21588927Y10264500D01*
X21723073Y10264500D01*
X21854640Y10290671D01*
X21978574Y10342006D01*
X22090112Y10416533D01*
X22184967Y10511388D01*
X22259494Y10622926D01*
X22310829Y10746860D01*
X22337000Y10878427D01*
X22337000Y11012573D01*
X22310829Y11144140D01*
X22259494Y11268074D01*
X22184967Y11379612D01*
X22090112Y11474467D01*
X21978574Y11548994D01*
X21854640Y11600329D01*
X21723073Y11626500D01*
X21588927Y11626500D01*
X21457360Y11600329D01*
X21333426Y11548994D01*
X21221888Y11474467D01*
X21127033Y11379612D01*
X21052506Y11268074D01*
X21001171Y11144140D01*
X20975000Y11012573D01*
X20975000Y10935149D01*
X20902140Y10965329D01*
X20770573Y10991500D01*
X20636427Y10991500D01*
X20504860Y10965329D01*
X20380926Y10913994D01*
X20269388Y10839467D01*
X20174533Y10744612D01*
X20100006Y10633074D01*
X20048671Y10509140D01*
X20022500Y10377573D01*
X20022500Y10243427D01*
X20048671Y10111860D01*
X20100006Y9987926D01*
X20174533Y9876388D01*
X20269388Y9781533D01*
X20301294Y9760214D01*
X20205889Y9696467D01*
X20111034Y9601612D01*
X20036507Y9490074D01*
X19985172Y9366140D01*
X19959001Y9234573D01*
X18544500Y9234573D01*
X18544500Y12727073D01*
X19959000Y12727073D01*
X19959000Y12592927D01*
X19985171Y12461360D01*
X20036506Y12337426D01*
X20111033Y12225888D01*
X20205888Y12131033D01*
X20317426Y12056506D01*
X20441360Y12005171D01*
X20572927Y11979000D01*
X20707073Y11979000D01*
X20838640Y12005171D01*
X20962574Y12056506D01*
X21074112Y12131033D01*
X21168967Y12225888D01*
X21243494Y12337426D01*
X21294829Y12461360D01*
X21321000Y12592927D01*
X21321000Y12727073D01*
X21294829Y12858640D01*
X21243494Y12982574D01*
X21168967Y13094112D01*
X21074112Y13188967D01*
X20962574Y13263494D01*
X20838640Y13314829D01*
X20707073Y13341000D01*
X20572927Y13341000D01*
X20441360Y13314829D01*
X20317426Y13263494D01*
X20205888Y13188967D01*
X20111033Y13094112D01*
X20036506Y12982574D01*
X19985171Y12858640D01*
X19959000Y12727073D01*
X18544500Y12727073D01*
X18544500Y14438000D01*
X20690264Y14438000D01*
X20664867Y14310323D01*
X20664867Y14310323D01*
G37*
X20664867Y14310323D02*
X20664867Y14176177D01*
X20691038Y14044610D01*
X20742373Y13920676D01*
X20816900Y13809138D01*
X20911755Y13714283D01*
X21023293Y13639756D01*
X21147227Y13588421D01*
X21278794Y13562250D01*
X21322610Y13562250D01*
X21322610Y13481927D01*
X21348781Y13350360D01*
X21400116Y13226426D01*
X21474643Y13114888D01*
X21569498Y13020033D01*
X21681036Y12945506D01*
X21804970Y12894171D01*
X21936537Y12868000D01*
X22070683Y12868000D01*
X22202250Y12894171D01*
X22326184Y12945506D01*
X22437722Y13020033D01*
X22532577Y13114888D01*
X22607104Y13226426D01*
X22658439Y13350360D01*
X22684610Y13481927D01*
X22684610Y13616073D01*
X22658439Y13747640D01*
X22607104Y13871574D01*
X22532577Y13983112D01*
X22437722Y14077967D01*
X22326184Y14152494D01*
X22202250Y14203829D01*
X22070683Y14230000D01*
X22026867Y14230000D01*
X22026867Y14310323D01*
X22001470Y14438000D01*
X25528817Y14438000D01*
X31312805Y8654011D01*
X31312805Y8162683D01*
X31309980Y8133999D01*
X31312805Y8105315D01*
X31312805Y8105307D01*
X31321020Y8021907D01*
X31321259Y8019476D01*
X31354664Y7909355D01*
X31359091Y7901073D01*
X31408912Y7807865D01*
X31440350Y7769557D01*
X31463625Y7741196D01*
X31463628Y7741193D01*
X31481916Y7718909D01*
X31504200Y7700621D01*
X31535400Y7669421D01*
X31542175Y7635360D01*
X31593510Y7511426D01*
X31668037Y7399888D01*
X31762892Y7305033D01*
X31831642Y7259096D01*
X28850546Y4278000D01*
X28641000Y4278000D01*
X28633679Y4352329D01*
X28611998Y4423802D01*
X28576790Y4489672D01*
X28529408Y4547408D01*
X27894408Y5182408D01*
X27836672Y5229790D01*
X27770802Y5264998D01*
X27699329Y5286679D01*
X27625000Y5294000D01*
X18544500Y5294000D01*
X18544500Y7038857D01*
X18587859Y6995498D01*
X18764665Y6877360D01*
X18961122Y6795985D01*
X19169679Y6754500D01*
X19382321Y6754500D01*
X19590878Y6795985D01*
X19787335Y6877360D01*
X19964141Y6995498D01*
X20114502Y7145859D01*
X20232640Y7322665D01*
X20314015Y7519122D01*
X20355500Y7727679D01*
X20355500Y7940321D01*
X20314015Y8148878D01*
X20232640Y8345335D01*
X20114502Y8522141D01*
X19964141Y8672502D01*
X19787335Y8790640D01*
X19590878Y8872015D01*
X19382321Y8913500D01*
X19169679Y8913500D01*
X18961122Y8872015D01*
X18764665Y8790640D01*
X18587859Y8672502D01*
X18544500Y8629143D01*
X18544500Y9234573D01*
X19959001Y9234573D01*
X19959001Y9100427D01*
X19985172Y8968860D01*
X20036507Y8844926D01*
X20111034Y8733388D01*
X20205889Y8638533D01*
X20317427Y8564006D01*
X20441361Y8512671D01*
X20572928Y8486500D01*
X20707074Y8486500D01*
X20838641Y8512671D01*
X20962575Y8564006D01*
X21013168Y8597811D01*
X20937498Y8522141D01*
X20819360Y8345335D01*
X20737985Y8148878D01*
X20696500Y7940321D01*
X20696500Y7727679D01*
X20737985Y7519122D01*
X20819360Y7322665D01*
X20937498Y7145859D01*
X21087859Y6995498D01*
X21264665Y6877360D01*
X21461122Y6795985D01*
X21669679Y6754500D01*
X21882321Y6754500D01*
X22090878Y6795985D01*
X22287335Y6877360D01*
X22464141Y6995498D01*
X22614502Y7145859D01*
X22732640Y7322665D01*
X22814015Y7519122D01*
X22855500Y7727679D01*
X22855500Y7940321D01*
X23196500Y7940321D01*
X23196500Y7727679D01*
X23237985Y7519122D01*
X23319360Y7322665D01*
X23437498Y7145859D01*
X23587859Y6995498D01*
X23764665Y6877360D01*
X23961122Y6795985D01*
X24169679Y6754500D01*
X24382321Y6754500D01*
X24590878Y6795985D01*
X24787335Y6877360D01*
X24964141Y6995498D01*
X25114502Y7145859D01*
X25232640Y7322665D01*
X25314015Y7519122D01*
X25355500Y7727679D01*
X25355500Y7940321D01*
X25696500Y7940321D01*
X25696500Y7727679D01*
X25737985Y7519122D01*
X25819360Y7322665D01*
X25937498Y7145859D01*
X26087859Y6995498D01*
X26264665Y6877360D01*
X26461122Y6795985D01*
X26669679Y6754500D01*
X26882321Y6754500D01*
X27090878Y6795985D01*
X27287335Y6877360D01*
X27341875Y6913803D01*
X28535408Y6913803D01*
X28594686Y6680188D01*
X28832875Y6569441D01*
X29088093Y6507289D01*
X29350533Y6496124D01*
X29610107Y6536371D01*
X29856842Y6626486D01*
X29957314Y6680188D01*
X30016592Y6913803D01*
X29276000Y7654395D01*
X28535408Y6913803D01*
X27341875Y6913803D01*
X27464141Y6995498D01*
X27614502Y7145859D01*
X27732640Y7322665D01*
X27814015Y7519122D01*
X27855500Y7727679D01*
X27855500Y7759467D01*
X27938124Y7759467D01*
X27978371Y7499893D01*
X28068486Y7253158D01*
X28122188Y7152686D01*
X28355803Y7093408D01*
X29096395Y7834000D01*
X29455605Y7834000D01*
X30196197Y7093408D01*
X30429812Y7152686D01*
X30540559Y7390875D01*
X30602711Y7646093D01*
X30613876Y7908533D01*
X30573629Y8168107D01*
X30483514Y8414842D01*
X30429812Y8515314D01*
X30196197Y8574592D01*
X29455605Y7834000D01*
X29096395Y7834000D01*
X28355803Y8574592D01*
X28122188Y8515314D01*
X28011441Y8277125D01*
X27949289Y8021907D01*
X27938124Y7759467D01*
X27855500Y7759467D01*
X27855500Y7940321D01*
X27814015Y8148878D01*
X27732640Y8345335D01*
X27614502Y8522141D01*
X27464141Y8672502D01*
X27341876Y8754197D01*
X28535408Y8754197D01*
X29276000Y8013605D01*
X30016592Y8754197D01*
X29957314Y8987812D01*
X29719125Y9098559D01*
X29463907Y9160711D01*
X29201467Y9171876D01*
X28941893Y9131629D01*
X28695158Y9041514D01*
X28594686Y8987812D01*
X28535408Y8754197D01*
X27341876Y8754197D01*
X27287335Y8790640D01*
X27090878Y8872015D01*
X26882321Y8913500D01*
X26669679Y8913500D01*
X26461122Y8872015D01*
X26264665Y8790640D01*
X26087859Y8672502D01*
X25937498Y8522141D01*
X25819360Y8345335D01*
X25737985Y8148878D01*
X25696500Y7940321D01*
X25355500Y7940321D01*
X25314015Y8148878D01*
X25232640Y8345335D01*
X25114502Y8522141D01*
X24964141Y8672502D01*
X24787335Y8790640D01*
X24590878Y8872015D01*
X24382321Y8913500D01*
X24169679Y8913500D01*
X23961122Y8872015D01*
X23764665Y8790640D01*
X23587859Y8672502D01*
X23437498Y8522141D01*
X23319360Y8345335D01*
X23237985Y8148878D01*
X23196500Y7940321D01*
X22855500Y7940321D01*
X22814015Y8148878D01*
X22732640Y8345335D01*
X22614502Y8522141D01*
X22464141Y8672502D01*
X22287335Y8790640D01*
X22090878Y8872015D01*
X21882321Y8913500D01*
X21669679Y8913500D01*
X21461122Y8872015D01*
X21264665Y8790640D01*
X21148804Y8713224D01*
X21168968Y8733388D01*
X21243495Y8844926D01*
X21294830Y8968860D01*
X21321001Y9100427D01*
X21321001Y9234573D01*
X21294830Y9366140D01*
X21260687Y9448571D01*
X25142498Y9448571D01*
X25142498Y9314425D01*
X25168669Y9182858D01*
X25220004Y9058924D01*
X25294531Y8947386D01*
X25389386Y8852531D01*
X25500924Y8778004D01*
X25624858Y8726669D01*
X25756425Y8700498D01*
X25890571Y8700498D01*
X26022138Y8726669D01*
X26146072Y8778004D01*
X26257610Y8852531D01*
X26352465Y8947386D01*
X26426992Y9058924D01*
X26478327Y9182858D01*
X26504498Y9314425D01*
X26504498Y9448571D01*
X26478327Y9580138D01*
X26426992Y9704072D01*
X26352465Y9815610D01*
X26257610Y9910465D01*
X26146072Y9984992D01*
X26022138Y10036327D01*
X25890571Y10062498D01*
X25756425Y10062498D01*
X25624858Y10036327D01*
X25500924Y9984992D01*
X25389386Y9910465D01*
X25294531Y9815610D01*
X25220004Y9704072D01*
X25168669Y9580138D01*
X25142498Y9448571D01*
X21260687Y9448571D01*
X21243495Y9490074D01*
X21168968Y9601612D01*
X21074113Y9696467D01*
X21042207Y9717786D01*
X21137612Y9781533D01*
X21232467Y9876388D01*
X21306994Y9987926D01*
X21358329Y10111860D01*
X21384500Y10243427D01*
X21384500Y10320851D01*
X21457360Y10290671D01*
X21588927Y10264500D01*
X21723073Y10264500D01*
X21854640Y10290671D01*
X21978574Y10342006D01*
X22090112Y10416533D01*
X22184967Y10511388D01*
X22259494Y10622926D01*
X22310829Y10746860D01*
X22337000Y10878427D01*
X22337000Y11012573D01*
X22310829Y11144140D01*
X22259494Y11268074D01*
X22184967Y11379612D01*
X22090112Y11474467D01*
X21978574Y11548994D01*
X21854640Y11600329D01*
X21723073Y11626500D01*
X21588927Y11626500D01*
X21457360Y11600329D01*
X21333426Y11548994D01*
X21221888Y11474467D01*
X21127033Y11379612D01*
X21052506Y11268074D01*
X21001171Y11144140D01*
X20975000Y11012573D01*
X20975000Y10935149D01*
X20902140Y10965329D01*
X20770573Y10991500D01*
X20636427Y10991500D01*
X20504860Y10965329D01*
X20380926Y10913994D01*
X20269388Y10839467D01*
X20174533Y10744612D01*
X20100006Y10633074D01*
X20048671Y10509140D01*
X20022500Y10377573D01*
X20022500Y10243427D01*
X20048671Y10111860D01*
X20100006Y9987926D01*
X20174533Y9876388D01*
X20269388Y9781533D01*
X20301294Y9760214D01*
X20205889Y9696467D01*
X20111034Y9601612D01*
X20036507Y9490074D01*
X19985172Y9366140D01*
X19959001Y9234573D01*
X18544500Y9234573D01*
X18544500Y12727073D01*
X19959000Y12727073D01*
X19959000Y12592927D01*
X19985171Y12461360D01*
X20036506Y12337426D01*
X20111033Y12225888D01*
X20205888Y12131033D01*
X20317426Y12056506D01*
X20441360Y12005171D01*
X20572927Y11979000D01*
X20707073Y11979000D01*
X20838640Y12005171D01*
X20962574Y12056506D01*
X21074112Y12131033D01*
X21168967Y12225888D01*
X21243494Y12337426D01*
X21294829Y12461360D01*
X21321000Y12592927D01*
X21321000Y12727073D01*
X21294829Y12858640D01*
X21243494Y12982574D01*
X21168967Y13094112D01*
X21074112Y13188967D01*
X20962574Y13263494D01*
X20838640Y13314829D01*
X20707073Y13341000D01*
X20572927Y13341000D01*
X20441360Y13314829D01*
X20317426Y13263494D01*
X20205888Y13188967D01*
X20111033Y13094112D01*
X20036506Y12982574D01*
X19985171Y12858640D01*
X19959000Y12727073D01*
X18544500Y12727073D01*
X18544500Y14438000D01*
X20690264Y14438000D01*
X20664867Y14310323D01*
G36*
X10861000Y26980184D02*
G01*
X10861000Y26122000D01*
X10868321Y26047671D01*
X10890002Y25976198D01*
X10925210Y25910328D01*
X10972592Y25852592D01*
X11020684Y25804500D01*
X9908500Y25804500D01*
X9834171Y25797179D01*
X9762698Y25775498D01*
X9696828Y25740290D01*
X9639092Y25692908D01*
X9131092Y25184908D01*
X9083710Y25127172D01*
X9048502Y25061302D01*
X9026821Y24989829D01*
X9019500Y24915500D01*
X9019500Y17168500D01*
X9026821Y17094171D01*
X9048502Y17022698D01*
X9083710Y16956828D01*
X9131092Y16899092D01*
X11480592Y14549592D01*
X11538328Y14502210D01*
X11604198Y14467002D01*
X11675671Y14445321D01*
X11750000Y14438000D01*
X17528500Y14438000D01*
X17528501Y8608142D01*
X17464141Y8672502D01*
X17287335Y8790640D01*
X17090878Y8872015D01*
X16882321Y8913500D01*
X16669679Y8913500D01*
X16461122Y8872015D01*
X16264665Y8790640D01*
X16087859Y8672502D01*
X15937498Y8522141D01*
X15819360Y8345335D01*
X15737985Y8148878D01*
X15696500Y7940321D01*
X15696500Y7727679D01*
X15737985Y7519122D01*
X15819360Y7322665D01*
X15937498Y7145859D01*
X16087859Y6995498D01*
X16264665Y6877360D01*
X16461122Y6795985D01*
X16669679Y6754500D01*
X16882321Y6754500D01*
X17090878Y6795985D01*
X17287335Y6877360D01*
X17464141Y6995498D01*
X17528501Y7059858D01*
X17528501Y5294000D01*
X5176816Y5294000D01*
X4765000Y5705816D01*
X4765000Y7352505D01*
X4777360Y7322665D01*
X4895498Y7145859D01*
X5045859Y6995498D01*
X5222665Y6877360D01*
X5419122Y6795985D01*
X5627679Y6754500D01*
X5840321Y6754500D01*
X6048878Y6795985D01*
X6245335Y6877360D01*
X6422141Y6995498D01*
X6572502Y7145859D01*
X6690640Y7322665D01*
X6772015Y7519122D01*
X6813500Y7727679D01*
X6813500Y7940321D01*
X7154500Y7940321D01*
X7154500Y7727679D01*
X7195985Y7519122D01*
X7277360Y7322665D01*
X7395498Y7145859D01*
X7545859Y6995498D01*
X7722665Y6877360D01*
X7919122Y6795985D01*
X8127679Y6754500D01*
X8340321Y6754500D01*
X8548878Y6795985D01*
X8745335Y6877360D01*
X8922141Y6995498D01*
X9072502Y7145859D01*
X9190640Y7322665D01*
X9272015Y7519122D01*
X9313500Y7727679D01*
X9313500Y7940321D01*
X9654500Y7940321D01*
X9654500Y7727679D01*
X9695985Y7519122D01*
X9777360Y7322665D01*
X9895498Y7145859D01*
X10045859Y6995498D01*
X10222665Y6877360D01*
X10419122Y6795985D01*
X10627679Y6754500D01*
X10840321Y6754500D01*
X11048878Y6795985D01*
X11245335Y6877360D01*
X11422141Y6995498D01*
X11572502Y7145859D01*
X11690640Y7322665D01*
X11772015Y7519122D01*
X11813500Y7727679D01*
X11813500Y7940321D01*
X11772015Y8148878D01*
X11690640Y8345335D01*
X11572502Y8522141D01*
X11422141Y8672502D01*
X11245335Y8790640D01*
X11048878Y8872015D01*
X10840321Y8913500D01*
X10627679Y8913500D01*
X10419122Y8872015D01*
X10222665Y8790640D01*
X10045859Y8672502D01*
X9895498Y8522141D01*
X9777360Y8345335D01*
X9695985Y8148878D01*
X9654500Y7940321D01*
X9313500Y7940321D01*
X9272015Y8148878D01*
X9190640Y8345335D01*
X9072502Y8522141D01*
X8922141Y8672502D01*
X8745335Y8790640D01*
X8548878Y8872015D01*
X8340321Y8913500D01*
X8127679Y8913500D01*
X7919122Y8872015D01*
X7722665Y8790640D01*
X7545859Y8672502D01*
X7395498Y8522141D01*
X7277360Y8345335D01*
X7195985Y8148878D01*
X7154500Y7940321D01*
X6813500Y7940321D01*
X6772015Y8148878D01*
X6690640Y8345335D01*
X6572502Y8522141D01*
X6422141Y8672502D01*
X6245335Y8790640D01*
X6048878Y8872015D01*
X5840321Y8913500D01*
X5627679Y8913500D01*
X5419122Y8872015D01*
X5222665Y8790640D01*
X5045859Y8672502D01*
X4895498Y8522141D01*
X4777360Y8345335D01*
X4765000Y8315495D01*
X4765000Y13274321D01*
X6098500Y13274321D01*
X6098500Y13061679D01*
X6139985Y12853122D01*
X6221360Y12656665D01*
X6339498Y12479859D01*
X6489859Y12329498D01*
X6666665Y12211360D01*
X6863122Y12129985D01*
X7071679Y12088500D01*
X7284321Y12088500D01*
X7492878Y12129985D01*
X7689335Y12211360D01*
X7866141Y12329498D01*
X7882716Y12346073D01*
X15895000Y12346073D01*
X15895000Y12211927D01*
X15921171Y12080360D01*
X15972506Y11956426D01*
X16047033Y11844888D01*
X16141888Y11750033D01*
X16253426Y11675506D01*
X16377360Y11624171D01*
X16508927Y11598000D01*
X16643073Y11598000D01*
X16774640Y11624171D01*
X16898574Y11675506D01*
X17010112Y11750033D01*
X17104967Y11844888D01*
X17179494Y11956426D01*
X17230829Y12080360D01*
X17257000Y12211927D01*
X17257000Y12346073D01*
X17230829Y12477640D01*
X17179494Y12601574D01*
X17104967Y12713112D01*
X17010112Y12807967D01*
X16898574Y12882494D01*
X16774640Y12933829D01*
X16643073Y12960000D01*
X16508927Y12960000D01*
X16377360Y12933829D01*
X16253426Y12882494D01*
X16141888Y12807967D01*
X16047033Y12713112D01*
X15972506Y12601574D01*
X15921171Y12477640D01*
X15895000Y12346073D01*
X7882716Y12346073D01*
X8016502Y12479859D01*
X8134640Y12656665D01*
X8216015Y12853122D01*
X8257500Y13061679D01*
X8257500Y13274321D01*
X8216015Y13482878D01*
X8134640Y13679335D01*
X8016502Y13856141D01*
X7866141Y14006502D01*
X7689335Y14124640D01*
X7492878Y14206015D01*
X7284321Y14247500D01*
X7071679Y14247500D01*
X6863122Y14206015D01*
X6666665Y14124640D01*
X6489859Y14006502D01*
X6339498Y13856141D01*
X6221360Y13679335D01*
X6139985Y13482878D01*
X6098500Y13274321D01*
X4765000Y13274321D01*
X4765000Y15774321D01*
X6098500Y15774321D01*
X6098500Y15561679D01*
X6139985Y15353122D01*
X6221360Y15156665D01*
X6339498Y14979859D01*
X6489859Y14829498D01*
X6666665Y14711360D01*
X6863122Y14629985D01*
X7071679Y14588500D01*
X7284321Y14588500D01*
X7492878Y14629985D01*
X7689335Y14711360D01*
X7866141Y14829498D01*
X8016502Y14979859D01*
X8134640Y15156665D01*
X8216015Y15353122D01*
X8257500Y15561679D01*
X8257500Y15774321D01*
X8216015Y15982878D01*
X8134640Y16179335D01*
X8016502Y16356141D01*
X7866141Y16506502D01*
X7689335Y16624640D01*
X7492878Y16706015D01*
X7284321Y16747500D01*
X7071679Y16747500D01*
X6863122Y16706015D01*
X6666665Y16624640D01*
X6489859Y16506502D01*
X6339498Y16356141D01*
X6221360Y16179335D01*
X6139985Y15982878D01*
X6098500Y15774321D01*
X4765000Y15774321D01*
X4765000Y18274321D01*
X6098500Y18274321D01*
X6098500Y18061679D01*
X6139985Y17853122D01*
X6221360Y17656665D01*
X6339498Y17479859D01*
X6489859Y17329498D01*
X6666665Y17211360D01*
X6863122Y17129985D01*
X7071679Y17088500D01*
X7284321Y17088500D01*
X7492878Y17129985D01*
X7689335Y17211360D01*
X7866141Y17329498D01*
X8016502Y17479859D01*
X8134640Y17656665D01*
X8216015Y17853122D01*
X8257500Y18061679D01*
X8257500Y18274321D01*
X8216015Y18482878D01*
X8134640Y18679335D01*
X8016502Y18856141D01*
X7866141Y19006502D01*
X7689335Y19124640D01*
X7492878Y19206015D01*
X7284321Y19247500D01*
X7071679Y19247500D01*
X6863122Y19206015D01*
X6666665Y19124640D01*
X6489859Y19006502D01*
X6339498Y18856141D01*
X6221360Y18679335D01*
X6139985Y18482878D01*
X6098500Y18274321D01*
X4765000Y18274321D01*
X4765000Y20774321D01*
X6098500Y20774321D01*
X6098500Y20561679D01*
X6139985Y20353122D01*
X6221360Y20156665D01*
X6339498Y19979859D01*
X6489859Y19829498D01*
X6666665Y19711360D01*
X6863122Y19629985D01*
X7071679Y19588500D01*
X7284321Y19588500D01*
X7492878Y19629985D01*
X7689335Y19711360D01*
X7866141Y19829498D01*
X8016502Y19979859D01*
X8134640Y20156665D01*
X8216015Y20353122D01*
X8257500Y20561679D01*
X8257500Y20774321D01*
X8216015Y20982878D01*
X8134640Y21179335D01*
X8016502Y21356141D01*
X7866141Y21506502D01*
X7689335Y21624640D01*
X7492878Y21706015D01*
X7284321Y21747500D01*
X7071679Y21747500D01*
X6863122Y21706015D01*
X6666665Y21624640D01*
X6489859Y21506502D01*
X6339498Y21356141D01*
X6221360Y21179335D01*
X6139985Y20982878D01*
X6098500Y20774321D01*
X4765000Y20774321D01*
X4765000Y23274321D01*
X6098500Y23274321D01*
X6098500Y23061679D01*
X6139985Y22853122D01*
X6221360Y22656665D01*
X6339498Y22479859D01*
X6489859Y22329498D01*
X6666665Y22211360D01*
X6863122Y22129985D01*
X7071679Y22088500D01*
X7284321Y22088500D01*
X7492878Y22129985D01*
X7689335Y22211360D01*
X7866141Y22329498D01*
X8016502Y22479859D01*
X8134640Y22656665D01*
X8216015Y22853122D01*
X8257500Y23061679D01*
X8257500Y23274321D01*
X8216015Y23482878D01*
X8134640Y23679335D01*
X8016502Y23856141D01*
X7866141Y24006502D01*
X7689335Y24124640D01*
X7492878Y24206015D01*
X7284321Y24247500D01*
X7071679Y24247500D01*
X6863122Y24206015D01*
X6666665Y24124640D01*
X6489859Y24006502D01*
X6339498Y23856141D01*
X6221360Y23679335D01*
X6139985Y23482878D01*
X6098500Y23274321D01*
X4765000Y23274321D01*
X4765000Y25774321D01*
X6098500Y25774321D01*
X6098500Y25561679D01*
X6139985Y25353122D01*
X6221360Y25156665D01*
X6339498Y24979859D01*
X6489859Y24829498D01*
X6666665Y24711360D01*
X6863122Y24629985D01*
X7071679Y24588500D01*
X7284321Y24588500D01*
X7492878Y24629985D01*
X7689335Y24711360D01*
X7866141Y24829498D01*
X8016502Y24979859D01*
X8134640Y25156665D01*
X8216015Y25353122D01*
X8257500Y25561679D01*
X8257500Y25774321D01*
X8216015Y25982878D01*
X8134640Y26179335D01*
X8016502Y26356141D01*
X7866141Y26506502D01*
X7689335Y26624640D01*
X7492878Y26706015D01*
X7284321Y26747500D01*
X7071679Y26747500D01*
X6863122Y26706015D01*
X6666665Y26624640D01*
X6489859Y26506502D01*
X6339498Y26356141D01*
X6221360Y26179335D01*
X6139985Y25982878D01*
X6098500Y25774321D01*
X4765000Y25774321D01*
X4765000Y26218184D01*
X5684816Y27138000D01*
X10703184Y27138000D01*
X10861000Y26980184D01*
X10861000Y26980184D01*
G37*
X10861000Y26980184D02*
X10861000Y26122000D01*
X10868321Y26047671D01*
X10890002Y25976198D01*
X10925210Y25910328D01*
X10972592Y25852592D01*
X11020684Y25804500D01*
X9908500Y25804500D01*
X9834171Y25797179D01*
X9762698Y25775498D01*
X9696828Y25740290D01*
X9639092Y25692908D01*
X9131092Y25184908D01*
X9083710Y25127172D01*
X9048502Y25061302D01*
X9026821Y24989829D01*
X9019500Y24915500D01*
X9019500Y17168500D01*
X9026821Y17094171D01*
X9048502Y17022698D01*
X9083710Y16956828D01*
X9131092Y16899092D01*
X11480592Y14549592D01*
X11538328Y14502210D01*
X11604198Y14467002D01*
X11675671Y14445321D01*
X11750000Y14438000D01*
X17528500Y14438000D01*
X17528501Y8608142D01*
X17464141Y8672502D01*
X17287335Y8790640D01*
X17090878Y8872015D01*
X16882321Y8913500D01*
X16669679Y8913500D01*
X16461122Y8872015D01*
X16264665Y8790640D01*
X16087859Y8672502D01*
X15937498Y8522141D01*
X15819360Y8345335D01*
X15737985Y8148878D01*
X15696500Y7940321D01*
X15696500Y7727679D01*
X15737985Y7519122D01*
X15819360Y7322665D01*
X15937498Y7145859D01*
X16087859Y6995498D01*
X16264665Y6877360D01*
X16461122Y6795985D01*
X16669679Y6754500D01*
X16882321Y6754500D01*
X17090878Y6795985D01*
X17287335Y6877360D01*
X17464141Y6995498D01*
X17528501Y7059858D01*
X17528501Y5294000D01*
X5176816Y5294000D01*
X4765000Y5705816D01*
X4765000Y7352505D01*
X4777360Y7322665D01*
X4895498Y7145859D01*
X5045859Y6995498D01*
X5222665Y6877360D01*
X5419122Y6795985D01*
X5627679Y6754500D01*
X5840321Y6754500D01*
X6048878Y6795985D01*
X6245335Y6877360D01*
X6422141Y6995498D01*
X6572502Y7145859D01*
X6690640Y7322665D01*
X6772015Y7519122D01*
X6813500Y7727679D01*
X6813500Y7940321D01*
X7154500Y7940321D01*
X7154500Y7727679D01*
X7195985Y7519122D01*
X7277360Y7322665D01*
X7395498Y7145859D01*
X7545859Y6995498D01*
X7722665Y6877360D01*
X7919122Y6795985D01*
X8127679Y6754500D01*
X8340321Y6754500D01*
X8548878Y6795985D01*
X8745335Y6877360D01*
X8922141Y6995498D01*
X9072502Y7145859D01*
X9190640Y7322665D01*
X9272015Y7519122D01*
X9313500Y7727679D01*
X9313500Y7940321D01*
X9654500Y7940321D01*
X9654500Y7727679D01*
X9695985Y7519122D01*
X9777360Y7322665D01*
X9895498Y7145859D01*
X10045859Y6995498D01*
X10222665Y6877360D01*
X10419122Y6795985D01*
X10627679Y6754500D01*
X10840321Y6754500D01*
X11048878Y6795985D01*
X11245335Y6877360D01*
X11422141Y6995498D01*
X11572502Y7145859D01*
X11690640Y7322665D01*
X11772015Y7519122D01*
X11813500Y7727679D01*
X11813500Y7940321D01*
X11772015Y8148878D01*
X11690640Y8345335D01*
X11572502Y8522141D01*
X11422141Y8672502D01*
X11245335Y8790640D01*
X11048878Y8872015D01*
X10840321Y8913500D01*
X10627679Y8913500D01*
X10419122Y8872015D01*
X10222665Y8790640D01*
X10045859Y8672502D01*
X9895498Y8522141D01*
X9777360Y8345335D01*
X9695985Y8148878D01*
X9654500Y7940321D01*
X9313500Y7940321D01*
X9272015Y8148878D01*
X9190640Y8345335D01*
X9072502Y8522141D01*
X8922141Y8672502D01*
X8745335Y8790640D01*
X8548878Y8872015D01*
X8340321Y8913500D01*
X8127679Y8913500D01*
X7919122Y8872015D01*
X7722665Y8790640D01*
X7545859Y8672502D01*
X7395498Y8522141D01*
X7277360Y8345335D01*
X7195985Y8148878D01*
X7154500Y7940321D01*
X6813500Y7940321D01*
X6772015Y8148878D01*
X6690640Y8345335D01*
X6572502Y8522141D01*
X6422141Y8672502D01*
X6245335Y8790640D01*
X6048878Y8872015D01*
X5840321Y8913500D01*
X5627679Y8913500D01*
X5419122Y8872015D01*
X5222665Y8790640D01*
X5045859Y8672502D01*
X4895498Y8522141D01*
X4777360Y8345335D01*
X4765000Y8315495D01*
X4765000Y13274321D01*
X6098500Y13274321D01*
X6098500Y13061679D01*
X6139985Y12853122D01*
X6221360Y12656665D01*
X6339498Y12479859D01*
X6489859Y12329498D01*
X6666665Y12211360D01*
X6863122Y12129985D01*
X7071679Y12088500D01*
X7284321Y12088500D01*
X7492878Y12129985D01*
X7689335Y12211360D01*
X7866141Y12329498D01*
X7882716Y12346073D01*
X15895000Y12346073D01*
X15895000Y12211927D01*
X15921171Y12080360D01*
X15972506Y11956426D01*
X16047033Y11844888D01*
X16141888Y11750033D01*
X16253426Y11675506D01*
X16377360Y11624171D01*
X16508927Y11598000D01*
X16643073Y11598000D01*
X16774640Y11624171D01*
X16898574Y11675506D01*
X17010112Y11750033D01*
X17104967Y11844888D01*
X17179494Y11956426D01*
X17230829Y12080360D01*
X17257000Y12211927D01*
X17257000Y12346073D01*
X17230829Y12477640D01*
X17179494Y12601574D01*
X17104967Y12713112D01*
X17010112Y12807967D01*
X16898574Y12882494D01*
X16774640Y12933829D01*
X16643073Y12960000D01*
X16508927Y12960000D01*
X16377360Y12933829D01*
X16253426Y12882494D01*
X16141888Y12807967D01*
X16047033Y12713112D01*
X15972506Y12601574D01*
X15921171Y12477640D01*
X15895000Y12346073D01*
X7882716Y12346073D01*
X8016502Y12479859D01*
X8134640Y12656665D01*
X8216015Y12853122D01*
X8257500Y13061679D01*
X8257500Y13274321D01*
X8216015Y13482878D01*
X8134640Y13679335D01*
X8016502Y13856141D01*
X7866141Y14006502D01*
X7689335Y14124640D01*
X7492878Y14206015D01*
X7284321Y14247500D01*
X7071679Y14247500D01*
X6863122Y14206015D01*
X6666665Y14124640D01*
X6489859Y14006502D01*
X6339498Y13856141D01*
X6221360Y13679335D01*
X6139985Y13482878D01*
X6098500Y13274321D01*
X4765000Y13274321D01*
X4765000Y15774321D01*
X6098500Y15774321D01*
X6098500Y15561679D01*
X6139985Y15353122D01*
X6221360Y15156665D01*
X6339498Y14979859D01*
X6489859Y14829498D01*
X6666665Y14711360D01*
X6863122Y14629985D01*
X7071679Y14588500D01*
X7284321Y14588500D01*
X7492878Y14629985D01*
X7689335Y14711360D01*
X7866141Y14829498D01*
X8016502Y14979859D01*
X8134640Y15156665D01*
X8216015Y15353122D01*
X8257500Y15561679D01*
X8257500Y15774321D01*
X8216015Y15982878D01*
X8134640Y16179335D01*
X8016502Y16356141D01*
X7866141Y16506502D01*
X7689335Y16624640D01*
X7492878Y16706015D01*
X7284321Y16747500D01*
X7071679Y16747500D01*
X6863122Y16706015D01*
X6666665Y16624640D01*
X6489859Y16506502D01*
X6339498Y16356141D01*
X6221360Y16179335D01*
X6139985Y15982878D01*
X6098500Y15774321D01*
X4765000Y15774321D01*
X4765000Y18274321D01*
X6098500Y18274321D01*
X6098500Y18061679D01*
X6139985Y17853122D01*
X6221360Y17656665D01*
X6339498Y17479859D01*
X6489859Y17329498D01*
X6666665Y17211360D01*
X6863122Y17129985D01*
X7071679Y17088500D01*
X7284321Y17088500D01*
X7492878Y17129985D01*
X7689335Y17211360D01*
X7866141Y17329498D01*
X8016502Y17479859D01*
X8134640Y17656665D01*
X8216015Y17853122D01*
X8257500Y18061679D01*
X8257500Y18274321D01*
X8216015Y18482878D01*
X8134640Y18679335D01*
X8016502Y18856141D01*
X7866141Y19006502D01*
X7689335Y19124640D01*
X7492878Y19206015D01*
X7284321Y19247500D01*
X7071679Y19247500D01*
X6863122Y19206015D01*
X6666665Y19124640D01*
X6489859Y19006502D01*
X6339498Y18856141D01*
X6221360Y18679335D01*
X6139985Y18482878D01*
X6098500Y18274321D01*
X4765000Y18274321D01*
X4765000Y20774321D01*
X6098500Y20774321D01*
X6098500Y20561679D01*
X6139985Y20353122D01*
X6221360Y20156665D01*
X6339498Y19979859D01*
X6489859Y19829498D01*
X6666665Y19711360D01*
X6863122Y19629985D01*
X7071679Y19588500D01*
X7284321Y19588500D01*
X7492878Y19629985D01*
X7689335Y19711360D01*
X7866141Y19829498D01*
X8016502Y19979859D01*
X8134640Y20156665D01*
X8216015Y20353122D01*
X8257500Y20561679D01*
X8257500Y20774321D01*
X8216015Y20982878D01*
X8134640Y21179335D01*
X8016502Y21356141D01*
X7866141Y21506502D01*
X7689335Y21624640D01*
X7492878Y21706015D01*
X7284321Y21747500D01*
X7071679Y21747500D01*
X6863122Y21706015D01*
X6666665Y21624640D01*
X6489859Y21506502D01*
X6339498Y21356141D01*
X6221360Y21179335D01*
X6139985Y20982878D01*
X6098500Y20774321D01*
X4765000Y20774321D01*
X4765000Y23274321D01*
X6098500Y23274321D01*
X6098500Y23061679D01*
X6139985Y22853122D01*
X6221360Y22656665D01*
X6339498Y22479859D01*
X6489859Y22329498D01*
X6666665Y22211360D01*
X6863122Y22129985D01*
X7071679Y22088500D01*
X7284321Y22088500D01*
X7492878Y22129985D01*
X7689335Y22211360D01*
X7866141Y22329498D01*
X8016502Y22479859D01*
X8134640Y22656665D01*
X8216015Y22853122D01*
X8257500Y23061679D01*
X8257500Y23274321D01*
X8216015Y23482878D01*
X8134640Y23679335D01*
X8016502Y23856141D01*
X7866141Y24006502D01*
X7689335Y24124640D01*
X7492878Y24206015D01*
X7284321Y24247500D01*
X7071679Y24247500D01*
X6863122Y24206015D01*
X6666665Y24124640D01*
X6489859Y24006502D01*
X6339498Y23856141D01*
X6221360Y23679335D01*
X6139985Y23482878D01*
X6098500Y23274321D01*
X4765000Y23274321D01*
X4765000Y25774321D01*
X6098500Y25774321D01*
X6098500Y25561679D01*
X6139985Y25353122D01*
X6221360Y25156665D01*
X6339498Y24979859D01*
X6489859Y24829498D01*
X6666665Y24711360D01*
X6863122Y24629985D01*
X7071679Y24588500D01*
X7284321Y24588500D01*
X7492878Y24629985D01*
X7689335Y24711360D01*
X7866141Y24829498D01*
X8016502Y24979859D01*
X8134640Y25156665D01*
X8216015Y25353122D01*
X8257500Y25561679D01*
X8257500Y25774321D01*
X8216015Y25982878D01*
X8134640Y26179335D01*
X8016502Y26356141D01*
X7866141Y26506502D01*
X7689335Y26624640D01*
X7492878Y26706015D01*
X7284321Y26747500D01*
X7071679Y26747500D01*
X6863122Y26706015D01*
X6666665Y26624640D01*
X6489859Y26506502D01*
X6339498Y26356141D01*
X6221360Y26179335D01*
X6139985Y25982878D01*
X6098500Y25774321D01*
X4765000Y25774321D01*
X4765000Y26218184D01*
X5684816Y27138000D01*
X10703184Y27138000D01*
X10861000Y26980184D01*
G36*
X27698888Y16004533D02*
G01*
X27810426Y15930006D01*
X27934360Y15878671D01*
X28065927Y15852500D01*
X28095580Y15852500D01*
X32316005Y11632075D01*
X32316006Y9306320D01*
X32312095Y9311085D01*
X32289812Y9329371D01*
X26656500Y14962684D01*
X27698619Y16004802D01*
X27698888Y16004533D01*
X27698888Y16004533D01*
G37*
X27698888Y16004533D02*
X27810426Y15930006D01*
X27934360Y15878671D01*
X28065927Y15852500D01*
X28095580Y15852500D01*
X32316005Y11632075D01*
X32316006Y9306320D01*
X32312095Y9311085D01*
X32289812Y9329371D01*
X26656500Y14962684D01*
X27698619Y16004802D01*
X27698888Y16004533D01*
G36*
X20942092Y23185592D02*
G01*
X20999828Y23138210D01*
X21065698Y23103002D01*
X21137171Y23081321D01*
X21211500Y23074000D01*
X22862501Y23074000D01*
X22862500Y21994500D01*
X20118320Y21994500D01*
X20158214Y22034394D01*
X20039044Y22153564D01*
X20232263Y22164075D01*
X20303062Y22334103D01*
X20339328Y22514676D01*
X20339671Y22698855D01*
X20304074Y22879561D01*
X20233908Y23049851D01*
X20232263Y23052925D01*
X20092056Y23060552D01*
X20064108Y23088500D01*
X20092056Y23116448D01*
X20232263Y23124075D01*
X20303062Y23294103D01*
X20339328Y23474676D01*
X20339671Y23658855D01*
X20329793Y23709000D01*
X20418684Y23709000D01*
X20942092Y23185592D01*
X20942092Y23185592D01*
G37*
X20942092Y23185592D02*
X20999828Y23138210D01*
X21065698Y23103002D01*
X21137171Y23081321D01*
X21211500Y23074000D01*
X22862501Y23074000D01*
X22862500Y21994500D01*
X20118320Y21994500D01*
X20158214Y22034394D01*
X20039044Y22153564D01*
X20232263Y22164075D01*
X20303062Y22334103D01*
X20339328Y22514676D01*
X20339671Y22698855D01*
X20304074Y22879561D01*
X20233908Y23049851D01*
X20232263Y23052925D01*
X20092056Y23060552D01*
X20064108Y23088500D01*
X20092056Y23116448D01*
X20232263Y23124075D01*
X20303062Y23294103D01*
X20339328Y23474676D01*
X20339671Y23658855D01*
X20329793Y23709000D01*
X20418684Y23709000D01*
X20942092Y23185592D01*
G36*
X19598248Y22622642D02*
G01*
X19584105Y22608500D01*
X19598248Y22594357D01*
X19418643Y22414752D01*
X19404500Y22428895D01*
X19390358Y22414752D01*
X19210753Y22594357D01*
X19224895Y22608500D01*
X19210753Y22622642D01*
X19224127Y22636017D01*
X19283044Y22639222D01*
X19310676Y22633672D01*
X19494855Y22633329D01*
X19572304Y22648586D01*
X19598248Y22622642D01*
X19598248Y22622642D01*
G37*
X19598248Y22622642D02*
X19584105Y22608500D01*
X19598248Y22594357D01*
X19418643Y22414752D01*
X19404500Y22428895D01*
X19390358Y22414752D01*
X19210753Y22594357D01*
X19224895Y22608500D01*
X19210753Y22622642D01*
X19224127Y22636017D01*
X19283044Y22639222D01*
X19310676Y22633672D01*
X19494855Y22633329D01*
X19572304Y22648586D01*
X19598248Y22622642D01*
G36*
X17590676Y22633672D02*
G01*
X17774855Y22633329D01*
X17805025Y22639272D01*
X17864873Y22636017D01*
X17878248Y22622642D01*
X17864105Y22608500D01*
X17878248Y22594357D01*
X17698643Y22414752D01*
X17684500Y22428895D01*
X17670358Y22414752D01*
X17490753Y22594357D01*
X17504895Y22608500D01*
X17490753Y22622642D01*
X17516650Y22648540D01*
X17590676Y22633672D01*
X17590676Y22633672D01*
G37*
X17590676Y22633672D02*
X17774855Y22633329D01*
X17805025Y22639272D01*
X17864873Y22636017D01*
X17878248Y22622642D01*
X17864105Y22608500D01*
X17878248Y22594357D01*
X17698643Y22414752D01*
X17684500Y22428895D01*
X17670358Y22414752D01*
X17490753Y22594357D01*
X17504895Y22608500D01*
X17490753Y22622642D01*
X17516650Y22648540D01*
X17590676Y22633672D01*
G36*
X18575092Y23127149D02*
G01*
X18576737Y23124075D01*
X18716944Y23116448D01*
X18734499Y23098893D01*
X18724105Y23088500D01*
X18734499Y23078106D01*
X18716944Y23060552D01*
X18576737Y23052925D01*
X18544521Y22975555D01*
X18513908Y23049851D01*
X18512263Y23052925D01*
X18372056Y23060552D01*
X18354502Y23078106D01*
X18364895Y23088500D01*
X18354502Y23098893D01*
X18372056Y23116448D01*
X18512263Y23124075D01*
X18544479Y23201445D01*
X18575092Y23127149D01*
X18575092Y23127149D01*
G37*
X18575092Y23127149D02*
X18576737Y23124075D01*
X18716944Y23116448D01*
X18734499Y23098893D01*
X18724105Y23088500D01*
X18734499Y23078106D01*
X18716944Y23060552D01*
X18576737Y23052925D01*
X18544521Y22975555D01*
X18513908Y23049851D01*
X18512263Y23052925D01*
X18372056Y23060552D01*
X18354502Y23078106D01*
X18364895Y23088500D01*
X18354502Y23098893D01*
X18372056Y23116448D01*
X18512263Y23124075D01*
X18544479Y23201445D01*
X18575092Y23127149D01*
G36*
X19224198Y23738002D02*
G01*
X19295671Y23716321D01*
X19370000Y23709000D01*
X19471890Y23709000D01*
X19598248Y23582642D01*
X19584105Y23568500D01*
X19598248Y23554357D01*
X19572351Y23528461D01*
X19498324Y23543328D01*
X19314145Y23543671D01*
X19283975Y23537728D01*
X19224127Y23540983D01*
X19210753Y23554357D01*
X19224895Y23568500D01*
X19214502Y23578893D01*
X19298214Y23662606D01*
X19221233Y23739587D01*
X19224198Y23738002D01*
X19224198Y23738002D01*
G37*
X19224198Y23738002D02*
X19295671Y23716321D01*
X19370000Y23709000D01*
X19471890Y23709000D01*
X19598248Y23582642D01*
X19584105Y23568500D01*
X19598248Y23554357D01*
X19572351Y23528461D01*
X19498324Y23543328D01*
X19314145Y23543671D01*
X19283975Y23537728D01*
X19224127Y23540983D01*
X19210753Y23554357D01*
X19224895Y23568500D01*
X19214502Y23578893D01*
X19298214Y23662606D01*
X19221233Y23739587D01*
X19224198Y23738002D01*
M02*
