G04 #@! TF.GenerationSoftware,KiCad,Pcbnew,(5.1.2)-1*
G04 #@! TF.CreationDate,2020-12-24T11:55:47-05:00*
G04 #@! TF.ProjectId,Glove PCB,476c6f76-6520-4504-9342-2e6b69636164,rev?*
G04 #@! TF.SameCoordinates,PX1312d00PYb80f240*
G04 #@! TF.FileFunction,Copper,L4,Bot*
G04 #@! TF.FilePolarity,Positive*
%FSLAX46Y46*%
G04 Gerber Fmt 4.6, Leading zero omitted, Abs format (unit mm)*
G04 Created by KiCad (PCBNEW (5.1.2)-1) date 2020-12-24 11:55:47*
%MOMM*%
%LPD*%
G04 APERTURE LIST*
%ADD10R,0.650000X1.060000*%
%ADD11R,0.750000X1.200000*%
%ADD12C,1.397000*%
%ADD13R,0.600000X0.450000*%
%ADD14C,0.600000*%
%ADD15R,0.700000X0.280000*%
%ADD16R,2.400000X1.650000*%
%ADD17R,0.280000X0.850000*%
%ADD18R,0.900000X1.200000*%
%ADD19R,1.200000X0.900000*%
%ADD20R,1.500000X1.300000*%
%ADD21R,1.200000X0.750000*%
%ADD22R,1.250000X1.500000*%
%ADD23O,1.000000X1.550000*%
%ADD24O,1.250000X0.950000*%
%ADD25R,1.600000X3.000000*%
%ADD26R,1.000000X5.500000*%
%ADD27R,0.900000X0.800000*%
%ADD28R,0.800000X0.900000*%
%ADD29R,1.050000X0.600000*%
%ADD30R,0.575000X0.650000*%
%ADD31R,1.700000X1.700000*%
%ADD32O,1.700000X1.700000*%
%ADD33C,0.254000*%
%ADD34C,0.203200*%
G04 APERTURE END LIST*
D10*
X11999000Y26439500D03*
X10099000Y26439500D03*
X10099000Y24239500D03*
X11049000Y24239500D03*
X11999000Y24239500D03*
D11*
X21719500Y22441500D03*
X21719500Y24341500D03*
D12*
X7178000Y25668000D03*
X7178000Y23168000D03*
X7178000Y20668000D03*
X7178000Y18168000D03*
X7178000Y15668000D03*
X7178000Y13168000D03*
D13*
X10294000Y32726000D03*
X8194000Y32726000D03*
D14*
X18544500Y23088500D03*
X19404500Y22608500D03*
X17684500Y22608500D03*
X19404500Y23568500D03*
X17684500Y23568500D03*
D15*
X20094500Y22838500D03*
X16994500Y22838500D03*
X20094500Y23338500D03*
X16994500Y23338500D03*
D16*
X18544500Y23088500D03*
D17*
X17544500Y21613500D03*
X18044500Y21613500D03*
X18544500Y21613500D03*
X19044500Y21613500D03*
X19544500Y21613500D03*
X19544500Y24563500D03*
X19044500Y24563500D03*
X18544500Y24563500D03*
X18044500Y24563500D03*
X17544500Y24563500D03*
D18*
X26799500Y3856000D03*
X26799500Y6056000D03*
X24259500Y3813000D03*
X24259500Y6013000D03*
X21783000Y3856000D03*
X21783000Y6056000D03*
X19243000Y3856000D03*
X19243000Y6056000D03*
X16766500Y3856000D03*
X16766500Y6056000D03*
X10734000Y3813000D03*
X10734000Y6013000D03*
X8194000Y3813000D03*
X8194000Y6013000D03*
X5781000Y3856000D03*
X5781000Y6056000D03*
X3241000Y3897000D03*
X3241000Y6097000D03*
D19*
X3200000Y13168000D03*
X5400000Y13168000D03*
X3200000Y15644500D03*
X5400000Y15644500D03*
X3200000Y18184500D03*
X5400000Y18184500D03*
X3200000Y20661000D03*
X5400000Y20661000D03*
X3157000Y23201000D03*
X5357000Y23201000D03*
X3200000Y25677500D03*
X5400000Y25677500D03*
X15306000Y20216500D03*
X13106000Y20216500D03*
D18*
X16830000Y19899000D03*
X16830000Y17699000D03*
X18290500Y17699000D03*
X18290500Y19899000D03*
D19*
X20132000Y20153000D03*
X22332000Y20153000D03*
D18*
X43563500Y34162500D03*
X43563500Y36362500D03*
X40833000Y34176000D03*
X40833000Y36376000D03*
D20*
X18989000Y26503000D03*
X16289000Y26503000D03*
D21*
X12006500Y27963500D03*
X13906500Y27963500D03*
D22*
X15179000Y21971000D03*
X15179000Y24471000D03*
D21*
X13406000Y18819500D03*
X15306000Y18819500D03*
D12*
X16776000Y7834000D03*
X19276000Y7834000D03*
X21776000Y7834000D03*
X24276000Y7834000D03*
X26776000Y7834000D03*
X29276000Y7834000D03*
X3114000Y30948000D03*
X5614000Y30948000D03*
X8114000Y30948000D03*
X10614000Y30948000D03*
X3234000Y7834000D03*
X5734000Y7834000D03*
X8234000Y7834000D03*
X10734000Y7834000D03*
D21*
X19150000Y29046000D03*
X17250000Y29046000D03*
D11*
X13528000Y26373500D03*
X13528000Y24473500D03*
D23*
X23750000Y36350000D03*
X30750000Y36350000D03*
D24*
X24750000Y33650000D03*
X29750000Y33650000D03*
D25*
X14850000Y35250000D03*
X21650000Y35250000D03*
D26*
X17250000Y33000000D03*
X19250000Y33000000D03*
D27*
X27500000Y28200000D03*
X27500000Y26300000D03*
X25500000Y27250000D03*
D28*
X4450000Y36377000D03*
X6350000Y36377000D03*
X5400000Y34377000D03*
X9403000Y36377000D03*
X11303000Y36377000D03*
X10353000Y34377000D03*
D29*
X21148000Y26630000D03*
X21148000Y27580000D03*
X21148000Y28530000D03*
X23848000Y28530000D03*
X23848000Y26630000D03*
D30*
X24837500Y25614000D03*
X24062500Y25614000D03*
D13*
X5400000Y32726000D03*
X3300000Y32726000D03*
D31*
X40604400Y17790800D03*
D32*
X43144400Y17790800D03*
X40604400Y15250800D03*
X43144400Y15250800D03*
X40604400Y12710800D03*
X43144400Y12710800D03*
X40604400Y10170800D03*
X43144400Y10170800D03*
X40604400Y7630800D03*
X43144400Y7630800D03*
X40604400Y5090800D03*
X43144400Y5090800D03*
X40604400Y2550800D03*
X43144400Y2550800D03*
D30*
X27187000Y31329000D03*
X26412000Y31329000D03*
X28789001Y31329000D03*
X28014001Y31329000D03*
D14*
X45000000Y24000000D03*
X20322500Y33869000D03*
X20322500Y34948500D03*
X14800000Y24900000D03*
X13528000Y24788500D03*
X12004000Y24153500D03*
X13528000Y24090000D03*
X12448500Y23328000D03*
X13083500Y23328000D03*
X10734000Y17676500D03*
X12004000Y17676500D03*
X33340000Y36790000D03*
X32197004Y7834000D03*
X25339000Y18248000D03*
X25294597Y18965597D03*
X32070018Y24725000D03*
X20675000Y15576402D03*
X22037000Y15576402D03*
X16304034Y22185000D03*
X11813500Y23328000D03*
X13106000Y20216500D03*
X10099000Y24239500D03*
X45250000Y32500000D03*
X44500000Y32500000D03*
X44500000Y30500000D03*
X45250000Y30500000D03*
X45250000Y29750000D03*
X44500000Y29750000D03*
X30355500Y1801500D03*
X29403000Y1801500D03*
X31498500Y1801500D03*
X28387000Y1801500D03*
X14290000Y5611500D03*
X13337500Y5611500D03*
X15433000Y5611500D03*
X12321500Y5611500D03*
X34673500Y20978500D03*
X16195000Y32853000D03*
X16195000Y33869000D03*
X16195000Y30757500D03*
X16195000Y34948500D03*
X16195000Y31773500D03*
X15179000Y30757500D03*
X15179000Y31773500D03*
X15179000Y32853000D03*
X15179000Y29678000D03*
X17211000Y34948500D03*
X17211000Y33869000D03*
X17211000Y32853000D03*
X17211000Y31773500D03*
X17211000Y30757500D03*
X42230000Y33805500D03*
X45151000Y33869000D03*
X33467000Y21740500D03*
X33340000Y21105500D03*
X33975000Y20915000D03*
X27625000Y29360500D03*
X15179000Y28662000D03*
X14671000Y26757000D03*
X11049000Y24239500D03*
X20195500Y27582500D03*
X11369000Y14057000D03*
X12194500Y14057000D03*
X11877000Y13422000D03*
X16400000Y9700000D03*
X17247500Y10183500D03*
X20703500Y13485500D03*
X20894000Y11580500D03*
X27600000Y10500000D03*
X28069500Y11707500D03*
X31879500Y10501000D03*
X28514000Y10501000D03*
X25529500Y1357000D03*
X24577000Y1357000D03*
X23497500Y1357000D03*
X22481500Y1357000D03*
X21338500Y1357000D03*
X20386000Y1357000D03*
X19370000Y1357000D03*
X20449500Y6056000D03*
X22989500Y6119500D03*
X18671500Y9040500D03*
X41277500Y19391000D03*
X43754000Y19581500D03*
X42801500Y21613500D03*
X33500000Y31750000D03*
X35750000Y31750000D03*
X35750000Y32500000D03*
X35000000Y32500000D03*
X33500000Y32500000D03*
X34250000Y32500000D03*
X33500000Y31000000D03*
X33467000Y27646000D03*
X4511000Y29614500D03*
X5527000Y29614500D03*
X6416000Y29614500D03*
X10289500Y29614500D03*
X21275000Y21994500D03*
X28387000Y27265000D03*
X26500000Y25250000D03*
X27500000Y25250000D03*
X22332000Y20153000D03*
X33912500Y22746000D03*
X33150500Y22746000D03*
X35500000Y23000000D03*
X25974000Y29043000D03*
X26228000Y30440000D03*
X24000000Y29500000D03*
X26250000Y29750000D03*
X23750000Y28530000D03*
X20322500Y32789500D03*
X21338500Y32789500D03*
X20259000Y29741500D03*
X19306500Y32853000D03*
X20322500Y30757500D03*
X19306500Y33869000D03*
X20322500Y31773500D03*
X19306500Y30757500D03*
X19306500Y34948500D03*
X19306500Y31773500D03*
X21338500Y29741500D03*
X21338500Y30757500D03*
X21338500Y31773500D03*
X32200000Y36700000D03*
X12004000Y3770000D03*
X12766000Y3770000D03*
X7051000Y3643000D03*
X4511000Y3643000D03*
X3241000Y14311000D03*
X3241000Y16851000D03*
X3241000Y19518000D03*
X3241000Y22058000D03*
X3241000Y24471000D03*
X23053000Y3770000D03*
X27879000Y3770000D03*
X12006500Y27963500D03*
X19179500Y18565500D03*
X28133000Y16533500D03*
X40833000Y36238500D03*
X43563500Y36225000D03*
X25823498Y9381498D03*
X19746197Y16178002D03*
X19751000Y16978000D03*
X11204718Y16721702D03*
X40005894Y23709009D03*
X40261500Y976000D03*
X11995226Y16844608D03*
X21345867Y14243250D03*
X23255995Y17854331D03*
X40834354Y23732952D03*
X24323000Y19645000D03*
X24196000Y20534000D03*
X39436000Y21042000D03*
X22545000Y21296000D03*
X20640000Y12660000D03*
X16576000Y12279000D03*
X21656000Y10945500D03*
X20703500Y10310500D03*
X20640001Y9167500D03*
X24132492Y17942655D03*
X22003610Y13549000D03*
X4450000Y36377000D03*
X9403000Y36377000D03*
X40833000Y32535500D03*
X43563500Y32535500D03*
X22418000Y26756998D03*
X38420000Y23772500D03*
X33254000Y18750000D03*
X41627124Y23840352D03*
X27173400Y32073398D03*
X36218100Y16025500D03*
X27976600Y32073398D03*
X35414900Y16025500D03*
D33*
X13406000Y19916500D02*
X13106000Y20216500D01*
X13406000Y18819500D02*
X13406000Y19916500D01*
X32070018Y35520018D02*
X32070018Y25149264D01*
X33340000Y36790000D02*
X32070018Y35520018D01*
X32070018Y25149264D02*
X32070018Y24725000D01*
X18044500Y22588500D02*
X18544500Y23088500D01*
X18044500Y21613500D02*
X18044500Y22588500D01*
X18544500Y24563500D02*
X18544500Y23088500D01*
X13528000Y26373500D02*
X14287500Y26373500D01*
X14287500Y26373500D02*
X14671000Y26757000D01*
X14480500Y27963500D02*
X15179000Y28662000D01*
X13906500Y27963500D02*
X14480500Y27963500D01*
X21148000Y27580000D02*
X20198000Y27580000D01*
X20198000Y27580000D02*
X20195500Y27582500D01*
X17454500Y22838500D02*
X17684500Y22608500D01*
X16994500Y22838500D02*
X17454500Y22838500D01*
X21719500Y22441500D02*
X21719500Y22439000D01*
X21719500Y22439000D02*
X21275000Y21994500D01*
D34*
X25328200Y25614000D02*
X26979200Y27265000D01*
X24837500Y25614000D02*
X25328200Y25614000D01*
X26979200Y27265000D02*
X28387000Y27265000D01*
D33*
X8194000Y31028000D02*
X8114000Y30948000D01*
X8194000Y32726000D02*
X8194000Y31028000D01*
X3300000Y31134000D02*
X3114000Y30948000D01*
X3300000Y32726000D02*
X3300000Y31134000D01*
D34*
X20771800Y37475000D02*
X31067500Y37475000D01*
X19250000Y33000000D02*
X19250000Y35953200D01*
X19250000Y35953200D02*
X20771800Y37475000D01*
X31067500Y37475000D02*
X31425000Y37475000D01*
X31425000Y37475000D02*
X32200000Y36700000D01*
X23096000Y3813000D02*
X23053000Y3770000D01*
X24259500Y3813000D02*
X23096000Y3813000D01*
D33*
X24259500Y7817500D02*
X24276000Y7834000D01*
X24259500Y6013000D02*
X24259500Y7817500D01*
D34*
X23154498Y16178002D02*
X20170461Y16178002D01*
X25823498Y9381498D02*
X25823498Y13509002D01*
X20170461Y16178002D02*
X19746197Y16178002D01*
X25823498Y13509002D02*
X23154498Y16178002D01*
X26776000Y7834000D02*
X26776000Y8175000D01*
D33*
X26847000Y7905000D02*
X26776000Y7834000D01*
X26799500Y7810500D02*
X26776000Y7834000D01*
X26799500Y6056000D02*
X26799500Y7810500D01*
D34*
X26847000Y13055726D02*
X22924726Y16978000D01*
X20175264Y16978000D02*
X19751000Y16978000D01*
X26847000Y7905000D02*
X26847000Y13055726D01*
X22924726Y16978000D02*
X20175264Y16978000D01*
X9591000Y15107984D02*
X10904719Y16421703D01*
X41756001Y3939199D02*
X41756001Y1327501D01*
X10904719Y16421703D02*
X11204718Y16721702D01*
X12579719Y374399D02*
X9591000Y3363118D01*
X40802899Y374399D02*
X12579719Y374399D01*
X41756001Y1327501D02*
X40802899Y374399D01*
X40604400Y5090800D02*
X41756001Y3939199D01*
X9591000Y3363118D02*
X9591000Y15107984D01*
X42294401Y11020799D02*
X43144400Y10170800D01*
X41992799Y11322401D02*
X42294401Y11020799D01*
X41992799Y21723701D02*
X41992799Y11322401D01*
X40007491Y23709009D02*
X41992799Y21723701D01*
X40005894Y23709009D02*
X40007491Y23709009D01*
X27371000Y976000D02*
X39837236Y976000D01*
X39837236Y976000D02*
X40261500Y976000D01*
X25372688Y8217462D02*
X25372688Y2974312D01*
X21345867Y12244283D02*
X25372688Y8217462D01*
X25372688Y2974312D02*
X27371000Y976000D01*
X21345867Y14243250D02*
X21345867Y12244283D01*
X12295225Y16544609D02*
X11995226Y16844608D01*
X14596584Y14243250D02*
X12295225Y16544609D01*
X21345867Y14243250D02*
X14596584Y14243250D01*
X24023001Y19345001D02*
X24323000Y19645000D01*
X23255995Y17854331D02*
X23255995Y18577995D01*
X23255995Y18577995D02*
X24023001Y19345001D01*
X29184893Y11501169D02*
X23255995Y17430067D01*
X43144400Y7630800D02*
X41992799Y6479199D01*
X40051631Y6479199D02*
X39452799Y7078031D01*
X39452799Y7078031D02*
X33873632Y7078031D01*
X33873632Y7078031D02*
X29450494Y11501169D01*
X23255995Y17430067D02*
X23255995Y17854331D01*
X41992799Y6479199D02*
X40051631Y6479199D01*
X29450494Y11501169D02*
X29184893Y11501169D01*
X40834354Y24157216D02*
X40834354Y23732952D01*
X41138139Y24461001D02*
X40834354Y24157216D01*
X42747999Y24461001D02*
X41138139Y24461001D01*
X45151000Y22058000D02*
X42747999Y24461001D01*
X43144400Y7630800D02*
X45151000Y9637400D01*
X45151000Y9637400D02*
X45151000Y22058000D01*
X40604400Y10170800D02*
X38467611Y12307589D01*
X24620264Y20534000D02*
X24196000Y20534000D01*
X26205789Y18948475D02*
X24620264Y20534000D01*
X26205789Y15985485D02*
X26205789Y18948475D01*
X38467611Y12307589D02*
X29883685Y12307589D01*
X29883685Y12307589D02*
X26205789Y15985485D01*
X39436000Y13879200D02*
X39436000Y20617736D01*
X39436000Y20617736D02*
X39436000Y21042000D01*
X40604400Y12710800D02*
X39436000Y13879200D01*
X39402319Y12710800D02*
X40604400Y12710800D01*
X30050700Y12710800D02*
X39402319Y12710800D01*
X24705362Y21296000D02*
X26609000Y19392362D01*
X22545000Y21296000D02*
X24705362Y21296000D01*
X26609000Y19392362D02*
X26609000Y16152500D01*
X26609000Y16152500D02*
X30050700Y12710800D01*
D33*
X8194000Y7794000D02*
X8234000Y7834000D01*
X8194000Y6013000D02*
X8194000Y7794000D01*
D34*
X20259000Y12279000D02*
X20640000Y12660000D01*
X16576000Y12279000D02*
X20259000Y12279000D01*
X13845500Y10945500D02*
X21231736Y10945500D01*
X10734000Y7834000D02*
X13845500Y10945500D01*
X21231736Y10945500D02*
X21656000Y10945500D01*
D33*
X10734000Y6013000D02*
X10734000Y7834000D01*
X16766500Y7824500D02*
X16776000Y7834000D01*
X16766500Y6056000D02*
X16766500Y7824500D01*
D34*
X20279236Y10310500D02*
X20703500Y10310500D01*
X18989000Y10310500D02*
X20279236Y10310500D01*
X16776000Y7834000D02*
X16776000Y8097500D01*
X16776000Y8097500D02*
X18989000Y10310500D01*
X19276000Y7834000D02*
X20609500Y9167500D01*
X20609500Y9167500D02*
X20640001Y9167500D01*
D33*
X19243000Y7801000D02*
X19276000Y7834000D01*
X19243000Y6056000D02*
X19243000Y7801000D01*
X21783000Y7827000D02*
X21776000Y7834000D01*
X21783000Y6056000D02*
X21783000Y7827000D01*
D34*
X24132492Y17518391D02*
X24132492Y17942655D01*
X40604400Y7630800D02*
X36330822Y11904378D01*
X36330822Y11904378D02*
X29716669Y11904379D01*
X29716669Y11904379D02*
X24132492Y17488556D01*
X24132492Y17488556D02*
X24132492Y17518391D01*
X38597800Y2550800D02*
X40604400Y2550800D01*
X38496200Y2550800D02*
X38597800Y2550800D01*
X26532318Y2550800D02*
X25775899Y3307219D01*
X25775899Y3307219D02*
X25775899Y8413101D01*
X22003610Y13124736D02*
X22003610Y13549000D01*
X22003610Y12185390D02*
X22003610Y13124736D01*
X25775899Y8413101D02*
X22003610Y12185390D01*
X38597800Y2550800D02*
X26532318Y2550800D01*
D33*
X5781000Y7787000D02*
X5734000Y7834000D01*
X5781000Y6056000D02*
X5781000Y7787000D01*
X3241000Y7827000D02*
X3234000Y7834000D01*
X3241000Y6097000D02*
X3241000Y7827000D01*
X5400000Y13168000D02*
X7178000Y13168000D01*
X7154500Y15644500D02*
X7178000Y15668000D01*
X5400000Y15644500D02*
X7154500Y15644500D01*
X7161500Y18184500D02*
X7178000Y18168000D01*
X5400000Y18184500D02*
X7161500Y18184500D01*
X7171000Y20661000D02*
X7178000Y20668000D01*
X5400000Y20661000D02*
X7171000Y20661000D01*
X7145000Y23201000D02*
X7178000Y23168000D01*
X5357000Y23201000D02*
X7145000Y23201000D01*
X7168500Y25677500D02*
X7178000Y25668000D01*
X5400000Y25677500D02*
X7168500Y25677500D01*
D34*
X40833000Y32535500D02*
X40833000Y34313500D01*
X43563500Y32535500D02*
X43563500Y34300000D01*
D33*
X21148000Y26630000D02*
X22291002Y26630000D01*
X22291002Y26630000D02*
X22418000Y26756998D01*
D34*
X23848000Y25828500D02*
X24062500Y25614000D01*
X23848000Y26630000D02*
X23848000Y25828500D01*
D33*
X5654000Y30908000D02*
X5614000Y30948000D01*
X5400000Y34377000D02*
X5400000Y32726000D01*
X5614000Y32512000D02*
X5400000Y32726000D01*
X5614000Y30948000D02*
X5614000Y32512000D01*
X11088000Y30948000D02*
X10614000Y30948000D01*
X10734000Y30828000D02*
X10614000Y30948000D01*
X10353000Y32785000D02*
X10294000Y32726000D01*
X10353000Y34377000D02*
X10353000Y32785000D01*
X10294000Y31268000D02*
X10614000Y30948000D01*
X10294000Y32726000D02*
X10294000Y31268000D01*
D34*
X38420000Y23348236D02*
X38420000Y23772500D01*
X38420000Y23072630D02*
X38420000Y23348236D01*
X34097370Y18750000D02*
X38420000Y23072630D01*
X33254000Y18750000D02*
X34097370Y18750000D01*
X41927123Y23540353D02*
X41627124Y23840352D01*
X44579500Y20887976D02*
X41927123Y23540353D01*
X43144400Y12710800D02*
X44579500Y14145900D01*
X44579500Y14145900D02*
X44579500Y20887976D01*
D33*
X36045100Y14787810D02*
X36045100Y15852500D01*
X29174400Y29075310D02*
X29174400Y16184810D01*
X29174400Y16184810D02*
X31213310Y14145900D01*
X31213310Y14145900D02*
X35403190Y14145900D01*
X35403190Y14145900D02*
X36045100Y14787810D01*
X36045100Y15852500D02*
X36218100Y16025500D01*
X27346400Y30903310D02*
X29174400Y29075310D01*
X27173400Y32073398D02*
X27346400Y31900398D01*
X27346400Y31900398D02*
X27346400Y30903310D01*
D34*
X27371000Y30927910D02*
X27346400Y30903310D01*
X27371000Y31202000D02*
X27371000Y30927910D01*
X27187000Y31329000D02*
X27244000Y31329000D01*
X27244000Y31329000D02*
X27371000Y31202000D01*
D33*
X35587900Y15852500D02*
X35414900Y16025500D01*
X35587900Y14977190D02*
X35587900Y15852500D01*
X35213810Y14603100D02*
X35587900Y14977190D01*
X31402690Y14603100D02*
X35213810Y14603100D01*
X29631600Y16374190D02*
X31402690Y14603100D01*
X29631600Y29264690D02*
X29631600Y16374190D01*
X27803600Y31092690D02*
X29631600Y29264690D01*
X27976600Y32073398D02*
X27803600Y31900398D01*
X27803600Y31900398D02*
X27803600Y31092690D01*
X16830000Y20899000D02*
X16830000Y19899000D01*
X17544500Y21613500D02*
X16830000Y20899000D01*
X15750500Y18819500D02*
X16830000Y19899000D01*
X15306000Y18819500D02*
X15750500Y18819500D01*
X16512500Y20216500D02*
X16830000Y19899000D01*
X15306000Y20216500D02*
X16512500Y20216500D01*
X15306000Y18819500D02*
X15306000Y20216500D01*
X19044500Y26447500D02*
X18989000Y26503000D01*
X19044500Y24563500D02*
X19044500Y26447500D01*
X16784000Y26503000D02*
X16289000Y26503000D01*
X18044500Y24563500D02*
X18044500Y25242500D01*
X18044500Y25242500D02*
X16784000Y26503000D01*
X18544500Y20153000D02*
X18544500Y21613500D01*
X18290500Y19899000D02*
X18544500Y20153000D01*
X19044500Y20653000D02*
X19044500Y21613500D01*
X18290500Y19899000D02*
X19044500Y20653000D01*
X20132000Y20343500D02*
X20132000Y20153000D01*
X19814500Y20661000D02*
X20132000Y20343500D01*
X19814500Y20664500D02*
X19814500Y20661000D01*
X19544500Y21613500D02*
X19544500Y20934500D01*
X19544500Y20934500D02*
X19814500Y20664500D01*
X19878000Y19899000D02*
X20132000Y20153000D01*
X18290500Y19899000D02*
X19878000Y19899000D01*
G36*
X18119000Y28344500D02*
G01*
X18121091Y28304641D01*
X18136148Y28231485D01*
X18165187Y28162673D01*
X18207093Y28100848D01*
X18260255Y28048386D01*
X18600391Y27773000D01*
X18100000Y27773000D01*
X18025671Y27765679D01*
X17954198Y27743998D01*
X17888328Y27708790D01*
X17830592Y27661408D01*
X17661939Y27492755D01*
X17368952Y27702032D01*
X17293302Y27743998D01*
X17221829Y27765679D01*
X17147500Y27773000D01*
X15560000Y27773000D01*
X15485671Y27765679D01*
X15414198Y27743998D01*
X15348328Y27708790D01*
X15290592Y27661408D01*
X15036592Y27407408D01*
X14989210Y27349672D01*
X14954002Y27283802D01*
X14932321Y27212329D01*
X14925000Y27138000D01*
X14925000Y25868000D01*
X14931254Y25804500D01*
X12987316Y25804500D01*
X13035408Y25852592D01*
X13082790Y25910328D01*
X13117998Y25976198D01*
X13139679Y26047671D01*
X13147000Y26122000D01*
X13147000Y28662000D01*
X13139679Y28736329D01*
X13117998Y28807802D01*
X13082790Y28873672D01*
X13035408Y28931408D01*
X12527408Y29439408D01*
X12469672Y29486790D01*
X12403802Y29521998D01*
X12332329Y29543679D01*
X12258000Y29551000D01*
X4638000Y29551000D01*
X4563671Y29543679D01*
X4492198Y29521998D01*
X4426328Y29486790D01*
X4368592Y29439408D01*
X1574592Y26645408D01*
X1527210Y26587672D01*
X1492002Y26521802D01*
X1470321Y26450329D01*
X1463000Y26376000D01*
X1463000Y3770000D01*
X1470321Y3695671D01*
X1492002Y3624198D01*
X1527210Y3558328D01*
X1574592Y3500592D01*
X2590592Y2484592D01*
X2648328Y2437210D01*
X2714198Y2402002D01*
X2785671Y2380321D01*
X2860000Y2373000D01*
X9898619Y2373000D01*
X11865618Y406000D01*
X406000Y406000D01*
X406000Y31054321D01*
X2034500Y31054321D01*
X2034500Y30841679D01*
X2075985Y30633122D01*
X2157360Y30436665D01*
X2275498Y30259859D01*
X2425859Y30109498D01*
X2602665Y29991360D01*
X2799122Y29909985D01*
X3007679Y29868500D01*
X3220321Y29868500D01*
X3428878Y29909985D01*
X3625335Y29991360D01*
X3802141Y30109498D01*
X3952502Y30259859D01*
X4070640Y30436665D01*
X4152015Y30633122D01*
X4193500Y30841679D01*
X4193500Y31054321D01*
X4534500Y31054321D01*
X4534500Y30841679D01*
X4575985Y30633122D01*
X4657360Y30436665D01*
X4775498Y30259859D01*
X4925859Y30109498D01*
X5102665Y29991360D01*
X5299122Y29909985D01*
X5507679Y29868500D01*
X5720321Y29868500D01*
X5928878Y29909985D01*
X6125335Y29991360D01*
X6302141Y30109498D01*
X6452502Y30259859D01*
X6570640Y30436665D01*
X6652015Y30633122D01*
X6693500Y30841679D01*
X6693500Y31054321D01*
X7034500Y31054321D01*
X7034500Y30841679D01*
X7075985Y30633122D01*
X7157360Y30436665D01*
X7275498Y30259859D01*
X7425859Y30109498D01*
X7602665Y29991360D01*
X7799122Y29909985D01*
X8007679Y29868500D01*
X8220321Y29868500D01*
X8428878Y29909985D01*
X8625335Y29991360D01*
X8802141Y30109498D01*
X8952502Y30259859D01*
X9070640Y30436665D01*
X9152015Y30633122D01*
X9193500Y30841679D01*
X9193500Y31054321D01*
X9534500Y31054321D01*
X9534500Y30841679D01*
X9575985Y30633122D01*
X9657360Y30436665D01*
X9775498Y30259859D01*
X9925859Y30109498D01*
X10102665Y29991360D01*
X10299122Y29909985D01*
X10507679Y29868500D01*
X10720321Y29868500D01*
X10928878Y29909985D01*
X11125335Y29991360D01*
X11302141Y30109498D01*
X11452502Y30259859D01*
X11570640Y30436665D01*
X11652015Y30633122D01*
X11693500Y30841679D01*
X11693500Y31054321D01*
X11652015Y31262878D01*
X11570640Y31459335D01*
X11452502Y31636141D01*
X11302141Y31786502D01*
X11125335Y31904640D01*
X10928878Y31986015D01*
X10802000Y32011253D01*
X10802000Y32180168D01*
X10806696Y32182678D01*
X10864711Y32230289D01*
X10912322Y32288304D01*
X10947701Y32354492D01*
X10969487Y32426311D01*
X10976843Y32501000D01*
X10976843Y32951000D01*
X10969487Y33025689D01*
X10947701Y33097508D01*
X10912322Y33163696D01*
X10864711Y33221711D01*
X10861000Y33224756D01*
X10861000Y33561618D01*
X10899508Y33573299D01*
X10965696Y33608678D01*
X11023711Y33656289D01*
X11071322Y33714304D01*
X11106701Y33780492D01*
X11128487Y33852311D01*
X11135843Y33927000D01*
X11135843Y34827000D01*
X11128487Y34901689D01*
X11106701Y34973508D01*
X11071322Y35039696D01*
X11023711Y35097711D01*
X10965696Y35145322D01*
X10899508Y35180701D01*
X10827689Y35202487D01*
X10753000Y35209843D01*
X9953000Y35209843D01*
X9878311Y35202487D01*
X9806492Y35180701D01*
X9740304Y35145322D01*
X9682289Y35097711D01*
X9634678Y35039696D01*
X9599299Y34973508D01*
X9577513Y34901689D01*
X9570157Y34827000D01*
X9570157Y33927000D01*
X9577513Y33852311D01*
X9599299Y33780492D01*
X9634678Y33714304D01*
X9682289Y33656289D01*
X9740304Y33608678D01*
X9806492Y33573299D01*
X9845001Y33561618D01*
X9845001Y33303369D01*
X9781304Y33269322D01*
X9723289Y33221711D01*
X9675678Y33163696D01*
X9640299Y33097508D01*
X9618513Y33025689D01*
X9611157Y32951000D01*
X9611157Y32501000D01*
X9618513Y32426311D01*
X9640299Y32354492D01*
X9675678Y32288304D01*
X9723289Y32230289D01*
X9781304Y32182678D01*
X9786000Y32180168D01*
X9786001Y31646644D01*
X9775498Y31636141D01*
X9657360Y31459335D01*
X9575985Y31262878D01*
X9534500Y31054321D01*
X9193500Y31054321D01*
X9152015Y31262878D01*
X9070640Y31459335D01*
X8952502Y31636141D01*
X8802141Y31786502D01*
X8702000Y31853414D01*
X8702000Y32180168D01*
X8706696Y32182678D01*
X8764711Y32230289D01*
X8812322Y32288304D01*
X8847701Y32354492D01*
X8869487Y32426311D01*
X8876843Y32501000D01*
X8876843Y32951000D01*
X8869487Y33025689D01*
X8847701Y33097508D01*
X8812322Y33163696D01*
X8764711Y33221711D01*
X8706696Y33269322D01*
X8640508Y33304701D01*
X8568689Y33326487D01*
X8494000Y33333843D01*
X7894000Y33333843D01*
X7819311Y33326487D01*
X7747492Y33304701D01*
X7681304Y33269322D01*
X7623289Y33221711D01*
X7575678Y33163696D01*
X7540299Y33097508D01*
X7518513Y33025689D01*
X7511157Y32951000D01*
X7511157Y32501000D01*
X7518513Y32426311D01*
X7540299Y32354492D01*
X7575678Y32288304D01*
X7623289Y32230289D01*
X7681304Y32182678D01*
X7686000Y32180168D01*
X7686000Y31939159D01*
X7602665Y31904640D01*
X7425859Y31786502D01*
X7275498Y31636141D01*
X7157360Y31459335D01*
X7075985Y31262878D01*
X7034500Y31054321D01*
X6693500Y31054321D01*
X6652015Y31262878D01*
X6570640Y31459335D01*
X6452502Y31636141D01*
X6302141Y31786502D01*
X6125335Y31904640D01*
X6122000Y31906021D01*
X6122000Y32487056D01*
X6124457Y32512000D01*
X6121207Y32544998D01*
X6114649Y32611585D01*
X6085601Y32707343D01*
X6082843Y32712503D01*
X6082843Y32951000D01*
X6075487Y33025689D01*
X6053701Y33097508D01*
X6018322Y33163696D01*
X5970711Y33221711D01*
X5912696Y33269322D01*
X5908000Y33271832D01*
X5908000Y33561618D01*
X5946508Y33573299D01*
X6012696Y33608678D01*
X6070711Y33656289D01*
X6118322Y33714304D01*
X6153701Y33780492D01*
X6175487Y33852311D01*
X6182843Y33927000D01*
X6182843Y34827000D01*
X6175487Y34901689D01*
X6153701Y34973508D01*
X6118322Y35039696D01*
X6070711Y35097711D01*
X6012696Y35145322D01*
X5946508Y35180701D01*
X5874689Y35202487D01*
X5800000Y35209843D01*
X5000000Y35209843D01*
X4925311Y35202487D01*
X4853492Y35180701D01*
X4787304Y35145322D01*
X4729289Y35097711D01*
X4681678Y35039696D01*
X4646299Y34973508D01*
X4624513Y34901689D01*
X4617157Y34827000D01*
X4617157Y33927000D01*
X4624513Y33852311D01*
X4646299Y33780492D01*
X4681678Y33714304D01*
X4729289Y33656289D01*
X4787304Y33608678D01*
X4853492Y33573299D01*
X4892000Y33561618D01*
X4892001Y33271832D01*
X4887304Y33269322D01*
X4829289Y33221711D01*
X4781678Y33163696D01*
X4746299Y33097508D01*
X4724513Y33025689D01*
X4717157Y32951000D01*
X4717157Y32501000D01*
X4724513Y32426311D01*
X4746299Y32354492D01*
X4781678Y32288304D01*
X4829289Y32230289D01*
X4887304Y32182678D01*
X4953492Y32147299D01*
X5025311Y32125513D01*
X5100000Y32118157D01*
X5106001Y32118157D01*
X5106001Y31906022D01*
X5102665Y31904640D01*
X4925859Y31786502D01*
X4775498Y31636141D01*
X4657360Y31459335D01*
X4575985Y31262878D01*
X4534500Y31054321D01*
X4193500Y31054321D01*
X4152015Y31262878D01*
X4070640Y31459335D01*
X3952502Y31636141D01*
X3808000Y31780643D01*
X3808000Y32180168D01*
X3812696Y32182678D01*
X3870711Y32230289D01*
X3918322Y32288304D01*
X3953701Y32354492D01*
X3975487Y32426311D01*
X3982843Y32501000D01*
X3982843Y32951000D01*
X3975487Y33025689D01*
X3953701Y33097508D01*
X3918322Y33163696D01*
X3870711Y33221711D01*
X3812696Y33269322D01*
X3746508Y33304701D01*
X3674689Y33326487D01*
X3600000Y33333843D01*
X3000000Y33333843D01*
X2925311Y33326487D01*
X2853492Y33304701D01*
X2787304Y33269322D01*
X2729289Y33221711D01*
X2681678Y33163696D01*
X2646299Y33097508D01*
X2624513Y33025689D01*
X2617157Y32951000D01*
X2617157Y32501000D01*
X2624513Y32426311D01*
X2646299Y32354492D01*
X2681678Y32288304D01*
X2729289Y32230289D01*
X2787304Y32182678D01*
X2792000Y32180168D01*
X2792000Y31983065D01*
X2602665Y31904640D01*
X2425859Y31786502D01*
X2275498Y31636141D01*
X2157360Y31459335D01*
X2075985Y31262878D01*
X2034500Y31054321D01*
X406000Y31054321D01*
X406000Y36827000D01*
X3667157Y36827000D01*
X3667157Y35927000D01*
X3674513Y35852311D01*
X3696299Y35780492D01*
X3731678Y35714304D01*
X3779289Y35656289D01*
X3837304Y35608678D01*
X3903492Y35573299D01*
X3975311Y35551513D01*
X4050000Y35544157D01*
X4850000Y35544157D01*
X4924689Y35551513D01*
X4996508Y35573299D01*
X5062696Y35608678D01*
X5120711Y35656289D01*
X5168322Y35714304D01*
X5203701Y35780492D01*
X5225487Y35852311D01*
X5232843Y35927000D01*
X5232843Y36827000D01*
X8620157Y36827000D01*
X8620157Y35927000D01*
X8627513Y35852311D01*
X8649299Y35780492D01*
X8684678Y35714304D01*
X8732289Y35656289D01*
X8790304Y35608678D01*
X8856492Y35573299D01*
X8928311Y35551513D01*
X9003000Y35544157D01*
X9803000Y35544157D01*
X9877689Y35551513D01*
X9949508Y35573299D01*
X10015696Y35608678D01*
X10073711Y35656289D01*
X10121322Y35714304D01*
X10156701Y35780492D01*
X10178487Y35852311D01*
X10185843Y35927000D01*
X10185843Y36750000D01*
X13667157Y36750000D01*
X13667157Y33750000D01*
X13674513Y33675311D01*
X13696299Y33603492D01*
X13731678Y33537304D01*
X13779289Y33479289D01*
X13837304Y33431678D01*
X13903492Y33396299D01*
X13975311Y33374513D01*
X14050000Y33367157D01*
X15650000Y33367157D01*
X15724689Y33374513D01*
X15796508Y33396299D01*
X15862696Y33431678D01*
X15920711Y33479289D01*
X15968322Y33537304D01*
X16003701Y33603492D01*
X16025487Y33675311D01*
X16032843Y33750000D01*
X16032843Y36750000D01*
X16025487Y36824689D01*
X16003701Y36896508D01*
X15968322Y36962696D01*
X15920711Y37020711D01*
X15862696Y37068322D01*
X15796508Y37103701D01*
X15724689Y37125487D01*
X15650000Y37132843D01*
X14050000Y37132843D01*
X13975311Y37125487D01*
X13903492Y37103701D01*
X13837304Y37068322D01*
X13779289Y37020711D01*
X13731678Y36962696D01*
X13696299Y36896508D01*
X13674513Y36824689D01*
X13667157Y36750000D01*
X10185843Y36750000D01*
X10185843Y36827000D01*
X10178487Y36901689D01*
X10156701Y36973508D01*
X10121322Y37039696D01*
X10073711Y37097711D01*
X10015696Y37145322D01*
X9949508Y37180701D01*
X9877689Y37202487D01*
X9803000Y37209843D01*
X9003000Y37209843D01*
X8928311Y37202487D01*
X8856492Y37180701D01*
X8790304Y37145322D01*
X8732289Y37097711D01*
X8684678Y37039696D01*
X8649299Y36973508D01*
X8627513Y36901689D01*
X8620157Y36827000D01*
X5232843Y36827000D01*
X5225487Y36901689D01*
X5203701Y36973508D01*
X5168322Y37039696D01*
X5120711Y37097711D01*
X5062696Y37145322D01*
X4996508Y37180701D01*
X4924689Y37202487D01*
X4850000Y37209843D01*
X4050000Y37209843D01*
X3975311Y37202487D01*
X3903492Y37180701D01*
X3837304Y37145322D01*
X3779289Y37097711D01*
X3731678Y37039696D01*
X3696299Y36973508D01*
X3674513Y36901689D01*
X3667157Y36827000D01*
X406000Y36827000D01*
X406000Y37594000D01*
X18119000Y37594000D01*
X18119000Y28344500D01*
X18119000Y28344500D01*
G37*
X18119000Y28344500D02*
X18121091Y28304641D01*
X18136148Y28231485D01*
X18165187Y28162673D01*
X18207093Y28100848D01*
X18260255Y28048386D01*
X18600391Y27773000D01*
X18100000Y27773000D01*
X18025671Y27765679D01*
X17954198Y27743998D01*
X17888328Y27708790D01*
X17830592Y27661408D01*
X17661939Y27492755D01*
X17368952Y27702032D01*
X17293302Y27743998D01*
X17221829Y27765679D01*
X17147500Y27773000D01*
X15560000Y27773000D01*
X15485671Y27765679D01*
X15414198Y27743998D01*
X15348328Y27708790D01*
X15290592Y27661408D01*
X15036592Y27407408D01*
X14989210Y27349672D01*
X14954002Y27283802D01*
X14932321Y27212329D01*
X14925000Y27138000D01*
X14925000Y25868000D01*
X14931254Y25804500D01*
X12987316Y25804500D01*
X13035408Y25852592D01*
X13082790Y25910328D01*
X13117998Y25976198D01*
X13139679Y26047671D01*
X13147000Y26122000D01*
X13147000Y28662000D01*
X13139679Y28736329D01*
X13117998Y28807802D01*
X13082790Y28873672D01*
X13035408Y28931408D01*
X12527408Y29439408D01*
X12469672Y29486790D01*
X12403802Y29521998D01*
X12332329Y29543679D01*
X12258000Y29551000D01*
X4638000Y29551000D01*
X4563671Y29543679D01*
X4492198Y29521998D01*
X4426328Y29486790D01*
X4368592Y29439408D01*
X1574592Y26645408D01*
X1527210Y26587672D01*
X1492002Y26521802D01*
X1470321Y26450329D01*
X1463000Y26376000D01*
X1463000Y3770000D01*
X1470321Y3695671D01*
X1492002Y3624198D01*
X1527210Y3558328D01*
X1574592Y3500592D01*
X2590592Y2484592D01*
X2648328Y2437210D01*
X2714198Y2402002D01*
X2785671Y2380321D01*
X2860000Y2373000D01*
X9898619Y2373000D01*
X11865618Y406000D01*
X406000Y406000D01*
X406000Y31054321D01*
X2034500Y31054321D01*
X2034500Y30841679D01*
X2075985Y30633122D01*
X2157360Y30436665D01*
X2275498Y30259859D01*
X2425859Y30109498D01*
X2602665Y29991360D01*
X2799122Y29909985D01*
X3007679Y29868500D01*
X3220321Y29868500D01*
X3428878Y29909985D01*
X3625335Y29991360D01*
X3802141Y30109498D01*
X3952502Y30259859D01*
X4070640Y30436665D01*
X4152015Y30633122D01*
X4193500Y30841679D01*
X4193500Y31054321D01*
X4534500Y31054321D01*
X4534500Y30841679D01*
X4575985Y30633122D01*
X4657360Y30436665D01*
X4775498Y30259859D01*
X4925859Y30109498D01*
X5102665Y29991360D01*
X5299122Y29909985D01*
X5507679Y29868500D01*
X5720321Y29868500D01*
X5928878Y29909985D01*
X6125335Y29991360D01*
X6302141Y30109498D01*
X6452502Y30259859D01*
X6570640Y30436665D01*
X6652015Y30633122D01*
X6693500Y30841679D01*
X6693500Y31054321D01*
X7034500Y31054321D01*
X7034500Y30841679D01*
X7075985Y30633122D01*
X7157360Y30436665D01*
X7275498Y30259859D01*
X7425859Y30109498D01*
X7602665Y29991360D01*
X7799122Y29909985D01*
X8007679Y29868500D01*
X8220321Y29868500D01*
X8428878Y29909985D01*
X8625335Y29991360D01*
X8802141Y30109498D01*
X8952502Y30259859D01*
X9070640Y30436665D01*
X9152015Y30633122D01*
X9193500Y30841679D01*
X9193500Y31054321D01*
X9534500Y31054321D01*
X9534500Y30841679D01*
X9575985Y30633122D01*
X9657360Y30436665D01*
X9775498Y30259859D01*
X9925859Y30109498D01*
X10102665Y29991360D01*
X10299122Y29909985D01*
X10507679Y29868500D01*
X10720321Y29868500D01*
X10928878Y29909985D01*
X11125335Y29991360D01*
X11302141Y30109498D01*
X11452502Y30259859D01*
X11570640Y30436665D01*
X11652015Y30633122D01*
X11693500Y30841679D01*
X11693500Y31054321D01*
X11652015Y31262878D01*
X11570640Y31459335D01*
X11452502Y31636141D01*
X11302141Y31786502D01*
X11125335Y31904640D01*
X10928878Y31986015D01*
X10802000Y32011253D01*
X10802000Y32180168D01*
X10806696Y32182678D01*
X10864711Y32230289D01*
X10912322Y32288304D01*
X10947701Y32354492D01*
X10969487Y32426311D01*
X10976843Y32501000D01*
X10976843Y32951000D01*
X10969487Y33025689D01*
X10947701Y33097508D01*
X10912322Y33163696D01*
X10864711Y33221711D01*
X10861000Y33224756D01*
X10861000Y33561618D01*
X10899508Y33573299D01*
X10965696Y33608678D01*
X11023711Y33656289D01*
X11071322Y33714304D01*
X11106701Y33780492D01*
X11128487Y33852311D01*
X11135843Y33927000D01*
X11135843Y34827000D01*
X11128487Y34901689D01*
X11106701Y34973508D01*
X11071322Y35039696D01*
X11023711Y35097711D01*
X10965696Y35145322D01*
X10899508Y35180701D01*
X10827689Y35202487D01*
X10753000Y35209843D01*
X9953000Y35209843D01*
X9878311Y35202487D01*
X9806492Y35180701D01*
X9740304Y35145322D01*
X9682289Y35097711D01*
X9634678Y35039696D01*
X9599299Y34973508D01*
X9577513Y34901689D01*
X9570157Y34827000D01*
X9570157Y33927000D01*
X9577513Y33852311D01*
X9599299Y33780492D01*
X9634678Y33714304D01*
X9682289Y33656289D01*
X9740304Y33608678D01*
X9806492Y33573299D01*
X9845001Y33561618D01*
X9845001Y33303369D01*
X9781304Y33269322D01*
X9723289Y33221711D01*
X9675678Y33163696D01*
X9640299Y33097508D01*
X9618513Y33025689D01*
X9611157Y32951000D01*
X9611157Y32501000D01*
X9618513Y32426311D01*
X9640299Y32354492D01*
X9675678Y32288304D01*
X9723289Y32230289D01*
X9781304Y32182678D01*
X9786000Y32180168D01*
X9786001Y31646644D01*
X9775498Y31636141D01*
X9657360Y31459335D01*
X9575985Y31262878D01*
X9534500Y31054321D01*
X9193500Y31054321D01*
X9152015Y31262878D01*
X9070640Y31459335D01*
X8952502Y31636141D01*
X8802141Y31786502D01*
X8702000Y31853414D01*
X8702000Y32180168D01*
X8706696Y32182678D01*
X8764711Y32230289D01*
X8812322Y32288304D01*
X8847701Y32354492D01*
X8869487Y32426311D01*
X8876843Y32501000D01*
X8876843Y32951000D01*
X8869487Y33025689D01*
X8847701Y33097508D01*
X8812322Y33163696D01*
X8764711Y33221711D01*
X8706696Y33269322D01*
X8640508Y33304701D01*
X8568689Y33326487D01*
X8494000Y33333843D01*
X7894000Y33333843D01*
X7819311Y33326487D01*
X7747492Y33304701D01*
X7681304Y33269322D01*
X7623289Y33221711D01*
X7575678Y33163696D01*
X7540299Y33097508D01*
X7518513Y33025689D01*
X7511157Y32951000D01*
X7511157Y32501000D01*
X7518513Y32426311D01*
X7540299Y32354492D01*
X7575678Y32288304D01*
X7623289Y32230289D01*
X7681304Y32182678D01*
X7686000Y32180168D01*
X7686000Y31939159D01*
X7602665Y31904640D01*
X7425859Y31786502D01*
X7275498Y31636141D01*
X7157360Y31459335D01*
X7075985Y31262878D01*
X7034500Y31054321D01*
X6693500Y31054321D01*
X6652015Y31262878D01*
X6570640Y31459335D01*
X6452502Y31636141D01*
X6302141Y31786502D01*
X6125335Y31904640D01*
X6122000Y31906021D01*
X6122000Y32487056D01*
X6124457Y32512000D01*
X6121207Y32544998D01*
X6114649Y32611585D01*
X6085601Y32707343D01*
X6082843Y32712503D01*
X6082843Y32951000D01*
X6075487Y33025689D01*
X6053701Y33097508D01*
X6018322Y33163696D01*
X5970711Y33221711D01*
X5912696Y33269322D01*
X5908000Y33271832D01*
X5908000Y33561618D01*
X5946508Y33573299D01*
X6012696Y33608678D01*
X6070711Y33656289D01*
X6118322Y33714304D01*
X6153701Y33780492D01*
X6175487Y33852311D01*
X6182843Y33927000D01*
X6182843Y34827000D01*
X6175487Y34901689D01*
X6153701Y34973508D01*
X6118322Y35039696D01*
X6070711Y35097711D01*
X6012696Y35145322D01*
X5946508Y35180701D01*
X5874689Y35202487D01*
X5800000Y35209843D01*
X5000000Y35209843D01*
X4925311Y35202487D01*
X4853492Y35180701D01*
X4787304Y35145322D01*
X4729289Y35097711D01*
X4681678Y35039696D01*
X4646299Y34973508D01*
X4624513Y34901689D01*
X4617157Y34827000D01*
X4617157Y33927000D01*
X4624513Y33852311D01*
X4646299Y33780492D01*
X4681678Y33714304D01*
X4729289Y33656289D01*
X4787304Y33608678D01*
X4853492Y33573299D01*
X4892000Y33561618D01*
X4892001Y33271832D01*
X4887304Y33269322D01*
X4829289Y33221711D01*
X4781678Y33163696D01*
X4746299Y33097508D01*
X4724513Y33025689D01*
X4717157Y32951000D01*
X4717157Y32501000D01*
X4724513Y32426311D01*
X4746299Y32354492D01*
X4781678Y32288304D01*
X4829289Y32230289D01*
X4887304Y32182678D01*
X4953492Y32147299D01*
X5025311Y32125513D01*
X5100000Y32118157D01*
X5106001Y32118157D01*
X5106001Y31906022D01*
X5102665Y31904640D01*
X4925859Y31786502D01*
X4775498Y31636141D01*
X4657360Y31459335D01*
X4575985Y31262878D01*
X4534500Y31054321D01*
X4193500Y31054321D01*
X4152015Y31262878D01*
X4070640Y31459335D01*
X3952502Y31636141D01*
X3808000Y31780643D01*
X3808000Y32180168D01*
X3812696Y32182678D01*
X3870711Y32230289D01*
X3918322Y32288304D01*
X3953701Y32354492D01*
X3975487Y32426311D01*
X3982843Y32501000D01*
X3982843Y32951000D01*
X3975487Y33025689D01*
X3953701Y33097508D01*
X3918322Y33163696D01*
X3870711Y33221711D01*
X3812696Y33269322D01*
X3746508Y33304701D01*
X3674689Y33326487D01*
X3600000Y33333843D01*
X3000000Y33333843D01*
X2925311Y33326487D01*
X2853492Y33304701D01*
X2787304Y33269322D01*
X2729289Y33221711D01*
X2681678Y33163696D01*
X2646299Y33097508D01*
X2624513Y33025689D01*
X2617157Y32951000D01*
X2617157Y32501000D01*
X2624513Y32426311D01*
X2646299Y32354492D01*
X2681678Y32288304D01*
X2729289Y32230289D01*
X2787304Y32182678D01*
X2792000Y32180168D01*
X2792000Y31983065D01*
X2602665Y31904640D01*
X2425859Y31786502D01*
X2275498Y31636141D01*
X2157360Y31459335D01*
X2075985Y31262878D01*
X2034500Y31054321D01*
X406000Y31054321D01*
X406000Y36827000D01*
X3667157Y36827000D01*
X3667157Y35927000D01*
X3674513Y35852311D01*
X3696299Y35780492D01*
X3731678Y35714304D01*
X3779289Y35656289D01*
X3837304Y35608678D01*
X3903492Y35573299D01*
X3975311Y35551513D01*
X4050000Y35544157D01*
X4850000Y35544157D01*
X4924689Y35551513D01*
X4996508Y35573299D01*
X5062696Y35608678D01*
X5120711Y35656289D01*
X5168322Y35714304D01*
X5203701Y35780492D01*
X5225487Y35852311D01*
X5232843Y35927000D01*
X5232843Y36827000D01*
X8620157Y36827000D01*
X8620157Y35927000D01*
X8627513Y35852311D01*
X8649299Y35780492D01*
X8684678Y35714304D01*
X8732289Y35656289D01*
X8790304Y35608678D01*
X8856492Y35573299D01*
X8928311Y35551513D01*
X9003000Y35544157D01*
X9803000Y35544157D01*
X9877689Y35551513D01*
X9949508Y35573299D01*
X10015696Y35608678D01*
X10073711Y35656289D01*
X10121322Y35714304D01*
X10156701Y35780492D01*
X10178487Y35852311D01*
X10185843Y35927000D01*
X10185843Y36750000D01*
X13667157Y36750000D01*
X13667157Y33750000D01*
X13674513Y33675311D01*
X13696299Y33603492D01*
X13731678Y33537304D01*
X13779289Y33479289D01*
X13837304Y33431678D01*
X13903492Y33396299D01*
X13975311Y33374513D01*
X14050000Y33367157D01*
X15650000Y33367157D01*
X15724689Y33374513D01*
X15796508Y33396299D01*
X15862696Y33431678D01*
X15920711Y33479289D01*
X15968322Y33537304D01*
X16003701Y33603492D01*
X16025487Y33675311D01*
X16032843Y33750000D01*
X16032843Y36750000D01*
X16025487Y36824689D01*
X16003701Y36896508D01*
X15968322Y36962696D01*
X15920711Y37020711D01*
X15862696Y37068322D01*
X15796508Y37103701D01*
X15724689Y37125487D01*
X15650000Y37132843D01*
X14050000Y37132843D01*
X13975311Y37125487D01*
X13903492Y37103701D01*
X13837304Y37068322D01*
X13779289Y37020711D01*
X13731678Y36962696D01*
X13696299Y36896508D01*
X13674513Y36824689D01*
X13667157Y36750000D01*
X10185843Y36750000D01*
X10185843Y36827000D01*
X10178487Y36901689D01*
X10156701Y36973508D01*
X10121322Y37039696D01*
X10073711Y37097711D01*
X10015696Y37145322D01*
X9949508Y37180701D01*
X9877689Y37202487D01*
X9803000Y37209843D01*
X9003000Y37209843D01*
X8928311Y37202487D01*
X8856492Y37180701D01*
X8790304Y37145322D01*
X8732289Y37097711D01*
X8684678Y37039696D01*
X8649299Y36973508D01*
X8627513Y36901689D01*
X8620157Y36827000D01*
X5232843Y36827000D01*
X5225487Y36901689D01*
X5203701Y36973508D01*
X5168322Y37039696D01*
X5120711Y37097711D01*
X5062696Y37145322D01*
X4996508Y37180701D01*
X4924689Y37202487D01*
X4850000Y37209843D01*
X4050000Y37209843D01*
X3975311Y37202487D01*
X3903492Y37180701D01*
X3837304Y37145322D01*
X3779289Y37097711D01*
X3731678Y37039696D01*
X3696299Y36973508D01*
X3674513Y36901689D01*
X3667157Y36827000D01*
X406000Y36827000D01*
X406000Y37594000D01*
X18119000Y37594000D01*
X18119000Y28344500D01*
G36*
X45573000Y406000D02*
G01*
X41516999Y406000D01*
X42080488Y969489D01*
X42098902Y984600D01*
X42159210Y1058086D01*
X42204023Y1141924D01*
X42231618Y1232895D01*
X42238601Y1303794D01*
X42240936Y1327501D01*
X42238601Y1351208D01*
X42238601Y1377655D01*
X42263045Y1355622D01*
X42513148Y1206643D01*
X42787509Y1109319D01*
X43017400Y1229986D01*
X43017400Y2423800D01*
X43271400Y2423800D01*
X43271400Y1229986D01*
X43501291Y1109319D01*
X43775652Y1206643D01*
X44025755Y1355622D01*
X44241988Y1550531D01*
X44416041Y1783880D01*
X44541225Y2046701D01*
X44585876Y2193910D01*
X44464555Y2423800D01*
X43271400Y2423800D01*
X43017400Y2423800D01*
X42997400Y2423800D01*
X42997400Y2677800D01*
X43017400Y2677800D01*
X43017400Y4963800D01*
X43271400Y4963800D01*
X43271400Y2677800D01*
X44464555Y2677800D01*
X44585876Y2907690D01*
X44541225Y3054899D01*
X44416041Y3317720D01*
X44241988Y3551069D01*
X44025755Y3745978D01*
X43900145Y3820800D01*
X44025755Y3895622D01*
X44241988Y4090531D01*
X44416041Y4323880D01*
X44541225Y4586701D01*
X44585876Y4733910D01*
X44464555Y4963800D01*
X43271400Y4963800D01*
X43017400Y4963800D01*
X42997400Y4963800D01*
X42997400Y5217800D01*
X43017400Y5217800D01*
X43017400Y5237800D01*
X43271400Y5237800D01*
X43271400Y5217800D01*
X44464555Y5217800D01*
X44585876Y5447690D01*
X44541225Y5594899D01*
X44416041Y5857720D01*
X44241988Y6091069D01*
X44025755Y6285978D01*
X43775652Y6434957D01*
X43621095Y6489783D01*
X43831616Y6602309D01*
X44019060Y6756140D01*
X44172891Y6943584D01*
X44287198Y7157437D01*
X44357588Y7389482D01*
X44381356Y7630800D01*
X44357588Y7872118D01*
X44290239Y8094139D01*
X45475488Y9279388D01*
X45493901Y9294499D01*
X45554209Y9367985D01*
X45573000Y9403140D01*
X45573000Y406000D01*
X45573000Y406000D01*
G37*
X45573000Y406000D02*
X41516999Y406000D01*
X42080488Y969489D01*
X42098902Y984600D01*
X42159210Y1058086D01*
X42204023Y1141924D01*
X42231618Y1232895D01*
X42238601Y1303794D01*
X42240936Y1327501D01*
X42238601Y1351208D01*
X42238601Y1377655D01*
X42263045Y1355622D01*
X42513148Y1206643D01*
X42787509Y1109319D01*
X43017400Y1229986D01*
X43017400Y2423800D01*
X43271400Y2423800D01*
X43271400Y1229986D01*
X43501291Y1109319D01*
X43775652Y1206643D01*
X44025755Y1355622D01*
X44241988Y1550531D01*
X44416041Y1783880D01*
X44541225Y2046701D01*
X44585876Y2193910D01*
X44464555Y2423800D01*
X43271400Y2423800D01*
X43017400Y2423800D01*
X42997400Y2423800D01*
X42997400Y2677800D01*
X43017400Y2677800D01*
X43017400Y4963800D01*
X43271400Y4963800D01*
X43271400Y2677800D01*
X44464555Y2677800D01*
X44585876Y2907690D01*
X44541225Y3054899D01*
X44416041Y3317720D01*
X44241988Y3551069D01*
X44025755Y3745978D01*
X43900145Y3820800D01*
X44025755Y3895622D01*
X44241988Y4090531D01*
X44416041Y4323880D01*
X44541225Y4586701D01*
X44585876Y4733910D01*
X44464555Y4963800D01*
X43271400Y4963800D01*
X43017400Y4963800D01*
X42997400Y4963800D01*
X42997400Y5217800D01*
X43017400Y5217800D01*
X43017400Y5237800D01*
X43271400Y5237800D01*
X43271400Y5217800D01*
X44464555Y5217800D01*
X44585876Y5447690D01*
X44541225Y5594899D01*
X44416041Y5857720D01*
X44241988Y6091069D01*
X44025755Y6285978D01*
X43775652Y6434957D01*
X43621095Y6489783D01*
X43831616Y6602309D01*
X44019060Y6756140D01*
X44172891Y6943584D01*
X44287198Y7157437D01*
X44357588Y7389482D01*
X44381356Y7630800D01*
X44357588Y7872118D01*
X44290239Y8094139D01*
X45475488Y9279388D01*
X45493901Y9294499D01*
X45554209Y9367985D01*
X45573000Y9403140D01*
X45573000Y406000D01*
G36*
X26807501Y856999D02*
G01*
X12779619Y856999D01*
X11263617Y2373000D01*
X25291501Y2373000D01*
X26807501Y856999D01*
X26807501Y856999D01*
G37*
X26807501Y856999D02*
X12779619Y856999D01*
X11263617Y2373000D01*
X25291501Y2373000D01*
X26807501Y856999D01*
G36*
X39575909Y1863584D02*
G01*
X39729740Y1676140D01*
X39888533Y1545822D01*
X39827388Y1504967D01*
X39781021Y1458600D01*
X27570900Y1458600D01*
X26961300Y2068200D01*
X39466539Y2068200D01*
X39575909Y1863584D01*
X39575909Y1863584D01*
G37*
X39575909Y1863584D02*
X39729740Y1676140D01*
X39888533Y1545822D01*
X39827388Y1504967D01*
X39781021Y1458600D01*
X27570900Y1458600D01*
X26961300Y2068200D01*
X39466539Y2068200D01*
X39575909Y1863584D01*
G36*
X28826879Y11176683D02*
G01*
X28841992Y11158268D01*
X28860405Y11143157D01*
X28860406Y11143156D01*
X28868122Y11136824D01*
X28915478Y11097960D01*
X28999316Y11053147D01*
X29090286Y11025552D01*
X29184893Y11016234D01*
X29208600Y11018569D01*
X29250595Y11018569D01*
X31848797Y8420367D01*
X31762892Y8362967D01*
X31668037Y8268112D01*
X31593510Y8156574D01*
X31542175Y8032640D01*
X31516004Y7901073D01*
X31516004Y7766927D01*
X31542175Y7635360D01*
X31593510Y7511426D01*
X31668037Y7399888D01*
X31762892Y7305033D01*
X31874430Y7230506D01*
X31998364Y7179171D01*
X32129931Y7153000D01*
X32264077Y7153000D01*
X32395644Y7179171D01*
X32519578Y7230506D01*
X32631116Y7305033D01*
X32725971Y7399888D01*
X32783370Y7485793D01*
X33515618Y6753545D01*
X33530731Y6735130D01*
X33604217Y6674822D01*
X33639430Y6656000D01*
X33688055Y6630009D01*
X33779025Y6602414D01*
X33873632Y6593096D01*
X33897339Y6595431D01*
X39252900Y6595431D01*
X39693614Y6154717D01*
X39708730Y6136298D01*
X39782216Y6075990D01*
X39831998Y6049381D01*
X39729740Y5965460D01*
X39575909Y5778016D01*
X39461602Y5564163D01*
X39391212Y5332118D01*
X39367444Y5090800D01*
X39391212Y4849482D01*
X39461602Y4617437D01*
X39575909Y4403584D01*
X39729740Y4216140D01*
X39917184Y4062309D01*
X40131037Y3948002D01*
X40363082Y3877612D01*
X40543928Y3859800D01*
X40664872Y3859800D01*
X40845718Y3877612D01*
X41067739Y3944961D01*
X41273401Y3739299D01*
X41273401Y3589027D01*
X41077763Y3693598D01*
X40845718Y3763988D01*
X40664872Y3781800D01*
X40543928Y3781800D01*
X40363082Y3763988D01*
X40131037Y3693598D01*
X39917184Y3579291D01*
X39729740Y3425460D01*
X39575909Y3238016D01*
X39466539Y3033400D01*
X28562898Y3033400D01*
X28576790Y3050328D01*
X28611998Y3116198D01*
X28633679Y3187671D01*
X28641000Y3262000D01*
X28641000Y4278000D01*
X28633679Y4352329D01*
X28611998Y4423802D01*
X28576790Y4489672D01*
X28529408Y4547408D01*
X27894408Y5182408D01*
X27836672Y5229790D01*
X27770802Y5264998D01*
X27699329Y5286679D01*
X27625000Y5294000D01*
X27594920Y5294000D01*
X27603201Y5309492D01*
X27624987Y5381311D01*
X27632343Y5456000D01*
X27632343Y6656000D01*
X27624987Y6730689D01*
X27603201Y6802508D01*
X27567822Y6868696D01*
X27530805Y6913803D01*
X28535408Y6913803D01*
X28594686Y6680188D01*
X28832875Y6569441D01*
X29088093Y6507289D01*
X29350533Y6496124D01*
X29610107Y6536371D01*
X29856842Y6626486D01*
X29957314Y6680188D01*
X30016592Y6913803D01*
X29276000Y7654395D01*
X28535408Y6913803D01*
X27530805Y6913803D01*
X27520211Y6926711D01*
X27462196Y6974322D01*
X27445670Y6983156D01*
X27464141Y6995498D01*
X27614502Y7145859D01*
X27732640Y7322665D01*
X27814015Y7519122D01*
X27855500Y7727679D01*
X27855500Y7759467D01*
X27938124Y7759467D01*
X27978371Y7499893D01*
X28068486Y7253158D01*
X28122188Y7152686D01*
X28355803Y7093408D01*
X29096395Y7834000D01*
X29455605Y7834000D01*
X30196197Y7093408D01*
X30429812Y7152686D01*
X30540559Y7390875D01*
X30602711Y7646093D01*
X30613876Y7908533D01*
X30573629Y8168107D01*
X30483514Y8414842D01*
X30429812Y8515314D01*
X30196197Y8574592D01*
X29455605Y7834000D01*
X29096395Y7834000D01*
X28355803Y8574592D01*
X28122188Y8515314D01*
X28011441Y8277125D01*
X27949289Y8021907D01*
X27938124Y7759467D01*
X27855500Y7759467D01*
X27855500Y7940321D01*
X27814015Y8148878D01*
X27732640Y8345335D01*
X27614502Y8522141D01*
X27464141Y8672502D01*
X27341876Y8754197D01*
X28535408Y8754197D01*
X29276000Y8013605D01*
X30016592Y8754197D01*
X29957314Y8987812D01*
X29719125Y9098559D01*
X29463907Y9160711D01*
X29201467Y9171876D01*
X28941893Y9131629D01*
X28695158Y9041514D01*
X28594686Y8987812D01*
X28535408Y8754197D01*
X27341876Y8754197D01*
X27329600Y8762399D01*
X27329600Y12673962D01*
X28826879Y11176683D01*
X28826879Y11176683D01*
G37*
X28826879Y11176683D02*
X28841992Y11158268D01*
X28860405Y11143157D01*
X28860406Y11143156D01*
X28868122Y11136824D01*
X28915478Y11097960D01*
X28999316Y11053147D01*
X29090286Y11025552D01*
X29184893Y11016234D01*
X29208600Y11018569D01*
X29250595Y11018569D01*
X31848797Y8420367D01*
X31762892Y8362967D01*
X31668037Y8268112D01*
X31593510Y8156574D01*
X31542175Y8032640D01*
X31516004Y7901073D01*
X31516004Y7766927D01*
X31542175Y7635360D01*
X31593510Y7511426D01*
X31668037Y7399888D01*
X31762892Y7305033D01*
X31874430Y7230506D01*
X31998364Y7179171D01*
X32129931Y7153000D01*
X32264077Y7153000D01*
X32395644Y7179171D01*
X32519578Y7230506D01*
X32631116Y7305033D01*
X32725971Y7399888D01*
X32783370Y7485793D01*
X33515618Y6753545D01*
X33530731Y6735130D01*
X33604217Y6674822D01*
X33639430Y6656000D01*
X33688055Y6630009D01*
X33779025Y6602414D01*
X33873632Y6593096D01*
X33897339Y6595431D01*
X39252900Y6595431D01*
X39693614Y6154717D01*
X39708730Y6136298D01*
X39782216Y6075990D01*
X39831998Y6049381D01*
X39729740Y5965460D01*
X39575909Y5778016D01*
X39461602Y5564163D01*
X39391212Y5332118D01*
X39367444Y5090800D01*
X39391212Y4849482D01*
X39461602Y4617437D01*
X39575909Y4403584D01*
X39729740Y4216140D01*
X39917184Y4062309D01*
X40131037Y3948002D01*
X40363082Y3877612D01*
X40543928Y3859800D01*
X40664872Y3859800D01*
X40845718Y3877612D01*
X41067739Y3944961D01*
X41273401Y3739299D01*
X41273401Y3589027D01*
X41077763Y3693598D01*
X40845718Y3763988D01*
X40664872Y3781800D01*
X40543928Y3781800D01*
X40363082Y3763988D01*
X40131037Y3693598D01*
X39917184Y3579291D01*
X39729740Y3425460D01*
X39575909Y3238016D01*
X39466539Y3033400D01*
X28562898Y3033400D01*
X28576790Y3050328D01*
X28611998Y3116198D01*
X28633679Y3187671D01*
X28641000Y3262000D01*
X28641000Y4278000D01*
X28633679Y4352329D01*
X28611998Y4423802D01*
X28576790Y4489672D01*
X28529408Y4547408D01*
X27894408Y5182408D01*
X27836672Y5229790D01*
X27770802Y5264998D01*
X27699329Y5286679D01*
X27625000Y5294000D01*
X27594920Y5294000D01*
X27603201Y5309492D01*
X27624987Y5381311D01*
X27632343Y5456000D01*
X27632343Y6656000D01*
X27624987Y6730689D01*
X27603201Y6802508D01*
X27567822Y6868696D01*
X27530805Y6913803D01*
X28535408Y6913803D01*
X28594686Y6680188D01*
X28832875Y6569441D01*
X29088093Y6507289D01*
X29350533Y6496124D01*
X29610107Y6536371D01*
X29856842Y6626486D01*
X29957314Y6680188D01*
X30016592Y6913803D01*
X29276000Y7654395D01*
X28535408Y6913803D01*
X27530805Y6913803D01*
X27520211Y6926711D01*
X27462196Y6974322D01*
X27445670Y6983156D01*
X27464141Y6995498D01*
X27614502Y7145859D01*
X27732640Y7322665D01*
X27814015Y7519122D01*
X27855500Y7727679D01*
X27855500Y7759467D01*
X27938124Y7759467D01*
X27978371Y7499893D01*
X28068486Y7253158D01*
X28122188Y7152686D01*
X28355803Y7093408D01*
X29096395Y7834000D01*
X29455605Y7834000D01*
X30196197Y7093408D01*
X30429812Y7152686D01*
X30540559Y7390875D01*
X30602711Y7646093D01*
X30613876Y7908533D01*
X30573629Y8168107D01*
X30483514Y8414842D01*
X30429812Y8515314D01*
X30196197Y8574592D01*
X29455605Y7834000D01*
X29096395Y7834000D01*
X28355803Y8574592D01*
X28122188Y8515314D01*
X28011441Y8277125D01*
X27949289Y8021907D01*
X27938124Y7759467D01*
X27855500Y7759467D01*
X27855500Y7940321D01*
X27814015Y8148878D01*
X27732640Y8345335D01*
X27614502Y8522141D01*
X27464141Y8672502D01*
X27341876Y8754197D01*
X28535408Y8754197D01*
X29276000Y8013605D01*
X30016592Y8754197D01*
X29957314Y8987812D01*
X29719125Y9098559D01*
X29463907Y9160711D01*
X29201467Y9171876D01*
X28941893Y9131629D01*
X28695158Y9041514D01*
X28594686Y8987812D01*
X28535408Y8754197D01*
X27341876Y8754197D01*
X27329600Y8762399D01*
X27329600Y12673962D01*
X28826879Y11176683D01*
G36*
X16904991Y8908991D02*
G01*
X16882321Y8913500D01*
X16669679Y8913500D01*
X16461122Y8872015D01*
X16264665Y8790640D01*
X16087859Y8672502D01*
X15937498Y8522141D01*
X15819360Y8345335D01*
X15737985Y8148878D01*
X15696500Y7940321D01*
X15696500Y7727679D01*
X15737985Y7519122D01*
X15819360Y7322665D01*
X15937498Y7145859D01*
X16087859Y6995498D01*
X16112553Y6978998D01*
X16103804Y6974322D01*
X16045789Y6926711D01*
X15998178Y6868696D01*
X15962799Y6802508D01*
X15941013Y6730689D01*
X15933657Y6656000D01*
X15933657Y5456000D01*
X15941013Y5381311D01*
X15962799Y5309492D01*
X15971080Y5294000D01*
X11546045Y5294000D01*
X11559487Y5338311D01*
X11566843Y5413000D01*
X11566843Y6613000D01*
X11559487Y6687689D01*
X11537701Y6759508D01*
X11502322Y6825696D01*
X11454711Y6883711D01*
X11396696Y6931322D01*
X11357472Y6952288D01*
X11422141Y6995498D01*
X11572502Y7145859D01*
X11690640Y7322665D01*
X11772015Y7519122D01*
X11813500Y7727679D01*
X11813500Y7940321D01*
X11772015Y8148878D01*
X11760112Y8177613D01*
X14045399Y10462900D01*
X18458900Y10462900D01*
X16904991Y8908991D01*
X16904991Y8908991D01*
G37*
X16904991Y8908991D02*
X16882321Y8913500D01*
X16669679Y8913500D01*
X16461122Y8872015D01*
X16264665Y8790640D01*
X16087859Y8672502D01*
X15937498Y8522141D01*
X15819360Y8345335D01*
X15737985Y8148878D01*
X15696500Y7940321D01*
X15696500Y7727679D01*
X15737985Y7519122D01*
X15819360Y7322665D01*
X15937498Y7145859D01*
X16087859Y6995498D01*
X16112553Y6978998D01*
X16103804Y6974322D01*
X16045789Y6926711D01*
X15998178Y6868696D01*
X15962799Y6802508D01*
X15941013Y6730689D01*
X15933657Y6656000D01*
X15933657Y5456000D01*
X15941013Y5381311D01*
X15962799Y5309492D01*
X15971080Y5294000D01*
X11546045Y5294000D01*
X11559487Y5338311D01*
X11566843Y5413000D01*
X11566843Y6613000D01*
X11559487Y6687689D01*
X11537701Y6759508D01*
X11502322Y6825696D01*
X11454711Y6883711D01*
X11396696Y6931322D01*
X11357472Y6952288D01*
X11422141Y6995498D01*
X11572502Y7145859D01*
X11690640Y7322665D01*
X11772015Y7519122D01*
X11813500Y7727679D01*
X11813500Y7940321D01*
X11772015Y8148878D01*
X11760112Y8177613D01*
X14045399Y10462900D01*
X18458900Y10462900D01*
X16904991Y8908991D01*
G36*
X24023273Y8884378D02*
G01*
X23961122Y8872015D01*
X23764665Y8790640D01*
X23587859Y8672502D01*
X23437498Y8522141D01*
X23319360Y8345335D01*
X23237985Y8148878D01*
X23196500Y7940321D01*
X23196500Y7727679D01*
X23237985Y7519122D01*
X23319360Y7322665D01*
X23437498Y7145859D01*
X23587859Y6995498D01*
X23645194Y6957188D01*
X23596804Y6931322D01*
X23538789Y6883711D01*
X23491178Y6825696D01*
X23455799Y6759508D01*
X23434013Y6687689D01*
X23426657Y6613000D01*
X23426657Y5413000D01*
X23434013Y5338311D01*
X23447455Y5294000D01*
X22578420Y5294000D01*
X22586701Y5309492D01*
X22608487Y5381311D01*
X22615843Y5456000D01*
X22615843Y6656000D01*
X22608487Y6730689D01*
X22586701Y6802508D01*
X22551322Y6868696D01*
X22503711Y6926711D01*
X22445696Y6974322D01*
X22438336Y6978256D01*
X22464141Y6995498D01*
X22614502Y7145859D01*
X22732640Y7322665D01*
X22814015Y7519122D01*
X22855500Y7727679D01*
X22855500Y7940321D01*
X22814015Y8148878D01*
X22732640Y8345335D01*
X22614502Y8522141D01*
X22464141Y8672502D01*
X22287335Y8790640D01*
X22090878Y8872015D01*
X21882321Y8913500D01*
X21669679Y8913500D01*
X21461122Y8872015D01*
X21264665Y8790640D01*
X21148804Y8713224D01*
X21168968Y8733388D01*
X21243495Y8844926D01*
X21294830Y8968860D01*
X21321001Y9100427D01*
X21321001Y9234573D01*
X21294830Y9366140D01*
X21243495Y9490074D01*
X21168968Y9601612D01*
X21074113Y9696467D01*
X21042207Y9717786D01*
X21137612Y9781533D01*
X21232467Y9876388D01*
X21306994Y9987926D01*
X21358329Y10111860D01*
X21384500Y10243427D01*
X21384500Y10320851D01*
X21457360Y10290671D01*
X21588927Y10264500D01*
X21723073Y10264500D01*
X21854640Y10290671D01*
X21978574Y10342006D01*
X22090112Y10416533D01*
X22184967Y10511388D01*
X22259494Y10622926D01*
X22266884Y10640767D01*
X24023273Y8884378D01*
X24023273Y8884378D01*
G37*
X24023273Y8884378D02*
X23961122Y8872015D01*
X23764665Y8790640D01*
X23587859Y8672502D01*
X23437498Y8522141D01*
X23319360Y8345335D01*
X23237985Y8148878D01*
X23196500Y7940321D01*
X23196500Y7727679D01*
X23237985Y7519122D01*
X23319360Y7322665D01*
X23437498Y7145859D01*
X23587859Y6995498D01*
X23645194Y6957188D01*
X23596804Y6931322D01*
X23538789Y6883711D01*
X23491178Y6825696D01*
X23455799Y6759508D01*
X23434013Y6687689D01*
X23426657Y6613000D01*
X23426657Y5413000D01*
X23434013Y5338311D01*
X23447455Y5294000D01*
X22578420Y5294000D01*
X22586701Y5309492D01*
X22608487Y5381311D01*
X22615843Y5456000D01*
X22615843Y6656000D01*
X22608487Y6730689D01*
X22586701Y6802508D01*
X22551322Y6868696D01*
X22503711Y6926711D01*
X22445696Y6974322D01*
X22438336Y6978256D01*
X22464141Y6995498D01*
X22614502Y7145859D01*
X22732640Y7322665D01*
X22814015Y7519122D01*
X22855500Y7727679D01*
X22855500Y7940321D01*
X22814015Y8148878D01*
X22732640Y8345335D01*
X22614502Y8522141D01*
X22464141Y8672502D01*
X22287335Y8790640D01*
X22090878Y8872015D01*
X21882321Y8913500D01*
X21669679Y8913500D01*
X21461122Y8872015D01*
X21264665Y8790640D01*
X21148804Y8713224D01*
X21168968Y8733388D01*
X21243495Y8844926D01*
X21294830Y8968860D01*
X21321001Y9100427D01*
X21321001Y9234573D01*
X21294830Y9366140D01*
X21243495Y9490074D01*
X21168968Y9601612D01*
X21074113Y9696467D01*
X21042207Y9717786D01*
X21137612Y9781533D01*
X21232467Y9876388D01*
X21306994Y9987926D01*
X21358329Y10111860D01*
X21384500Y10243427D01*
X21384500Y10320851D01*
X21457360Y10290671D01*
X21588927Y10264500D01*
X21723073Y10264500D01*
X21854640Y10290671D01*
X21978574Y10342006D01*
X22090112Y10416533D01*
X22184967Y10511388D01*
X22259494Y10622926D01*
X22266884Y10640767D01*
X24023273Y8884378D01*
G36*
X20269388Y9781533D02*
G01*
X20301294Y9760214D01*
X20205889Y9696467D01*
X20111034Y9601612D01*
X20036507Y9490074D01*
X19985172Y9366140D01*
X19959001Y9234573D01*
X19959001Y9199501D01*
X19619613Y8860113D01*
X19590878Y8872015D01*
X19382321Y8913500D01*
X19169679Y8913500D01*
X18961122Y8872015D01*
X18764665Y8790640D01*
X18587859Y8672502D01*
X18437498Y8522141D01*
X18319360Y8345335D01*
X18237985Y8148878D01*
X18196500Y7940321D01*
X18196500Y7727679D01*
X18237985Y7519122D01*
X18319360Y7322665D01*
X18437498Y7145859D01*
X18587859Y6995498D01*
X18602108Y6985977D01*
X18580304Y6974322D01*
X18522289Y6926711D01*
X18474678Y6868696D01*
X18439299Y6802508D01*
X18417513Y6730689D01*
X18410157Y6656000D01*
X18410157Y5456000D01*
X18417513Y5381311D01*
X18439299Y5309492D01*
X18447580Y5294000D01*
X17561920Y5294000D01*
X17570201Y5309492D01*
X17591987Y5381311D01*
X17599343Y5456000D01*
X17599343Y6656000D01*
X17591987Y6730689D01*
X17570201Y6802508D01*
X17534822Y6868696D01*
X17487211Y6926711D01*
X17430656Y6973124D01*
X17464141Y6995498D01*
X17614502Y7145859D01*
X17732640Y7322665D01*
X17814015Y7519122D01*
X17855500Y7727679D01*
X17855500Y7940321D01*
X17814015Y8148878D01*
X17732640Y8345335D01*
X17722103Y8361104D01*
X19188900Y9827900D01*
X20223021Y9827900D01*
X20269388Y9781533D01*
X20269388Y9781533D01*
G37*
X20269388Y9781533D02*
X20301294Y9760214D01*
X20205889Y9696467D01*
X20111034Y9601612D01*
X20036507Y9490074D01*
X19985172Y9366140D01*
X19959001Y9234573D01*
X19959001Y9199501D01*
X19619613Y8860113D01*
X19590878Y8872015D01*
X19382321Y8913500D01*
X19169679Y8913500D01*
X18961122Y8872015D01*
X18764665Y8790640D01*
X18587859Y8672502D01*
X18437498Y8522141D01*
X18319360Y8345335D01*
X18237985Y8148878D01*
X18196500Y7940321D01*
X18196500Y7727679D01*
X18237985Y7519122D01*
X18319360Y7322665D01*
X18437498Y7145859D01*
X18587859Y6995498D01*
X18602108Y6985977D01*
X18580304Y6974322D01*
X18522289Y6926711D01*
X18474678Y6868696D01*
X18439299Y6802508D01*
X18417513Y6730689D01*
X18410157Y6656000D01*
X18410157Y5456000D01*
X18417513Y5381311D01*
X18439299Y5309492D01*
X18447580Y5294000D01*
X17561920Y5294000D01*
X17570201Y5309492D01*
X17591987Y5381311D01*
X17599343Y5456000D01*
X17599343Y6656000D01*
X17591987Y6730689D01*
X17570201Y6802508D01*
X17534822Y6868696D01*
X17487211Y6926711D01*
X17430656Y6973124D01*
X17464141Y6995498D01*
X17614502Y7145859D01*
X17732640Y7322665D01*
X17814015Y7519122D01*
X17855500Y7727679D01*
X17855500Y7940321D01*
X17814015Y8148878D01*
X17732640Y8345335D01*
X17722103Y8361104D01*
X19188900Y9827900D01*
X20223021Y9827900D01*
X20269388Y9781533D01*
G36*
X20937498Y8522141D02*
G01*
X20819360Y8345335D01*
X20737985Y8148878D01*
X20696500Y7940321D01*
X20696500Y7727679D01*
X20737985Y7519122D01*
X20819360Y7322665D01*
X20937498Y7145859D01*
X21087859Y6995498D01*
X21119966Y6974045D01*
X21062289Y6926711D01*
X21014678Y6868696D01*
X20979299Y6802508D01*
X20957513Y6730689D01*
X20950157Y6656000D01*
X20950157Y5456000D01*
X20957513Y5381311D01*
X20979299Y5309492D01*
X20987580Y5294000D01*
X20038420Y5294000D01*
X20046701Y5309492D01*
X20068487Y5381311D01*
X20075843Y5456000D01*
X20075843Y6656000D01*
X20068487Y6730689D01*
X20046701Y6802508D01*
X20011322Y6868696D01*
X19963711Y6926711D01*
X19917702Y6964469D01*
X19964141Y6995498D01*
X20114502Y7145859D01*
X20232640Y7322665D01*
X20314015Y7519122D01*
X20355500Y7727679D01*
X20355500Y7940321D01*
X20314015Y8148878D01*
X20302113Y8177613D01*
X20611000Y8486500D01*
X20707074Y8486500D01*
X20838641Y8512671D01*
X20962575Y8564006D01*
X21013168Y8597811D01*
X20937498Y8522141D01*
X20937498Y8522141D01*
G37*
X20937498Y8522141D02*
X20819360Y8345335D01*
X20737985Y8148878D01*
X20696500Y7940321D01*
X20696500Y7727679D01*
X20737985Y7519122D01*
X20819360Y7322665D01*
X20937498Y7145859D01*
X21087859Y6995498D01*
X21119966Y6974045D01*
X21062289Y6926711D01*
X21014678Y6868696D01*
X20979299Y6802508D01*
X20957513Y6730689D01*
X20950157Y6656000D01*
X20950157Y5456000D01*
X20957513Y5381311D01*
X20979299Y5309492D01*
X20987580Y5294000D01*
X20038420Y5294000D01*
X20046701Y5309492D01*
X20068487Y5381311D01*
X20075843Y5456000D01*
X20075843Y6656000D01*
X20068487Y6730689D01*
X20046701Y6802508D01*
X20011322Y6868696D01*
X19963711Y6926711D01*
X19917702Y6964469D01*
X19964141Y6995498D01*
X20114502Y7145859D01*
X20232640Y7322665D01*
X20314015Y7519122D01*
X20355500Y7727679D01*
X20355500Y7940321D01*
X20314015Y8148878D01*
X20302113Y8177613D01*
X20611000Y8486500D01*
X20707074Y8486500D01*
X20838641Y8512671D01*
X20962575Y8564006D01*
X21013168Y8597811D01*
X20937498Y8522141D01*
G36*
X45573000Y29177000D02*
G01*
X44500000Y29177000D01*
X44475224Y29174560D01*
X44451399Y29167333D01*
X44429443Y29155597D01*
X44410197Y29139803D01*
X44394403Y29120557D01*
X44382667Y29098601D01*
X44375440Y29074776D01*
X44373000Y29050000D01*
X44373000Y27450000D01*
X44375440Y27425224D01*
X44382667Y27401399D01*
X44394403Y27379443D01*
X44410197Y27360197D01*
X44429443Y27344403D01*
X44451399Y27332667D01*
X44475224Y27325440D01*
X44500000Y27323000D01*
X45573000Y27323000D01*
X45573000Y24368212D01*
X45528967Y24434112D01*
X45434112Y24528967D01*
X45322574Y24603494D01*
X45198640Y24654829D01*
X45067073Y24681000D01*
X44932927Y24681000D01*
X44801360Y24654829D01*
X44677426Y24603494D01*
X44565888Y24528967D01*
X44471033Y24434112D01*
X44396506Y24322574D01*
X44345171Y24198640D01*
X44319000Y24067073D01*
X44319000Y23932927D01*
X44345171Y23801360D01*
X44396506Y23677426D01*
X44471033Y23565888D01*
X44565888Y23471033D01*
X44677426Y23396506D01*
X44801360Y23345171D01*
X44932927Y23319000D01*
X45067073Y23319000D01*
X45198640Y23345171D01*
X45322574Y23396506D01*
X45434112Y23471033D01*
X45528967Y23565888D01*
X45573000Y23631788D01*
X45573000Y22292260D01*
X45554209Y22327415D01*
X45493901Y22400901D01*
X45475488Y22416012D01*
X43106016Y24785483D01*
X43090900Y24803902D01*
X43017414Y24864210D01*
X42933576Y24909023D01*
X42842605Y24936618D01*
X42771706Y24943601D01*
X42771704Y24943601D01*
X42747999Y24945936D01*
X42724294Y24943601D01*
X41161846Y24943601D01*
X41138139Y24945936D01*
X41043532Y24936618D01*
X40975589Y24916008D01*
X40952562Y24909023D01*
X40868724Y24864210D01*
X40795238Y24803902D01*
X40780122Y24785483D01*
X40509872Y24515233D01*
X40491453Y24500117D01*
X40431145Y24426631D01*
X40386332Y24342792D01*
X40368941Y24285460D01*
X40328468Y24312503D01*
X40204534Y24363838D01*
X40072967Y24390009D01*
X39938821Y24390009D01*
X39807254Y24363838D01*
X39683320Y24312503D01*
X39571782Y24237976D01*
X39476927Y24143121D01*
X39402400Y24031583D01*
X39351065Y23907649D01*
X39324894Y23776082D01*
X39324894Y23641936D01*
X39351065Y23510369D01*
X39402400Y23386435D01*
X39476927Y23274897D01*
X39571782Y23180042D01*
X39683320Y23105515D01*
X39807254Y23054180D01*
X39938821Y23028009D01*
X40005992Y23028009D01*
X41510199Y21523802D01*
X41510199Y19018147D01*
X41454400Y19023643D01*
X39918600Y19023643D01*
X39918600Y20561521D01*
X39964967Y20607888D01*
X40039494Y20719426D01*
X40090829Y20843360D01*
X40117000Y20974927D01*
X40117000Y21109073D01*
X40090829Y21240640D01*
X40039494Y21364574D01*
X39964967Y21476112D01*
X39870112Y21570967D01*
X39758574Y21645494D01*
X39634640Y21696829D01*
X39503073Y21723000D01*
X39368927Y21723000D01*
X39237360Y21696829D01*
X39113426Y21645494D01*
X39001888Y21570967D01*
X38907033Y21476112D01*
X38832506Y21364574D01*
X38781171Y21240640D01*
X38755000Y21109073D01*
X38755000Y20974927D01*
X38781171Y20843360D01*
X38832506Y20719426D01*
X38907033Y20607888D01*
X38953401Y20561520D01*
X38953400Y13902905D01*
X38951065Y13879200D01*
X38953400Y13855495D01*
X38953400Y13855494D01*
X38960383Y13784595D01*
X38987978Y13693624D01*
X39032791Y13609785D01*
X39093099Y13536299D01*
X39111518Y13521183D01*
X39439301Y13193400D01*
X30250600Y13193400D01*
X27091600Y16352399D01*
X27091600Y19368655D01*
X27093935Y19392362D01*
X27084617Y19486969D01*
X27057022Y19577939D01*
X27029202Y19629985D01*
X27012209Y19661777D01*
X26971518Y19711360D01*
X26967013Y19716849D01*
X26967012Y19716850D01*
X26951901Y19735263D01*
X26933488Y19750374D01*
X25063379Y21620482D01*
X25048263Y21638901D01*
X24974777Y21699209D01*
X24890939Y21744022D01*
X24799968Y21771617D01*
X24729069Y21778600D01*
X24729067Y21778600D01*
X24705362Y21780935D01*
X24681657Y21778600D01*
X23025479Y21778600D01*
X22979112Y21824967D01*
X22867574Y21899494D01*
X22743640Y21950829D01*
X22612073Y21977000D01*
X22477927Y21977000D01*
X22346360Y21950829D01*
X22222426Y21899494D01*
X22110888Y21824967D01*
X22016033Y21730112D01*
X21941506Y21618574D01*
X21890171Y21494640D01*
X21864000Y21363073D01*
X21864000Y21228927D01*
X21890171Y21097360D01*
X21936363Y20985843D01*
X21732000Y20985843D01*
X21657311Y20978487D01*
X21585492Y20956701D01*
X21519304Y20921322D01*
X21461289Y20873711D01*
X21413678Y20815696D01*
X21378299Y20749508D01*
X21356513Y20677689D01*
X21349157Y20603000D01*
X21349157Y19703000D01*
X21356513Y19628311D01*
X21378299Y19556492D01*
X21413678Y19490304D01*
X21461289Y19432289D01*
X21519304Y19384678D01*
X21585492Y19349299D01*
X21657311Y19327513D01*
X21732000Y19320157D01*
X22932000Y19320157D01*
X23006689Y19327513D01*
X23078508Y19349299D01*
X23144696Y19384678D01*
X23202711Y19432289D01*
X23250322Y19490304D01*
X23285701Y19556492D01*
X23307487Y19628311D01*
X23314843Y19703000D01*
X23314843Y20603000D01*
X23307487Y20677689D01*
X23285701Y20749508D01*
X23251549Y20813400D01*
X23574623Y20813400D01*
X23541171Y20732640D01*
X23515000Y20601073D01*
X23515000Y20466927D01*
X23541171Y20335360D01*
X23592506Y20211426D01*
X23667033Y20099888D01*
X23751486Y20015435D01*
X23719506Y19967574D01*
X23668171Y19843640D01*
X23642000Y19712073D01*
X23642000Y19646499D01*
X22931508Y18936007D01*
X22913095Y18920896D01*
X22897984Y18902483D01*
X22897982Y18902481D01*
X22852787Y18847410D01*
X22807973Y18763571D01*
X22780379Y18672601D01*
X22771060Y18577995D01*
X22773396Y18554281D01*
X22773396Y18334811D01*
X22727028Y18288443D01*
X22652501Y18176905D01*
X22601166Y18052971D01*
X22574995Y17921404D01*
X22574995Y17787258D01*
X22601166Y17655691D01*
X22652501Y17531757D01*
X22700046Y17460600D01*
X20231479Y17460600D01*
X20185112Y17506967D01*
X20073574Y17581494D01*
X19949640Y17632829D01*
X19818073Y17659000D01*
X19683927Y17659000D01*
X19552360Y17632829D01*
X19428426Y17581494D01*
X19316888Y17506967D01*
X19222033Y17412112D01*
X19147506Y17300574D01*
X19096171Y17176640D01*
X19070000Y17045073D01*
X19070000Y16910927D01*
X19096171Y16779360D01*
X19147506Y16655426D01*
X19196838Y16581595D01*
X19142703Y16500576D01*
X19091368Y16376642D01*
X19065197Y16245075D01*
X19065197Y16110929D01*
X19091368Y15979362D01*
X19142703Y15855428D01*
X19217230Y15743890D01*
X19312085Y15649035D01*
X19423623Y15574508D01*
X19547557Y15523173D01*
X19679124Y15497002D01*
X19813270Y15497002D01*
X19944837Y15523173D01*
X19994000Y15543537D01*
X19994000Y15509329D01*
X20020171Y15377762D01*
X20071506Y15253828D01*
X20146033Y15142290D01*
X20240888Y15047435D01*
X20352426Y14972908D01*
X20476360Y14921573D01*
X20607927Y14895402D01*
X20742073Y14895402D01*
X20873640Y14921573D01*
X20997574Y14972908D01*
X21109112Y15047435D01*
X21203967Y15142290D01*
X21278494Y15253828D01*
X21329829Y15377762D01*
X21356000Y15509329D01*
X21382171Y15377762D01*
X21433506Y15253828D01*
X21508033Y15142290D01*
X21602888Y15047435D01*
X21714426Y14972908D01*
X21838360Y14921573D01*
X21969927Y14895402D01*
X22104073Y14895402D01*
X22235640Y14921573D01*
X22359574Y14972908D01*
X22471112Y15047435D01*
X22565967Y15142290D01*
X22640494Y15253828D01*
X22691829Y15377762D01*
X22718000Y15509329D01*
X22718000Y15643475D01*
X22707671Y15695402D01*
X22954599Y15695402D01*
X25340899Y13309101D01*
X25340898Y9861977D01*
X25294531Y9815610D01*
X25220004Y9704072D01*
X25204605Y9666894D01*
X22486210Y12385289D01*
X22486210Y13068521D01*
X22532577Y13114888D01*
X22607104Y13226426D01*
X22658439Y13350360D01*
X22684610Y13481927D01*
X22684610Y13616073D01*
X22658439Y13747640D01*
X22607104Y13871574D01*
X22532577Y13983112D01*
X22437722Y14077967D01*
X22326184Y14152494D01*
X22202250Y14203829D01*
X22070683Y14230000D01*
X22026867Y14230000D01*
X22026867Y14310323D01*
X22000696Y14441890D01*
X21949361Y14565824D01*
X21874834Y14677362D01*
X21779979Y14772217D01*
X21668441Y14846744D01*
X21544507Y14898079D01*
X21412940Y14924250D01*
X21278794Y14924250D01*
X21147227Y14898079D01*
X21023293Y14846744D01*
X20911755Y14772217D01*
X20865388Y14725850D01*
X14796484Y14725850D01*
X12676226Y16846107D01*
X12676226Y16911681D01*
X12650055Y17043248D01*
X12598720Y17167182D01*
X12540718Y17253988D01*
X12607494Y17353926D01*
X12658829Y17477860D01*
X12685000Y17609427D01*
X12685000Y17743573D01*
X12658829Y17875140D01*
X12607494Y17999074D01*
X12532967Y18110612D01*
X12438112Y18205467D01*
X12326574Y18279994D01*
X12202640Y18331329D01*
X12071073Y18357500D01*
X11936927Y18357500D01*
X11805360Y18331329D01*
X11681426Y18279994D01*
X11569888Y18205467D01*
X11475033Y18110612D01*
X11400506Y17999074D01*
X11369000Y17923012D01*
X11337494Y17999074D01*
X11262967Y18110612D01*
X11168112Y18205467D01*
X11056574Y18279994D01*
X10932640Y18331329D01*
X10801073Y18357500D01*
X10666927Y18357500D01*
X10535360Y18331329D01*
X10411426Y18279994D01*
X10299888Y18205467D01*
X10205033Y18110612D01*
X10130506Y17999074D01*
X10079171Y17875140D01*
X10053000Y17743573D01*
X10053000Y17609427D01*
X10079171Y17477860D01*
X10130506Y17353926D01*
X10205033Y17242388D01*
X10299888Y17147533D01*
X10411426Y17073006D01*
X10535360Y17021671D01*
X10587560Y17011288D01*
X10549889Y16920342D01*
X10523718Y16788775D01*
X10523718Y16723201D01*
X9266513Y15465996D01*
X9248100Y15450885D01*
X9232989Y15432472D01*
X9232987Y15432470D01*
X9187792Y15377399D01*
X9142978Y15293560D01*
X9115384Y15202590D01*
X9106065Y15107984D01*
X9108401Y15084269D01*
X9108400Y8468415D01*
X9072502Y8522141D01*
X8922141Y8672502D01*
X8745335Y8790640D01*
X8548878Y8872015D01*
X8340321Y8913500D01*
X8127679Y8913500D01*
X7919122Y8872015D01*
X7722665Y8790640D01*
X7545859Y8672502D01*
X7395498Y8522141D01*
X7277360Y8345335D01*
X7195985Y8148878D01*
X7154500Y7940321D01*
X7154500Y7727679D01*
X7195985Y7519122D01*
X7277360Y7322665D01*
X7395498Y7145859D01*
X7545859Y6995498D01*
X7592750Y6964166D01*
X7531304Y6931322D01*
X7473289Y6883711D01*
X7425678Y6825696D01*
X7390299Y6759508D01*
X7368513Y6687689D01*
X7361157Y6613000D01*
X7361157Y5413000D01*
X7368513Y5338311D01*
X7381955Y5294000D01*
X6576420Y5294000D01*
X6584701Y5309492D01*
X6606487Y5381311D01*
X6613843Y5456000D01*
X6613843Y6656000D01*
X6606487Y6730689D01*
X6584701Y6802508D01*
X6549322Y6868696D01*
X6501711Y6926711D01*
X6443696Y6974322D01*
X6414114Y6990134D01*
X6422141Y6995498D01*
X6572502Y7145859D01*
X6690640Y7322665D01*
X6772015Y7519122D01*
X6813500Y7727679D01*
X6813500Y7940321D01*
X6772015Y8148878D01*
X6690640Y8345335D01*
X6572502Y8522141D01*
X6422141Y8672502D01*
X6245335Y8790640D01*
X6048878Y8872015D01*
X5840321Y8913500D01*
X5627679Y8913500D01*
X5419122Y8872015D01*
X5222665Y8790640D01*
X5045859Y8672502D01*
X4895498Y8522141D01*
X4777360Y8345335D01*
X4765000Y8315495D01*
X4765000Y12338604D01*
X4800000Y12335157D01*
X6000000Y12335157D01*
X6074689Y12342513D01*
X6146508Y12364299D01*
X6212696Y12399678D01*
X6270711Y12447289D01*
X6318322Y12505304D01*
X6320177Y12508775D01*
X6339498Y12479859D01*
X6489859Y12329498D01*
X6666665Y12211360D01*
X6863122Y12129985D01*
X7071679Y12088500D01*
X7284321Y12088500D01*
X7492878Y12129985D01*
X7689335Y12211360D01*
X7866141Y12329498D01*
X8016502Y12479859D01*
X8134640Y12656665D01*
X8216015Y12853122D01*
X8257500Y13061679D01*
X8257500Y13274321D01*
X8216015Y13482878D01*
X8134640Y13679335D01*
X8016502Y13856141D01*
X7866141Y14006502D01*
X7689335Y14124640D01*
X7492878Y14206015D01*
X7284321Y14247500D01*
X7071679Y14247500D01*
X6863122Y14206015D01*
X6666665Y14124640D01*
X6489859Y14006502D01*
X6339498Y13856141D01*
X6320177Y13827225D01*
X6318322Y13830696D01*
X6270711Y13888711D01*
X6212696Y13936322D01*
X6146508Y13971701D01*
X6074689Y13993487D01*
X6000000Y14000843D01*
X4800000Y14000843D01*
X4765000Y13997396D01*
X4765000Y14815104D01*
X4800000Y14811657D01*
X6000000Y14811657D01*
X6074689Y14819013D01*
X6146508Y14840799D01*
X6212696Y14876178D01*
X6270711Y14923789D01*
X6318322Y14981804D01*
X6327156Y14998330D01*
X6339498Y14979859D01*
X6489859Y14829498D01*
X6666665Y14711360D01*
X6863122Y14629985D01*
X7071679Y14588500D01*
X7284321Y14588500D01*
X7492878Y14629985D01*
X7689335Y14711360D01*
X7866141Y14829498D01*
X8016502Y14979859D01*
X8134640Y15156665D01*
X8216015Y15353122D01*
X8257500Y15561679D01*
X8257500Y15774321D01*
X8216015Y15982878D01*
X8134640Y16179335D01*
X8016502Y16356141D01*
X7866141Y16506502D01*
X7689335Y16624640D01*
X7492878Y16706015D01*
X7284321Y16747500D01*
X7071679Y16747500D01*
X6863122Y16706015D01*
X6666665Y16624640D01*
X6489859Y16506502D01*
X6339498Y16356141D01*
X6311968Y16314939D01*
X6270711Y16365211D01*
X6212696Y16412822D01*
X6146508Y16448201D01*
X6074689Y16469987D01*
X6000000Y16477343D01*
X4800000Y16477343D01*
X4765000Y16473896D01*
X4765000Y17355104D01*
X4800000Y17351657D01*
X6000000Y17351657D01*
X6074689Y17359013D01*
X6146508Y17380799D01*
X6212696Y17416178D01*
X6270711Y17463789D01*
X6314546Y17517203D01*
X6339498Y17479859D01*
X6489859Y17329498D01*
X6666665Y17211360D01*
X6863122Y17129985D01*
X7071679Y17088500D01*
X7284321Y17088500D01*
X7492878Y17129985D01*
X7689335Y17211360D01*
X7866141Y17329498D01*
X8016502Y17479859D01*
X8134640Y17656665D01*
X8216015Y17853122D01*
X8257500Y18061679D01*
X8257500Y18274321D01*
X8216015Y18482878D01*
X8134640Y18679335D01*
X8016502Y18856141D01*
X7866141Y19006502D01*
X7689335Y19124640D01*
X7492878Y19206015D01*
X7284321Y19247500D01*
X7071679Y19247500D01*
X6863122Y19206015D01*
X6666665Y19124640D01*
X6489859Y19006502D01*
X6339498Y18856141D01*
X6325077Y18834558D01*
X6318322Y18847196D01*
X6270711Y18905211D01*
X6212696Y18952822D01*
X6146508Y18988201D01*
X6074689Y19009987D01*
X6000000Y19017343D01*
X4800000Y19017343D01*
X4765000Y19013896D01*
X4765000Y19831604D01*
X4800000Y19828157D01*
X6000000Y19828157D01*
X6074689Y19835513D01*
X6146508Y19857299D01*
X6212696Y19892678D01*
X6270711Y19940289D01*
X6318322Y19998304D01*
X6322256Y20005664D01*
X6339498Y19979859D01*
X6489859Y19829498D01*
X6666665Y19711360D01*
X6863122Y19629985D01*
X7071679Y19588500D01*
X7284321Y19588500D01*
X7492878Y19629985D01*
X7689335Y19711360D01*
X7866141Y19829498D01*
X8016502Y19979859D01*
X8134640Y20156665D01*
X8216015Y20353122D01*
X8257500Y20561679D01*
X8257500Y20774321D01*
X8216015Y20982878D01*
X8134640Y21179335D01*
X8016502Y21356141D01*
X7866141Y21506502D01*
X7689335Y21624640D01*
X7492878Y21706015D01*
X7284321Y21747500D01*
X7071679Y21747500D01*
X6863122Y21706015D01*
X6666665Y21624640D01*
X6489859Y21506502D01*
X6339498Y21356141D01*
X6318045Y21324034D01*
X6270711Y21381711D01*
X6212696Y21429322D01*
X6146508Y21464701D01*
X6074689Y21486487D01*
X6000000Y21493843D01*
X4800000Y21493843D01*
X4765000Y21490396D01*
X4765000Y22368157D01*
X5957000Y22368157D01*
X6031689Y22375513D01*
X6103508Y22397299D01*
X6169696Y22432678D01*
X6227711Y22480289D01*
X6275322Y22538304D01*
X6286488Y22559194D01*
X6339498Y22479859D01*
X6489859Y22329498D01*
X6666665Y22211360D01*
X6863122Y22129985D01*
X7071679Y22088500D01*
X7284321Y22088500D01*
X7492878Y22129985D01*
X7689335Y22211360D01*
X7866141Y22329498D01*
X8016502Y22479859D01*
X8134640Y22656665D01*
X8216015Y22853122D01*
X8257500Y23061679D01*
X8257500Y23274321D01*
X8216015Y23482878D01*
X8134640Y23679335D01*
X8016502Y23856141D01*
X7866141Y24006502D01*
X7689335Y24124640D01*
X7492878Y24206015D01*
X7284321Y24247500D01*
X7071679Y24247500D01*
X6863122Y24206015D01*
X6666665Y24124640D01*
X6489859Y24006502D01*
X6339498Y23856141D01*
X6306088Y23806139D01*
X6275322Y23863696D01*
X6227711Y23921711D01*
X6169696Y23969322D01*
X6103508Y24004701D01*
X6031689Y24026487D01*
X5957000Y24033843D01*
X4765000Y24033843D01*
X4765000Y24848104D01*
X4800000Y24844657D01*
X6000000Y24844657D01*
X6074689Y24852013D01*
X6146508Y24873799D01*
X6212696Y24909178D01*
X6270711Y24956789D01*
X6317124Y25013344D01*
X6339498Y24979859D01*
X6489859Y24829498D01*
X6666665Y24711360D01*
X6863122Y24629985D01*
X7071679Y24588500D01*
X7284321Y24588500D01*
X7492878Y24629985D01*
X7689335Y24711360D01*
X7776347Y24769500D01*
X9391157Y24769500D01*
X9391157Y23709500D01*
X9398513Y23634811D01*
X9420299Y23562992D01*
X9455678Y23496804D01*
X9503289Y23438789D01*
X9561304Y23391178D01*
X9627492Y23355799D01*
X9699311Y23334013D01*
X9774000Y23326657D01*
X10424000Y23326657D01*
X10498689Y23334013D01*
X10570508Y23355799D01*
X10636696Y23391178D01*
X10694711Y23438789D01*
X10742322Y23496804D01*
X10777701Y23562992D01*
X10799487Y23634811D01*
X10806843Y23709500D01*
X10806843Y24769500D01*
X10799487Y24844189D01*
X10777701Y24916008D01*
X10742322Y24982196D01*
X10694711Y25040211D01*
X10636696Y25087822D01*
X10570508Y25123201D01*
X10498689Y25144987D01*
X10424000Y25152343D01*
X9774000Y25152343D01*
X9699311Y25144987D01*
X9627492Y25123201D01*
X9561304Y25087822D01*
X9503289Y25040211D01*
X9455678Y24982196D01*
X9420299Y24916008D01*
X9398513Y24844189D01*
X9391157Y24769500D01*
X7776347Y24769500D01*
X7866141Y24829498D01*
X8016502Y24979859D01*
X8134640Y25156665D01*
X8216015Y25353122D01*
X8257500Y25561679D01*
X8257500Y25774321D01*
X8216015Y25982878D01*
X8134640Y26179335D01*
X8016502Y26356141D01*
X7866141Y26506502D01*
X7689335Y26624640D01*
X7492878Y26706015D01*
X7284321Y26747500D01*
X7071679Y26747500D01*
X6863122Y26706015D01*
X6666665Y26624640D01*
X6489859Y26506502D01*
X6339498Y26356141D01*
X6322998Y26331447D01*
X6318322Y26340196D01*
X6270711Y26398211D01*
X6212696Y26445822D01*
X6146508Y26481201D01*
X6074689Y26502987D01*
X6000000Y26510343D01*
X5057159Y26510343D01*
X5684816Y27138000D01*
X9432054Y27138000D01*
X9420299Y27116008D01*
X9398513Y27044189D01*
X9391157Y26969500D01*
X9391157Y25909500D01*
X9398513Y25834811D01*
X9420299Y25762992D01*
X9455678Y25696804D01*
X9503289Y25638789D01*
X9561304Y25591178D01*
X9627492Y25555799D01*
X9699311Y25534013D01*
X9774000Y25526657D01*
X10424000Y25526657D01*
X10498689Y25534013D01*
X10570508Y25555799D01*
X10636696Y25591178D01*
X10694711Y25638789D01*
X10742322Y25696804D01*
X10777701Y25762992D01*
X10799487Y25834811D01*
X10806843Y25909500D01*
X10806843Y26969500D01*
X10799759Y27041425D01*
X10861000Y26980184D01*
X10861000Y26122000D01*
X10868321Y26047671D01*
X10890002Y25976198D01*
X10925210Y25910328D01*
X10972592Y25852592D01*
X11353592Y25471592D01*
X11411328Y25424210D01*
X11477198Y25389002D01*
X11490232Y25385048D01*
X11226592Y25121408D01*
X11179210Y25063672D01*
X11144002Y24997802D01*
X11122321Y24926329D01*
X11115000Y24852000D01*
X11115000Y23137500D01*
X11122321Y23063171D01*
X11144002Y22991698D01*
X11179210Y22925828D01*
X11226592Y22868092D01*
X11353592Y22741092D01*
X11411328Y22693710D01*
X11477198Y22658502D01*
X11548671Y22636821D01*
X11623000Y22629500D01*
X15785455Y22629500D01*
X15775067Y22619112D01*
X15700540Y22507574D01*
X15649205Y22383640D01*
X15623034Y22252073D01*
X15623034Y22117927D01*
X15649205Y21986360D01*
X15700540Y21862426D01*
X15775067Y21750888D01*
X15869922Y21656033D01*
X15981460Y21581506D01*
X16105394Y21530171D01*
X16236961Y21504000D01*
X16371107Y21504000D01*
X16502674Y21530171D01*
X16626608Y21581506D01*
X16738146Y21656033D01*
X16833001Y21750888D01*
X16907528Y21862426D01*
X16958863Y21986360D01*
X16985034Y22117927D01*
X16985034Y22157096D01*
X17041402Y22154029D01*
X17029013Y22113189D01*
X17021657Y22038500D01*
X17021657Y21809077D01*
X16488435Y21275855D01*
X16469052Y21259948D01*
X16405571Y21182595D01*
X16358399Y21094342D01*
X16329351Y20998584D01*
X16322000Y20923947D01*
X16319543Y20899000D01*
X16321798Y20876111D01*
X16305311Y20874487D01*
X16237788Y20854004D01*
X16224322Y20879196D01*
X16176711Y20937211D01*
X16118696Y20984822D01*
X16052508Y21020201D01*
X15980689Y21041987D01*
X15906000Y21049343D01*
X14706000Y21049343D01*
X14631311Y21041987D01*
X14559492Y21020201D01*
X14493304Y20984822D01*
X14435289Y20937211D01*
X14387678Y20879196D01*
X14352299Y20813008D01*
X14330513Y20741189D01*
X14323157Y20666500D01*
X14323157Y19766500D01*
X14330513Y19691811D01*
X14352299Y19619992D01*
X14387678Y19553804D01*
X14435289Y19495789D01*
X14453919Y19480500D01*
X14435289Y19465211D01*
X14387678Y19407196D01*
X14356000Y19347932D01*
X14324322Y19407196D01*
X14276711Y19465211D01*
X14218696Y19512822D01*
X14152508Y19548201D01*
X14080689Y19569987D01*
X14035359Y19574452D01*
X14059701Y19619992D01*
X14081487Y19691811D01*
X14088843Y19766500D01*
X14088843Y20666500D01*
X14081487Y20741189D01*
X14059701Y20813008D01*
X14024322Y20879196D01*
X13976711Y20937211D01*
X13918696Y20984822D01*
X13852508Y21020201D01*
X13780689Y21041987D01*
X13706000Y21049343D01*
X12506000Y21049343D01*
X12431311Y21041987D01*
X12359492Y21020201D01*
X12293304Y20984822D01*
X12235289Y20937211D01*
X12187678Y20879196D01*
X12152299Y20813008D01*
X12130513Y20741189D01*
X12123157Y20666500D01*
X12123157Y19766500D01*
X12130513Y19691811D01*
X12152299Y19619992D01*
X12187678Y19553804D01*
X12235289Y19495789D01*
X12293304Y19448178D01*
X12359492Y19412799D01*
X12431311Y19391013D01*
X12476641Y19386548D01*
X12452299Y19341008D01*
X12430513Y19269189D01*
X12423157Y19194500D01*
X12423157Y18444500D01*
X12430513Y18369811D01*
X12452299Y18297992D01*
X12487678Y18231804D01*
X12535289Y18173789D01*
X12593304Y18126178D01*
X12659492Y18090799D01*
X12731311Y18069013D01*
X12806000Y18061657D01*
X14006000Y18061657D01*
X14080689Y18069013D01*
X14152508Y18090799D01*
X14218696Y18126178D01*
X14276711Y18173789D01*
X14324322Y18231804D01*
X14356000Y18291068D01*
X14387678Y18231804D01*
X14435289Y18173789D01*
X14493304Y18126178D01*
X14559492Y18090799D01*
X14631311Y18069013D01*
X14706000Y18061657D01*
X15906000Y18061657D01*
X15980689Y18069013D01*
X16052508Y18090799D01*
X16118696Y18126178D01*
X16176711Y18173789D01*
X16224322Y18231804D01*
X16259701Y18297992D01*
X16281487Y18369811D01*
X16288843Y18444500D01*
X16288843Y18639423D01*
X16565577Y18916157D01*
X17280000Y18916157D01*
X17354689Y18923513D01*
X17426508Y18945299D01*
X17492696Y18980678D01*
X17550711Y19028289D01*
X17560250Y19039912D01*
X17569789Y19028289D01*
X17627804Y18980678D01*
X17693992Y18945299D01*
X17765811Y18923513D01*
X17840500Y18916157D01*
X18594770Y18916157D01*
X18576006Y18888074D01*
X18524671Y18764140D01*
X18498500Y18632573D01*
X18498500Y18498427D01*
X18524671Y18366860D01*
X18576006Y18242926D01*
X18650533Y18131388D01*
X18745388Y18036533D01*
X18856926Y17962006D01*
X18980860Y17910671D01*
X19112427Y17884500D01*
X19246573Y17884500D01*
X19378140Y17910671D01*
X19502074Y17962006D01*
X19613612Y18036533D01*
X19708467Y18131388D01*
X19782994Y18242926D01*
X19834329Y18366860D01*
X19860500Y18498427D01*
X19860500Y18632573D01*
X19834329Y18764140D01*
X19782994Y18888074D01*
X19708467Y18999612D01*
X19613612Y19094467D01*
X19502074Y19168994D01*
X19378140Y19220329D01*
X19246573Y19246500D01*
X19118172Y19246500D01*
X19123343Y19299000D01*
X19123343Y19391000D01*
X19311601Y19391000D01*
X19319304Y19384678D01*
X19385492Y19349299D01*
X19457311Y19327513D01*
X19532000Y19320157D01*
X20732000Y19320157D01*
X20806689Y19327513D01*
X20878508Y19349299D01*
X20944696Y19384678D01*
X21002711Y19432289D01*
X21050322Y19490304D01*
X21085701Y19556492D01*
X21107487Y19628311D01*
X21114843Y19703000D01*
X21114843Y20603000D01*
X21107487Y20677689D01*
X21085701Y20749508D01*
X21050322Y20815696D01*
X21002711Y20873711D01*
X20944696Y20921322D01*
X20878508Y20956701D01*
X20806689Y20978487D01*
X20732000Y20985843D01*
X20208077Y20985843D01*
X20207372Y20986548D01*
X20175448Y21025448D01*
X20156060Y21041359D01*
X20062105Y21135315D01*
X20067343Y21188500D01*
X20067343Y22038500D01*
X20059987Y22113189D01*
X20047598Y22154029D01*
X20232263Y22164075D01*
X20303062Y22334103D01*
X20339328Y22514676D01*
X20339671Y22698855D01*
X20304074Y22879561D01*
X20233908Y23049851D01*
X20232263Y23052925D01*
X20092056Y23060552D01*
X20064108Y23088500D01*
X20092056Y23116448D01*
X20232263Y23124075D01*
X20303062Y23294103D01*
X20339328Y23474676D01*
X20339671Y23658855D01*
X20329793Y23709000D01*
X20418684Y23709000D01*
X20942092Y23185592D01*
X20999828Y23138210D01*
X21065698Y23103002D01*
X21137171Y23081321D01*
X21211500Y23074000D01*
X26482000Y23074000D01*
X26556329Y23081321D01*
X26627802Y23103002D01*
X26693672Y23138210D01*
X26751408Y23185592D01*
X28529408Y24963592D01*
X28576790Y25021328D01*
X28611998Y25087198D01*
X28633679Y25158671D01*
X28641000Y25233000D01*
X28641000Y26757000D01*
X28633679Y26831329D01*
X28611998Y26902802D01*
X28576790Y26968672D01*
X28529408Y27026408D01*
X28275408Y27280408D01*
X28217672Y27327790D01*
X28178170Y27348904D01*
X28211908Y27376592D01*
X28338908Y27503592D01*
X28386290Y27561328D01*
X28421498Y27627198D01*
X28443179Y27698671D01*
X28450500Y27773000D01*
X28450500Y28598500D01*
X28443179Y28672829D01*
X28421498Y28744302D01*
X28386290Y28810172D01*
X28338908Y28867908D01*
X28211908Y28994908D01*
X28154172Y29042290D01*
X28088302Y29077498D01*
X28016829Y29099179D01*
X27942500Y29106500D01*
X27478682Y29106500D01*
X26939866Y29645316D01*
X26939866Y30567000D01*
X26936406Y30602126D01*
X26965233Y30567000D01*
X26985453Y30542362D01*
X27004830Y30526460D01*
X28666400Y28864889D01*
X28666401Y16960976D01*
X28661967Y16967612D01*
X28567112Y17062467D01*
X28455574Y17136994D01*
X28331640Y17188329D01*
X28200073Y17214500D01*
X28065927Y17214500D01*
X27934360Y17188329D01*
X27810426Y17136994D01*
X27698888Y17062467D01*
X27604033Y16967612D01*
X27529506Y16856074D01*
X27478171Y16732140D01*
X27452000Y16600573D01*
X27452000Y16466427D01*
X27478171Y16334860D01*
X27529506Y16210926D01*
X27604033Y16099388D01*
X27698888Y16004533D01*
X27810426Y15930006D01*
X27934360Y15878671D01*
X28065927Y15852500D01*
X28200073Y15852500D01*
X28331640Y15878671D01*
X28455574Y15930006D01*
X28567112Y16004533D01*
X28661967Y16099388D01*
X28671022Y16112940D01*
X28673752Y16085225D01*
X28697952Y16005448D01*
X28702800Y15989467D01*
X28749971Y15901215D01*
X28797550Y15843240D01*
X28813453Y15823862D01*
X28832830Y15807960D01*
X30836460Y13804329D01*
X30852362Y13784952D01*
X30871739Y13769050D01*
X30929714Y13721471D01*
X31008545Y13679335D01*
X31017967Y13674299D01*
X31113725Y13645251D01*
X31188363Y13637900D01*
X31188365Y13637900D01*
X31213309Y13635443D01*
X31238253Y13637900D01*
X35378246Y13637900D01*
X35403190Y13635443D01*
X35428134Y13637900D01*
X35428137Y13637900D01*
X35502775Y13645251D01*
X35598533Y13674299D01*
X35686785Y13721471D01*
X35764138Y13784952D01*
X35780045Y13804335D01*
X36386665Y14410955D01*
X36406048Y14426862D01*
X36469529Y14504215D01*
X36516701Y14592467D01*
X36545749Y14688225D01*
X36553100Y14762863D01*
X36553100Y14762866D01*
X36555557Y14787810D01*
X36553100Y14812754D01*
X36553100Y15430309D01*
X36652212Y15496533D01*
X36747067Y15591388D01*
X36821594Y15702926D01*
X36872929Y15826860D01*
X36899100Y15958427D01*
X36899100Y16092573D01*
X36872929Y16224140D01*
X36821594Y16348074D01*
X36747067Y16459612D01*
X36652212Y16554467D01*
X36540674Y16628994D01*
X36416740Y16680329D01*
X36285173Y16706500D01*
X36151027Y16706500D01*
X36019460Y16680329D01*
X35895526Y16628994D01*
X35816500Y16576191D01*
X35737474Y16628994D01*
X35613540Y16680329D01*
X35481973Y16706500D01*
X35347827Y16706500D01*
X35216260Y16680329D01*
X35092326Y16628994D01*
X34980788Y16554467D01*
X34885933Y16459612D01*
X34811406Y16348074D01*
X34760071Y16224140D01*
X34733900Y16092573D01*
X34733900Y15958427D01*
X34760071Y15826860D01*
X34811406Y15702926D01*
X34885933Y15591388D01*
X34980788Y15496533D01*
X35079901Y15430308D01*
X35079900Y15187611D01*
X35003390Y15111100D01*
X31613111Y15111100D01*
X30139600Y16584610D01*
X30139600Y18817073D01*
X32573000Y18817073D01*
X32573000Y18682927D01*
X32599171Y18551360D01*
X32650506Y18427426D01*
X32725033Y18315888D01*
X32819888Y18221033D01*
X32931426Y18146506D01*
X33055360Y18095171D01*
X33186927Y18069000D01*
X33321073Y18069000D01*
X33452640Y18095171D01*
X33576574Y18146506D01*
X33688112Y18221033D01*
X33734479Y18267400D01*
X34073665Y18267400D01*
X34097370Y18265065D01*
X34121075Y18267400D01*
X34121077Y18267400D01*
X34191976Y18274383D01*
X34282947Y18301978D01*
X34366785Y18346791D01*
X34440271Y18407099D01*
X34455387Y18425518D01*
X38744488Y22714618D01*
X38762901Y22729729D01*
X38823209Y22803215D01*
X38868022Y22887053D01*
X38881937Y22932927D01*
X38895617Y22978023D01*
X38904935Y23072630D01*
X38902600Y23096337D01*
X38902600Y23292021D01*
X38948967Y23338388D01*
X39023494Y23449926D01*
X39074829Y23573860D01*
X39101000Y23705427D01*
X39101000Y23839573D01*
X39074829Y23971140D01*
X39023494Y24095074D01*
X38948967Y24206612D01*
X38854112Y24301467D01*
X38742574Y24375994D01*
X38618640Y24427329D01*
X38487073Y24453500D01*
X38352927Y24453500D01*
X38221360Y24427329D01*
X38097426Y24375994D01*
X37985888Y24301467D01*
X37891033Y24206612D01*
X37816506Y24095074D01*
X37765171Y23971140D01*
X37739000Y23839573D01*
X37739000Y23705427D01*
X37765171Y23573860D01*
X37816506Y23449926D01*
X37891033Y23338388D01*
X37937400Y23292021D01*
X37937400Y23272530D01*
X33897471Y19232600D01*
X33734479Y19232600D01*
X33688112Y19278967D01*
X33576574Y19353494D01*
X33452640Y19404829D01*
X33321073Y19431000D01*
X33186927Y19431000D01*
X33055360Y19404829D01*
X32931426Y19353494D01*
X32819888Y19278967D01*
X32725033Y19184112D01*
X32650506Y19072574D01*
X32599171Y18948640D01*
X32573000Y18817073D01*
X30139600Y18817073D01*
X30139600Y22813073D01*
X32469500Y22813073D01*
X32469500Y22678927D01*
X32495671Y22547360D01*
X32547006Y22423426D01*
X32621533Y22311888D01*
X32716388Y22217033D01*
X32827926Y22142506D01*
X32951860Y22091171D01*
X33083427Y22065000D01*
X33217573Y22065000D01*
X33349140Y22091171D01*
X33473074Y22142506D01*
X33531500Y22181545D01*
X33589926Y22142506D01*
X33713860Y22091171D01*
X33845427Y22065000D01*
X33979573Y22065000D01*
X34111140Y22091171D01*
X34235074Y22142506D01*
X34346612Y22217033D01*
X34441467Y22311888D01*
X34515994Y22423426D01*
X34567329Y22547360D01*
X34593500Y22678927D01*
X34593500Y22813073D01*
X34567329Y22944640D01*
X34516616Y23067073D01*
X34819000Y23067073D01*
X34819000Y22932927D01*
X34845171Y22801360D01*
X34896506Y22677426D01*
X34971033Y22565888D01*
X35065888Y22471033D01*
X35177426Y22396506D01*
X35301360Y22345171D01*
X35432927Y22319000D01*
X35567073Y22319000D01*
X35698640Y22345171D01*
X35822574Y22396506D01*
X35934112Y22471033D01*
X36028967Y22565888D01*
X36103494Y22677426D01*
X36154829Y22801360D01*
X36181000Y22932927D01*
X36181000Y23067073D01*
X36154829Y23198640D01*
X36103494Y23322574D01*
X36028967Y23434112D01*
X35934112Y23528967D01*
X35822574Y23603494D01*
X35698640Y23654829D01*
X35567073Y23681000D01*
X35432927Y23681000D01*
X35301360Y23654829D01*
X35177426Y23603494D01*
X35065888Y23528967D01*
X34971033Y23434112D01*
X34896506Y23322574D01*
X34845171Y23198640D01*
X34819000Y23067073D01*
X34516616Y23067073D01*
X34515994Y23068574D01*
X34441467Y23180112D01*
X34346612Y23274967D01*
X34235074Y23349494D01*
X34111140Y23400829D01*
X33979573Y23427000D01*
X33845427Y23427000D01*
X33713860Y23400829D01*
X33589926Y23349494D01*
X33531500Y23310455D01*
X33473074Y23349494D01*
X33349140Y23400829D01*
X33217573Y23427000D01*
X33083427Y23427000D01*
X32951860Y23400829D01*
X32827926Y23349494D01*
X32716388Y23274967D01*
X32621533Y23180112D01*
X32547006Y23068574D01*
X32495671Y22944640D01*
X32469500Y22813073D01*
X30139600Y22813073D01*
X30139600Y29239747D01*
X30142057Y29264691D01*
X30138445Y29301360D01*
X30132249Y29364275D01*
X30103201Y29460033D01*
X30088899Y29486790D01*
X30056029Y29548286D01*
X30008450Y29606261D01*
X29992548Y29625638D01*
X29973171Y29641540D01*
X28677742Y30936968D01*
X28684344Y31004000D01*
X28684344Y31654000D01*
X28676988Y31728689D01*
X28655202Y31800508D01*
X28624480Y31857983D01*
X28631429Y31874758D01*
X28657600Y32006325D01*
X28657600Y32140471D01*
X28631429Y32272038D01*
X28580094Y32395972D01*
X28505567Y32507510D01*
X28410712Y32602365D01*
X28299174Y32676892D01*
X28175240Y32728227D01*
X28043673Y32754398D01*
X27909527Y32754398D01*
X27777960Y32728227D01*
X27654026Y32676892D01*
X27575000Y32624089D01*
X27495974Y32676892D01*
X27372040Y32728227D01*
X27240473Y32754398D01*
X27106327Y32754398D01*
X26974760Y32728227D01*
X26850826Y32676892D01*
X26739288Y32602365D01*
X26644433Y32507510D01*
X26569906Y32395972D01*
X26518571Y32272038D01*
X26492400Y32140471D01*
X26492400Y32006325D01*
X26518571Y31874758D01*
X26547786Y31804226D01*
X26545799Y31800508D01*
X26524013Y31728689D01*
X26516657Y31654000D01*
X26516657Y31108168D01*
X26514168Y31109498D01*
X26442695Y31131179D01*
X26368366Y31138500D01*
X23878500Y31138500D01*
X23804171Y31131179D01*
X23732698Y31109498D01*
X23666828Y31074290D01*
X23609092Y31026908D01*
X23131000Y30548816D01*
X23131000Y33352062D01*
X23530732Y33352062D01*
X23600397Y33163850D01*
X23714447Y32978178D01*
X23862529Y32818324D01*
X24038951Y32690431D01*
X24236934Y32599414D01*
X24448869Y32548770D01*
X24623000Y32697436D01*
X24623000Y33523000D01*
X24877000Y33523000D01*
X24877000Y32697436D01*
X25051131Y32548770D01*
X25263066Y32599414D01*
X25461049Y32690431D01*
X25637471Y32818324D01*
X25785553Y32978178D01*
X25899603Y33163850D01*
X25969268Y33352062D01*
X28530732Y33352062D01*
X28600397Y33163850D01*
X28714447Y32978178D01*
X28862529Y32818324D01*
X29038951Y32690431D01*
X29236934Y32599414D01*
X29448869Y32548770D01*
X29623000Y32697436D01*
X29623000Y33523000D01*
X29877000Y33523000D01*
X29877000Y32697436D01*
X30051131Y32548770D01*
X30263066Y32599414D01*
X30461049Y32690431D01*
X30637471Y32818324D01*
X30785553Y32978178D01*
X30899603Y33163850D01*
X30969268Y33352062D01*
X30842734Y33523000D01*
X29877000Y33523000D01*
X29623000Y33523000D01*
X28657266Y33523000D01*
X28530732Y33352062D01*
X25969268Y33352062D01*
X25842734Y33523000D01*
X24877000Y33523000D01*
X24623000Y33523000D01*
X23657266Y33523000D01*
X23530732Y33352062D01*
X23131000Y33352062D01*
X23131000Y33947938D01*
X23530732Y33947938D01*
X23657266Y33777000D01*
X24623000Y33777000D01*
X24623000Y34602564D01*
X24877000Y34602564D01*
X24877000Y33777000D01*
X25842734Y33777000D01*
X25969268Y33947938D01*
X28530732Y33947938D01*
X28657266Y33777000D01*
X29623000Y33777000D01*
X29623000Y34602564D01*
X29877000Y34602564D01*
X29877000Y33777000D01*
X30842734Y33777000D01*
X30969268Y33947938D01*
X30899603Y34136150D01*
X30785553Y34321822D01*
X30637471Y34481676D01*
X30461049Y34609569D01*
X30263066Y34700586D01*
X30051131Y34751230D01*
X29877000Y34602564D01*
X29623000Y34602564D01*
X29448869Y34751230D01*
X29236934Y34700586D01*
X29038951Y34609569D01*
X28862529Y34481676D01*
X28714447Y34321822D01*
X28600397Y34136150D01*
X28530732Y33947938D01*
X25969268Y33947938D01*
X25899603Y34136150D01*
X25785553Y34321822D01*
X25637471Y34481676D01*
X25461049Y34609569D01*
X25263066Y34700586D01*
X25051131Y34751230D01*
X24877000Y34602564D01*
X24623000Y34602564D01*
X24448869Y34751230D01*
X24236934Y34700586D01*
X24038951Y34609569D01*
X23862529Y34481676D01*
X23714447Y34321822D01*
X23600397Y34136150D01*
X23530732Y33947938D01*
X23131000Y33947938D01*
X23131000Y35121762D01*
X23225024Y35060724D01*
X23448126Y34980881D01*
X23623000Y35107046D01*
X23623000Y36223000D01*
X23877000Y36223000D01*
X23877000Y35107046D01*
X24051874Y34980881D01*
X24274976Y35060724D01*
X24462764Y35182631D01*
X24623161Y35338831D01*
X24750003Y35523322D01*
X24838415Y35729013D01*
X24885000Y35948000D01*
X24885000Y36223000D01*
X29615000Y36223000D01*
X29615000Y35948000D01*
X29661585Y35729013D01*
X29749997Y35523322D01*
X29876839Y35338831D01*
X30037236Y35182631D01*
X30225024Y35060724D01*
X30448126Y34980881D01*
X30623000Y35107046D01*
X30623000Y36223000D01*
X29615000Y36223000D01*
X24885000Y36223000D01*
X23877000Y36223000D01*
X23623000Y36223000D01*
X23603000Y36223000D01*
X23603000Y36477000D01*
X23623000Y36477000D01*
X23623000Y36497000D01*
X23877000Y36497000D01*
X23877000Y36477000D01*
X24885000Y36477000D01*
X24885000Y36752000D01*
X24838415Y36970987D01*
X24829211Y36992400D01*
X29670789Y36992400D01*
X29661585Y36970987D01*
X29615000Y36752000D01*
X29615000Y36477000D01*
X30623000Y36477000D01*
X30623000Y36497000D01*
X30877000Y36497000D01*
X30877000Y36477000D01*
X30897000Y36477000D01*
X30897000Y36223000D01*
X30877000Y36223000D01*
X30877000Y35107046D01*
X31051874Y34980881D01*
X31274976Y35060724D01*
X31462764Y35182631D01*
X31562018Y35279288D01*
X31562019Y25180080D01*
X31541051Y25159112D01*
X31466524Y25047574D01*
X31415189Y24923640D01*
X31389018Y24792073D01*
X31389018Y24657927D01*
X31415189Y24526360D01*
X31466524Y24402426D01*
X31541051Y24290888D01*
X31635906Y24196033D01*
X31747444Y24121506D01*
X31871378Y24070171D01*
X32002945Y24044000D01*
X32137091Y24044000D01*
X32268658Y24070171D01*
X32392592Y24121506D01*
X32504130Y24196033D01*
X32598985Y24290888D01*
X32673512Y24402426D01*
X32724847Y24526360D01*
X32751018Y24657927D01*
X32751018Y24792073D01*
X32724847Y24923640D01*
X32673512Y25047574D01*
X32598985Y25159112D01*
X32578018Y25180079D01*
X32578018Y34776000D01*
X40000157Y34776000D01*
X40000157Y33576000D01*
X40007513Y33501311D01*
X40029299Y33429492D01*
X40064678Y33363304D01*
X40112289Y33305289D01*
X40170304Y33257678D01*
X40236492Y33222299D01*
X40308311Y33200513D01*
X40350400Y33196368D01*
X40350400Y33015979D01*
X40304033Y32969612D01*
X40229506Y32858074D01*
X40178171Y32734140D01*
X40152000Y32602573D01*
X40152000Y32468427D01*
X40178171Y32336860D01*
X40229506Y32212926D01*
X40304033Y32101388D01*
X40398888Y32006533D01*
X40510426Y31932006D01*
X40634360Y31880671D01*
X40765927Y31854500D01*
X40900073Y31854500D01*
X41031640Y31880671D01*
X41155574Y31932006D01*
X41267112Y32006533D01*
X41361967Y32101388D01*
X41436494Y32212926D01*
X41487829Y32336860D01*
X41514000Y32468427D01*
X41514000Y32602573D01*
X41487829Y32734140D01*
X41436494Y32858074D01*
X41361967Y32969612D01*
X41315600Y33015979D01*
X41315600Y33196368D01*
X41357689Y33200513D01*
X41429508Y33222299D01*
X41495696Y33257678D01*
X41553711Y33305289D01*
X41601322Y33363304D01*
X41636701Y33429492D01*
X41658487Y33501311D01*
X41665843Y33576000D01*
X41665843Y34762500D01*
X42730657Y34762500D01*
X42730657Y33562500D01*
X42738013Y33487811D01*
X42759799Y33415992D01*
X42795178Y33349804D01*
X42842789Y33291789D01*
X42900804Y33244178D01*
X42966992Y33208799D01*
X43038811Y33187013D01*
X43080900Y33182868D01*
X43080900Y33015979D01*
X43034533Y32969612D01*
X42960006Y32858074D01*
X42908671Y32734140D01*
X42882500Y32602573D01*
X42882500Y32468427D01*
X42908671Y32336860D01*
X42960006Y32212926D01*
X43034533Y32101388D01*
X43129388Y32006533D01*
X43240926Y31932006D01*
X43364860Y31880671D01*
X43496427Y31854500D01*
X43630573Y31854500D01*
X43762140Y31880671D01*
X43886074Y31932006D01*
X43997612Y32006533D01*
X44092467Y32101388D01*
X44166994Y32212926D01*
X44218329Y32336860D01*
X44244500Y32468427D01*
X44244500Y32602573D01*
X44218329Y32734140D01*
X44166994Y32858074D01*
X44092467Y32969612D01*
X44046100Y33015979D01*
X44046100Y33182868D01*
X44088189Y33187013D01*
X44160008Y33208799D01*
X44226196Y33244178D01*
X44284211Y33291789D01*
X44331822Y33349804D01*
X44367201Y33415992D01*
X44388987Y33487811D01*
X44396343Y33562500D01*
X44396343Y34762500D01*
X44388987Y34837189D01*
X44367201Y34909008D01*
X44331822Y34975196D01*
X44284211Y35033211D01*
X44226196Y35080822D01*
X44160008Y35116201D01*
X44088189Y35137987D01*
X44013500Y35145343D01*
X43113500Y35145343D01*
X43038811Y35137987D01*
X42966992Y35116201D01*
X42900804Y35080822D01*
X42842789Y35033211D01*
X42795178Y34975196D01*
X42759799Y34909008D01*
X42738013Y34837189D01*
X42730657Y34762500D01*
X41665843Y34762500D01*
X41665843Y34776000D01*
X41658487Y34850689D01*
X41636701Y34922508D01*
X41601322Y34988696D01*
X41553711Y35046711D01*
X41495696Y35094322D01*
X41429508Y35129701D01*
X41357689Y35151487D01*
X41283000Y35158843D01*
X40383000Y35158843D01*
X40308311Y35151487D01*
X40236492Y35129701D01*
X40170304Y35094322D01*
X40112289Y35046711D01*
X40064678Y34988696D01*
X40029299Y34922508D01*
X40007513Y34850689D01*
X40000157Y34776000D01*
X32578018Y34776000D01*
X32578018Y35309598D01*
X33377420Y36109000D01*
X33407073Y36109000D01*
X33538640Y36135171D01*
X33662574Y36186506D01*
X33774112Y36261033D01*
X33868967Y36355888D01*
X33943494Y36467426D01*
X33994829Y36591360D01*
X34021000Y36722927D01*
X34021000Y36857073D01*
X33997344Y36976000D01*
X40000157Y36976000D01*
X40000157Y35776000D01*
X40007513Y35701311D01*
X40029299Y35629492D01*
X40064678Y35563304D01*
X40112289Y35505289D01*
X40170304Y35457678D01*
X40236492Y35422299D01*
X40308311Y35400513D01*
X40383000Y35393157D01*
X41283000Y35393157D01*
X41357689Y35400513D01*
X41429508Y35422299D01*
X41495696Y35457678D01*
X41553711Y35505289D01*
X41601322Y35563304D01*
X41636701Y35629492D01*
X41658487Y35701311D01*
X41665843Y35776000D01*
X41665843Y36962500D01*
X42730657Y36962500D01*
X42730657Y35762500D01*
X42738013Y35687811D01*
X42759799Y35615992D01*
X42795178Y35549804D01*
X42842789Y35491789D01*
X42900804Y35444178D01*
X42966992Y35408799D01*
X43038811Y35387013D01*
X43113500Y35379657D01*
X44013500Y35379657D01*
X44088189Y35387013D01*
X44160008Y35408799D01*
X44226196Y35444178D01*
X44284211Y35491789D01*
X44331822Y35549804D01*
X44367201Y35615992D01*
X44388987Y35687811D01*
X44396343Y35762500D01*
X44396343Y36962500D01*
X44388987Y37037189D01*
X44367201Y37109008D01*
X44331822Y37175196D01*
X44284211Y37233211D01*
X44226196Y37280822D01*
X44160008Y37316201D01*
X44088189Y37337987D01*
X44013500Y37345343D01*
X43113500Y37345343D01*
X43038811Y37337987D01*
X42966992Y37316201D01*
X42900804Y37280822D01*
X42842789Y37233211D01*
X42795178Y37175196D01*
X42759799Y37109008D01*
X42738013Y37037189D01*
X42730657Y36962500D01*
X41665843Y36962500D01*
X41665843Y36976000D01*
X41658487Y37050689D01*
X41636701Y37122508D01*
X41601322Y37188696D01*
X41553711Y37246711D01*
X41495696Y37294322D01*
X41429508Y37329701D01*
X41357689Y37351487D01*
X41283000Y37358843D01*
X40383000Y37358843D01*
X40308311Y37351487D01*
X40236492Y37329701D01*
X40170304Y37294322D01*
X40112289Y37246711D01*
X40064678Y37188696D01*
X40029299Y37122508D01*
X40007513Y37050689D01*
X40000157Y36976000D01*
X33997344Y36976000D01*
X33994829Y36988640D01*
X33943494Y37112574D01*
X33868967Y37224112D01*
X33774112Y37318967D01*
X33662574Y37393494D01*
X33538640Y37444829D01*
X33407073Y37471000D01*
X33272927Y37471000D01*
X33141360Y37444829D01*
X33017426Y37393494D01*
X32905888Y37318967D01*
X32811033Y37224112D01*
X32739932Y37117702D01*
X32728967Y37134112D01*
X32634112Y37228967D01*
X32522574Y37303494D01*
X32398640Y37354829D01*
X32267073Y37381000D01*
X32201500Y37381000D01*
X31988499Y37594000D01*
X45573000Y37594000D01*
X45573000Y29177000D01*
X45573000Y29177000D01*
G37*
X45573000Y29177000D02*
X44500000Y29177000D01*
X44475224Y29174560D01*
X44451399Y29167333D01*
X44429443Y29155597D01*
X44410197Y29139803D01*
X44394403Y29120557D01*
X44382667Y29098601D01*
X44375440Y29074776D01*
X44373000Y29050000D01*
X44373000Y27450000D01*
X44375440Y27425224D01*
X44382667Y27401399D01*
X44394403Y27379443D01*
X44410197Y27360197D01*
X44429443Y27344403D01*
X44451399Y27332667D01*
X44475224Y27325440D01*
X44500000Y27323000D01*
X45573000Y27323000D01*
X45573000Y24368212D01*
X45528967Y24434112D01*
X45434112Y24528967D01*
X45322574Y24603494D01*
X45198640Y24654829D01*
X45067073Y24681000D01*
X44932927Y24681000D01*
X44801360Y24654829D01*
X44677426Y24603494D01*
X44565888Y24528967D01*
X44471033Y24434112D01*
X44396506Y24322574D01*
X44345171Y24198640D01*
X44319000Y24067073D01*
X44319000Y23932927D01*
X44345171Y23801360D01*
X44396506Y23677426D01*
X44471033Y23565888D01*
X44565888Y23471033D01*
X44677426Y23396506D01*
X44801360Y23345171D01*
X44932927Y23319000D01*
X45067073Y23319000D01*
X45198640Y23345171D01*
X45322574Y23396506D01*
X45434112Y23471033D01*
X45528967Y23565888D01*
X45573000Y23631788D01*
X45573000Y22292260D01*
X45554209Y22327415D01*
X45493901Y22400901D01*
X45475488Y22416012D01*
X43106016Y24785483D01*
X43090900Y24803902D01*
X43017414Y24864210D01*
X42933576Y24909023D01*
X42842605Y24936618D01*
X42771706Y24943601D01*
X42771704Y24943601D01*
X42747999Y24945936D01*
X42724294Y24943601D01*
X41161846Y24943601D01*
X41138139Y24945936D01*
X41043532Y24936618D01*
X40975589Y24916008D01*
X40952562Y24909023D01*
X40868724Y24864210D01*
X40795238Y24803902D01*
X40780122Y24785483D01*
X40509872Y24515233D01*
X40491453Y24500117D01*
X40431145Y24426631D01*
X40386332Y24342792D01*
X40368941Y24285460D01*
X40328468Y24312503D01*
X40204534Y24363838D01*
X40072967Y24390009D01*
X39938821Y24390009D01*
X39807254Y24363838D01*
X39683320Y24312503D01*
X39571782Y24237976D01*
X39476927Y24143121D01*
X39402400Y24031583D01*
X39351065Y23907649D01*
X39324894Y23776082D01*
X39324894Y23641936D01*
X39351065Y23510369D01*
X39402400Y23386435D01*
X39476927Y23274897D01*
X39571782Y23180042D01*
X39683320Y23105515D01*
X39807254Y23054180D01*
X39938821Y23028009D01*
X40005992Y23028009D01*
X41510199Y21523802D01*
X41510199Y19018147D01*
X41454400Y19023643D01*
X39918600Y19023643D01*
X39918600Y20561521D01*
X39964967Y20607888D01*
X40039494Y20719426D01*
X40090829Y20843360D01*
X40117000Y20974927D01*
X40117000Y21109073D01*
X40090829Y21240640D01*
X40039494Y21364574D01*
X39964967Y21476112D01*
X39870112Y21570967D01*
X39758574Y21645494D01*
X39634640Y21696829D01*
X39503073Y21723000D01*
X39368927Y21723000D01*
X39237360Y21696829D01*
X39113426Y21645494D01*
X39001888Y21570967D01*
X38907033Y21476112D01*
X38832506Y21364574D01*
X38781171Y21240640D01*
X38755000Y21109073D01*
X38755000Y20974927D01*
X38781171Y20843360D01*
X38832506Y20719426D01*
X38907033Y20607888D01*
X38953401Y20561520D01*
X38953400Y13902905D01*
X38951065Y13879200D01*
X38953400Y13855495D01*
X38953400Y13855494D01*
X38960383Y13784595D01*
X38987978Y13693624D01*
X39032791Y13609785D01*
X39093099Y13536299D01*
X39111518Y13521183D01*
X39439301Y13193400D01*
X30250600Y13193400D01*
X27091600Y16352399D01*
X27091600Y19368655D01*
X27093935Y19392362D01*
X27084617Y19486969D01*
X27057022Y19577939D01*
X27029202Y19629985D01*
X27012209Y19661777D01*
X26971518Y19711360D01*
X26967013Y19716849D01*
X26967012Y19716850D01*
X26951901Y19735263D01*
X26933488Y19750374D01*
X25063379Y21620482D01*
X25048263Y21638901D01*
X24974777Y21699209D01*
X24890939Y21744022D01*
X24799968Y21771617D01*
X24729069Y21778600D01*
X24729067Y21778600D01*
X24705362Y21780935D01*
X24681657Y21778600D01*
X23025479Y21778600D01*
X22979112Y21824967D01*
X22867574Y21899494D01*
X22743640Y21950829D01*
X22612073Y21977000D01*
X22477927Y21977000D01*
X22346360Y21950829D01*
X22222426Y21899494D01*
X22110888Y21824967D01*
X22016033Y21730112D01*
X21941506Y21618574D01*
X21890171Y21494640D01*
X21864000Y21363073D01*
X21864000Y21228927D01*
X21890171Y21097360D01*
X21936363Y20985843D01*
X21732000Y20985843D01*
X21657311Y20978487D01*
X21585492Y20956701D01*
X21519304Y20921322D01*
X21461289Y20873711D01*
X21413678Y20815696D01*
X21378299Y20749508D01*
X21356513Y20677689D01*
X21349157Y20603000D01*
X21349157Y19703000D01*
X21356513Y19628311D01*
X21378299Y19556492D01*
X21413678Y19490304D01*
X21461289Y19432289D01*
X21519304Y19384678D01*
X21585492Y19349299D01*
X21657311Y19327513D01*
X21732000Y19320157D01*
X22932000Y19320157D01*
X23006689Y19327513D01*
X23078508Y19349299D01*
X23144696Y19384678D01*
X23202711Y19432289D01*
X23250322Y19490304D01*
X23285701Y19556492D01*
X23307487Y19628311D01*
X23314843Y19703000D01*
X23314843Y20603000D01*
X23307487Y20677689D01*
X23285701Y20749508D01*
X23251549Y20813400D01*
X23574623Y20813400D01*
X23541171Y20732640D01*
X23515000Y20601073D01*
X23515000Y20466927D01*
X23541171Y20335360D01*
X23592506Y20211426D01*
X23667033Y20099888D01*
X23751486Y20015435D01*
X23719506Y19967574D01*
X23668171Y19843640D01*
X23642000Y19712073D01*
X23642000Y19646499D01*
X22931508Y18936007D01*
X22913095Y18920896D01*
X22897984Y18902483D01*
X22897982Y18902481D01*
X22852787Y18847410D01*
X22807973Y18763571D01*
X22780379Y18672601D01*
X22771060Y18577995D01*
X22773396Y18554281D01*
X22773396Y18334811D01*
X22727028Y18288443D01*
X22652501Y18176905D01*
X22601166Y18052971D01*
X22574995Y17921404D01*
X22574995Y17787258D01*
X22601166Y17655691D01*
X22652501Y17531757D01*
X22700046Y17460600D01*
X20231479Y17460600D01*
X20185112Y17506967D01*
X20073574Y17581494D01*
X19949640Y17632829D01*
X19818073Y17659000D01*
X19683927Y17659000D01*
X19552360Y17632829D01*
X19428426Y17581494D01*
X19316888Y17506967D01*
X19222033Y17412112D01*
X19147506Y17300574D01*
X19096171Y17176640D01*
X19070000Y17045073D01*
X19070000Y16910927D01*
X19096171Y16779360D01*
X19147506Y16655426D01*
X19196838Y16581595D01*
X19142703Y16500576D01*
X19091368Y16376642D01*
X19065197Y16245075D01*
X19065197Y16110929D01*
X19091368Y15979362D01*
X19142703Y15855428D01*
X19217230Y15743890D01*
X19312085Y15649035D01*
X19423623Y15574508D01*
X19547557Y15523173D01*
X19679124Y15497002D01*
X19813270Y15497002D01*
X19944837Y15523173D01*
X19994000Y15543537D01*
X19994000Y15509329D01*
X20020171Y15377762D01*
X20071506Y15253828D01*
X20146033Y15142290D01*
X20240888Y15047435D01*
X20352426Y14972908D01*
X20476360Y14921573D01*
X20607927Y14895402D01*
X20742073Y14895402D01*
X20873640Y14921573D01*
X20997574Y14972908D01*
X21109112Y15047435D01*
X21203967Y15142290D01*
X21278494Y15253828D01*
X21329829Y15377762D01*
X21356000Y15509329D01*
X21382171Y15377762D01*
X21433506Y15253828D01*
X21508033Y15142290D01*
X21602888Y15047435D01*
X21714426Y14972908D01*
X21838360Y14921573D01*
X21969927Y14895402D01*
X22104073Y14895402D01*
X22235640Y14921573D01*
X22359574Y14972908D01*
X22471112Y15047435D01*
X22565967Y15142290D01*
X22640494Y15253828D01*
X22691829Y15377762D01*
X22718000Y15509329D01*
X22718000Y15643475D01*
X22707671Y15695402D01*
X22954599Y15695402D01*
X25340899Y13309101D01*
X25340898Y9861977D01*
X25294531Y9815610D01*
X25220004Y9704072D01*
X25204605Y9666894D01*
X22486210Y12385289D01*
X22486210Y13068521D01*
X22532577Y13114888D01*
X22607104Y13226426D01*
X22658439Y13350360D01*
X22684610Y13481927D01*
X22684610Y13616073D01*
X22658439Y13747640D01*
X22607104Y13871574D01*
X22532577Y13983112D01*
X22437722Y14077967D01*
X22326184Y14152494D01*
X22202250Y14203829D01*
X22070683Y14230000D01*
X22026867Y14230000D01*
X22026867Y14310323D01*
X22000696Y14441890D01*
X21949361Y14565824D01*
X21874834Y14677362D01*
X21779979Y14772217D01*
X21668441Y14846744D01*
X21544507Y14898079D01*
X21412940Y14924250D01*
X21278794Y14924250D01*
X21147227Y14898079D01*
X21023293Y14846744D01*
X20911755Y14772217D01*
X20865388Y14725850D01*
X14796484Y14725850D01*
X12676226Y16846107D01*
X12676226Y16911681D01*
X12650055Y17043248D01*
X12598720Y17167182D01*
X12540718Y17253988D01*
X12607494Y17353926D01*
X12658829Y17477860D01*
X12685000Y17609427D01*
X12685000Y17743573D01*
X12658829Y17875140D01*
X12607494Y17999074D01*
X12532967Y18110612D01*
X12438112Y18205467D01*
X12326574Y18279994D01*
X12202640Y18331329D01*
X12071073Y18357500D01*
X11936927Y18357500D01*
X11805360Y18331329D01*
X11681426Y18279994D01*
X11569888Y18205467D01*
X11475033Y18110612D01*
X11400506Y17999074D01*
X11369000Y17923012D01*
X11337494Y17999074D01*
X11262967Y18110612D01*
X11168112Y18205467D01*
X11056574Y18279994D01*
X10932640Y18331329D01*
X10801073Y18357500D01*
X10666927Y18357500D01*
X10535360Y18331329D01*
X10411426Y18279994D01*
X10299888Y18205467D01*
X10205033Y18110612D01*
X10130506Y17999074D01*
X10079171Y17875140D01*
X10053000Y17743573D01*
X10053000Y17609427D01*
X10079171Y17477860D01*
X10130506Y17353926D01*
X10205033Y17242388D01*
X10299888Y17147533D01*
X10411426Y17073006D01*
X10535360Y17021671D01*
X10587560Y17011288D01*
X10549889Y16920342D01*
X10523718Y16788775D01*
X10523718Y16723201D01*
X9266513Y15465996D01*
X9248100Y15450885D01*
X9232989Y15432472D01*
X9232987Y15432470D01*
X9187792Y15377399D01*
X9142978Y15293560D01*
X9115384Y15202590D01*
X9106065Y15107984D01*
X9108401Y15084269D01*
X9108400Y8468415D01*
X9072502Y8522141D01*
X8922141Y8672502D01*
X8745335Y8790640D01*
X8548878Y8872015D01*
X8340321Y8913500D01*
X8127679Y8913500D01*
X7919122Y8872015D01*
X7722665Y8790640D01*
X7545859Y8672502D01*
X7395498Y8522141D01*
X7277360Y8345335D01*
X7195985Y8148878D01*
X7154500Y7940321D01*
X7154500Y7727679D01*
X7195985Y7519122D01*
X7277360Y7322665D01*
X7395498Y7145859D01*
X7545859Y6995498D01*
X7592750Y6964166D01*
X7531304Y6931322D01*
X7473289Y6883711D01*
X7425678Y6825696D01*
X7390299Y6759508D01*
X7368513Y6687689D01*
X7361157Y6613000D01*
X7361157Y5413000D01*
X7368513Y5338311D01*
X7381955Y5294000D01*
X6576420Y5294000D01*
X6584701Y5309492D01*
X6606487Y5381311D01*
X6613843Y5456000D01*
X6613843Y6656000D01*
X6606487Y6730689D01*
X6584701Y6802508D01*
X6549322Y6868696D01*
X6501711Y6926711D01*
X6443696Y6974322D01*
X6414114Y6990134D01*
X6422141Y6995498D01*
X6572502Y7145859D01*
X6690640Y7322665D01*
X6772015Y7519122D01*
X6813500Y7727679D01*
X6813500Y7940321D01*
X6772015Y8148878D01*
X6690640Y8345335D01*
X6572502Y8522141D01*
X6422141Y8672502D01*
X6245335Y8790640D01*
X6048878Y8872015D01*
X5840321Y8913500D01*
X5627679Y8913500D01*
X5419122Y8872015D01*
X5222665Y8790640D01*
X5045859Y8672502D01*
X4895498Y8522141D01*
X4777360Y8345335D01*
X4765000Y8315495D01*
X4765000Y12338604D01*
X4800000Y12335157D01*
X6000000Y12335157D01*
X6074689Y12342513D01*
X6146508Y12364299D01*
X6212696Y12399678D01*
X6270711Y12447289D01*
X6318322Y12505304D01*
X6320177Y12508775D01*
X6339498Y12479859D01*
X6489859Y12329498D01*
X6666665Y12211360D01*
X6863122Y12129985D01*
X7071679Y12088500D01*
X7284321Y12088500D01*
X7492878Y12129985D01*
X7689335Y12211360D01*
X7866141Y12329498D01*
X8016502Y12479859D01*
X8134640Y12656665D01*
X8216015Y12853122D01*
X8257500Y13061679D01*
X8257500Y13274321D01*
X8216015Y13482878D01*
X8134640Y13679335D01*
X8016502Y13856141D01*
X7866141Y14006502D01*
X7689335Y14124640D01*
X7492878Y14206015D01*
X7284321Y14247500D01*
X7071679Y14247500D01*
X6863122Y14206015D01*
X6666665Y14124640D01*
X6489859Y14006502D01*
X6339498Y13856141D01*
X6320177Y13827225D01*
X6318322Y13830696D01*
X6270711Y13888711D01*
X6212696Y13936322D01*
X6146508Y13971701D01*
X6074689Y13993487D01*
X6000000Y14000843D01*
X4800000Y14000843D01*
X4765000Y13997396D01*
X4765000Y14815104D01*
X4800000Y14811657D01*
X6000000Y14811657D01*
X6074689Y14819013D01*
X6146508Y14840799D01*
X6212696Y14876178D01*
X6270711Y14923789D01*
X6318322Y14981804D01*
X6327156Y14998330D01*
X6339498Y14979859D01*
X6489859Y14829498D01*
X6666665Y14711360D01*
X6863122Y14629985D01*
X7071679Y14588500D01*
X7284321Y14588500D01*
X7492878Y14629985D01*
X7689335Y14711360D01*
X7866141Y14829498D01*
X8016502Y14979859D01*
X8134640Y15156665D01*
X8216015Y15353122D01*
X8257500Y15561679D01*
X8257500Y15774321D01*
X8216015Y15982878D01*
X8134640Y16179335D01*
X8016502Y16356141D01*
X7866141Y16506502D01*
X7689335Y16624640D01*
X7492878Y16706015D01*
X7284321Y16747500D01*
X7071679Y16747500D01*
X6863122Y16706015D01*
X6666665Y16624640D01*
X6489859Y16506502D01*
X6339498Y16356141D01*
X6311968Y16314939D01*
X6270711Y16365211D01*
X6212696Y16412822D01*
X6146508Y16448201D01*
X6074689Y16469987D01*
X6000000Y16477343D01*
X4800000Y16477343D01*
X4765000Y16473896D01*
X4765000Y17355104D01*
X4800000Y17351657D01*
X6000000Y17351657D01*
X6074689Y17359013D01*
X6146508Y17380799D01*
X6212696Y17416178D01*
X6270711Y17463789D01*
X6314546Y17517203D01*
X6339498Y17479859D01*
X6489859Y17329498D01*
X6666665Y17211360D01*
X6863122Y17129985D01*
X7071679Y17088500D01*
X7284321Y17088500D01*
X7492878Y17129985D01*
X7689335Y17211360D01*
X7866141Y17329498D01*
X8016502Y17479859D01*
X8134640Y17656665D01*
X8216015Y17853122D01*
X8257500Y18061679D01*
X8257500Y18274321D01*
X8216015Y18482878D01*
X8134640Y18679335D01*
X8016502Y18856141D01*
X7866141Y19006502D01*
X7689335Y19124640D01*
X7492878Y19206015D01*
X7284321Y19247500D01*
X7071679Y19247500D01*
X6863122Y19206015D01*
X6666665Y19124640D01*
X6489859Y19006502D01*
X6339498Y18856141D01*
X6325077Y18834558D01*
X6318322Y18847196D01*
X6270711Y18905211D01*
X6212696Y18952822D01*
X6146508Y18988201D01*
X6074689Y19009987D01*
X6000000Y19017343D01*
X4800000Y19017343D01*
X4765000Y19013896D01*
X4765000Y19831604D01*
X4800000Y19828157D01*
X6000000Y19828157D01*
X6074689Y19835513D01*
X6146508Y19857299D01*
X6212696Y19892678D01*
X6270711Y19940289D01*
X6318322Y19998304D01*
X6322256Y20005664D01*
X6339498Y19979859D01*
X6489859Y19829498D01*
X6666665Y19711360D01*
X6863122Y19629985D01*
X7071679Y19588500D01*
X7284321Y19588500D01*
X7492878Y19629985D01*
X7689335Y19711360D01*
X7866141Y19829498D01*
X8016502Y19979859D01*
X8134640Y20156665D01*
X8216015Y20353122D01*
X8257500Y20561679D01*
X8257500Y20774321D01*
X8216015Y20982878D01*
X8134640Y21179335D01*
X8016502Y21356141D01*
X7866141Y21506502D01*
X7689335Y21624640D01*
X7492878Y21706015D01*
X7284321Y21747500D01*
X7071679Y21747500D01*
X6863122Y21706015D01*
X6666665Y21624640D01*
X6489859Y21506502D01*
X6339498Y21356141D01*
X6318045Y21324034D01*
X6270711Y21381711D01*
X6212696Y21429322D01*
X6146508Y21464701D01*
X6074689Y21486487D01*
X6000000Y21493843D01*
X4800000Y21493843D01*
X4765000Y21490396D01*
X4765000Y22368157D01*
X5957000Y22368157D01*
X6031689Y22375513D01*
X6103508Y22397299D01*
X6169696Y22432678D01*
X6227711Y22480289D01*
X6275322Y22538304D01*
X6286488Y22559194D01*
X6339498Y22479859D01*
X6489859Y22329498D01*
X6666665Y22211360D01*
X6863122Y22129985D01*
X7071679Y22088500D01*
X7284321Y22088500D01*
X7492878Y22129985D01*
X7689335Y22211360D01*
X7866141Y22329498D01*
X8016502Y22479859D01*
X8134640Y22656665D01*
X8216015Y22853122D01*
X8257500Y23061679D01*
X8257500Y23274321D01*
X8216015Y23482878D01*
X8134640Y23679335D01*
X8016502Y23856141D01*
X7866141Y24006502D01*
X7689335Y24124640D01*
X7492878Y24206015D01*
X7284321Y24247500D01*
X7071679Y24247500D01*
X6863122Y24206015D01*
X6666665Y24124640D01*
X6489859Y24006502D01*
X6339498Y23856141D01*
X6306088Y23806139D01*
X6275322Y23863696D01*
X6227711Y23921711D01*
X6169696Y23969322D01*
X6103508Y24004701D01*
X6031689Y24026487D01*
X5957000Y24033843D01*
X4765000Y24033843D01*
X4765000Y24848104D01*
X4800000Y24844657D01*
X6000000Y24844657D01*
X6074689Y24852013D01*
X6146508Y24873799D01*
X6212696Y24909178D01*
X6270711Y24956789D01*
X6317124Y25013344D01*
X6339498Y24979859D01*
X6489859Y24829498D01*
X6666665Y24711360D01*
X6863122Y24629985D01*
X7071679Y24588500D01*
X7284321Y24588500D01*
X7492878Y24629985D01*
X7689335Y24711360D01*
X7776347Y24769500D01*
X9391157Y24769500D01*
X9391157Y23709500D01*
X9398513Y23634811D01*
X9420299Y23562992D01*
X9455678Y23496804D01*
X9503289Y23438789D01*
X9561304Y23391178D01*
X9627492Y23355799D01*
X9699311Y23334013D01*
X9774000Y23326657D01*
X10424000Y23326657D01*
X10498689Y23334013D01*
X10570508Y23355799D01*
X10636696Y23391178D01*
X10694711Y23438789D01*
X10742322Y23496804D01*
X10777701Y23562992D01*
X10799487Y23634811D01*
X10806843Y23709500D01*
X10806843Y24769500D01*
X10799487Y24844189D01*
X10777701Y24916008D01*
X10742322Y24982196D01*
X10694711Y25040211D01*
X10636696Y25087822D01*
X10570508Y25123201D01*
X10498689Y25144987D01*
X10424000Y25152343D01*
X9774000Y25152343D01*
X9699311Y25144987D01*
X9627492Y25123201D01*
X9561304Y25087822D01*
X9503289Y25040211D01*
X9455678Y24982196D01*
X9420299Y24916008D01*
X9398513Y24844189D01*
X9391157Y24769500D01*
X7776347Y24769500D01*
X7866141Y24829498D01*
X8016502Y24979859D01*
X8134640Y25156665D01*
X8216015Y25353122D01*
X8257500Y25561679D01*
X8257500Y25774321D01*
X8216015Y25982878D01*
X8134640Y26179335D01*
X8016502Y26356141D01*
X7866141Y26506502D01*
X7689335Y26624640D01*
X7492878Y26706015D01*
X7284321Y26747500D01*
X7071679Y26747500D01*
X6863122Y26706015D01*
X6666665Y26624640D01*
X6489859Y26506502D01*
X6339498Y26356141D01*
X6322998Y26331447D01*
X6318322Y26340196D01*
X6270711Y26398211D01*
X6212696Y26445822D01*
X6146508Y26481201D01*
X6074689Y26502987D01*
X6000000Y26510343D01*
X5057159Y26510343D01*
X5684816Y27138000D01*
X9432054Y27138000D01*
X9420299Y27116008D01*
X9398513Y27044189D01*
X9391157Y26969500D01*
X9391157Y25909500D01*
X9398513Y25834811D01*
X9420299Y25762992D01*
X9455678Y25696804D01*
X9503289Y25638789D01*
X9561304Y25591178D01*
X9627492Y25555799D01*
X9699311Y25534013D01*
X9774000Y25526657D01*
X10424000Y25526657D01*
X10498689Y25534013D01*
X10570508Y25555799D01*
X10636696Y25591178D01*
X10694711Y25638789D01*
X10742322Y25696804D01*
X10777701Y25762992D01*
X10799487Y25834811D01*
X10806843Y25909500D01*
X10806843Y26969500D01*
X10799759Y27041425D01*
X10861000Y26980184D01*
X10861000Y26122000D01*
X10868321Y26047671D01*
X10890002Y25976198D01*
X10925210Y25910328D01*
X10972592Y25852592D01*
X11353592Y25471592D01*
X11411328Y25424210D01*
X11477198Y25389002D01*
X11490232Y25385048D01*
X11226592Y25121408D01*
X11179210Y25063672D01*
X11144002Y24997802D01*
X11122321Y24926329D01*
X11115000Y24852000D01*
X11115000Y23137500D01*
X11122321Y23063171D01*
X11144002Y22991698D01*
X11179210Y22925828D01*
X11226592Y22868092D01*
X11353592Y22741092D01*
X11411328Y22693710D01*
X11477198Y22658502D01*
X11548671Y22636821D01*
X11623000Y22629500D01*
X15785455Y22629500D01*
X15775067Y22619112D01*
X15700540Y22507574D01*
X15649205Y22383640D01*
X15623034Y22252073D01*
X15623034Y22117927D01*
X15649205Y21986360D01*
X15700540Y21862426D01*
X15775067Y21750888D01*
X15869922Y21656033D01*
X15981460Y21581506D01*
X16105394Y21530171D01*
X16236961Y21504000D01*
X16371107Y21504000D01*
X16502674Y21530171D01*
X16626608Y21581506D01*
X16738146Y21656033D01*
X16833001Y21750888D01*
X16907528Y21862426D01*
X16958863Y21986360D01*
X16985034Y22117927D01*
X16985034Y22157096D01*
X17041402Y22154029D01*
X17029013Y22113189D01*
X17021657Y22038500D01*
X17021657Y21809077D01*
X16488435Y21275855D01*
X16469052Y21259948D01*
X16405571Y21182595D01*
X16358399Y21094342D01*
X16329351Y20998584D01*
X16322000Y20923947D01*
X16319543Y20899000D01*
X16321798Y20876111D01*
X16305311Y20874487D01*
X16237788Y20854004D01*
X16224322Y20879196D01*
X16176711Y20937211D01*
X16118696Y20984822D01*
X16052508Y21020201D01*
X15980689Y21041987D01*
X15906000Y21049343D01*
X14706000Y21049343D01*
X14631311Y21041987D01*
X14559492Y21020201D01*
X14493304Y20984822D01*
X14435289Y20937211D01*
X14387678Y20879196D01*
X14352299Y20813008D01*
X14330513Y20741189D01*
X14323157Y20666500D01*
X14323157Y19766500D01*
X14330513Y19691811D01*
X14352299Y19619992D01*
X14387678Y19553804D01*
X14435289Y19495789D01*
X14453919Y19480500D01*
X14435289Y19465211D01*
X14387678Y19407196D01*
X14356000Y19347932D01*
X14324322Y19407196D01*
X14276711Y19465211D01*
X14218696Y19512822D01*
X14152508Y19548201D01*
X14080689Y19569987D01*
X14035359Y19574452D01*
X14059701Y19619992D01*
X14081487Y19691811D01*
X14088843Y19766500D01*
X14088843Y20666500D01*
X14081487Y20741189D01*
X14059701Y20813008D01*
X14024322Y20879196D01*
X13976711Y20937211D01*
X13918696Y20984822D01*
X13852508Y21020201D01*
X13780689Y21041987D01*
X13706000Y21049343D01*
X12506000Y21049343D01*
X12431311Y21041987D01*
X12359492Y21020201D01*
X12293304Y20984822D01*
X12235289Y20937211D01*
X12187678Y20879196D01*
X12152299Y20813008D01*
X12130513Y20741189D01*
X12123157Y20666500D01*
X12123157Y19766500D01*
X12130513Y19691811D01*
X12152299Y19619992D01*
X12187678Y19553804D01*
X12235289Y19495789D01*
X12293304Y19448178D01*
X12359492Y19412799D01*
X12431311Y19391013D01*
X12476641Y19386548D01*
X12452299Y19341008D01*
X12430513Y19269189D01*
X12423157Y19194500D01*
X12423157Y18444500D01*
X12430513Y18369811D01*
X12452299Y18297992D01*
X12487678Y18231804D01*
X12535289Y18173789D01*
X12593304Y18126178D01*
X12659492Y18090799D01*
X12731311Y18069013D01*
X12806000Y18061657D01*
X14006000Y18061657D01*
X14080689Y18069013D01*
X14152508Y18090799D01*
X14218696Y18126178D01*
X14276711Y18173789D01*
X14324322Y18231804D01*
X14356000Y18291068D01*
X14387678Y18231804D01*
X14435289Y18173789D01*
X14493304Y18126178D01*
X14559492Y18090799D01*
X14631311Y18069013D01*
X14706000Y18061657D01*
X15906000Y18061657D01*
X15980689Y18069013D01*
X16052508Y18090799D01*
X16118696Y18126178D01*
X16176711Y18173789D01*
X16224322Y18231804D01*
X16259701Y18297992D01*
X16281487Y18369811D01*
X16288843Y18444500D01*
X16288843Y18639423D01*
X16565577Y18916157D01*
X17280000Y18916157D01*
X17354689Y18923513D01*
X17426508Y18945299D01*
X17492696Y18980678D01*
X17550711Y19028289D01*
X17560250Y19039912D01*
X17569789Y19028289D01*
X17627804Y18980678D01*
X17693992Y18945299D01*
X17765811Y18923513D01*
X17840500Y18916157D01*
X18594770Y18916157D01*
X18576006Y18888074D01*
X18524671Y18764140D01*
X18498500Y18632573D01*
X18498500Y18498427D01*
X18524671Y18366860D01*
X18576006Y18242926D01*
X18650533Y18131388D01*
X18745388Y18036533D01*
X18856926Y17962006D01*
X18980860Y17910671D01*
X19112427Y17884500D01*
X19246573Y17884500D01*
X19378140Y17910671D01*
X19502074Y17962006D01*
X19613612Y18036533D01*
X19708467Y18131388D01*
X19782994Y18242926D01*
X19834329Y18366860D01*
X19860500Y18498427D01*
X19860500Y18632573D01*
X19834329Y18764140D01*
X19782994Y18888074D01*
X19708467Y18999612D01*
X19613612Y19094467D01*
X19502074Y19168994D01*
X19378140Y19220329D01*
X19246573Y19246500D01*
X19118172Y19246500D01*
X19123343Y19299000D01*
X19123343Y19391000D01*
X19311601Y19391000D01*
X19319304Y19384678D01*
X19385492Y19349299D01*
X19457311Y19327513D01*
X19532000Y19320157D01*
X20732000Y19320157D01*
X20806689Y19327513D01*
X20878508Y19349299D01*
X20944696Y19384678D01*
X21002711Y19432289D01*
X21050322Y19490304D01*
X21085701Y19556492D01*
X21107487Y19628311D01*
X21114843Y19703000D01*
X21114843Y20603000D01*
X21107487Y20677689D01*
X21085701Y20749508D01*
X21050322Y20815696D01*
X21002711Y20873711D01*
X20944696Y20921322D01*
X20878508Y20956701D01*
X20806689Y20978487D01*
X20732000Y20985843D01*
X20208077Y20985843D01*
X20207372Y20986548D01*
X20175448Y21025448D01*
X20156060Y21041359D01*
X20062105Y21135315D01*
X20067343Y21188500D01*
X20067343Y22038500D01*
X20059987Y22113189D01*
X20047598Y22154029D01*
X20232263Y22164075D01*
X20303062Y22334103D01*
X20339328Y22514676D01*
X20339671Y22698855D01*
X20304074Y22879561D01*
X20233908Y23049851D01*
X20232263Y23052925D01*
X20092056Y23060552D01*
X20064108Y23088500D01*
X20092056Y23116448D01*
X20232263Y23124075D01*
X20303062Y23294103D01*
X20339328Y23474676D01*
X20339671Y23658855D01*
X20329793Y23709000D01*
X20418684Y23709000D01*
X20942092Y23185592D01*
X20999828Y23138210D01*
X21065698Y23103002D01*
X21137171Y23081321D01*
X21211500Y23074000D01*
X26482000Y23074000D01*
X26556329Y23081321D01*
X26627802Y23103002D01*
X26693672Y23138210D01*
X26751408Y23185592D01*
X28529408Y24963592D01*
X28576790Y25021328D01*
X28611998Y25087198D01*
X28633679Y25158671D01*
X28641000Y25233000D01*
X28641000Y26757000D01*
X28633679Y26831329D01*
X28611998Y26902802D01*
X28576790Y26968672D01*
X28529408Y27026408D01*
X28275408Y27280408D01*
X28217672Y27327790D01*
X28178170Y27348904D01*
X28211908Y27376592D01*
X28338908Y27503592D01*
X28386290Y27561328D01*
X28421498Y27627198D01*
X28443179Y27698671D01*
X28450500Y27773000D01*
X28450500Y28598500D01*
X28443179Y28672829D01*
X28421498Y28744302D01*
X28386290Y28810172D01*
X28338908Y28867908D01*
X28211908Y28994908D01*
X28154172Y29042290D01*
X28088302Y29077498D01*
X28016829Y29099179D01*
X27942500Y29106500D01*
X27478682Y29106500D01*
X26939866Y29645316D01*
X26939866Y30567000D01*
X26936406Y30602126D01*
X26965233Y30567000D01*
X26985453Y30542362D01*
X27004830Y30526460D01*
X28666400Y28864889D01*
X28666401Y16960976D01*
X28661967Y16967612D01*
X28567112Y17062467D01*
X28455574Y17136994D01*
X28331640Y17188329D01*
X28200073Y17214500D01*
X28065927Y17214500D01*
X27934360Y17188329D01*
X27810426Y17136994D01*
X27698888Y17062467D01*
X27604033Y16967612D01*
X27529506Y16856074D01*
X27478171Y16732140D01*
X27452000Y16600573D01*
X27452000Y16466427D01*
X27478171Y16334860D01*
X27529506Y16210926D01*
X27604033Y16099388D01*
X27698888Y16004533D01*
X27810426Y15930006D01*
X27934360Y15878671D01*
X28065927Y15852500D01*
X28200073Y15852500D01*
X28331640Y15878671D01*
X28455574Y15930006D01*
X28567112Y16004533D01*
X28661967Y16099388D01*
X28671022Y16112940D01*
X28673752Y16085225D01*
X28697952Y16005448D01*
X28702800Y15989467D01*
X28749971Y15901215D01*
X28797550Y15843240D01*
X28813453Y15823862D01*
X28832830Y15807960D01*
X30836460Y13804329D01*
X30852362Y13784952D01*
X30871739Y13769050D01*
X30929714Y13721471D01*
X31008545Y13679335D01*
X31017967Y13674299D01*
X31113725Y13645251D01*
X31188363Y13637900D01*
X31188365Y13637900D01*
X31213309Y13635443D01*
X31238253Y13637900D01*
X35378246Y13637900D01*
X35403190Y13635443D01*
X35428134Y13637900D01*
X35428137Y13637900D01*
X35502775Y13645251D01*
X35598533Y13674299D01*
X35686785Y13721471D01*
X35764138Y13784952D01*
X35780045Y13804335D01*
X36386665Y14410955D01*
X36406048Y14426862D01*
X36469529Y14504215D01*
X36516701Y14592467D01*
X36545749Y14688225D01*
X36553100Y14762863D01*
X36553100Y14762866D01*
X36555557Y14787810D01*
X36553100Y14812754D01*
X36553100Y15430309D01*
X36652212Y15496533D01*
X36747067Y15591388D01*
X36821594Y15702926D01*
X36872929Y15826860D01*
X36899100Y15958427D01*
X36899100Y16092573D01*
X36872929Y16224140D01*
X36821594Y16348074D01*
X36747067Y16459612D01*
X36652212Y16554467D01*
X36540674Y16628994D01*
X36416740Y16680329D01*
X36285173Y16706500D01*
X36151027Y16706500D01*
X36019460Y16680329D01*
X35895526Y16628994D01*
X35816500Y16576191D01*
X35737474Y16628994D01*
X35613540Y16680329D01*
X35481973Y16706500D01*
X35347827Y16706500D01*
X35216260Y16680329D01*
X35092326Y16628994D01*
X34980788Y16554467D01*
X34885933Y16459612D01*
X34811406Y16348074D01*
X34760071Y16224140D01*
X34733900Y16092573D01*
X34733900Y15958427D01*
X34760071Y15826860D01*
X34811406Y15702926D01*
X34885933Y15591388D01*
X34980788Y15496533D01*
X35079901Y15430308D01*
X35079900Y15187611D01*
X35003390Y15111100D01*
X31613111Y15111100D01*
X30139600Y16584610D01*
X30139600Y18817073D01*
X32573000Y18817073D01*
X32573000Y18682927D01*
X32599171Y18551360D01*
X32650506Y18427426D01*
X32725033Y18315888D01*
X32819888Y18221033D01*
X32931426Y18146506D01*
X33055360Y18095171D01*
X33186927Y18069000D01*
X33321073Y18069000D01*
X33452640Y18095171D01*
X33576574Y18146506D01*
X33688112Y18221033D01*
X33734479Y18267400D01*
X34073665Y18267400D01*
X34097370Y18265065D01*
X34121075Y18267400D01*
X34121077Y18267400D01*
X34191976Y18274383D01*
X34282947Y18301978D01*
X34366785Y18346791D01*
X34440271Y18407099D01*
X34455387Y18425518D01*
X38744488Y22714618D01*
X38762901Y22729729D01*
X38823209Y22803215D01*
X38868022Y22887053D01*
X38881937Y22932927D01*
X38895617Y22978023D01*
X38904935Y23072630D01*
X38902600Y23096337D01*
X38902600Y23292021D01*
X38948967Y23338388D01*
X39023494Y23449926D01*
X39074829Y23573860D01*
X39101000Y23705427D01*
X39101000Y23839573D01*
X39074829Y23971140D01*
X39023494Y24095074D01*
X38948967Y24206612D01*
X38854112Y24301467D01*
X38742574Y24375994D01*
X38618640Y24427329D01*
X38487073Y24453500D01*
X38352927Y24453500D01*
X38221360Y24427329D01*
X38097426Y24375994D01*
X37985888Y24301467D01*
X37891033Y24206612D01*
X37816506Y24095074D01*
X37765171Y23971140D01*
X37739000Y23839573D01*
X37739000Y23705427D01*
X37765171Y23573860D01*
X37816506Y23449926D01*
X37891033Y23338388D01*
X37937400Y23292021D01*
X37937400Y23272530D01*
X33897471Y19232600D01*
X33734479Y19232600D01*
X33688112Y19278967D01*
X33576574Y19353494D01*
X33452640Y19404829D01*
X33321073Y19431000D01*
X33186927Y19431000D01*
X33055360Y19404829D01*
X32931426Y19353494D01*
X32819888Y19278967D01*
X32725033Y19184112D01*
X32650506Y19072574D01*
X32599171Y18948640D01*
X32573000Y18817073D01*
X30139600Y18817073D01*
X30139600Y22813073D01*
X32469500Y22813073D01*
X32469500Y22678927D01*
X32495671Y22547360D01*
X32547006Y22423426D01*
X32621533Y22311888D01*
X32716388Y22217033D01*
X32827926Y22142506D01*
X32951860Y22091171D01*
X33083427Y22065000D01*
X33217573Y22065000D01*
X33349140Y22091171D01*
X33473074Y22142506D01*
X33531500Y22181545D01*
X33589926Y22142506D01*
X33713860Y22091171D01*
X33845427Y22065000D01*
X33979573Y22065000D01*
X34111140Y22091171D01*
X34235074Y22142506D01*
X34346612Y22217033D01*
X34441467Y22311888D01*
X34515994Y22423426D01*
X34567329Y22547360D01*
X34593500Y22678927D01*
X34593500Y22813073D01*
X34567329Y22944640D01*
X34516616Y23067073D01*
X34819000Y23067073D01*
X34819000Y22932927D01*
X34845171Y22801360D01*
X34896506Y22677426D01*
X34971033Y22565888D01*
X35065888Y22471033D01*
X35177426Y22396506D01*
X35301360Y22345171D01*
X35432927Y22319000D01*
X35567073Y22319000D01*
X35698640Y22345171D01*
X35822574Y22396506D01*
X35934112Y22471033D01*
X36028967Y22565888D01*
X36103494Y22677426D01*
X36154829Y22801360D01*
X36181000Y22932927D01*
X36181000Y23067073D01*
X36154829Y23198640D01*
X36103494Y23322574D01*
X36028967Y23434112D01*
X35934112Y23528967D01*
X35822574Y23603494D01*
X35698640Y23654829D01*
X35567073Y23681000D01*
X35432927Y23681000D01*
X35301360Y23654829D01*
X35177426Y23603494D01*
X35065888Y23528967D01*
X34971033Y23434112D01*
X34896506Y23322574D01*
X34845171Y23198640D01*
X34819000Y23067073D01*
X34516616Y23067073D01*
X34515994Y23068574D01*
X34441467Y23180112D01*
X34346612Y23274967D01*
X34235074Y23349494D01*
X34111140Y23400829D01*
X33979573Y23427000D01*
X33845427Y23427000D01*
X33713860Y23400829D01*
X33589926Y23349494D01*
X33531500Y23310455D01*
X33473074Y23349494D01*
X33349140Y23400829D01*
X33217573Y23427000D01*
X33083427Y23427000D01*
X32951860Y23400829D01*
X32827926Y23349494D01*
X32716388Y23274967D01*
X32621533Y23180112D01*
X32547006Y23068574D01*
X32495671Y22944640D01*
X32469500Y22813073D01*
X30139600Y22813073D01*
X30139600Y29239747D01*
X30142057Y29264691D01*
X30138445Y29301360D01*
X30132249Y29364275D01*
X30103201Y29460033D01*
X30088899Y29486790D01*
X30056029Y29548286D01*
X30008450Y29606261D01*
X29992548Y29625638D01*
X29973171Y29641540D01*
X28677742Y30936968D01*
X28684344Y31004000D01*
X28684344Y31654000D01*
X28676988Y31728689D01*
X28655202Y31800508D01*
X28624480Y31857983D01*
X28631429Y31874758D01*
X28657600Y32006325D01*
X28657600Y32140471D01*
X28631429Y32272038D01*
X28580094Y32395972D01*
X28505567Y32507510D01*
X28410712Y32602365D01*
X28299174Y32676892D01*
X28175240Y32728227D01*
X28043673Y32754398D01*
X27909527Y32754398D01*
X27777960Y32728227D01*
X27654026Y32676892D01*
X27575000Y32624089D01*
X27495974Y32676892D01*
X27372040Y32728227D01*
X27240473Y32754398D01*
X27106327Y32754398D01*
X26974760Y32728227D01*
X26850826Y32676892D01*
X26739288Y32602365D01*
X26644433Y32507510D01*
X26569906Y32395972D01*
X26518571Y32272038D01*
X26492400Y32140471D01*
X26492400Y32006325D01*
X26518571Y31874758D01*
X26547786Y31804226D01*
X26545799Y31800508D01*
X26524013Y31728689D01*
X26516657Y31654000D01*
X26516657Y31108168D01*
X26514168Y31109498D01*
X26442695Y31131179D01*
X26368366Y31138500D01*
X23878500Y31138500D01*
X23804171Y31131179D01*
X23732698Y31109498D01*
X23666828Y31074290D01*
X23609092Y31026908D01*
X23131000Y30548816D01*
X23131000Y33352062D01*
X23530732Y33352062D01*
X23600397Y33163850D01*
X23714447Y32978178D01*
X23862529Y32818324D01*
X24038951Y32690431D01*
X24236934Y32599414D01*
X24448869Y32548770D01*
X24623000Y32697436D01*
X24623000Y33523000D01*
X24877000Y33523000D01*
X24877000Y32697436D01*
X25051131Y32548770D01*
X25263066Y32599414D01*
X25461049Y32690431D01*
X25637471Y32818324D01*
X25785553Y32978178D01*
X25899603Y33163850D01*
X25969268Y33352062D01*
X28530732Y33352062D01*
X28600397Y33163850D01*
X28714447Y32978178D01*
X28862529Y32818324D01*
X29038951Y32690431D01*
X29236934Y32599414D01*
X29448869Y32548770D01*
X29623000Y32697436D01*
X29623000Y33523000D01*
X29877000Y33523000D01*
X29877000Y32697436D01*
X30051131Y32548770D01*
X30263066Y32599414D01*
X30461049Y32690431D01*
X30637471Y32818324D01*
X30785553Y32978178D01*
X30899603Y33163850D01*
X30969268Y33352062D01*
X30842734Y33523000D01*
X29877000Y33523000D01*
X29623000Y33523000D01*
X28657266Y33523000D01*
X28530732Y33352062D01*
X25969268Y33352062D01*
X25842734Y33523000D01*
X24877000Y33523000D01*
X24623000Y33523000D01*
X23657266Y33523000D01*
X23530732Y33352062D01*
X23131000Y33352062D01*
X23131000Y33947938D01*
X23530732Y33947938D01*
X23657266Y33777000D01*
X24623000Y33777000D01*
X24623000Y34602564D01*
X24877000Y34602564D01*
X24877000Y33777000D01*
X25842734Y33777000D01*
X25969268Y33947938D01*
X28530732Y33947938D01*
X28657266Y33777000D01*
X29623000Y33777000D01*
X29623000Y34602564D01*
X29877000Y34602564D01*
X29877000Y33777000D01*
X30842734Y33777000D01*
X30969268Y33947938D01*
X30899603Y34136150D01*
X30785553Y34321822D01*
X30637471Y34481676D01*
X30461049Y34609569D01*
X30263066Y34700586D01*
X30051131Y34751230D01*
X29877000Y34602564D01*
X29623000Y34602564D01*
X29448869Y34751230D01*
X29236934Y34700586D01*
X29038951Y34609569D01*
X28862529Y34481676D01*
X28714447Y34321822D01*
X28600397Y34136150D01*
X28530732Y33947938D01*
X25969268Y33947938D01*
X25899603Y34136150D01*
X25785553Y34321822D01*
X25637471Y34481676D01*
X25461049Y34609569D01*
X25263066Y34700586D01*
X25051131Y34751230D01*
X24877000Y34602564D01*
X24623000Y34602564D01*
X24448869Y34751230D01*
X24236934Y34700586D01*
X24038951Y34609569D01*
X23862529Y34481676D01*
X23714447Y34321822D01*
X23600397Y34136150D01*
X23530732Y33947938D01*
X23131000Y33947938D01*
X23131000Y35121762D01*
X23225024Y35060724D01*
X23448126Y34980881D01*
X23623000Y35107046D01*
X23623000Y36223000D01*
X23877000Y36223000D01*
X23877000Y35107046D01*
X24051874Y34980881D01*
X24274976Y35060724D01*
X24462764Y35182631D01*
X24623161Y35338831D01*
X24750003Y35523322D01*
X24838415Y35729013D01*
X24885000Y35948000D01*
X24885000Y36223000D01*
X29615000Y36223000D01*
X29615000Y35948000D01*
X29661585Y35729013D01*
X29749997Y35523322D01*
X29876839Y35338831D01*
X30037236Y35182631D01*
X30225024Y35060724D01*
X30448126Y34980881D01*
X30623000Y35107046D01*
X30623000Y36223000D01*
X29615000Y36223000D01*
X24885000Y36223000D01*
X23877000Y36223000D01*
X23623000Y36223000D01*
X23603000Y36223000D01*
X23603000Y36477000D01*
X23623000Y36477000D01*
X23623000Y36497000D01*
X23877000Y36497000D01*
X23877000Y36477000D01*
X24885000Y36477000D01*
X24885000Y36752000D01*
X24838415Y36970987D01*
X24829211Y36992400D01*
X29670789Y36992400D01*
X29661585Y36970987D01*
X29615000Y36752000D01*
X29615000Y36477000D01*
X30623000Y36477000D01*
X30623000Y36497000D01*
X30877000Y36497000D01*
X30877000Y36477000D01*
X30897000Y36477000D01*
X30897000Y36223000D01*
X30877000Y36223000D01*
X30877000Y35107046D01*
X31051874Y34980881D01*
X31274976Y35060724D01*
X31462764Y35182631D01*
X31562018Y35279288D01*
X31562019Y25180080D01*
X31541051Y25159112D01*
X31466524Y25047574D01*
X31415189Y24923640D01*
X31389018Y24792073D01*
X31389018Y24657927D01*
X31415189Y24526360D01*
X31466524Y24402426D01*
X31541051Y24290888D01*
X31635906Y24196033D01*
X31747444Y24121506D01*
X31871378Y24070171D01*
X32002945Y24044000D01*
X32137091Y24044000D01*
X32268658Y24070171D01*
X32392592Y24121506D01*
X32504130Y24196033D01*
X32598985Y24290888D01*
X32673512Y24402426D01*
X32724847Y24526360D01*
X32751018Y24657927D01*
X32751018Y24792073D01*
X32724847Y24923640D01*
X32673512Y25047574D01*
X32598985Y25159112D01*
X32578018Y25180079D01*
X32578018Y34776000D01*
X40000157Y34776000D01*
X40000157Y33576000D01*
X40007513Y33501311D01*
X40029299Y33429492D01*
X40064678Y33363304D01*
X40112289Y33305289D01*
X40170304Y33257678D01*
X40236492Y33222299D01*
X40308311Y33200513D01*
X40350400Y33196368D01*
X40350400Y33015979D01*
X40304033Y32969612D01*
X40229506Y32858074D01*
X40178171Y32734140D01*
X40152000Y32602573D01*
X40152000Y32468427D01*
X40178171Y32336860D01*
X40229506Y32212926D01*
X40304033Y32101388D01*
X40398888Y32006533D01*
X40510426Y31932006D01*
X40634360Y31880671D01*
X40765927Y31854500D01*
X40900073Y31854500D01*
X41031640Y31880671D01*
X41155574Y31932006D01*
X41267112Y32006533D01*
X41361967Y32101388D01*
X41436494Y32212926D01*
X41487829Y32336860D01*
X41514000Y32468427D01*
X41514000Y32602573D01*
X41487829Y32734140D01*
X41436494Y32858074D01*
X41361967Y32969612D01*
X41315600Y33015979D01*
X41315600Y33196368D01*
X41357689Y33200513D01*
X41429508Y33222299D01*
X41495696Y33257678D01*
X41553711Y33305289D01*
X41601322Y33363304D01*
X41636701Y33429492D01*
X41658487Y33501311D01*
X41665843Y33576000D01*
X41665843Y34762500D01*
X42730657Y34762500D01*
X42730657Y33562500D01*
X42738013Y33487811D01*
X42759799Y33415992D01*
X42795178Y33349804D01*
X42842789Y33291789D01*
X42900804Y33244178D01*
X42966992Y33208799D01*
X43038811Y33187013D01*
X43080900Y33182868D01*
X43080900Y33015979D01*
X43034533Y32969612D01*
X42960006Y32858074D01*
X42908671Y32734140D01*
X42882500Y32602573D01*
X42882500Y32468427D01*
X42908671Y32336860D01*
X42960006Y32212926D01*
X43034533Y32101388D01*
X43129388Y32006533D01*
X43240926Y31932006D01*
X43364860Y31880671D01*
X43496427Y31854500D01*
X43630573Y31854500D01*
X43762140Y31880671D01*
X43886074Y31932006D01*
X43997612Y32006533D01*
X44092467Y32101388D01*
X44166994Y32212926D01*
X44218329Y32336860D01*
X44244500Y32468427D01*
X44244500Y32602573D01*
X44218329Y32734140D01*
X44166994Y32858074D01*
X44092467Y32969612D01*
X44046100Y33015979D01*
X44046100Y33182868D01*
X44088189Y33187013D01*
X44160008Y33208799D01*
X44226196Y33244178D01*
X44284211Y33291789D01*
X44331822Y33349804D01*
X44367201Y33415992D01*
X44388987Y33487811D01*
X44396343Y33562500D01*
X44396343Y34762500D01*
X44388987Y34837189D01*
X44367201Y34909008D01*
X44331822Y34975196D01*
X44284211Y35033211D01*
X44226196Y35080822D01*
X44160008Y35116201D01*
X44088189Y35137987D01*
X44013500Y35145343D01*
X43113500Y35145343D01*
X43038811Y35137987D01*
X42966992Y35116201D01*
X42900804Y35080822D01*
X42842789Y35033211D01*
X42795178Y34975196D01*
X42759799Y34909008D01*
X42738013Y34837189D01*
X42730657Y34762500D01*
X41665843Y34762500D01*
X41665843Y34776000D01*
X41658487Y34850689D01*
X41636701Y34922508D01*
X41601322Y34988696D01*
X41553711Y35046711D01*
X41495696Y35094322D01*
X41429508Y35129701D01*
X41357689Y35151487D01*
X41283000Y35158843D01*
X40383000Y35158843D01*
X40308311Y35151487D01*
X40236492Y35129701D01*
X40170304Y35094322D01*
X40112289Y35046711D01*
X40064678Y34988696D01*
X40029299Y34922508D01*
X40007513Y34850689D01*
X40000157Y34776000D01*
X32578018Y34776000D01*
X32578018Y35309598D01*
X33377420Y36109000D01*
X33407073Y36109000D01*
X33538640Y36135171D01*
X33662574Y36186506D01*
X33774112Y36261033D01*
X33868967Y36355888D01*
X33943494Y36467426D01*
X33994829Y36591360D01*
X34021000Y36722927D01*
X34021000Y36857073D01*
X33997344Y36976000D01*
X40000157Y36976000D01*
X40000157Y35776000D01*
X40007513Y35701311D01*
X40029299Y35629492D01*
X40064678Y35563304D01*
X40112289Y35505289D01*
X40170304Y35457678D01*
X40236492Y35422299D01*
X40308311Y35400513D01*
X40383000Y35393157D01*
X41283000Y35393157D01*
X41357689Y35400513D01*
X41429508Y35422299D01*
X41495696Y35457678D01*
X41553711Y35505289D01*
X41601322Y35563304D01*
X41636701Y35629492D01*
X41658487Y35701311D01*
X41665843Y35776000D01*
X41665843Y36962500D01*
X42730657Y36962500D01*
X42730657Y35762500D01*
X42738013Y35687811D01*
X42759799Y35615992D01*
X42795178Y35549804D01*
X42842789Y35491789D01*
X42900804Y35444178D01*
X42966992Y35408799D01*
X43038811Y35387013D01*
X43113500Y35379657D01*
X44013500Y35379657D01*
X44088189Y35387013D01*
X44160008Y35408799D01*
X44226196Y35444178D01*
X44284211Y35491789D01*
X44331822Y35549804D01*
X44367201Y35615992D01*
X44388987Y35687811D01*
X44396343Y35762500D01*
X44396343Y36962500D01*
X44388987Y37037189D01*
X44367201Y37109008D01*
X44331822Y37175196D01*
X44284211Y37233211D01*
X44226196Y37280822D01*
X44160008Y37316201D01*
X44088189Y37337987D01*
X44013500Y37345343D01*
X43113500Y37345343D01*
X43038811Y37337987D01*
X42966992Y37316201D01*
X42900804Y37280822D01*
X42842789Y37233211D01*
X42795178Y37175196D01*
X42759799Y37109008D01*
X42738013Y37037189D01*
X42730657Y36962500D01*
X41665843Y36962500D01*
X41665843Y36976000D01*
X41658487Y37050689D01*
X41636701Y37122508D01*
X41601322Y37188696D01*
X41553711Y37246711D01*
X41495696Y37294322D01*
X41429508Y37329701D01*
X41357689Y37351487D01*
X41283000Y37358843D01*
X40383000Y37358843D01*
X40308311Y37351487D01*
X40236492Y37329701D01*
X40170304Y37294322D01*
X40112289Y37246711D01*
X40064678Y37188696D01*
X40029299Y37122508D01*
X40007513Y37050689D01*
X40000157Y36976000D01*
X33997344Y36976000D01*
X33994829Y36988640D01*
X33943494Y37112574D01*
X33868967Y37224112D01*
X33774112Y37318967D01*
X33662574Y37393494D01*
X33538640Y37444829D01*
X33407073Y37471000D01*
X33272927Y37471000D01*
X33141360Y37444829D01*
X33017426Y37393494D01*
X32905888Y37318967D01*
X32811033Y37224112D01*
X32739932Y37117702D01*
X32728967Y37134112D01*
X32634112Y37228967D01*
X32522574Y37303494D01*
X32398640Y37354829D01*
X32267073Y37381000D01*
X32201500Y37381000D01*
X31988499Y37594000D01*
X45573000Y37594000D01*
X45573000Y29177000D01*
G36*
X36130923Y11421778D02*
G01*
X39458561Y8094139D01*
X39391212Y7872118D01*
X39367444Y7630800D01*
X39374355Y7560631D01*
X34073532Y7560631D01*
X30212382Y11421780D01*
X36130923Y11421778D01*
X36130923Y11421778D01*
G37*
X36130923Y11421778D02*
X39458561Y8094139D01*
X39391212Y7872118D01*
X39367444Y7630800D01*
X39374355Y7560631D01*
X34073532Y7560631D01*
X30212382Y11421780D01*
X36130923Y11421778D01*
G36*
X11796586Y16189779D02*
G01*
X11928153Y16163608D01*
X11993727Y16163608D01*
X14238572Y13918762D01*
X14253683Y13900349D01*
X14272096Y13885238D01*
X14272097Y13885237D01*
X14282763Y13876484D01*
X14327169Y13840041D01*
X14411007Y13795228D01*
X14501978Y13767633D01*
X14572877Y13760650D01*
X14572878Y13760650D01*
X14596583Y13758315D01*
X14620288Y13760650D01*
X20863267Y13760650D01*
X20863267Y13304628D01*
X20838640Y13314829D01*
X20707073Y13341000D01*
X20572927Y13341000D01*
X20441360Y13314829D01*
X20317426Y13263494D01*
X20205888Y13188967D01*
X20111033Y13094112D01*
X20036506Y12982574D01*
X19985171Y12858640D01*
X19965868Y12761600D01*
X17056479Y12761600D01*
X17010112Y12807967D01*
X16898574Y12882494D01*
X16774640Y12933829D01*
X16643073Y12960000D01*
X16508927Y12960000D01*
X16377360Y12933829D01*
X16253426Y12882494D01*
X16141888Y12807967D01*
X16047033Y12713112D01*
X15972506Y12601574D01*
X15921171Y12477640D01*
X15895000Y12346073D01*
X15895000Y12211927D01*
X15921171Y12080360D01*
X15972506Y11956426D01*
X16047033Y11844888D01*
X16141888Y11750033D01*
X16253426Y11675506D01*
X16377360Y11624171D01*
X16508927Y11598000D01*
X16643073Y11598000D01*
X16774640Y11624171D01*
X16898574Y11675506D01*
X17010112Y11750033D01*
X17056479Y11796400D01*
X20235295Y11796400D01*
X20259000Y11794065D01*
X20282705Y11796400D01*
X20282707Y11796400D01*
X20353606Y11803383D01*
X20444577Y11830978D01*
X20528415Y11875791D01*
X20601901Y11936099D01*
X20617017Y11954518D01*
X20641499Y11979000D01*
X20707073Y11979000D01*
X20838640Y12005171D01*
X20910542Y12034954D01*
X20942659Y11974868D01*
X20986878Y11920987D01*
X21002967Y11901382D01*
X21021380Y11886271D01*
X21351267Y11556384D01*
X21333426Y11548994D01*
X21221888Y11474467D01*
X21175521Y11428100D01*
X13869196Y11428100D01*
X13845499Y11430434D01*
X13821802Y11428100D01*
X13821793Y11428100D01*
X13750894Y11421117D01*
X13659923Y11393522D01*
X13576085Y11348709D01*
X13502599Y11288401D01*
X13487483Y11269982D01*
X11077613Y8860112D01*
X11048878Y8872015D01*
X10840321Y8913500D01*
X10627679Y8913500D01*
X10419122Y8872015D01*
X10222665Y8790640D01*
X10073600Y8691038D01*
X10073600Y14908085D01*
X11206217Y16040702D01*
X11271791Y16040702D01*
X11403358Y16066873D01*
X11527292Y16118208D01*
X11638830Y16192735D01*
X11682945Y16236850D01*
X11796586Y16189779D01*
X11796586Y16189779D01*
G37*
X11796586Y16189779D02*
X11928153Y16163608D01*
X11993727Y16163608D01*
X14238572Y13918762D01*
X14253683Y13900349D01*
X14272096Y13885238D01*
X14272097Y13885237D01*
X14282763Y13876484D01*
X14327169Y13840041D01*
X14411007Y13795228D01*
X14501978Y13767633D01*
X14572877Y13760650D01*
X14572878Y13760650D01*
X14596583Y13758315D01*
X14620288Y13760650D01*
X20863267Y13760650D01*
X20863267Y13304628D01*
X20838640Y13314829D01*
X20707073Y13341000D01*
X20572927Y13341000D01*
X20441360Y13314829D01*
X20317426Y13263494D01*
X20205888Y13188967D01*
X20111033Y13094112D01*
X20036506Y12982574D01*
X19985171Y12858640D01*
X19965868Y12761600D01*
X17056479Y12761600D01*
X17010112Y12807967D01*
X16898574Y12882494D01*
X16774640Y12933829D01*
X16643073Y12960000D01*
X16508927Y12960000D01*
X16377360Y12933829D01*
X16253426Y12882494D01*
X16141888Y12807967D01*
X16047033Y12713112D01*
X15972506Y12601574D01*
X15921171Y12477640D01*
X15895000Y12346073D01*
X15895000Y12211927D01*
X15921171Y12080360D01*
X15972506Y11956426D01*
X16047033Y11844888D01*
X16141888Y11750033D01*
X16253426Y11675506D01*
X16377360Y11624171D01*
X16508927Y11598000D01*
X16643073Y11598000D01*
X16774640Y11624171D01*
X16898574Y11675506D01*
X17010112Y11750033D01*
X17056479Y11796400D01*
X20235295Y11796400D01*
X20259000Y11794065D01*
X20282705Y11796400D01*
X20282707Y11796400D01*
X20353606Y11803383D01*
X20444577Y11830978D01*
X20528415Y11875791D01*
X20601901Y11936099D01*
X20617017Y11954518D01*
X20641499Y11979000D01*
X20707073Y11979000D01*
X20838640Y12005171D01*
X20910542Y12034954D01*
X20942659Y11974868D01*
X20986878Y11920987D01*
X21002967Y11901382D01*
X21021380Y11886271D01*
X21351267Y11556384D01*
X21333426Y11548994D01*
X21221888Y11474467D01*
X21175521Y11428100D01*
X13869196Y11428100D01*
X13845499Y11430434D01*
X13821802Y11428100D01*
X13821793Y11428100D01*
X13750894Y11421117D01*
X13659923Y11393522D01*
X13576085Y11348709D01*
X13502599Y11288401D01*
X13487483Y11269982D01*
X11077613Y8860112D01*
X11048878Y8872015D01*
X10840321Y8913500D01*
X10627679Y8913500D01*
X10419122Y8872015D01*
X10222665Y8790640D01*
X10073600Y8691038D01*
X10073600Y14908085D01*
X11206217Y16040702D01*
X11271791Y16040702D01*
X11403358Y16066873D01*
X11527292Y16118208D01*
X11638830Y16192735D01*
X11682945Y16236850D01*
X11796586Y16189779D01*
G36*
X40731400Y15377800D02*
G01*
X40751400Y15377800D01*
X40751400Y15123800D01*
X40731400Y15123800D01*
X40731400Y15103800D01*
X40477400Y15103800D01*
X40477400Y15123800D01*
X40457400Y15123800D01*
X40457400Y15377800D01*
X40477400Y15377800D01*
X40477400Y15397800D01*
X40731400Y15397800D01*
X40731400Y15377800D01*
X40731400Y15377800D01*
G37*
X40731400Y15377800D02*
X40751400Y15377800D01*
X40751400Y15123800D01*
X40731400Y15123800D01*
X40731400Y15103800D01*
X40477400Y15103800D01*
X40477400Y15123800D01*
X40457400Y15123800D01*
X40457400Y15377800D01*
X40477400Y15377800D01*
X40477400Y15397800D01*
X40731400Y15397800D01*
X40731400Y15377800D01*
G36*
X41304550Y23236858D02*
G01*
X41428484Y23185523D01*
X41560051Y23159352D01*
X41625625Y23159352D01*
X44096901Y20688075D01*
X44096901Y18570611D01*
X44019060Y18665460D01*
X43831616Y18819291D01*
X43617763Y18933598D01*
X43385718Y19003988D01*
X43204872Y19021800D01*
X43083928Y19021800D01*
X42903082Y19003988D01*
X42671037Y18933598D01*
X42475399Y18829027D01*
X42475399Y21700005D01*
X42477733Y21723702D01*
X42475399Y21747399D01*
X42475399Y21747408D01*
X42468416Y21818307D01*
X42440821Y21909278D01*
X42396008Y21993116D01*
X42335700Y22066602D01*
X42317281Y22081718D01*
X41224435Y23174564D01*
X41268466Y23203985D01*
X41302625Y23238144D01*
X41304550Y23236858D01*
X41304550Y23236858D01*
G37*
X41304550Y23236858D02*
X41428484Y23185523D01*
X41560051Y23159352D01*
X41625625Y23159352D01*
X44096901Y20688075D01*
X44096901Y18570611D01*
X44019060Y18665460D01*
X43831616Y18819291D01*
X43617763Y18933598D01*
X43385718Y19003988D01*
X43204872Y19021800D01*
X43083928Y19021800D01*
X42903082Y19003988D01*
X42671037Y18933598D01*
X42475399Y18829027D01*
X42475399Y21700005D01*
X42477733Y21723702D01*
X42475399Y21747399D01*
X42475399Y21747408D01*
X42468416Y21818307D01*
X42440821Y21909278D01*
X42396008Y21993116D01*
X42335700Y22066602D01*
X42317281Y22081718D01*
X41224435Y23174564D01*
X41268466Y23203985D01*
X41302625Y23238144D01*
X41304550Y23236858D01*
G36*
X17590676Y22633672D02*
G01*
X17774855Y22633329D01*
X17805025Y22639272D01*
X17864873Y22636017D01*
X17878248Y22622642D01*
X17864105Y22608500D01*
X17878248Y22594357D01*
X17703374Y22419484D01*
X17692877Y22420518D01*
X17684500Y22428895D01*
X17676948Y22421343D01*
X17404500Y22421343D01*
X17329811Y22413987D01*
X17301922Y22405527D01*
X17504895Y22608500D01*
X17490753Y22622642D01*
X17516649Y22648539D01*
X17590676Y22633672D01*
X17590676Y22633672D01*
G37*
X17590676Y22633672D02*
X17774855Y22633329D01*
X17805025Y22639272D01*
X17864873Y22636017D01*
X17878248Y22622642D01*
X17864105Y22608500D01*
X17878248Y22594357D01*
X17703374Y22419484D01*
X17692877Y22420518D01*
X17684500Y22428895D01*
X17676948Y22421343D01*
X17404500Y22421343D01*
X17329811Y22413987D01*
X17301922Y22405527D01*
X17504895Y22608500D01*
X17490753Y22622642D01*
X17516649Y22648539D01*
X17590676Y22633672D01*
G36*
X19598248Y22622642D02*
G01*
X19584105Y22608500D01*
X19787078Y22405527D01*
X19759189Y22413987D01*
X19684500Y22421343D01*
X19412052Y22421343D01*
X19404500Y22428895D01*
X19396123Y22420518D01*
X19385626Y22419484D01*
X19210753Y22594357D01*
X19224895Y22608500D01*
X19210753Y22622642D01*
X19224127Y22636017D01*
X19283044Y22639222D01*
X19310676Y22633672D01*
X19494855Y22633329D01*
X19572304Y22648586D01*
X19598248Y22622642D01*
X19598248Y22622642D01*
G37*
X19598248Y22622642D02*
X19584105Y22608500D01*
X19787078Y22405527D01*
X19759189Y22413987D01*
X19684500Y22421343D01*
X19412052Y22421343D01*
X19404500Y22428895D01*
X19396123Y22420518D01*
X19385626Y22419484D01*
X19210753Y22594357D01*
X19224895Y22608500D01*
X19210753Y22622642D01*
X19224127Y22636017D01*
X19283044Y22639222D01*
X19310676Y22633672D01*
X19494855Y22633329D01*
X19572304Y22648586D01*
X19598248Y22622642D01*
G36*
X16749329Y23478145D02*
G01*
X16784926Y23297439D01*
X16855092Y23127149D01*
X16856737Y23124075D01*
X16996944Y23116448D01*
X17024892Y23088500D01*
X16996944Y23060552D01*
X16856737Y23052925D01*
X16785938Y22882897D01*
X16749692Y22702421D01*
X16738146Y22713967D01*
X16626608Y22788494D01*
X16502674Y22839829D01*
X16385249Y22863187D01*
X16419998Y22928198D01*
X16441679Y22999671D01*
X16449000Y23074000D01*
X16449000Y23297184D01*
X16749552Y23597736D01*
X16749329Y23478145D01*
X16749329Y23478145D01*
G37*
X16749329Y23478145D02*
X16784926Y23297439D01*
X16855092Y23127149D01*
X16856737Y23124075D01*
X16996944Y23116448D01*
X17024892Y23088500D01*
X16996944Y23060552D01*
X16856737Y23052925D01*
X16785938Y22882897D01*
X16749692Y22702421D01*
X16738146Y22713967D01*
X16626608Y22788494D01*
X16502674Y22839829D01*
X16385249Y22863187D01*
X16419998Y22928198D01*
X16441679Y22999671D01*
X16449000Y23074000D01*
X16449000Y23297184D01*
X16749552Y23597736D01*
X16749329Y23478145D01*
G36*
X18575092Y23127149D02*
G01*
X18576737Y23124075D01*
X18716944Y23116448D01*
X18734499Y23098893D01*
X18724105Y23088500D01*
X18734499Y23078106D01*
X18716944Y23060552D01*
X18576737Y23052925D01*
X18544521Y22975555D01*
X18513908Y23049851D01*
X18512263Y23052925D01*
X18372056Y23060552D01*
X18354502Y23078106D01*
X18364895Y23088500D01*
X18354502Y23098893D01*
X18372056Y23116448D01*
X18512263Y23124075D01*
X18544479Y23201445D01*
X18575092Y23127149D01*
X18575092Y23127149D01*
G37*
X18575092Y23127149D02*
X18576737Y23124075D01*
X18716944Y23116448D01*
X18734499Y23098893D01*
X18724105Y23088500D01*
X18734499Y23078106D01*
X18716944Y23060552D01*
X18576737Y23052925D01*
X18544521Y22975555D01*
X18513908Y23049851D01*
X18512263Y23052925D01*
X18372056Y23060552D01*
X18354502Y23078106D01*
X18364895Y23088500D01*
X18354502Y23098893D01*
X18372056Y23116448D01*
X18512263Y23124075D01*
X18544479Y23201445D01*
X18575092Y23127149D01*
G36*
X17794535Y23666355D02*
G01*
X17790786Y23662606D01*
X17874499Y23578893D01*
X17864105Y23568500D01*
X17878248Y23554357D01*
X17864873Y23540983D01*
X17805956Y23537778D01*
X17778324Y23543328D01*
X17594145Y23543671D01*
X17516696Y23528414D01*
X17490753Y23554357D01*
X17504895Y23568500D01*
X17490753Y23582642D01*
X17617110Y23709000D01*
X17719000Y23709000D01*
X17748941Y23711949D01*
X17794535Y23666355D01*
X17794535Y23666355D01*
G37*
X17794535Y23666355D02*
X17790786Y23662606D01*
X17874499Y23578893D01*
X17864105Y23568500D01*
X17878248Y23554357D01*
X17864873Y23540983D01*
X17805956Y23537778D01*
X17778324Y23543328D01*
X17594145Y23543671D01*
X17516696Y23528414D01*
X17490753Y23554357D01*
X17504895Y23568500D01*
X17490753Y23582642D01*
X17617110Y23709000D01*
X17719000Y23709000D01*
X17748941Y23711949D01*
X17794535Y23666355D01*
G36*
X19370000Y23709000D02*
G01*
X19471890Y23709000D01*
X19598248Y23582642D01*
X19584105Y23568500D01*
X19598248Y23554357D01*
X19572351Y23528461D01*
X19498324Y23543328D01*
X19314145Y23543671D01*
X19283975Y23537728D01*
X19224127Y23540983D01*
X19210753Y23554357D01*
X19224895Y23568500D01*
X19214502Y23578893D01*
X19298214Y23662606D01*
X19294465Y23666355D01*
X19340059Y23711949D01*
X19370000Y23709000D01*
X19370000Y23709000D01*
G37*
X19370000Y23709000D02*
X19471890Y23709000D01*
X19598248Y23582642D01*
X19584105Y23568500D01*
X19598248Y23554357D01*
X19572351Y23528461D01*
X19498324Y23543328D01*
X19314145Y23543671D01*
X19283975Y23537728D01*
X19224127Y23540983D01*
X19210753Y23554357D01*
X19224895Y23568500D01*
X19214502Y23578893D01*
X19298214Y23662606D01*
X19294465Y23666355D01*
X19340059Y23711949D01*
X19370000Y23709000D01*
G36*
X25403210Y26333672D02*
G01*
X25368002Y26267802D01*
X25346321Y26196329D01*
X25339000Y26122000D01*
X25339000Y25614000D01*
X24732843Y25614000D01*
X24732843Y25939000D01*
X24725487Y26013689D01*
X24703701Y26085508D01*
X24688526Y26113897D01*
X24691322Y26117304D01*
X24726701Y26183492D01*
X24748487Y26255311D01*
X24755843Y26330000D01*
X24755843Y26376000D01*
X25437947Y26376000D01*
X25403210Y26333672D01*
X25403210Y26333672D01*
G37*
X25403210Y26333672D02*
X25368002Y26267802D01*
X25346321Y26196329D01*
X25339000Y26122000D01*
X25339000Y25614000D01*
X24732843Y25614000D01*
X24732843Y25939000D01*
X24725487Y26013689D01*
X24703701Y26085508D01*
X24688526Y26113897D01*
X24691322Y26117304D01*
X24726701Y26183492D01*
X24748487Y26255311D01*
X24755843Y26330000D01*
X24755843Y26376000D01*
X25437947Y26376000D01*
X25403210Y26333672D01*
G36*
X20053092Y27567092D02*
G01*
X20110828Y27519710D01*
X20176698Y27484502D01*
X20248171Y27462821D01*
X20322500Y27455500D01*
X21625184Y27455500D01*
X21787175Y27293509D01*
X21747689Y27305487D01*
X21673000Y27312843D01*
X20623000Y27312843D01*
X20548311Y27305487D01*
X20476492Y27283701D01*
X20410304Y27248322D01*
X20352289Y27200711D01*
X20320177Y27161582D01*
X20315179Y27212329D01*
X20293498Y27283802D01*
X20258290Y27349672D01*
X20210908Y27407408D01*
X19999316Y27619000D01*
X20001184Y27619000D01*
X20053092Y27567092D01*
X20053092Y27567092D01*
G37*
X20053092Y27567092D02*
X20110828Y27519710D01*
X20176698Y27484502D01*
X20248171Y27462821D01*
X20322500Y27455500D01*
X21625184Y27455500D01*
X21787175Y27293509D01*
X21747689Y27305487D01*
X21673000Y27312843D01*
X20623000Y27312843D01*
X20548311Y27305487D01*
X20476492Y27283701D01*
X20410304Y27248322D01*
X20352289Y27200711D01*
X20320177Y27161582D01*
X20315179Y27212329D01*
X20293498Y27283802D01*
X20258290Y27349672D01*
X20210908Y27407408D01*
X19999316Y27619000D01*
X20001184Y27619000D01*
X20053092Y27567092D01*
G36*
X26049811Y30628513D02*
G01*
X26124500Y30621157D01*
X26325103Y30621157D01*
X26431866Y30514394D01*
X26431866Y29487500D01*
X26434306Y29462724D01*
X26441533Y29438899D01*
X26453269Y29416943D01*
X26469063Y29397697D01*
X27231063Y28635697D01*
X27250309Y28619903D01*
X27272265Y28608167D01*
X27296090Y28600940D01*
X27320866Y28598500D01*
X27889894Y28598500D01*
X27942500Y28545894D01*
X27942500Y27825606D01*
X27890627Y27773733D01*
X26428272Y27794044D01*
X26243408Y27978908D01*
X26185672Y28026290D01*
X26119802Y28061498D01*
X26048329Y28083179D01*
X25974000Y28090500D01*
X23464816Y28090500D01*
X23116500Y28438816D01*
X23116500Y28902005D01*
X23123679Y28925671D01*
X23131000Y29000000D01*
X23131000Y29830394D01*
X23931106Y30630500D01*
X26043261Y30630500D01*
X26049811Y30628513D01*
X26049811Y30628513D01*
G37*
X26049811Y30628513D02*
X26124500Y30621157D01*
X26325103Y30621157D01*
X26431866Y30514394D01*
X26431866Y29487500D01*
X26434306Y29462724D01*
X26441533Y29438899D01*
X26453269Y29416943D01*
X26469063Y29397697D01*
X27231063Y28635697D01*
X27250309Y28619903D01*
X27272265Y28608167D01*
X27296090Y28600940D01*
X27320866Y28598500D01*
X27889894Y28598500D01*
X27942500Y28545894D01*
X27942500Y27825606D01*
X27890627Y27773733D01*
X26428272Y27794044D01*
X26243408Y27978908D01*
X26185672Y28026290D01*
X26119802Y28061498D01*
X26048329Y28083179D01*
X25974000Y28090500D01*
X23464816Y28090500D01*
X23116500Y28438816D01*
X23116500Y28902005D01*
X23123679Y28925671D01*
X23131000Y29000000D01*
X23131000Y29830394D01*
X23931106Y30630500D01*
X26043261Y30630500D01*
X26049811Y30628513D01*
G36*
X19592006Y27259926D02*
G01*
X19666533Y27148388D01*
X19761388Y27053533D01*
X19814500Y27018045D01*
X19814500Y25793606D01*
X19390897Y25370003D01*
X19329811Y25363987D01*
X19257992Y25342201D01*
X19191804Y25306822D01*
X19133789Y25259211D01*
X19086178Y25201196D01*
X19050799Y25135008D01*
X19044500Y25114243D01*
X19038201Y25135008D01*
X19002822Y25201196D01*
X18955211Y25259211D01*
X18897196Y25306822D01*
X18831008Y25342201D01*
X18759189Y25363987D01*
X18684500Y25371343D01*
X18649263Y25371343D01*
X17973000Y26047606D01*
X17973000Y27085394D01*
X18152606Y27265000D01*
X19589904Y27265000D01*
X19592006Y27259926D01*
X19592006Y27259926D01*
G37*
X19592006Y27259926D02*
X19666533Y27148388D01*
X19761388Y27053533D01*
X19814500Y27018045D01*
X19814500Y25793606D01*
X19390897Y25370003D01*
X19329811Y25363987D01*
X19257992Y25342201D01*
X19191804Y25306822D01*
X19133789Y25259211D01*
X19086178Y25201196D01*
X19050799Y25135008D01*
X19044500Y25114243D01*
X19038201Y25135008D01*
X19002822Y25201196D01*
X18955211Y25259211D01*
X18897196Y25306822D01*
X18831008Y25342201D01*
X18759189Y25363987D01*
X18684500Y25371343D01*
X18649263Y25371343D01*
X17973000Y26047606D01*
X17973000Y27085394D01*
X18152606Y27265000D01*
X19589904Y27265000D01*
X19592006Y27259926D01*
G36*
X17465000Y27009144D02*
G01*
X17465000Y25995000D01*
X17472321Y25920671D01*
X17494002Y25849198D01*
X17529210Y25783328D01*
X17576592Y25725592D01*
X18092854Y25209330D01*
X18086178Y25201196D01*
X18050799Y25135008D01*
X18044500Y25114243D01*
X18038201Y25135008D01*
X18002822Y25201196D01*
X17955211Y25259211D01*
X17897196Y25306822D01*
X17831008Y25342201D01*
X17759189Y25363987D01*
X17698103Y25370003D01*
X17300803Y25767303D01*
X17281557Y25783097D01*
X17259601Y25794833D01*
X17235776Y25802060D01*
X17211000Y25804500D01*
X15549106Y25804500D01*
X15433000Y25920606D01*
X15433000Y27085394D01*
X15612606Y27265000D01*
X17106801Y27265000D01*
X17465000Y27009144D01*
X17465000Y27009144D01*
G37*
X17465000Y27009144D02*
X17465000Y25995000D01*
X17472321Y25920671D01*
X17494002Y25849198D01*
X17529210Y25783328D01*
X17576592Y25725592D01*
X18092854Y25209330D01*
X18086178Y25201196D01*
X18050799Y25135008D01*
X18044500Y25114243D01*
X18038201Y25135008D01*
X18002822Y25201196D01*
X17955211Y25259211D01*
X17897196Y25306822D01*
X17831008Y25342201D01*
X17759189Y25363987D01*
X17698103Y25370003D01*
X17300803Y25767303D01*
X17281557Y25783097D01*
X17259601Y25794833D01*
X17235776Y25802060D01*
X17211000Y25804500D01*
X15549106Y25804500D01*
X15433000Y25920606D01*
X15433000Y27085394D01*
X15612606Y27265000D01*
X17106801Y27265000D01*
X17465000Y27009144D01*
G36*
X27952888Y26736033D02*
G01*
X28064426Y26661506D01*
X28133000Y26633102D01*
X28133000Y25285606D01*
X26429394Y23582000D01*
X21264106Y23582000D01*
X20666303Y24179803D01*
X20647057Y24195597D01*
X20625101Y24207333D01*
X20601276Y24214560D01*
X20576500Y24217000D01*
X19975257Y24217000D01*
X19957196Y24231822D01*
X19891008Y24267201D01*
X19819189Y24288987D01*
X19744500Y24296343D01*
X19687500Y24296343D01*
X19687500Y24948184D01*
X19845316Y25106000D01*
X23440805Y25106000D01*
X23456678Y25076304D01*
X23504289Y25018289D01*
X23562304Y24970678D01*
X23628492Y24935299D01*
X23700311Y24913513D01*
X23775000Y24906157D01*
X24350000Y24906157D01*
X24424689Y24913513D01*
X24450000Y24921191D01*
X24475311Y24913513D01*
X24550000Y24906157D01*
X25125000Y24906157D01*
X25199689Y24913513D01*
X25271508Y24935299D01*
X25337696Y24970678D01*
X25395711Y25018289D01*
X25443322Y25076304D01*
X25459195Y25106000D01*
X25529500Y25106000D01*
X25554276Y25108440D01*
X25578101Y25115667D01*
X25600057Y25127403D01*
X25619303Y25143197D01*
X25809803Y25333697D01*
X25825597Y25352943D01*
X25837333Y25374899D01*
X25844560Y25398724D01*
X25847000Y25423500D01*
X25847000Y25450301D01*
X27179100Y26782400D01*
X27906521Y26782400D01*
X27952888Y26736033D01*
X27952888Y26736033D01*
G37*
X27952888Y26736033D02*
X28064426Y26661506D01*
X28133000Y26633102D01*
X28133000Y25285606D01*
X26429394Y23582000D01*
X21264106Y23582000D01*
X20666303Y24179803D01*
X20647057Y24195597D01*
X20625101Y24207333D01*
X20601276Y24214560D01*
X20576500Y24217000D01*
X19975257Y24217000D01*
X19957196Y24231822D01*
X19891008Y24267201D01*
X19819189Y24288987D01*
X19744500Y24296343D01*
X19687500Y24296343D01*
X19687500Y24948184D01*
X19845316Y25106000D01*
X23440805Y25106000D01*
X23456678Y25076304D01*
X23504289Y25018289D01*
X23562304Y24970678D01*
X23628492Y24935299D01*
X23700311Y24913513D01*
X23775000Y24906157D01*
X24350000Y24906157D01*
X24424689Y24913513D01*
X24450000Y24921191D01*
X24475311Y24913513D01*
X24550000Y24906157D01*
X25125000Y24906157D01*
X25199689Y24913513D01*
X25271508Y24935299D01*
X25337696Y24970678D01*
X25395711Y25018289D01*
X25443322Y25076304D01*
X25459195Y25106000D01*
X25529500Y25106000D01*
X25554276Y25108440D01*
X25578101Y25115667D01*
X25600057Y25127403D01*
X25619303Y25143197D01*
X25809803Y25333697D01*
X25825597Y25352943D01*
X25837333Y25374899D01*
X25844560Y25398724D01*
X25847000Y25423500D01*
X25847000Y25450301D01*
X27179100Y26782400D01*
X27906521Y26782400D01*
X27952888Y26736033D01*
G36*
X17401500Y24948184D02*
G01*
X17401500Y24296343D01*
X17344500Y24296343D01*
X17269811Y24288987D01*
X17197992Y24267201D01*
X17131804Y24231822D01*
X17113743Y24217000D01*
X16703000Y24217000D01*
X16678224Y24214560D01*
X16654399Y24207333D01*
X16632443Y24195597D01*
X16613197Y24179803D01*
X15978197Y23544803D01*
X15962403Y23525557D01*
X15950667Y23503601D01*
X15943440Y23479776D01*
X15941000Y23455000D01*
X15941000Y23137500D01*
X11675606Y23137500D01*
X11623000Y23190106D01*
X11623000Y23420971D01*
X11644711Y23438789D01*
X11692322Y23496804D01*
X11727701Y23562992D01*
X11749487Y23634811D01*
X11756843Y23709500D01*
X11756843Y24769500D01*
X11749487Y24844189D01*
X11730474Y24906868D01*
X12120106Y25296500D01*
X17053184Y25296500D01*
X17401500Y24948184D01*
X17401500Y24948184D01*
G37*
X17401500Y24948184D02*
X17401500Y24296343D01*
X17344500Y24296343D01*
X17269811Y24288987D01*
X17197992Y24267201D01*
X17131804Y24231822D01*
X17113743Y24217000D01*
X16703000Y24217000D01*
X16678224Y24214560D01*
X16654399Y24207333D01*
X16632443Y24195597D01*
X16613197Y24179803D01*
X15978197Y23544803D01*
X15962403Y23525557D01*
X15950667Y23503601D01*
X15943440Y23479776D01*
X15941000Y23455000D01*
X15941000Y23137500D01*
X11675606Y23137500D01*
X11623000Y23190106D01*
X11623000Y23420971D01*
X11644711Y23438789D01*
X11692322Y23496804D01*
X11727701Y23562992D01*
X11749487Y23634811D01*
X11756843Y23709500D01*
X11756843Y24769500D01*
X11749487Y24844189D01*
X11730474Y24906868D01*
X12120106Y25296500D01*
X17053184Y25296500D01*
X17401500Y24948184D01*
G36*
X5204426Y29011006D02*
G01*
X5328360Y28959671D01*
X5459927Y28933500D01*
X5594073Y28933500D01*
X5725640Y28959671D01*
X5849574Y29011006D01*
X5897457Y29043000D01*
X6045543Y29043000D01*
X6093426Y29011006D01*
X6217360Y28959671D01*
X6348927Y28933500D01*
X6483073Y28933500D01*
X6614640Y28959671D01*
X6738574Y29011006D01*
X6786457Y29043000D01*
X9919043Y29043000D01*
X9966926Y29011006D01*
X10090860Y28959671D01*
X10222427Y28933500D01*
X10356573Y28933500D01*
X10488140Y28959671D01*
X10612074Y29011006D01*
X10659957Y29043000D01*
X12205394Y29043000D01*
X12639000Y28609394D01*
X12639000Y26174606D01*
X12332394Y25868000D01*
X11675606Y25868000D01*
X11369000Y26174606D01*
X11369000Y27138000D01*
X11366560Y27162776D01*
X11359333Y27186601D01*
X11347597Y27208557D01*
X11331803Y27227803D01*
X10950803Y27608803D01*
X10931557Y27624597D01*
X10909601Y27636333D01*
X10885776Y27643560D01*
X10861000Y27646000D01*
X5527000Y27646000D01*
X5502224Y27643560D01*
X5478399Y27636333D01*
X5456443Y27624597D01*
X5437197Y27608803D01*
X4294197Y26465803D01*
X4278403Y26446557D01*
X4266667Y26424601D01*
X4259440Y26400776D01*
X4257000Y26376000D01*
X4257000Y8185127D01*
X4190640Y8345335D01*
X4072502Y8522141D01*
X3922141Y8672502D01*
X3745335Y8790640D01*
X3548878Y8872015D01*
X3340321Y8913500D01*
X3127679Y8913500D01*
X2919122Y8872015D01*
X2722665Y8790640D01*
X2545859Y8672502D01*
X2395498Y8522141D01*
X2277360Y8345335D01*
X2195985Y8148878D01*
X2154500Y7940321D01*
X2154500Y7727679D01*
X2195985Y7519122D01*
X2277360Y7322665D01*
X2395498Y7145859D01*
X2545859Y6995498D01*
X2550428Y6992445D01*
X2520289Y6967711D01*
X2472678Y6909696D01*
X2437299Y6843508D01*
X2415513Y6771689D01*
X2408157Y6697000D01*
X2408157Y5497000D01*
X2415513Y5422311D01*
X2437299Y5350492D01*
X2472678Y5284304D01*
X2520289Y5226289D01*
X2578304Y5178678D01*
X2644492Y5143299D01*
X2716311Y5121513D01*
X2791000Y5114157D01*
X3691000Y5114157D01*
X3765689Y5121513D01*
X3837508Y5143299D01*
X3903696Y5178678D01*
X3961711Y5226289D01*
X4009322Y5284304D01*
X4044701Y5350492D01*
X4066487Y5422311D01*
X4073843Y5497000D01*
X4073843Y6697000D01*
X4066487Y6771689D01*
X4044701Y6843508D01*
X4009322Y6909696D01*
X3961711Y6967711D01*
X3924715Y6998072D01*
X4072502Y7145859D01*
X4190640Y7322665D01*
X4257000Y7482873D01*
X4257000Y5548000D01*
X4259440Y5523224D01*
X4266667Y5499399D01*
X4278403Y5477443D01*
X4294197Y5458197D01*
X4929197Y4823197D01*
X4948443Y4807403D01*
X4970399Y4795667D01*
X4994224Y4788440D01*
X5019000Y4786000D01*
X9108400Y4786000D01*
X9108400Y3386823D01*
X9106065Y3363118D01*
X9108400Y3339413D01*
X9108400Y3339412D01*
X9115383Y3268513D01*
X9142978Y3177542D01*
X9187791Y3093703D01*
X9248099Y3020217D01*
X9266518Y3005101D01*
X9390619Y2881000D01*
X2912606Y2881000D01*
X1971000Y3822606D01*
X1971000Y26323394D01*
X4581859Y28934253D01*
X4709640Y28959671D01*
X4833574Y29011006D01*
X4881457Y29043000D01*
X5156543Y29043000D01*
X5204426Y29011006D01*
X5204426Y29011006D01*
G37*
X5204426Y29011006D02*
X5328360Y28959671D01*
X5459927Y28933500D01*
X5594073Y28933500D01*
X5725640Y28959671D01*
X5849574Y29011006D01*
X5897457Y29043000D01*
X6045543Y29043000D01*
X6093426Y29011006D01*
X6217360Y28959671D01*
X6348927Y28933500D01*
X6483073Y28933500D01*
X6614640Y28959671D01*
X6738574Y29011006D01*
X6786457Y29043000D01*
X9919043Y29043000D01*
X9966926Y29011006D01*
X10090860Y28959671D01*
X10222427Y28933500D01*
X10356573Y28933500D01*
X10488140Y28959671D01*
X10612074Y29011006D01*
X10659957Y29043000D01*
X12205394Y29043000D01*
X12639000Y28609394D01*
X12639000Y26174606D01*
X12332394Y25868000D01*
X11675606Y25868000D01*
X11369000Y26174606D01*
X11369000Y27138000D01*
X11366560Y27162776D01*
X11359333Y27186601D01*
X11347597Y27208557D01*
X11331803Y27227803D01*
X10950803Y27608803D01*
X10931557Y27624597D01*
X10909601Y27636333D01*
X10885776Y27643560D01*
X10861000Y27646000D01*
X5527000Y27646000D01*
X5502224Y27643560D01*
X5478399Y27636333D01*
X5456443Y27624597D01*
X5437197Y27608803D01*
X4294197Y26465803D01*
X4278403Y26446557D01*
X4266667Y26424601D01*
X4259440Y26400776D01*
X4257000Y26376000D01*
X4257000Y8185127D01*
X4190640Y8345335D01*
X4072502Y8522141D01*
X3922141Y8672502D01*
X3745335Y8790640D01*
X3548878Y8872015D01*
X3340321Y8913500D01*
X3127679Y8913500D01*
X2919122Y8872015D01*
X2722665Y8790640D01*
X2545859Y8672502D01*
X2395498Y8522141D01*
X2277360Y8345335D01*
X2195985Y8148878D01*
X2154500Y7940321D01*
X2154500Y7727679D01*
X2195985Y7519122D01*
X2277360Y7322665D01*
X2395498Y7145859D01*
X2545859Y6995498D01*
X2550428Y6992445D01*
X2520289Y6967711D01*
X2472678Y6909696D01*
X2437299Y6843508D01*
X2415513Y6771689D01*
X2408157Y6697000D01*
X2408157Y5497000D01*
X2415513Y5422311D01*
X2437299Y5350492D01*
X2472678Y5284304D01*
X2520289Y5226289D01*
X2578304Y5178678D01*
X2644492Y5143299D01*
X2716311Y5121513D01*
X2791000Y5114157D01*
X3691000Y5114157D01*
X3765689Y5121513D01*
X3837508Y5143299D01*
X3903696Y5178678D01*
X3961711Y5226289D01*
X4009322Y5284304D01*
X4044701Y5350492D01*
X4066487Y5422311D01*
X4073843Y5497000D01*
X4073843Y6697000D01*
X4066487Y6771689D01*
X4044701Y6843508D01*
X4009322Y6909696D01*
X3961711Y6967711D01*
X3924715Y6998072D01*
X4072502Y7145859D01*
X4190640Y7322665D01*
X4257000Y7482873D01*
X4257000Y5548000D01*
X4259440Y5523224D01*
X4266667Y5499399D01*
X4278403Y5477443D01*
X4294197Y5458197D01*
X4929197Y4823197D01*
X4948443Y4807403D01*
X4970399Y4795667D01*
X4994224Y4788440D01*
X5019000Y4786000D01*
X9108400Y4786000D01*
X9108400Y3386823D01*
X9106065Y3363118D01*
X9108400Y3339413D01*
X9108400Y3339412D01*
X9115383Y3268513D01*
X9142978Y3177542D01*
X9187791Y3093703D01*
X9248099Y3020217D01*
X9266518Y3005101D01*
X9390619Y2881000D01*
X2912606Y2881000D01*
X1971000Y3822606D01*
X1971000Y26323394D01*
X4581859Y28934253D01*
X4709640Y28959671D01*
X4833574Y29011006D01*
X4881457Y29043000D01*
X5156543Y29043000D01*
X5204426Y29011006D01*
G36*
X24890089Y2998027D02*
G01*
X24887753Y2974312D01*
X24896945Y2881000D01*
X10755617Y2881000D01*
X10073600Y3563017D01*
X10073600Y4786000D01*
X24890089Y4786000D01*
X24890089Y2998027D01*
X24890089Y2998027D01*
G37*
X24890089Y2998027D02*
X24887753Y2974312D01*
X24896945Y2881000D01*
X10755617Y2881000D01*
X10073600Y3563017D01*
X10073600Y4786000D01*
X24890089Y4786000D01*
X24890089Y2998027D01*
G36*
X28133000Y4225394D02*
G01*
X28133000Y3314606D01*
X27851794Y3033400D01*
X26732218Y3033400D01*
X26258499Y3507118D01*
X26258499Y4786000D01*
X27572394Y4786000D01*
X28133000Y4225394D01*
X28133000Y4225394D01*
G37*
X28133000Y4225394D02*
X28133000Y3314606D01*
X27851794Y3033400D01*
X26732218Y3033400D01*
X26258499Y3507118D01*
X26258499Y4786000D01*
X27572394Y4786000D01*
X28133000Y4225394D01*
G36*
X22623000Y37089540D02*
G01*
X22596508Y37103701D01*
X22524689Y37125487D01*
X22450000Y37132843D01*
X20850000Y37132843D01*
X20775311Y37125487D01*
X20703492Y37103701D01*
X20637304Y37068322D01*
X20579289Y37020711D01*
X20531678Y36962696D01*
X20496299Y36896508D01*
X20474513Y36824689D01*
X20467157Y36750000D01*
X20467157Y35614067D01*
X20389573Y35629500D01*
X20255427Y35629500D01*
X20123860Y35603329D01*
X19999926Y35551994D01*
X19888388Y35477467D01*
X19793533Y35382612D01*
X19719006Y35271074D01*
X19667671Y35147140D01*
X19641500Y35015573D01*
X19641500Y34881427D01*
X19667671Y34749860D01*
X19719006Y34625926D01*
X19793533Y34514388D01*
X19888388Y34419533D01*
X19904526Y34408750D01*
X19888388Y34397967D01*
X19793533Y34303112D01*
X19719006Y34191574D01*
X19667671Y34067640D01*
X19641500Y33936073D01*
X19641500Y33801927D01*
X19667671Y33670360D01*
X19719006Y33546426D01*
X19793533Y33434888D01*
X19888388Y33340033D01*
X19999926Y33265506D01*
X20123860Y33214171D01*
X20255427Y33188000D01*
X20389573Y33188000D01*
X20521140Y33214171D01*
X20645074Y33265506D01*
X20756612Y33340033D01*
X20789677Y33373098D01*
X20850000Y33367157D01*
X22450000Y33367157D01*
X22524689Y33374513D01*
X22596508Y33396299D01*
X22623000Y33410460D01*
X22623000Y29052606D01*
X22293447Y28723053D01*
X22277653Y28703807D01*
X22265917Y28681851D01*
X22258690Y28658026D01*
X22256250Y28633250D01*
X22258690Y28608474D01*
X22265917Y28584649D01*
X22277653Y28562693D01*
X22293447Y28543447D01*
X23217197Y27619697D01*
X23236443Y27603903D01*
X23258399Y27592167D01*
X23282224Y27584940D01*
X23307000Y27582500D01*
X25921394Y27582500D01*
X26037500Y27466394D01*
X26037500Y27005800D01*
X25915700Y26884000D01*
X24755843Y26884000D01*
X24755843Y26930000D01*
X24748487Y27004689D01*
X24726701Y27076508D01*
X24691322Y27142696D01*
X24643711Y27200711D01*
X24585696Y27248322D01*
X24519508Y27283701D01*
X24447689Y27305487D01*
X24373000Y27312843D01*
X23323000Y27312843D01*
X23248311Y27305487D01*
X23176492Y27283701D01*
X23110304Y27248322D01*
X23052289Y27200711D01*
X23004678Y27142696D01*
X22993406Y27121608D01*
X22946967Y27191110D01*
X22852112Y27285965D01*
X22740574Y27360492D01*
X22616640Y27411827D01*
X22485073Y27437998D01*
X22361108Y27437998D01*
X22055843Y27743263D01*
X22055843Y27880000D01*
X22048487Y27954689D01*
X22026701Y28026508D01*
X21991322Y28092696D01*
X21943711Y28150711D01*
X21885696Y28198322D01*
X21819508Y28233701D01*
X21747689Y28255487D01*
X21673000Y28262843D01*
X20623000Y28262843D01*
X20548311Y28255487D01*
X20476492Y28233701D01*
X20444362Y28216527D01*
X20394140Y28237329D01*
X20262573Y28263500D01*
X20128427Y28263500D01*
X19996860Y28237329D01*
X19872926Y28185994D01*
X19784635Y28127000D01*
X18970467Y28127000D01*
X18627000Y28405083D01*
X18627000Y37594000D01*
X22623000Y37594000D01*
X22623000Y37089540D01*
X22623000Y37089540D01*
G37*
X22623000Y37089540D02*
X22596508Y37103701D01*
X22524689Y37125487D01*
X22450000Y37132843D01*
X20850000Y37132843D01*
X20775311Y37125487D01*
X20703492Y37103701D01*
X20637304Y37068322D01*
X20579289Y37020711D01*
X20531678Y36962696D01*
X20496299Y36896508D01*
X20474513Y36824689D01*
X20467157Y36750000D01*
X20467157Y35614067D01*
X20389573Y35629500D01*
X20255427Y35629500D01*
X20123860Y35603329D01*
X19999926Y35551994D01*
X19888388Y35477467D01*
X19793533Y35382612D01*
X19719006Y35271074D01*
X19667671Y35147140D01*
X19641500Y35015573D01*
X19641500Y34881427D01*
X19667671Y34749860D01*
X19719006Y34625926D01*
X19793533Y34514388D01*
X19888388Y34419533D01*
X19904526Y34408750D01*
X19888388Y34397967D01*
X19793533Y34303112D01*
X19719006Y34191574D01*
X19667671Y34067640D01*
X19641500Y33936073D01*
X19641500Y33801927D01*
X19667671Y33670360D01*
X19719006Y33546426D01*
X19793533Y33434888D01*
X19888388Y33340033D01*
X19999926Y33265506D01*
X20123860Y33214171D01*
X20255427Y33188000D01*
X20389573Y33188000D01*
X20521140Y33214171D01*
X20645074Y33265506D01*
X20756612Y33340033D01*
X20789677Y33373098D01*
X20850000Y33367157D01*
X22450000Y33367157D01*
X22524689Y33374513D01*
X22596508Y33396299D01*
X22623000Y33410460D01*
X22623000Y29052606D01*
X22293447Y28723053D01*
X22277653Y28703807D01*
X22265917Y28681851D01*
X22258690Y28658026D01*
X22256250Y28633250D01*
X22258690Y28608474D01*
X22265917Y28584649D01*
X22277653Y28562693D01*
X22293447Y28543447D01*
X23217197Y27619697D01*
X23236443Y27603903D01*
X23258399Y27592167D01*
X23282224Y27584940D01*
X23307000Y27582500D01*
X25921394Y27582500D01*
X26037500Y27466394D01*
X26037500Y27005800D01*
X25915700Y26884000D01*
X24755843Y26884000D01*
X24755843Y26930000D01*
X24748487Y27004689D01*
X24726701Y27076508D01*
X24691322Y27142696D01*
X24643711Y27200711D01*
X24585696Y27248322D01*
X24519508Y27283701D01*
X24447689Y27305487D01*
X24373000Y27312843D01*
X23323000Y27312843D01*
X23248311Y27305487D01*
X23176492Y27283701D01*
X23110304Y27248322D01*
X23052289Y27200711D01*
X23004678Y27142696D01*
X22993406Y27121608D01*
X22946967Y27191110D01*
X22852112Y27285965D01*
X22740574Y27360492D01*
X22616640Y27411827D01*
X22485073Y27437998D01*
X22361108Y27437998D01*
X22055843Y27743263D01*
X22055843Y27880000D01*
X22048487Y27954689D01*
X22026701Y28026508D01*
X21991322Y28092696D01*
X21943711Y28150711D01*
X21885696Y28198322D01*
X21819508Y28233701D01*
X21747689Y28255487D01*
X21673000Y28262843D01*
X20623000Y28262843D01*
X20548311Y28255487D01*
X20476492Y28233701D01*
X20444362Y28216527D01*
X20394140Y28237329D01*
X20262573Y28263500D01*
X20128427Y28263500D01*
X19996860Y28237329D01*
X19872926Y28185994D01*
X19784635Y28127000D01*
X18970467Y28127000D01*
X18627000Y28405083D01*
X18627000Y37594000D01*
X22623000Y37594000D01*
X22623000Y37089540D01*
M02*
